G04 CAM350 V9.5.2 (Build 226) Date:  Wed Oct 05 09:55:23 2016 *
G04 Database: C:\new\NC1369\FINAL\bot lp.cam *
G04 Layer 1: 60.ger *
%FSLAX23Y23*%
%MOIN*%
%SFA1.000B1.000*%

%MIA0B0*%
%IPPOS*%
%ADD10C,0.00900*%
%ADD11C,0.00400*%
%LN60.ger*%
%LPD*%
G54D10*
X276Y200D02*
G01Y280D01*
X410Y200D02*
G01X276D01*
X410Y280D02*
G01X276D01*
X436Y226D02*
G01Y254D01*
Y259*
X434Y263*
X433Y267*
X430Y271*
X427Y274*
X423Y277*
X419Y278*
X415Y280*
X410*
Y200D02*
G01X415D01*
X419Y202*
X423Y203*
X427Y206*
X430Y209*
X433Y213*
X434Y217*
X436Y221*
Y226*
X133Y470D02*
G01X90Y491D01*
X133Y513*
X114Y531D02*
G01Y573D01*
X123*
X133Y564*
Y540*
X123Y531*
X99*
X90Y540*
Y564*
X99Y573*
X90Y592D02*
G01Y595D01*
X133*
Y592*
X126Y595D02*
G01X133Y601D01*
Y628*
X126Y634*
X120*
X90Y595D02*
G01Y598D01*
X96Y677D02*
G01Y683D01*
X90*
Y677*
X96*
X151D02*
G01Y683D01*
X145*
Y677*
X151*
X90Y728D02*
G01Y740D01*
Y734D02*
G01X163D01*
X157Y728*
X90Y792D02*
G01X93D01*
Y795*
X90*
Y792*
X99Y835D02*
G01X154D01*
X163Y844*
Y868*
X154Y877*
X99*
X90Y868*
Y844*
X99Y835*
X0Y0D02*
G01X2880D01*
X0Y2180D02*
G01Y0D01*
X415Y917D02*
G01X495D01*
X415Y783D02*
G01Y917D01*
X495Y783D02*
G01Y917D01*
X441Y757D02*
G01X469D01*
X474*
X478Y759*
X482Y760*
X486Y763*
X489Y766*
X492Y770*
X493Y774*
X495Y778*
Y783*
X415D02*
G01Y778D01*
X417Y774*
X418Y770*
X421Y766*
X424Y763*
X428Y760*
X432Y759*
X436Y757*
X441*
X273Y1535D02*
G01Y1615D01*
X407Y1535D02*
G01X273D01*
X407Y1615D02*
G01X273D01*
X433Y1561D02*
G01Y1589D01*
Y1594*
X431Y1598*
X430Y1602*
X427Y1606*
X424Y1609*
X420Y1612*
X416Y1613*
X412Y1615*
X407*
Y1535D02*
G01X412D01*
X416Y1537*
X420Y1538*
X424Y1541*
X427Y1544*
X430Y1548*
X431Y1552*
X433Y1556*
Y1561*
X455Y1358D02*
G01X375D01*
X455Y1492D02*
G01Y1358D01*
X375Y1492D02*
G01Y1358D01*
X429Y1518D02*
G01X401D01*
X396*
X392Y1516*
X388Y1515*
X384Y1512*
X381Y1509*
X378Y1505*
X377Y1501*
X375Y1497*
Y1492*
X455D02*
G01Y1497D01*
X453Y1501*
X452Y1505*
X449Y1509*
X446Y1512*
X442Y1515*
X438Y1516*
X434Y1518*
X429*
X448Y1535D02*
G01Y1615D01*
X582Y1535D02*
G01X448D01*
X582Y1615D02*
G01X448D01*
X608Y1561D02*
G01Y1589D01*
Y1594*
X606Y1598*
X605Y1602*
X602Y1606*
X599Y1609*
X595Y1612*
X591Y1613*
X587Y1615*
X582*
Y1535D02*
G01X587D01*
X591Y1537*
X595Y1538*
X599Y1541*
X602Y1544*
X605Y1548*
X606Y1552*
X608Y1556*
Y1561*
X267Y1595D02*
G01Y1515D01*
X133Y1595D02*
G01X267D01*
X133Y1515D02*
G01X267D01*
X107Y1569D02*
G01Y1541D01*
Y1536*
X109Y1532*
X110Y1528*
X113Y1524*
X116Y1521*
X120Y1518*
X124Y1517*
X128Y1515*
X133*
Y1595D02*
G01X128D01*
X124Y1593*
X120Y1592*
X116Y1589*
X113Y1586*
X110Y1582*
X109Y1578*
X107Y1574*
Y1569*
X350Y1378D02*
G01X200D01*
X350Y1498D02*
G01X190D01*
X350Y1378D02*
G01Y1498D01*
X190Y1388D02*
G01Y1498D01*
Y1388D02*
G01X200Y1378D01*
G54D11*
X282Y1380D02*
G01X258D01*
X259Y1384*
X281*
X279Y1387*
X261*
X265Y1390*
X275*
G54D10*
X240Y1193D02*
G01X160D01*
X240Y1327D02*
G01Y1193D01*
X160Y1327D02*
G01Y1193D01*
X214Y1353D02*
G01X186D01*
X181*
X177Y1351*
X173Y1350*
X169Y1347*
X166Y1344*
X163Y1340*
X162Y1336*
X160Y1332*
Y1327*
X240D02*
G01Y1332D01*
X238Y1336*
X237Y1340*
X234Y1344*
X231Y1347*
X227Y1350*
X223Y1351*
X219Y1353*
X214*
X1025Y1357D02*
G01X1033Y1350D01*
X1053*
X1060Y1357*
Y1402*
X1053Y1409*
X1033*
X1025Y1402*
X1011Y1385D02*
G01Y1355D01*
X1006Y1350*
X981*
X976Y1355*
Y1385*
X961Y1350D02*
G01X959D01*
Y1385*
X961*
X959Y1380D02*
G01X954Y1385D01*
X931*
X926Y1380*
Y1375*
X959Y1350D02*
G01X956D01*
X862Y1355D02*
G01Y1380D01*
X857Y1385*
X832*
X827Y1380*
Y1355*
X832Y1350*
X857*
X862Y1355*
X778Y1377D02*
G01X785Y1385D01*
X805*
X813Y1377*
Y1375*
X805Y1367*
X785*
X778Y1360*
X785Y1350*
X805*
X813Y1357*
X714Y1385D02*
G01X679D01*
X696Y1409D02*
G01Y1350D01*
X664Y1385D02*
G01Y1355D01*
X659Y1350*
X634*
X629Y1355*
Y1385*
Y1355D02*
G01Y1335D01*
Y1355D02*
G01Y1338D01*
X634Y1333*
X659*
X664Y1338*
X597Y1377D02*
G01X587D01*
X580Y1370D02*
G01Y1357D01*
X587Y1350*
X607*
X615Y1357*
Y1402*
X607Y1409*
X587*
X580Y1402*
X587Y1377D02*
G01X580D01*
Y1350*
X565Y1385D02*
G01Y1355D01*
X560Y1350*
X535*
X530Y1355*
Y1385*
Y1355D02*
G01Y1335D01*
Y1355D02*
G01Y1338D01*
X535Y1333*
X560*
X565Y1338*
X516Y1350D02*
G01Y1385D01*
Y1377D02*
G01X508Y1385D01*
X506*
X498Y1377*
Y1350*
Y1377D02*
G01X491Y1385D01*
X488*
X481Y1377*
Y1350*
X448Y1635D02*
G01Y1715D01*
X582Y1635D02*
G01X448D01*
X582Y1715D02*
G01X448D01*
X608Y1661D02*
G01Y1689D01*
Y1694*
X606Y1698*
X605Y1702*
X602Y1706*
X599Y1709*
X595Y1712*
X591Y1713*
X587Y1715*
X582*
Y1635D02*
G01X587D01*
X591Y1637*
X595Y1638*
X599Y1641*
X602Y1644*
X605Y1648*
X606Y1652*
X608Y1656*
Y1661*
G54D11*
X304Y1840D02*
G01X283Y1782D01*
X303Y1847D02*
G01X278Y1779D01*
X262Y1734D02*
G01X259Y1727D01*
X300Y1851D02*
G01X274Y1777D01*
X260Y1740D02*
G01X256Y1727D01*
X297Y1853D02*
G01X270Y1777D01*
X259Y1747D02*
G01X252Y1727D01*
X294Y1855D02*
G01X266Y1777D01*
X257Y1753D02*
G01X248Y1727D01*
X290Y1855D02*
G01X262Y1777D01*
X256Y1760D02*
G01X244Y1727D01*
X286Y1855D02*
G01X258Y1777D01*
X254Y1766D02*
G01X240Y1727D01*
X282Y1855D02*
G01X254Y1777D01*
X253Y1773D02*
G01X236Y1727D01*
X279Y1855D02*
G01X232Y1727D01*
X228*
X275Y1855*
X271*
X225Y1727*
X267Y1855D02*
G01X257Y1829D01*
X248Y1804D02*
G01X223Y1732D01*
X263Y1855D02*
G01X254Y1829D01*
X244Y1804D02*
G01X221Y1739D01*
X259Y1855D02*
G01X250Y1829D01*
X241Y1804D02*
G01X220Y1745D01*
X255Y1855D02*
G01X246Y1829D01*
X237Y1804D02*
G01X218Y1752D01*
X252Y1855D02*
G01X242Y1829D01*
X233Y1804D02*
G01X217Y1759D01*
X248Y1855D02*
G01X238Y1829D01*
X229Y1804D02*
G01X215Y1765D01*
X244Y1855D02*
G01X234Y1829D01*
X225Y1804D02*
G01X214Y1772D01*
X240Y1855D02*
G01X231Y1829D01*
X221Y1804D02*
G01X212Y1777D01*
X236Y1855D02*
G01X227Y1829D01*
X217Y1804D02*
G01X208Y1777D01*
X232Y1855D02*
G01X186Y1727D01*
X182*
X228Y1855*
X224*
X178Y1727*
X174*
X221Y1855*
X217*
X170Y1727*
X167*
X213Y1855*
X209*
X163Y1727*
X159*
X205Y1856*
X201*
X155Y1727*
X151*
X197Y1856*
X194*
X147Y1727*
X143*
X157Y1764*
X153*
X140Y1727*
X136*
X149Y1764*
X145*
X132Y1727*
X128*
X141Y1764*
X137*
X124Y1727*
X120*
X167Y1856*
X163*
X116Y1727*
X113*
X159Y1855*
X155*
X109Y1727*
X105*
X151Y1855*
X147*
X101Y1727*
X97Y1728*
X143Y1855*
X139*
X94Y1729*
X91Y1732*
X136Y1855*
X132*
X88Y1735*
X87Y1739*
X129Y1855*
G54D10*
X10Y2265D02*
G01Y2325D01*
X38*
X45Y2318*
Y2300*
X38Y2295*
X10*
X95Y2273D02*
G01X88Y2265D01*
X68*
X60Y2273*
Y2318*
X68Y2325*
X88*
X95Y2318*
X138Y2295D02*
G01X145Y2303D01*
Y2318D02*
G01X138Y2325D01*
X115D02*
G01Y2265D01*
X110D02*
G01X138D01*
X145Y2273*
Y2288*
X138Y2295*
X115*
X110Y2325D02*
G01X138D01*
X145Y2318D02*
G01Y2303D01*
X210Y2273D02*
G01X218Y2265D01*
X238*
X245Y2273*
Y2288*
X238Y2295*
X218*
X210Y2303*
Y2318*
X218Y2325*
X238*
X245Y2318*
X270Y2265D02*
G01X285D01*
X278D02*
G01Y2325D01*
X270D02*
G01X285D01*
X310D02*
G01X345D01*
X310Y2265*
X345*
X395D02*
G01X360D01*
Y2325*
X395*
X360Y2295D02*
G01X390D01*
X430Y2270D02*
G01X435D01*
Y2265*
X430*
Y2270*
Y2315D02*
G01X435D01*
Y2310*
X430*
Y2315*
X460Y2318D02*
G01X468Y2325D01*
X488*
X495Y2318*
Y2310*
X460Y2265D02*
G01X495D01*
X460Y2275D02*
G01X495Y2310D01*
X460Y2275D02*
G01Y2265D01*
X525D02*
G01Y2268D01*
X528*
Y2265*
X525*
X568Y2325D02*
G01X588D01*
X595Y2318*
Y2303*
X588Y2295*
X568*
X560Y2288*
Y2273*
X568Y2265*
X588*
X595Y2273*
Y2288*
X588Y2295*
X568D02*
G01X560Y2303D01*
Y2318*
X568Y2325*
X618D02*
G01X638D01*
X645Y2318*
Y2303*
X638Y2295*
X618*
X610Y2288*
Y2273*
X618Y2265*
X638*
X645Y2273*
Y2288*
X638Y2295*
X618D02*
G01X610Y2303D01*
Y2318*
X618Y2325*
X660Y2273D02*
G01Y2318D01*
X668Y2325*
X688*
X695Y2318*
Y2273*
X688Y2265*
X668*
X660Y2273*
X770Y2265D02*
G01X785D01*
X778D02*
G01Y2325D01*
X770D02*
G01X785D01*
X810Y2265D02*
G01Y2325D01*
X845Y2265*
Y2325*
X895Y2273D02*
G01X888Y2265D01*
X868*
X860Y2273*
Y2318*
X868Y2325*
X888*
X895Y2318*
X910Y2265D02*
G01Y2325D01*
Y2295D02*
G01X945D01*
Y2325D02*
G01Y2265D01*
X1010D02*
G01X1045Y2325D01*
X1010D02*
G01X1045Y2265D01*
X1110Y2318D02*
G01X1118Y2325D01*
X1138*
X1145Y2318*
Y2310*
X1110Y2265D02*
G01X1145D01*
X1110Y2275D02*
G01X1145Y2310D01*
X1110Y2275D02*
G01Y2265D01*
X1175D02*
G01Y2268D01*
X1178*
Y2265*
X1175*
X1223D02*
G01X1233D01*
X1228D02*
G01Y2325D01*
X1223Y2320*
X1268Y2325D02*
G01X1288D01*
X1295Y2318*
Y2303*
X1288Y2295*
X1268*
X1260Y2288*
Y2273*
X1268Y2265*
X1288*
X1295Y2273*
Y2288*
X1288Y2295*
X1268D02*
G01X1260Y2303D01*
Y2318*
X1268Y2325*
X1310Y2273D02*
G01Y2318D01*
X1318Y2325*
X1338*
X1345Y2318*
Y2273*
X1338Y2265*
X1318*
X1310Y2273*
X1420Y2265D02*
G01X1435D01*
X1428D02*
G01Y2325D01*
X1420D02*
G01X1435D01*
X1460Y2265D02*
G01Y2325D01*
X1495Y2265*
Y2325*
X1545Y2273D02*
G01X1538Y2265D01*
X1518*
X1510Y2273*
Y2318*
X1518Y2325*
X1538*
X1545Y2318*
X1560Y2265D02*
G01Y2325D01*
Y2295D02*
G01X1595D01*
Y2325D02*
G01Y2265D01*
X2880Y2180D02*
G01X0D01*
X44Y-123D02*
G01X54Y-113D01*
Y-94D02*
G01X44Y-85D01*
X16D02*
G01Y-160D01*
X10D02*
G01X44D01*
X54Y-151*
Y-132*
X44Y-123*
X16*
X10Y-85D02*
G01X44D01*
X54Y-94D02*
G01Y-113D01*
X73Y-151D02*
G01Y-94D01*
X82Y-85*
X107*
X116Y-94*
Y-151*
X107Y-160*
X82*
X73Y-151*
X157Y-160D02*
G01Y-85D01*
X135D02*
G01X179D01*
X219Y-160D02*
G01Y-85D01*
X198D02*
G01X241D01*
X260Y-151D02*
G01Y-94D01*
X269Y-85*
X294*
X304Y-94*
Y-151*
X294Y-160*
X269*
X260Y-151*
X323Y-160D02*
G01Y-85D01*
X344Y-129*
X366Y-85*
Y-160*
X491D02*
G01X448D01*
Y-85*
X510Y-160D02*
G01X532Y-85D01*
X554Y-160*
X519Y-129D02*
G01X544D01*
X573Y-85D02*
G01X594Y-123D01*
Y-160*
Y-123D02*
G01X616Y-85D01*
X679Y-160D02*
G01X635D01*
Y-85*
X679*
X635Y-123D02*
G01X673D01*
X698Y-160D02*
G01Y-85D01*
X732*
X741Y-94*
Y-116*
X732Y-123*
X698*
X723D02*
G01X741Y-160D01*
X866D02*
G01X823D01*
Y-85*
X929Y-160D02*
G01X885D01*
Y-85*
X929*
X885Y-123D02*
G01X923D01*
X969Y-126D02*
G01X982D01*
X991Y-135D02*
G01Y-151D01*
X982Y-160*
X957*
X948Y-151*
Y-94*
X957Y-85*
X982*
X991Y-94*
X982Y-126D02*
G01X991D01*
Y-160*
X1054D02*
G01X1010D01*
Y-85*
X1054*
X1010Y-123D02*
G01X1048D01*
X1073Y-160D02*
G01Y-85D01*
X1116Y-160*
Y-85*
X1157Y-160D02*
G01Y-85D01*
X1135D02*
G01X1179D01*
G54D11*
X948Y380D02*
G01X924Y354D01*
X914Y349*
X955Y392*
X958Y401D02*
G01X942Y384D01*
X921Y363D02*
G01X905Y345D01*
X960Y408D02*
G01X949Y397D01*
X908Y354D02*
G01X897Y343D01*
X961Y415D02*
G01X952Y405D01*
X899Y350D02*
G01X891Y341D01*
X962Y421D02*
G01X954Y413D01*
X892Y348D02*
G01X884Y340D01*
X962Y426D02*
G01X956Y419D01*
X886Y346D02*
G01X878Y339D01*
X962Y431D02*
G01X956Y425D01*
X880Y345D02*
G01X873Y339D01*
X962Y436D02*
G01X957Y431D01*
X874Y345D02*
G01X868Y339D01*
X961Y441D02*
G01X957Y436D01*
X869Y344D02*
G01X864Y339D01*
X961Y446D02*
G01X956Y441D01*
X864Y345D02*
G01X859Y340D01*
X960Y450D02*
G01X956Y446D01*
X891Y378D02*
G01X886Y373D01*
X859Y345D02*
G01X855Y340D01*
X959Y454D02*
G01X955Y450D01*
X896Y389D02*
G01X885Y377D01*
X855Y346D02*
G01X850Y341D01*
X958Y458D02*
G01X954Y454D01*
X932Y432D02*
G01X926Y425D01*
X922Y421D02*
G01X884Y381D01*
X850Y346D02*
G01X846Y342D01*
X956Y462D02*
G01X953Y458D01*
X932Y437D02*
G01X882Y385D01*
X846Y347D02*
G01X842Y343D01*
X955Y466D02*
G01X951Y462D01*
X932Y442D02*
G01X881Y389D01*
X842Y348D02*
G01X838Y344D01*
X953Y469D02*
G01X950Y466D01*
X931Y447D02*
G01X880Y393D01*
X839Y350D02*
G01X835Y346D01*
X951Y473D02*
G01X948Y470D01*
X931Y451D02*
G01X878Y396D01*
X835Y351D02*
G01X831Y347D01*
X950Y476D02*
G01X947Y473D01*
X931Y456D02*
G01X877Y400D01*
X832Y353D02*
G01X828Y349D01*
X948Y479D02*
G01X945Y476D01*
X930Y461D02*
G01X875Y403D01*
X828Y355D02*
G01X825Y351D01*
X946Y483D02*
G01X943Y479D01*
X930Y466D02*
G01X873Y407D01*
X834Y366D02*
G01X830Y362D01*
X944Y486D02*
G01X940Y482D01*
X930Y471D02*
G01X872Y410D01*
X834Y371D02*
G01X831Y368D01*
X827Y364D02*
G01X824Y361D01*
X941Y488D02*
G01X938Y485D01*
X929Y476D02*
G01X870Y414D01*
X833Y376D02*
G01X832Y374D01*
X822Y364D02*
G01X821Y363D01*
X939Y491D02*
G01X936Y488D01*
X889Y440D02*
G01X867Y417D01*
X831Y379D02*
G01X830Y378D01*
X820Y367D02*
G01X818Y365D01*
X936Y494D02*
G01X933Y491D01*
X887Y443D02*
G01X865Y420D01*
X828Y381D02*
G01X826Y379D01*
X934Y497D02*
G01X931Y493D01*
X885Y446D02*
G01X863Y423D01*
X837Y395D02*
G01X836Y394D01*
X823Y381D02*
G01X819Y376D01*
X812Y369D02*
G01X805Y362D01*
X931Y499D02*
G01X928Y496D01*
X883Y448D02*
G01X861Y426D01*
X837Y400D02*
G01X831Y394D01*
X811Y374D02*
G01X809Y371D01*
X801Y363D02*
G01X800Y362D01*
X928Y501D02*
G01X925Y498D01*
X880Y451D02*
G01X859Y429D01*
X837Y406D02*
G01X826Y394D01*
X809Y377D02*
G01X808Y376D01*
X797Y364D02*
G01X796Y363D01*
X926Y504D02*
G01X922Y500D01*
X878Y454D02*
G01X857Y432D01*
X837Y411D02*
G01X823Y397D01*
X795Y367D02*
G01X794Y366D01*
X923Y506D02*
G01X920Y503D01*
X875Y456D02*
G01X855Y435D01*
X837Y416D02*
G01X823Y402D01*
X803Y381D02*
G01X801Y379D01*
X796Y373D02*
G01X792Y370D01*
X785Y363D02*
G01Y362D01*
X919Y508D02*
G01X916Y505D01*
X873Y459D02*
G01X852Y438D01*
X837Y421D02*
G01X823Y407D01*
X798Y381D02*
G01X793Y375D01*
X785Y368D02*
G01X782Y365D01*
X916Y510D02*
G01X913Y507D01*
X870Y461D02*
G01X850Y440D01*
X837Y427D02*
G01X823Y412D01*
X785Y373D02*
G01X782Y370D01*
X913Y512D02*
G01X910Y508D01*
X867Y464D02*
G01X847Y443D01*
X837Y432D02*
G01X821Y415D01*
X811Y405D02*
G01X801Y395D01*
X785Y379D02*
G01X782Y375D01*
X772Y365D02*
G01X770Y362D01*
X910Y514D02*
G01X906Y510D01*
X865Y467D02*
G01X845Y446D01*
X837Y437D02*
G01X796Y395D01*
X772Y370D02*
G01X769Y367D01*
X907Y515D02*
G01X903Y511D01*
X862Y469D02*
G01X842Y448D01*
X837Y442D02*
G01X823Y428D01*
X817Y422D02*
G01X791Y395D01*
X777Y380D02*
G01X769Y372D01*
X903Y517D02*
G01X899Y513D01*
X860Y472D02*
G01X839Y450D01*
X832Y443D02*
G01X823Y434D01*
X812Y422D02*
G01X793Y402D01*
X773Y381D02*
G01X769Y377D01*
X759Y367D02*
G01X756Y364D01*
X748Y355D02*
G01X746Y353D01*
X899Y518D02*
G01X895Y514D01*
X857Y474D02*
G01X836Y453D01*
X827Y443D02*
G01X820Y435D01*
X808Y423D02*
G01X803Y418D01*
X759Y372D02*
G01X756Y369D01*
X748Y361D02*
G01X745Y357D01*
X895Y519D02*
G01X892Y515D01*
X854Y477D02*
G01X834Y455D01*
X822Y443D02*
G01X815Y435D01*
X806Y426D02*
G01X800Y420D01*
X785Y405D02*
G01X776Y395D01*
X762Y381D02*
G01X756Y374D01*
X748Y366D02*
G01X745Y363D01*
X891Y520D02*
G01X887Y516D01*
X852Y479D02*
G01X831Y457D01*
X817Y443D02*
G01X797Y422D01*
X786Y410D02*
G01X770Y394D01*
X748Y371D02*
G01X739Y361D01*
X887Y521D02*
G01X883Y517D01*
X849Y482D02*
G01X828Y460D01*
X812Y443D02*
G01X794Y425D01*
X786Y415D02*
G01X765Y394D01*
X748Y376D02*
G01X745Y373D01*
X736Y363D02*
G01X735Y362D01*
X882Y522D02*
G01X878Y517D01*
X846Y484D02*
G01X825Y462D01*
X807Y443D02*
G01X793Y429D01*
X784Y419D02*
G01X774Y408D01*
X766Y401D02*
G01X760Y394D01*
X747Y380D02*
G01X744Y377D01*
X733Y366D02*
G01X732Y365D01*
X878Y522D02*
G01X873Y517D01*
X843Y486D02*
G01X823Y464D01*
X801Y442D02*
G01X794Y434D01*
X782Y422D02*
G01X774Y414D01*
X761Y401D02*
G01X756Y396D01*
X733Y371D02*
G01X730Y368D01*
X873Y522D02*
G01X868Y517D01*
X841Y489D02*
G01X820Y467D01*
X779Y425D02*
G01X773Y418D01*
X759Y403D02*
G01X753Y397D01*
X737Y381D02*
G01X730Y373D01*
X723Y365D02*
G01X720Y362D01*
X868Y522D02*
G01X863Y517D01*
X838Y491D02*
G01X817Y469D01*
X776Y427D02*
G01X771Y422D01*
X758Y407D02*
G01X751Y400D01*
X723Y371D02*
G01X720Y368D01*
X863Y522D02*
G01X857Y516D01*
X835Y494D02*
G01X813Y471D01*
X785Y441D02*
G01X782Y438D01*
X773Y428D02*
G01X768Y423D01*
X758Y413D02*
G01X748Y403D01*
X723Y376D02*
G01X720Y373D01*
X711Y364D02*
G01X709Y362D01*
X857Y522D02*
G01X850Y514D01*
X833Y496D02*
G01X810Y473D01*
X786Y447D02*
G01X779Y440D01*
X768Y429D02*
G01X747Y406D01*
X722Y381D02*
G01X720Y378D01*
X711Y369D02*
G01X709Y367D01*
X851Y521D02*
G01X843Y512D01*
X830Y498D02*
G01X807Y475D01*
X787Y454D02*
G01X779Y446D01*
X764Y429D02*
G01X747Y411D01*
X736Y400D02*
G01X731Y395D01*
X722Y386D02*
G01X720Y383D01*
X711Y374D02*
G01X709Y372D01*
X701Y364D02*
G01X699Y362D01*
X845Y520D02*
G01X835Y509D01*
X827Y501D02*
G01X804Y477D01*
X791Y463D02*
G01X780Y452D01*
X758Y428D02*
G01X747Y417D01*
X736Y406D02*
G01X726Y395D01*
X711Y379D02*
G01X709Y377D01*
X700Y368D02*
G01X694Y362D01*
X838Y517D02*
G01X783Y460D01*
X736Y411D02*
G01X723Y397D01*
X697Y371D02*
G01Y370D01*
X829Y514D02*
G01X786Y468D01*
X736Y416D02*
G01X723Y403D01*
X709Y388D02*
G01X708Y387D01*
X699Y378D02*
G01X698Y377D01*
X694Y372D02*
G01X693D01*
X688Y366D02*
G01X684Y362D01*
X820Y509D02*
G01X792Y480D01*
X736Y421D02*
G01X723Y408D01*
X696Y380D02*
G01Y379D01*
X689Y372D02*
G01X684Y368D01*
X816Y511D02*
G01X791Y484D01*
X736Y427D02*
G01X723Y413D01*
X692Y381D02*
G01X684Y373D01*
X677Y365D02*
G01X674Y362D01*
X814Y513D02*
G01X787Y486D01*
X736Y432D02*
G01X720Y415D01*
X703Y397D02*
G01X700Y395D01*
X687Y381D02*
G01X684Y378D01*
X677Y370D02*
G01X674Y367D01*
X811Y515D02*
G01X784Y487D01*
X736Y437D02*
G01X715Y415D01*
X703Y403D02*
G01X695Y395D01*
X677Y375D02*
G01X674Y372D01*
X808Y518D02*
G01X780Y489D01*
X735Y442D02*
G01X723Y429D01*
X719Y424D02*
G01X710Y415D01*
X703Y408D02*
G01X690Y395D01*
X676Y380D02*
G01X673Y377D01*
X662Y365D02*
G01X660Y363D01*
X805Y520D02*
G01X777Y490D01*
X730Y442D02*
G01X723Y434D01*
X713Y424D02*
G01X690Y400D01*
X662Y371D02*
G01X660Y369D01*
X803Y523D02*
G01X773Y492D01*
X725Y442D02*
G01X723Y439D01*
X708Y424D02*
G01X690Y405D01*
X667Y381D02*
G01X660Y374D01*
X651Y364D02*
G01X648Y361D01*
X703Y424D02*
G01X690Y410D01*
X661Y380D02*
G01X660Y379D01*
X651Y370D02*
G01X644Y362D01*
X703Y429D02*
G01X690Y416D01*
X679Y404D02*
G01X670Y395D01*
X651Y375D02*
G01X648Y372D01*
X703Y434D02*
G01X690Y421D01*
X678Y409D02*
G01X664Y394D01*
X651Y380D02*
G01X648Y377D01*
X703Y440D02*
G01X690Y426D01*
X673Y409D02*
G01X659Y394D01*
X650Y385D02*
G01X644Y379D01*
X700Y442D02*
G01X690Y431D01*
X668Y409D02*
G01X654Y394D01*
X695Y442D02*
G01X690Y437D01*
X656Y401D02*
G01X649Y394D01*
X677Y429D02*
G01X666Y417D01*
X651Y402D02*
G01X646Y396D01*
X677Y433D02*
G01X660Y416D01*
X649Y404D02*
G01X643Y398D01*
X640Y400D02*
G01X675Y436D01*
X672Y439D02*
G01X666Y432D01*
X660Y426D02*
G01X638Y403D01*
X669Y441D02*
G01X664Y436D01*
X654Y425D02*
G01X637Y407D01*
X666Y443D02*
G01X661Y437D01*
X647Y423D02*
G01X636Y412D01*
X649Y431D02*
G01X661Y443D01*
X656*
X644Y431*
X639*
X651Y443*
X646*
X638Y434*
G54D10*
X1380Y530D02*
G01Y598D01*
Y564D02*
G01X1341D01*
Y598D02*
G01Y530D01*
X1324Y564D02*
G01X1318Y569D01*
X1290*
X1284Y564*
Y530*
Y536D02*
G01X1290Y530D01*
X1318*
X1324Y536*
Y547*
X1318Y553*
X1290*
X1284Y547*
X1268Y530D02*
G01X1265D01*
Y569*
X1268*
X1265Y564D02*
G01X1259Y569D01*
X1234*
X1228Y564*
Y558*
X1265Y530D02*
G01X1262D01*
X1172Y598D02*
G01Y530D01*
Y536D02*
G01X1178Y530D01*
X1206*
X1211Y536*
Y564*
X1206Y569*
X1178*
X1172Y564*
X1155Y569D02*
G01X1147Y530D01*
X1135Y569*
X1124Y530*
X1116Y569*
X1099Y564D02*
G01X1093Y569D01*
X1065*
X1059Y564*
Y530*
Y536D02*
G01X1065Y530D01*
X1093*
X1099Y536*
Y547*
X1093Y553*
X1065*
X1059Y547*
X1043Y530D02*
G01X1040D01*
Y569*
X1043*
X1040Y564D02*
G01X1034Y569D01*
X1009*
X1003Y564*
Y558*
X1040Y530D02*
G01X1037D01*
X986Y553D02*
G01X947D01*
Y561*
X955Y569*
X978*
X986Y561*
Y538*
X978Y530*
X955*
X947Y538*
X881Y967D02*
G01X961D01*
X881Y833D02*
G01Y967D01*
X961Y833D02*
G01Y967D01*
X907Y807D02*
G01X935D01*
X940*
X944Y809*
X948Y810*
X952Y813*
X955Y816*
X958Y820*
X959Y824*
X961Y828*
Y833*
X881D02*
G01Y828D01*
X883Y824*
X884Y820*
X887Y816*
X890Y813*
X894Y810*
X898Y809*
X902Y807*
X907*
X1480Y628D02*
G01Y679D01*
X1472Y688*
X1449*
X1441Y679*
Y628*
X1449Y620*
X1472*
X1480Y628*
X1424Y659D02*
G01Y600D01*
Y654D02*
G01X1418Y659D01*
X1390*
X1384Y654*
Y626*
X1390Y620*
X1418*
X1424Y626*
X1368Y643D02*
G01X1328D01*
Y651*
X1337Y659*
X1359*
X1368Y651*
Y628*
X1359Y620*
X1337*
X1328Y628*
X1311Y620D02*
G01X1308D01*
Y659*
Y654D02*
G01X1303Y659D01*
X1308Y620D02*
G01X1306D01*
X1280Y659D02*
G01X1275Y654D01*
Y620*
X1278D02*
G01X1272D01*
X1303Y659D02*
G01X1280D01*
X1311D02*
G01X1308D01*
X1199Y628D02*
G01X1190Y620D01*
X1168*
X1159Y628*
Y645*
X1168Y654*
X1190*
X1199Y662*
Y679*
X1190Y688*
X1168*
X1159Y679*
X1143Y626D02*
G01Y654D01*
X1137Y659*
X1109*
X1103Y654*
Y626*
X1109Y620*
X1137*
X1143Y626*
X1086Y659D02*
G01Y626D01*
X1081Y620*
X1053*
X1047Y626*
Y659*
X1030Y620D02*
G01X1027D01*
Y659*
X1030*
X1027Y654D02*
G01X1022Y659D01*
X996*
X991Y654*
Y648*
X1027Y620D02*
G01X1024D01*
X934Y626D02*
G01X940Y620D01*
X968*
X974Y626*
Y654*
X968Y659*
X940*
X934Y654*
X918Y643D02*
G01X878D01*
Y651*
X887Y659*
X909*
X918Y651*
Y628*
X909Y620*
X887*
X878Y628*
X1640Y1963D02*
G01Y1900D01*
Y1905D02*
G01X1646Y1900D01*
X1672*
X1677Y1905*
Y1932*
X1672Y1937*
X1646*
X1640Y1932*
X1614Y1900D02*
G01X1598D01*
X1606D02*
G01Y1963D01*
X1614D02*
G01X1598D01*
X1572Y1905D02*
G01Y1932D01*
X1567Y1937*
X1540*
X1535Y1932*
Y1905*
X1540Y1900*
X1567*
X1572Y1905*
X1501Y1900D02*
G01Y1963D01*
X1519D02*
G01X1482D01*
X1466Y1937D02*
G01X1459Y1900D01*
X1448Y1937*
X1437Y1900*
X1430Y1937*
X1414Y1932D02*
G01X1408Y1937D01*
X1382*
X1377Y1932*
Y1900*
Y1905D02*
G01X1382Y1900D01*
X1408*
X1414Y1905*
Y1916*
X1408Y1921*
X1382*
X1377Y1916*
X1361Y1900D02*
G01X1358D01*
Y1937*
X1361*
X1358Y1932D02*
G01X1353Y1937D01*
X1329*
X1324Y1932*
Y1926*
X1358Y1900D02*
G01X1356D01*
X1308Y1921D02*
G01X1271D01*
Y1929*
X1279Y1937*
X1300*
X1308Y1929*
Y1908*
X1300Y1900*
X1279*
X1271Y1908*
X1166Y1929D02*
G01X1174Y1937D01*
X1195*
X1203Y1929*
Y1926*
X1195Y1918*
X1174*
X1166Y1911*
X1174Y1900*
X1195*
X1203Y1908*
X1150Y1900D02*
G01Y1963D01*
Y1932D02*
G01X1145Y1937D01*
X1119*
X1113Y1932*
Y1900*
X1045Y1921D02*
G01X1008D01*
Y1929*
X1016Y1937*
X1037*
X1045Y1929*
Y1908*
X1037Y1900*
X1016*
X1008Y1908*
X979Y1900D02*
G01X968D01*
X974D02*
G01Y1963D01*
X979*
X902D02*
G01Y1900D01*
Y1905D02*
G01X908Y1900D01*
X934*
X939Y1905*
Y1932*
X934Y1937*
X908*
X902Y1932*
X1047Y335D02*
G01Y415D01*
X1181Y335D02*
G01X1047D01*
X1181Y415D02*
G01X1047D01*
X1207Y361D02*
G01Y389D01*
Y394*
X1205Y398*
X1204Y402*
X1201Y406*
X1198Y409*
X1194Y412*
X1190Y413*
X1186Y415*
X1181*
Y335D02*
G01X1186D01*
X1190Y337*
X1194Y338*
X1198Y341*
X1201Y344*
X1204Y348*
X1205Y352*
X1207Y356*
Y361*
X1566Y759D02*
G01X1496Y799D01*
X1633Y875D02*
G01X1566Y759D01*
X1563Y915D02*
G01X1496Y799D01*
X1623Y911D02*
G01X1599Y925D01*
Y925D02*
G01X1595Y927D01*
X1590Y928*
X1586*
X1581*
X1577Y927*
X1573Y925*
X1569Y922*
X1566Y919*
X1563Y915*
X1633Y875D02*
G01X1635Y879D01*
X1636Y884*
Y888*
Y893*
X1635Y897*
X1633Y901*
X1630Y905*
X1627Y908*
X1623Y911*
X1420Y877D02*
G01X1380Y947D01*
X1536Y944D02*
G01X1420Y877D01*
X1496Y1014D02*
G01X1380Y947D01*
X1545Y980D02*
G01X1531Y1004D01*
Y1004D02*
G01X1529Y1008D01*
X1525Y1011*
X1522Y1014*
X1518Y1016*
X1513Y1017*
X1509*
X1504*
X1500Y1016*
X1496Y1014*
X1536Y944D02*
G01X1539Y947D01*
X1543Y950*
X1545Y954*
X1547Y958*
X1548Y962*
X1549Y967*
X1548Y971*
X1547Y976*
X1545Y980*
G54D11*
X1262Y890D02*
G01X1263Y887D01*
X1255Y896D02*
G01X1260Y884D01*
X1284Y829D02*
G01X1288Y818D01*
X1248Y903D02*
G01X1258Y880D01*
X1279Y830D02*
G01X1288Y809D01*
X1242Y909D02*
G01X1255Y876D01*
X1275Y831D02*
G01X1288Y800D01*
X1238Y907D02*
G01X1253Y873D01*
X1271Y832D02*
G01X1285Y798D01*
X1235Y905D02*
G01X1251Y869D01*
X1266Y832D02*
G01X1281Y797D01*
X1232Y903D02*
G01X1248Y866D01*
X1262Y833D02*
G01X1278Y796D01*
X1229Y901D02*
G01X1246Y862D01*
X1258Y834D02*
G01X1274Y795D01*
X1226Y899D02*
G01X1270Y795D01*
X1267Y794*
X1223Y897*
X1220Y895*
X1263Y793*
X1259*
X1217Y893*
X1214Y891*
X1256Y792*
X1254Y787*
X1209Y892*
X1204Y894*
X1252Y782*
X1250Y777*
X1200Y896*
X1180Y933D02*
G01X1186Y920D01*
X1195Y898D02*
G01X1249Y772D01*
X1260Y745D02*
G01X1263Y739D01*
X1176Y933D02*
G01X1247Y767D01*
X1249Y761D02*
G01X1260Y736D01*
X1172Y933D02*
G01X1257Y733D01*
X1254Y731*
X1168Y933*
X1164*
X1251Y728*
X1249Y725*
X1160Y933*
X1156*
X1246Y722*
X1152Y933D02*
G01X1196Y830D01*
X1200Y821D02*
G01X1243Y719D01*
X1150Y930D02*
G01X1188Y841D01*
X1201Y808D02*
G01X1240Y717D01*
X1148Y924D02*
G01X1182Y845D01*
X1200Y802D02*
G01X1235Y720D01*
X1147Y917D02*
G01X1177Y847D01*
X1198Y797D02*
G01X1229Y724D01*
X1146Y911D02*
G01X1173Y848D01*
X1196Y793D02*
G01X1224Y727D01*
X1145Y905D02*
G01X1168Y849D01*
X1194Y789D02*
G01X1218Y731D01*
X1143Y900D02*
G01X1164Y849D01*
X1191Y786D02*
G01X1213Y734D01*
X1140Y898D02*
G01X1161Y849D01*
X1188Y784D02*
G01X1210Y732D01*
X1136Y897D02*
G01X1157Y848D01*
X1185Y782D02*
G01X1207Y730D01*
X1133Y896D02*
G01X1154Y847D01*
X1182Y780D02*
G01X1204Y729D01*
X1150Y845D02*
G01X1129Y894D01*
X1126Y893*
X1147Y844*
X1144Y841*
X1123Y891*
X1118Y892*
X1141Y839*
X1139Y836*
X1113Y896*
X1107Y900*
X1136Y832*
X1134Y828*
X1102Y903*
X1096Y907D02*
G01X1132Y822D01*
X1150Y781D02*
G01X1151Y778D01*
X1092Y909D02*
G01X1131Y816D01*
X1144Y786D02*
G01X1149Y774D01*
X1089Y906D02*
G01X1147Y769D01*
X1145Y764*
X1086Y903*
X1083Y900*
X1143Y759*
X1141Y755*
X1081Y898*
X1078Y895*
X1139Y750*
X1137Y745*
X1075Y892*
X1072Y889D02*
G01X1081Y869D01*
X1086Y856D02*
G01X1135Y740D01*
X1069Y887D02*
G01X1070Y885D01*
X1084Y851D02*
G01X1133Y736D01*
X1082Y847D02*
G01X1132Y731D01*
X1129Y728*
X1081Y842*
X1079Y837*
X1124Y731*
X1119Y733*
X1076Y834*
X1072Y833*
X1115Y733*
X1112Y731*
X1069Y832*
X1065*
X1109Y729*
X1106Y727*
X1061Y831*
X1058Y830D02*
G01X1074Y792D01*
X1086Y763D02*
G01X1103Y724D01*
X1054Y830D02*
G01X1070Y793D01*
X1084Y759D02*
G01X1100Y722D01*
X1050Y829D02*
G01X1065Y794D01*
X1082Y756D02*
G01X1097Y720D01*
X1047Y828D02*
G01X1061Y795D01*
X1079Y752D02*
G01X1093Y718D01*
X1045Y824D02*
G01X1057Y795D01*
X1077Y748D02*
G01X1090Y718D01*
X1045Y815D02*
G01X1052Y796D01*
X1074Y745D02*
G01X1083Y725D01*
X1045Y805D02*
G01X1048Y797D01*
X1072Y741D02*
G01X1076Y732D01*
X1045Y799D02*
G01Y798D01*
X1070Y739D02*
G01X1071Y737D01*
G54D10*
X1353Y1050D02*
G01Y1130D01*
X1487Y1050D02*
G01X1353D01*
X1487Y1130D02*
G01X1353D01*
X1513Y1076D02*
G01Y1104D01*
Y1109*
X1511Y1113*
X1510Y1117*
X1507Y1121*
X1504Y1124*
X1500Y1127*
X1496Y1128*
X1492Y1130*
X1487*
Y1050D02*
G01X1492D01*
X1496Y1052*
X1500Y1053*
X1504Y1056*
X1507Y1059*
X1510Y1063*
X1511Y1067*
X1513Y1071*
Y1076*
X1380Y1233D02*
G01X1420Y1303D01*
X1496Y1166D02*
G01X1380Y1233D01*
X1536Y1236D02*
G01X1420Y1303D01*
X1531Y1176D02*
G01X1545Y1200D01*
Y1200D02*
G01X1547Y1204D01*
X1548Y1209*
X1549Y1213*
X1548Y1218*
X1547Y1222*
X1545Y1226*
X1543Y1230*
X1539Y1233*
X1536Y1236*
X1496Y1166D02*
G01X1500Y1164D01*
X1504Y1163*
X1509*
X1513*
X1518Y1164*
X1522Y1166*
X1525Y1169*
X1529Y1172*
X1531Y1176*
X1496Y1379D02*
G01X1566Y1419D01*
X1563Y1263D02*
G01X1496Y1379D01*
X1633Y1303D02*
G01X1566Y1419D01*
X1599Y1254D02*
G01X1623Y1268D01*
Y1268D02*
G01X1627Y1270D01*
X1630Y1274*
X1633Y1277*
X1635Y1281*
X1636Y1286*
Y1290*
Y1295*
X1635Y1299*
X1633Y1303*
X1563Y1263D02*
G01X1566Y1260D01*
X1569Y1256*
X1573Y1254*
X1577Y1252*
X1581Y1251*
X1586Y1250*
X1590Y1251*
X1595Y1252*
X1599Y1254*
X1275Y-94D02*
G01X1284Y-85D01*
X1309*
X1319Y-94*
Y-104*
X1275Y-160D02*
G01X1319D01*
X1275Y-148D02*
G01X1319Y-104D01*
X1275Y-148D02*
G01Y-160D01*
X1381D02*
G01X1338D01*
Y-85*
X1400Y-160D02*
G01X1422Y-85D01*
X1444Y-160*
X1409Y-129D02*
G01X1434D01*
X1463Y-85D02*
G01X1484Y-123D01*
Y-160*
Y-123D02*
G01X1506Y-85D01*
X1569Y-160D02*
G01X1525D01*
Y-85*
X1569*
X1525Y-123D02*
G01X1563D01*
X1588Y-160D02*
G01Y-85D01*
X1622*
X1631Y-94*
Y-116*
X1622Y-123*
X1588*
X1613D02*
G01X1631Y-160D01*
X1389Y-244D02*
G01X1401D01*
X1395Y-229D02*
G01X1396Y-231D01*
X1398Y-232*
X1400Y-231*
X1401Y-229*
X1400Y-226*
X1398*
X1396*
X1395Y-229*
X1389Y-244D02*
G01Y-250D01*
X1395*
Y-274*
X1389*
Y-280*
X1407*
Y-274*
X1401*
Y-244*
G54D11*
X1405Y-278D02*
G01Y-276D01*
X1402*
Y-278*
X1398D02*
G01Y-246D01*
Y-230D02*
G01Y-228D01*
X1394Y-278D02*
G01Y-276D01*
Y-248D02*
G01Y-246D01*
X1391Y-278D02*
G01Y-276D01*
Y-248D02*
G01Y-246D01*
G54D10*
X1459Y-244D02*
G01X1455D01*
X1452Y-245*
X1450Y-246*
X1447Y-248*
X1445Y-250*
X1443Y-253*
X1442Y-256*
X1441Y-259*
Y-262*
Y-265*
X1442Y-268*
X1443Y-271*
X1445Y-274*
X1447Y-276*
X1450Y-278*
X1452Y-279*
X1455Y-280*
X1459*
Y-244D02*
G01X1465D01*
X1459Y-280D02*
G01X1466D01*
X1483D02*
G01Y-226D01*
Y-280D02*
G01X1477D01*
Y-226D02*
G01X1483D01*
X1465Y-274D02*
G01X1467D01*
X1469Y-273*
X1471Y-272*
X1472Y-271*
X1474Y-270*
X1475Y-268*
X1476Y-266*
X1477Y-264*
Y-262*
Y-260*
X1476Y-258*
X1475Y-256*
X1474Y-254*
X1472Y-253*
X1471Y-251*
X1469Y-250*
X1467*
X1465*
X1459D02*
G01X1457D01*
X1455*
X1453Y-251*
X1451Y-253*
X1449Y-254*
X1448Y-256*
X1447Y-258*
Y-260*
Y-262*
Y-264*
Y-266*
X1448Y-268*
X1449Y-270*
X1451Y-271*
X1453Y-272*
X1455Y-273*
X1457Y-274*
X1459*
X1465Y-250D02*
G01X1459D01*
Y-274D02*
G01X1465D01*
X1466Y-280D02*
G01X1469D01*
X1472Y-279*
X1474Y-277*
X1477Y-276*
Y-248D02*
G01X1474Y-246D01*
X1471Y-245*
X1468Y-244*
X1465*
X1477Y-275D02*
G01Y-280D01*
Y-248D02*
G01Y-226D01*
G54D11*
X1481Y-278D02*
G01Y-228D01*
X1477*
Y-278*
X1474Y-276D02*
G01Y-272D01*
Y-252D02*
G01Y-248D01*
X1470Y-277D02*
G01Y-275D01*
Y-249D02*
G01Y-246D01*
X1466Y-278D02*
G01Y-276D01*
Y-248D02*
G01Y-246D01*
X1463Y-278D02*
G01Y-276D01*
Y-248D02*
G01Y-246D01*
X1459Y-278D02*
G01Y-276D01*
Y-248D02*
G01Y-246D01*
X1455Y-278D02*
G01Y-276D01*
Y-248D02*
G01Y-246D01*
X1452Y-277D02*
G01Y-274D01*
Y-250D02*
G01Y-247D01*
X1448Y-275D02*
G01Y-270D01*
Y-254D02*
G01Y-249D01*
X1444Y-271D02*
G01Y-253D01*
X1443Y-256*
Y-268*
G54D10*
X1510Y-280D02*
G01Y-274D01*
X1519*
Y-232*
X1510*
Y-226*
X1534*
Y-232*
X1525*
Y-274*
X1534*
Y-280*
X1510*
G54D11*
X1532Y-278D02*
G01Y-276D01*
Y-230D02*
G01Y-228D01*
X1529Y-278D02*
G01Y-276D01*
Y-230D02*
G01Y-228D01*
X1525Y-278D02*
G01Y-228D01*
X1521*
Y-278*
X1518D02*
G01Y-276D01*
Y-230D02*
G01Y-228D01*
X1514Y-278D02*
G01Y-276D01*
Y-230D02*
G01Y-228D01*
X1512Y-278D02*
G01Y-276D01*
Y-230D02*
G01Y-228D01*
G54D10*
X1580Y-244D02*
G01X1576D01*
X1573Y-245*
X1571Y-246*
X1568Y-248*
X1566Y-250*
X1564Y-253*
X1563Y-256*
X1562Y-259*
Y-262*
Y-265*
X1563Y-268*
X1564Y-271*
X1566Y-274*
X1568Y-276*
X1571Y-278*
X1573Y-279*
X1576Y-280*
X1580*
X1586D02*
G01X1589D01*
X1592Y-279*
X1595Y-278*
X1597Y-276*
X1600Y-274*
X1601Y-271*
X1603Y-268*
X1604Y-265*
Y-262*
Y-259*
X1603Y-256*
X1601Y-253*
X1600Y-250*
X1597Y-248*
X1595Y-246*
X1592Y-245*
X1589Y-244*
X1586*
X1580D02*
G01X1586D01*
X1580Y-280D02*
G01X1586D01*
X1580Y-250D02*
G01X1578D01*
X1576*
X1574Y-251*
X1572Y-253*
X1570Y-254*
X1569Y-256*
X1568Y-258*
Y-260*
Y-262*
Y-264*
Y-266*
X1569Y-268*
X1570Y-270*
X1572Y-271*
X1574Y-272*
X1576Y-273*
X1578Y-274*
X1580*
X1586D02*
G01X1588D01*
X1590Y-273*
X1592Y-272*
X1593Y-271*
X1595Y-270*
X1596Y-268*
X1597Y-266*
X1598Y-264*
Y-262*
Y-260*
X1597Y-258*
X1596Y-256*
X1595Y-254*
X1593Y-253*
X1592Y-251*
X1590Y-250*
X1588*
X1586*
Y-250D02*
G01X1580D01*
Y-274D02*
G01X1586D01*
G54D11*
X1573Y-278D02*
G01X1592D01*
X1597Y-274*
X1569*
X1566Y-271D02*
G01X1569D01*
X1596D02*
G01X1600D01*
X1564Y-267D02*
G01X1567D01*
X1599D02*
G01X1601D01*
X1564Y-263D02*
G01X1566D01*
X1600D02*
G01X1602D01*
X1564Y-260D02*
G01X1566D01*
X1600D02*
G01X1602D01*
X1564Y-256D02*
G01X1567D01*
X1598D02*
G01X1601D01*
X1566Y-253D02*
G01X1570D01*
X1595D02*
G01X1599D01*
X1569Y-249D02*
G01X1596D01*
X1592Y-246*
X1573*
G54D10*
X1622Y-232D02*
G01Y-226D01*
X1664*
Y-232*
X1646*
Y-280*
X1640*
Y-232*
X1622*
G54D11*
X1624Y-228D02*
G01Y-230D01*
X1628*
Y-228*
X1631*
Y-230*
X1635*
Y-228*
X1639*
Y-230*
X1642Y-278*
Y-228*
X1646*
Y-278*
X1649Y-230*
Y-228*
X1653*
Y-230*
X1657*
Y-228*
X1660*
Y-230*
X1662*
Y-228*
G54D10*
X1683Y-244D02*
G01X1693Y-280D01*
X1714D02*
G01X1725Y-244D01*
X1683D02*
G01X1689D01*
X1695Y-264*
X1701Y-244*
X1707*
X1713Y-264*
X1714Y-280D02*
G01X1711D01*
X1704Y-254*
X1693Y-280D02*
G01X1696D01*
X1704Y-254*
X1725Y-244D02*
G01X1719D01*
X1713Y-264*
G54D11*
X1685Y-246D02*
G01X1695Y-278D01*
X1697Y-273*
X1689Y-246*
X1697Y-260*
X1699Y-267*
X1701Y-260*
X1699Y-254*
X1701Y-247*
X1703Y-254*
X1714Y-278*
X1704Y-246*
X1714Y-265*
X1716Y-272*
X1717Y-265*
X1716Y-259*
X1717Y-252*
X1719Y-259*
X1721Y-252*
X1719Y-246*
X1723*
G54D10*
X1779Y-256D02*
G01Y-271D01*
X1767Y-244D02*
G01X1749D01*
X1755Y-280D02*
G01X1767D01*
X1768Y-256D02*
G01X1755D01*
X1749Y-244D02*
G01Y-250D01*
X1768*
X1774Y-256D02*
G01X1772Y-252D01*
X1768Y-250*
X1779Y-271D02*
G01X1781Y-275D01*
X1785Y-277*
Y-280D02*
G01Y-277D01*
X1768Y-274D02*
G01X1772Y-272D01*
X1774Y-268*
X1772Y-264*
X1768Y-262*
X1756D02*
G01X1752Y-264D01*
X1750Y-268*
X1752Y-272*
X1756Y-274*
Y-274D02*
G01X1768D01*
X1756Y-262D02*
G01X1768D01*
X1774Y-258D02*
G01X1772Y-257D01*
X1770Y-256*
X1768*
X1774Y-258D02*
G01Y-256D01*
X1767Y-280D02*
G01X1769D01*
X1772Y-279*
X1774Y-278*
X1776Y-277*
Y-277D02*
G01X1779Y-279D01*
X1782Y-280*
X1785*
X1755Y-256D02*
G01X1753D01*
X1751Y-257*
X1749*
X1747Y-259*
X1746Y-260*
X1745Y-262*
X1744Y-264*
X1743Y-266*
Y-268*
Y-270*
X1744Y-272*
X1745Y-274*
X1746Y-276*
X1747Y-277*
X1749Y-278*
X1751Y-279*
X1753Y-280*
X1755*
X1779Y-256D02*
G01Y-254D01*
Y-252*
X1778Y-250*
X1776Y-248*
X1775Y-247*
X1773Y-245*
X1771Y-244*
X1769*
X1767*
G54D11*
X1751Y-278D02*
G01X1772D01*
X1779D02*
G01X1783D01*
X1778Y-274D02*
G01X1747D01*
X1745Y-271D02*
G01X1749D01*
X1775D02*
G01X1777D01*
X1745Y-267D02*
G01X1748D01*
X1776D02*
G01X1777D01*
X1746Y-264D02*
G01X1750D01*
X1774D02*
G01X1777D01*
Y-260D02*
G01X1748D01*
X1754Y-256D02*
G01X1768D01*
X1776D02*
G01X1777D01*
Y-253D02*
G01X1775D01*
X1751Y-249*
X1775*
X1772Y-246*
X1751*
G54D10*
X1804Y-280D02*
G01Y-244D01*
X1840Y-256D02*
G01Y-254D01*
X1839Y-252*
X1838Y-250*
X1837Y-248*
X1835Y-247*
X1834Y-245*
X1832Y-244*
X1830*
X1828*
X1816D02*
G01X1813D01*
X1811*
X1810Y-245*
X1816Y-244D02*
G01X1828D01*
X1840Y-256D02*
G01X1834D01*
Y-256D02*
G01X1832Y-252D01*
X1828Y-250*
Y-250D02*
G01X1816D01*
Y-250D02*
G01X1811Y-252D01*
X1810Y-256*
Y-256D02*
G01Y-280D01*
X1804Y-244D02*
G01X1810D01*
Y-245*
Y-280D02*
G01X1804D01*
G54D11*
X1838Y-254D02*
G01Y-251D01*
X1834Y-248*
Y-254*
X1831Y-248*
Y-246*
X1827*
Y-248*
X1823*
Y-246*
X1820*
Y-248*
X1816*
Y-246*
X1812*
Y-249*
X1809Y-278*
Y-246*
X1806*
Y-278*
G54D10*
X1882Y-244D02*
G01X1879D01*
X1876Y-245*
X1873Y-246*
X1870Y-248*
X1868Y-250*
X1866Y-253*
X1865Y-256*
X1864Y-259*
Y-262*
Y-265*
X1865Y-268*
X1866Y-271*
X1868Y-274*
X1870Y-276*
X1873Y-278*
X1876Y-279*
X1879Y-280*
X1882*
X1906Y-262D02*
G01Y-259D01*
X1905Y-256*
X1904Y-253*
X1902Y-250*
X1900Y-248*
X1897Y-246*
X1894Y-245*
X1891Y-244*
X1888*
Y-244D02*
G01X1882D01*
G54D11*
X1894Y-246D02*
G01X1876D01*
X1871Y-249*
X1899*
X1902Y-253D02*
G01X1899D01*
X1872D02*
G01X1868D01*
X1904Y-257D02*
G01X1901D01*
X1869D02*
G01X1867D01*
X1904Y-260D02*
G01X1866D01*
Y-264*
X1904*
X1869Y-268*
X1867*
X1902Y-271D02*
G01X1898D01*
X1872D02*
G01X1869D01*
X1899Y-275D02*
G01X1871D01*
X1876Y-278*
X1894*
G54D10*
X1888Y-274D02*
G01X1890D01*
X1892Y-273*
X1894Y-272*
X1896Y-271*
X1888Y-280D02*
G01X1891D01*
X1894Y-279*
X1897Y-278*
X1900Y-276*
X1902Y-274*
X1904Y-271*
Y-271D02*
G01X1896D01*
X1882Y-280D02*
G01X1888D01*
X1882Y-274D02*
G01X1888D01*
X1900Y-259D02*
G01X1870D01*
X1882Y-250D02*
G01X1880D01*
X1878*
X1876Y-251*
X1875Y-252*
X1873Y-254*
X1872Y-255*
X1871Y-257*
X1870Y-259*
Y-265D02*
G01X1871Y-267D01*
X1872Y-269*
X1873Y-270*
X1875Y-271*
X1876Y-273*
X1878*
X1880Y-274*
X1882*
X1900Y-259D02*
G01X1899Y-257D01*
X1898Y-255*
X1897Y-254*
X1896Y-252*
X1894Y-251*
X1892Y-250*
X1890*
X1888*
X1906Y-265D02*
G01Y-262D01*
Y-265D02*
G01X1870D01*
X1882Y-250D02*
G01X1888D01*
X2027Y-253D02*
G01X2025Y-246D01*
X2018Y-244*
Y-244D02*
G01X1996D01*
X2017Y-280D02*
G01X1994D01*
X1985Y-271D02*
G01X1988Y-277D01*
X1994Y-280*
X2017Y-259D02*
G01X1996D01*
Y-265D02*
G01X2018D01*
Y-274D02*
G01X1994D01*
X1985Y-271D02*
G01X1991D01*
X1996Y-250D02*
G01X2018D01*
X2027Y-253D02*
G01X2021D01*
Y-253D02*
G01X2020Y-251D01*
X2018Y-250*
X1996Y-244D02*
G01X1994D01*
X1992*
X1990Y-245*
X1989Y-246*
X1987Y-247*
X1986Y-249*
Y-251*
X1985Y-252*
Y-254*
Y-256*
X1986Y-258*
Y-260*
X1987Y-261*
X1989Y-262*
X1990Y-263*
X1992Y-264*
X1994Y-265*
X1996*
Y-250D02*
G01X1992Y-251D01*
X1991Y-254*
X1992Y-257*
X1996Y-259*
X2017Y-280D02*
G01X2019D01*
X2020Y-279*
X2022*
X2024Y-278*
X2025Y-276*
X2026Y-275*
X2027Y-273*
Y-271*
Y-269*
Y-268*
Y-266*
X2026Y-264*
X2025Y-263*
X2024Y-261*
X2022Y-260*
X2020Y-259*
X2019*
X2017*
X2018Y-274D02*
G01X2021Y-273D01*
X2023Y-269*
X2021Y-266*
X2018Y-265*
X1991Y-271D02*
G01X1992Y-273D01*
X1994Y-274*
G54D11*
X2022Y-246D02*
G01X1991D01*
X1988Y-249*
X2025*
X1989Y-253*
X1987*
Y-257*
X1990*
X2020Y-260*
X1989*
X1993Y-264*
X2024*
X2025Y-268*
X2024*
X2025Y-271D02*
G01X2024D01*
X1989D02*
G01X1987D01*
X2024Y-275D02*
G01X1988D01*
X1990Y-278*
X2021*
G54D10*
X2052Y-248D02*
G01Y-226D01*
X2064Y-244D02*
G01X2060D01*
X2057Y-245*
X2054Y-246*
X2052Y-248*
X2082Y-262D02*
G01Y-259D01*
X2081Y-256*
X2079Y-253*
X2078Y-250*
X2075Y-248*
X2073Y-246*
X2070Y-245*
X2067Y-244*
X2064*
X2082Y-262D02*
G01Y-280D01*
X2046Y-226D02*
G01X2052D01*
X2082Y-280D02*
G01X2076D01*
Y-259*
X2046Y-226D02*
G01Y-280D01*
X2052*
X2076Y-259D02*
G01X2075Y-257D01*
X2074Y-255*
X2073Y-253*
X2071Y-252*
X2069Y-251*
X2067Y-250*
X2065*
X2063*
X2060*
X2058Y-251*
X2056Y-252*
X2055Y-253*
X2053Y-255*
X2052Y-257*
Y-259*
Y-259D02*
G01Y-280D01*
G54D11*
X2048Y-228D02*
G01Y-278D01*
X2051*
Y-228*
X2055Y-248*
Y-251*
X2058Y-249*
Y-246*
X2062*
Y-248*
X2066*
Y-246*
X2069Y-247*
Y-249*
X2073Y-252*
Y-248*
X2077Y-251*
Y-278*
X2080*
Y-256*
G54D10*
X2115Y-244D02*
G01X2127D01*
X2121Y-229D02*
G01X2122Y-231D01*
X2124Y-232*
X2126Y-231*
X2127Y-229*
X2126Y-226*
X2124*
X2122*
X2121Y-229*
X2115Y-244D02*
G01Y-250D01*
X2121*
Y-274*
X2115*
Y-280*
X2133*
Y-274*
X2127*
Y-244*
G54D11*
X2131Y-278D02*
G01Y-276D01*
X2128*
Y-278*
X2124D02*
G01Y-246D01*
Y-230D02*
G01Y-228D01*
X2120Y-278D02*
G01Y-276D01*
Y-248D02*
G01Y-246D01*
X2117Y-278D02*
G01Y-276D01*
Y-248D02*
G01Y-246D01*
G54D10*
X2185Y-244D02*
G01X2181D01*
X2178Y-245*
X2176Y-246*
X2173Y-248*
X2171Y-250*
X2169Y-253*
X2168Y-256*
X2167Y-259*
Y-262*
Y-265*
X2168Y-268*
X2169Y-271*
X2171Y-274*
X2173Y-276*
X2176Y-278*
X2178Y-279*
X2181Y-280*
X2185*
X2209Y-262D02*
G01Y-259D01*
X2208Y-256*
X2206Y-253*
X2205Y-250*
X2202Y-248*
X2200Y-246*
X2197Y-245*
X2194Y-244*
X2191*
Y-244D02*
G01X2185D01*
G54D11*
X2197Y-246D02*
G01X2178D01*
X2174Y-249*
X2202*
X2205Y-253D02*
G01X2201D01*
X2174D02*
G01X2171D01*
X2206Y-257D02*
G01X2204D01*
X2172D02*
G01X2169D01*
X2207Y-260D02*
G01X2169D01*
Y-264*
X2207*
X2172Y-268*
X2169*
X2204Y-271D02*
G01X2200D01*
X2175D02*
G01X2171D01*
X2201Y-275D02*
G01X2174D01*
X2178Y-278*
X2197*
G54D10*
X2191Y-274D02*
G01X2193D01*
X2195Y-273*
X2197Y-272*
X2198Y-271*
X2191Y-280D02*
G01X2194D01*
X2197Y-279*
X2200Y-278*
X2202Y-276*
X2204Y-274*
X2206Y-271*
X2198*
X2185Y-280D02*
G01X2191D01*
X2185Y-274D02*
G01X2191D01*
X2202Y-259D02*
G01X2173D01*
X2185Y-250D02*
G01X2183D01*
X2181*
X2179Y-251*
X2177Y-252*
X2176Y-254*
X2174Y-255*
Y-257*
X2173Y-259*
Y-265D02*
G01X2174Y-267D01*
Y-269*
X2176Y-270*
X2177Y-271*
X2179Y-273*
X2181*
X2183Y-274*
X2185*
X2202Y-259D02*
G01Y-257D01*
X2201Y-255*
X2200Y-254*
X2198Y-252*
X2196Y-251*
X2195Y-250*
X2193*
X2191*
X2209Y-265D02*
G01Y-262D01*
Y-265D02*
G01X2173D01*
X2185Y-250D02*
G01X2191D01*
X2248Y-226D02*
G01X2242D01*
Y-274D02*
G01X2236D01*
Y-280*
X2254*
Y-274*
X2248*
Y-226*
X2236*
Y-232*
X2242*
Y-274*
G54D11*
X2252Y-278D02*
G01Y-276D01*
X2249*
Y-278*
X2245*
Y-228*
X2241Y-278D02*
G01Y-276D01*
Y-230D02*
G01Y-228D01*
X2238Y-278D02*
G01Y-276D01*
Y-230D02*
G01Y-228D01*
G54D10*
X2306Y-244D02*
G01X2302D01*
X2299Y-245*
X2297Y-246*
X2294Y-248*
X2292Y-250*
X2290Y-253*
X2289Y-256*
X2288Y-259*
Y-262*
Y-265*
X2289Y-268*
X2290Y-271*
X2292Y-274*
X2294Y-276*
X2297Y-278*
X2299Y-279*
X2302Y-280*
X2306*
Y-244D02*
G01X2312D01*
X2306Y-280D02*
G01X2313D01*
X2330D02*
G01Y-226D01*
Y-280D02*
G01X2324D01*
Y-226D02*
G01X2330D01*
X2312Y-274D02*
G01X2314D01*
X2316Y-273*
X2318Y-272*
X2319Y-271*
X2321Y-270*
X2322Y-268*
X2323Y-266*
X2324Y-264*
Y-262*
Y-260*
X2323Y-258*
X2322Y-256*
X2321Y-254*
X2319Y-253*
X2318Y-251*
X2316Y-250*
X2314*
X2312*
X2306D02*
G01X2304D01*
X2302*
X2300Y-251*
X2298Y-253*
X2296Y-254*
X2295Y-256*
X2294Y-258*
Y-260*
Y-262*
Y-264*
Y-266*
X2295Y-268*
X2296Y-270*
X2298Y-271*
X2300Y-272*
X2302Y-273*
X2304Y-274*
X2306*
X2312Y-250D02*
G01X2306D01*
Y-274D02*
G01X2312D01*
X2313Y-280D02*
G01X2316D01*
X2319Y-279*
X2321Y-277*
X2324Y-276*
Y-248D02*
G01X2321Y-246D01*
X2318Y-245*
X2315Y-244*
X2312*
X2324Y-275D02*
G01Y-280D01*
Y-248D02*
G01Y-226D01*
G54D11*
X2328Y-278D02*
G01Y-228D01*
X2324*
Y-278*
X2321Y-276D02*
G01Y-272D01*
Y-252D02*
G01Y-248D01*
X2317Y-277D02*
G01Y-275D01*
Y-249D02*
G01Y-246D01*
X2313Y-278D02*
G01Y-276D01*
Y-248D02*
G01Y-246D01*
X2310Y-278D02*
G01Y-276D01*
Y-248D02*
G01Y-246D01*
X2306Y-278D02*
G01Y-276D01*
Y-248D02*
G01Y-246D01*
X2302Y-278D02*
G01Y-276D01*
Y-248D02*
G01Y-246D01*
X2299Y-277D02*
G01Y-274D01*
Y-250D02*
G01Y-247D01*
X2295Y-275D02*
G01Y-270D01*
Y-254D02*
G01Y-249D01*
X2291Y-271D02*
G01Y-253D01*
X2290Y-256*
Y-268*
G54D10*
X2039Y947D02*
G01X1999Y877D01*
X1923Y1014D02*
G01X2039Y947D01*
X1883Y944D02*
G01X1999Y877D01*
X1888Y1004D02*
G01X1874Y980D01*
Y980D02*
G01X1872Y976D01*
X1871Y971*
X1870Y967*
X1871Y962*
X1872Y958*
X1874Y954*
X1876Y950*
X1880Y947*
X1883Y944*
X1923Y1014D02*
G01X1919Y1016D01*
X1915Y1017*
X1910*
X1906*
X1901Y1016*
X1897Y1014*
X1894Y1011*
X1890Y1008*
X1888Y1004*
X1924Y801D02*
G01X1854Y761D01*
X1857Y917D02*
G01X1924Y801D01*
X1787Y877D02*
G01X1854Y761D01*
X1821Y926D02*
G01X1797Y912D01*
Y912D02*
G01X1793Y910D01*
X1790Y906*
X1787Y903*
X1785Y899*
X1784Y894*
Y890*
Y885*
X1785Y881*
X1787Y877*
X1857Y917D02*
G01X1854Y920D01*
X1851Y924*
X1847Y926*
X1843Y928*
X1839Y929*
X1834Y930*
X1830Y929*
X1825Y928*
X1821Y926*
X1750Y733D02*
G01X1670D01*
X1750Y867D02*
G01Y733D01*
X1670Y867D02*
G01Y733D01*
X1724Y893D02*
G01X1696D01*
X1691*
X1687Y891*
X1683Y890*
X1679Y887*
X1676Y884*
X1673Y880*
X1672Y876*
X1670Y872*
Y867*
X1750D02*
G01Y872D01*
X1748Y876*
X1747Y880*
X1744Y884*
X1741Y887*
X1737Y890*
X1733Y891*
X1729Y893*
X1724*
X1854Y1419D02*
G01X1924Y1379D01*
X1787Y1303D02*
G01X1854Y1419D01*
X1857Y1263D02*
G01X1924Y1379D01*
X1797Y1268D02*
G01X1821Y1254D01*
Y1254D02*
G01X1825Y1252D01*
X1830Y1251*
X1834Y1250*
X1839Y1251*
X1843Y1252*
X1847Y1254*
X1851Y1256*
X1854Y1260*
X1857Y1263*
X1787Y1303D02*
G01X1785Y1299D01*
X1784Y1295*
Y1290*
Y1286*
X1785Y1281*
X1787Y1277*
X1790Y1274*
X1793Y1270*
X1797Y1268*
X1999Y1303D02*
G01X2039Y1233D01*
X1883Y1236D02*
G01X1999Y1303D01*
X1923Y1166D02*
G01X2039Y1233D01*
X1874Y1200D02*
G01X1888Y1176D01*
Y1176D02*
G01X1890Y1172D01*
X1894Y1169*
X1897Y1166*
X1901Y1164*
X1906Y1163*
X1910*
X1915*
X1919Y1164*
X1923Y1166*
X1883Y1236D02*
G01X1880Y1233D01*
X1876Y1230*
X1874Y1226*
X1872Y1222*
X1871Y1218*
X1870Y1213*
X1871Y1209*
X1872Y1204*
X1874Y1200*
X2067Y1130D02*
G01Y1050D01*
X1933Y1130D02*
G01X2067D01*
X1933Y1050D02*
G01X2067D01*
X1907Y1104D02*
G01Y1076D01*
Y1071*
X1909Y1067*
X1910Y1063*
X1913Y1059*
X1916Y1056*
X1920Y1053*
X1924Y1052*
X1928Y1050*
X1933*
Y1130D02*
G01X1928D01*
X1924Y1128*
X1920Y1127*
X1916Y1124*
X1913Y1121*
X1910Y1117*
X1909Y1113*
X1907Y1109*
Y1104*
X1670Y1447D02*
G01X1750D01*
X1670Y1313D02*
G01Y1447D01*
X1750Y1313D02*
G01Y1447D01*
X1696Y1287D02*
G01X1724D01*
X1729*
X1733Y1289*
X1737Y1290*
X1741Y1293*
X1744Y1296*
X1747Y1300*
X1748Y1304*
X1750Y1308*
Y1313*
X1670D02*
G01Y1308D01*
X1672Y1304*
X1673Y1300*
X1676Y1296*
X1679Y1293*
X1683Y1290*
X1687Y1289*
X1691Y1287*
X1696*
X1725Y-160D02*
G01Y-85D01*
X1769Y-160*
Y-85*
X1831Y-151D02*
G01X1822Y-160D01*
X1797*
X1788Y-151*
Y-94*
X1797Y-85*
X1822*
X1831Y-94*
X1866Y-160D02*
G01X1878D01*
X1872D02*
G01Y-85D01*
X1866Y-91*
X1913Y-94D02*
G01X1922Y-85D01*
X1947*
X1956Y-94*
Y-113*
X1947Y-123*
X1925*
X1947D02*
G01X1956Y-132D01*
Y-151*
X1947Y-160*
X1922*
X1913Y-151*
X1975Y-94D02*
G01X1984Y-85D01*
X2009*
X2019Y-94*
Y-113*
X2009Y-123*
X1988*
X2009D02*
G01X2019Y-132D01*
Y-151*
X2009Y-160*
X1984*
X1975Y-151*
X2038Y-94D02*
G01X2047Y-85D01*
X2072*
X2081Y-94*
Y-113*
X2072Y-123*
X2050*
X2072D02*
G01X2081Y-132D01*
Y-151*
X2072Y-160*
X2047*
X2038Y-151*
X2880Y474D02*
G01Y1057D01*
X2269Y474D02*
G01Y654D01*
X2724Y985D02*
G01X2719D01*
X2715Y983*
X2711Y981*
X2707Y979*
X2703Y975*
X2701Y972*
X2699Y967*
X2697Y963*
Y958*
Y953*
X2699Y949*
X2701Y945*
X2703Y941*
X2707Y937*
X2711Y935*
X2715Y933*
X2719Y931*
X2724*
X2729*
X2733Y933*
X2738Y935*
X2741Y937*
X2745Y941*
X2747Y945*
X2749Y949*
X2751Y953*
Y958*
Y963*
X2749Y967*
X2747Y972*
X2745Y975*
X2741Y979*
X2738Y981*
X2733Y983*
X2729Y985*
X2724*
Y670D02*
G01X2719D01*
X2715Y668*
X2711Y666*
X2707Y664*
X2703Y660*
X2701Y657*
X2699Y652*
X2697Y648*
Y643*
Y638*
X2699Y634*
X2701Y630*
X2703Y626*
X2707Y622*
X2711Y620*
X2715Y618*
X2719Y616*
X2724*
X2729*
X2733Y618*
X2738Y620*
X2741Y622*
X2745Y626*
X2747Y630*
X2749Y634*
X2751Y638*
Y643*
Y648*
X2749Y652*
X2747Y657*
X2745Y660*
X2741Y664*
X2738Y666*
X2733Y668*
X2729Y670*
X2724*
X2880Y1057D02*
G01X2770D01*
X2880Y474D02*
G01X2760D01*
X2840Y765D02*
G01X2940D01*
X2359Y474D02*
G01X2649D01*
X2379Y1057D02*
G01X2649D01*
X2230Y493D02*
G01X2223Y485D01*
X2203*
X2195Y493*
Y508*
X2203Y515*
X2223*
X2230Y523*
Y538*
X2223Y545*
X2203*
X2195Y538*
X2175Y485D02*
G01Y545D01*
X2180D02*
G01X2153D01*
X2145Y538*
Y493*
X2153Y485*
X2180*
X2557Y1157D02*
G01Y1077D01*
X2423Y1157D02*
G01X2557D01*
X2423Y1077D02*
G01X2557D01*
X2397Y1131D02*
G01Y1103D01*
Y1098*
X2399Y1094*
X2400Y1090*
X2403Y1086*
X2406Y1083*
X2410Y1080*
X2414Y1079*
X2418Y1077*
X2423*
Y1157D02*
G01X2418D01*
X2414Y1155*
X2410Y1154*
X2406Y1151*
X2403Y1148*
X2400Y1144*
X2399Y1140*
X2397Y1136*
Y1131*
X2465Y1623D02*
G01X2464Y1633D01*
X2463Y1643*
X2460Y1653*
X2457Y1662*
X2452Y1672*
X2447Y1680*
X2441Y1688*
X2434Y1695*
X2426Y1702*
X2418Y1708*
X2409Y1713*
X2400Y1717*
X2390Y1720*
X2380Y1722*
X2370Y1723*
X2360*
X2350Y1722*
X2340Y1720*
X2330Y1717*
X2321Y1713*
X2312Y1708*
X2304Y1702*
X2296Y1695*
X2289Y1688*
X2283Y1680*
X2278Y1672*
X2273Y1662*
X2270Y1653*
X2267Y1643*
X2266Y1633*
X2265Y1623*
X2266Y1613*
X2267Y1603*
X2270Y1593*
X2273Y1584*
X2278Y1574*
X2283Y1566*
X2289Y1558*
X2296Y1551*
X2304Y1544*
X2312Y1538*
X2321Y1533*
X2330Y1529*
X2340Y1526*
X2350Y1524*
X2360Y1523*
X2370*
X2380Y1524*
X2390Y1526*
X2400Y1529*
X2409Y1533*
X2418Y1538*
X2426Y1544*
X2434Y1551*
X2441Y1558*
X2447Y1566*
X2452Y1574*
X2457Y1584*
X2460Y1593*
X2463Y1603*
X2464Y1613*
X2465Y1623*
X2455D02*
G01X2454Y1633D01*
X2453Y1643*
X2450Y1653*
X2446Y1662*
X2441Y1671*
X2435Y1679*
X2429Y1687*
X2421Y1693*
X2413Y1699*
X2404Y1704*
X2395Y1708*
X2385Y1711*
X2375Y1712*
X2365Y1713*
X2355Y1712*
X2345Y1711*
X2335Y1708*
X2326Y1704*
X2317Y1699*
X2309Y1693*
X2301Y1687*
X2295Y1679*
X2289Y1671*
X2284Y1662*
X2280Y1653*
X2277Y1643*
X2276Y1633*
X2275Y1623*
X2276Y1613*
X2277Y1603*
X2280Y1593*
X2284Y1584*
X2289Y1575*
X2295Y1567*
X2301Y1559*
X2309Y1553*
X2317Y1547*
X2326Y1542*
X2335Y1538*
X2345Y1535*
X2355Y1534*
X2365Y1533*
X2375Y1534*
X2385Y1535*
X2395Y1538*
X2404Y1542*
X2413Y1547*
X2421Y1553*
X2429Y1559*
X2435Y1567*
X2441Y1575*
X2446Y1584*
X2450Y1593*
X2453Y1603*
X2454Y1613*
X2455Y1623*
X2460D02*
G01X2459Y1633D01*
X2458Y1643*
X2455Y1653*
X2452Y1662*
X2447Y1671*
X2441Y1680*
X2435Y1687*
X2428Y1694*
X2420Y1701*
X2411Y1706*
X2402Y1711*
X2392Y1714*
X2383Y1716*
X2373Y1718*
X2362*
X2352Y1717*
X2342Y1715*
X2333Y1712*
X2323Y1708*
X2315Y1704*
X2306Y1698*
X2299Y1691*
X2292Y1684*
X2286Y1676*
X2281Y1667*
X2277Y1658*
X2273Y1648*
X2271Y1638*
X2270Y1628*
Y1618*
X2271Y1608*
X2273Y1598*
X2277Y1588*
X2281Y1579*
X2286Y1570*
X2292Y1562*
X2299Y1555*
X2306Y1548*
X2315Y1542*
X2323Y1538*
X2333Y1534*
X2342Y1531*
X2352Y1529*
X2362Y1528*
X2373*
X2383Y1530*
X2392Y1532*
X2402Y1535*
X2411Y1540*
X2420Y1545*
X2428Y1552*
X2435Y1559*
X2441Y1566*
X2447Y1575*
X2452Y1584*
X2455Y1593*
X2458Y1603*
X2459Y1613*
X2460Y1623*
X2452Y1930D02*
G01Y1850D01*
X2318Y1930D02*
G01X2452D01*
X2318Y1850D02*
G01X2452D01*
X2292Y1904D02*
G01Y1876D01*
Y1871*
X2294Y1867*
X2295Y1863*
X2298Y1859*
X2301Y1856*
X2305Y1853*
X2309Y1852*
X2313Y1850*
X2318*
Y1930D02*
G01X2313D01*
X2309Y1928*
X2305Y1927*
X2301Y1924*
X2298Y1921*
X2295Y1917*
X2294Y1913*
X2292Y1909*
Y1904*
X2470Y2007D02*
G01X2550D01*
X2470Y1873D02*
G01Y2007D01*
X2550Y1873D02*
G01Y2007D01*
X2496Y1847D02*
G01X2524D01*
X2529*
X2533Y1849*
X2537Y1850*
X2541Y1853*
X2544Y1856*
X2547Y1860*
X2548Y1864*
X2550Y1868*
Y1873*
X2470D02*
G01Y1868D01*
X2472Y1864*
X2473Y1860*
X2476Y1856*
X2479Y1853*
X2483Y1850*
X2487Y1849*
X2491Y1847*
X2496*
X2435Y1693D02*
G01X2295Y1553D01*
X2421Y1595D02*
G01Y1669D01*
X2392Y1661D02*
G01X2390D01*
X2388*
X2385Y1660*
X2384Y1658*
X2382Y1657*
X2381Y1655*
X2380Y1653*
X2379Y1651*
Y1649*
Y1646*
X2380Y1644*
X2381Y1642*
X2382Y1640*
X2384Y1639*
X2386Y1638*
X2388Y1637*
X2390Y1636*
X2392Y1661D02*
G01X2413D01*
X2390Y1636D02*
G01X2413D01*
X2390Y1669D02*
G01X2421D01*
X2413Y1636D02*
G01Y1661D01*
Y1595D02*
G01X2421D01*
X2390Y1669D02*
G01X2387D01*
X2383Y1668*
X2380Y1667*
X2377Y1664*
X2374Y1662*
X2372Y1659*
X2371Y1656*
X2370Y1652*
Y1649*
Y1645*
X2371Y1642*
X2372Y1639*
X2374Y1636*
X2377Y1633*
X2380Y1631*
X2383Y1630*
X2387Y1629*
X2390Y1628*
X2413*
Y1595*
G54D11*
X2372Y1642D02*
G01Y1656D01*
X2375Y1661*
Y1637*
X2379Y1634*
Y1664*
X2383Y1632D02*
G01Y1638D01*
Y1660D02*
G01Y1666D01*
X2386Y1631D02*
G01Y1635D01*
Y1662D02*
G01Y1667D01*
X2390Y1630D02*
G01Y1634D01*
Y1663D02*
G01Y1667D01*
X2394Y1630D02*
G01Y1634D01*
Y1663D02*
G01Y1667D01*
X2397Y1630D02*
G01Y1634D01*
Y1663D02*
G01Y1667D01*
X2401Y1630D02*
G01Y1634D01*
Y1663D02*
G01Y1667D01*
X2404Y1630D02*
G01Y1634D01*
Y1663D02*
G01Y1667D01*
X2408Y1630D02*
G01Y1634D01*
Y1663D02*
G01Y1667D01*
X2412Y1630D02*
G01Y1634D01*
Y1663D02*
G01Y1667D01*
X2415Y1597D02*
G01Y1667D01*
X2419*
Y1597*
G54D10*
X2321Y1595D02*
G01X2325D01*
X2329Y1597*
X2333Y1599*
X2337Y1601*
X2321Y1595D02*
G01X2313D01*
Y1643D02*
G01X2309D01*
X2305Y1642*
X2301Y1640*
X2297Y1637*
X2294Y1635*
X2292Y1631*
X2290Y1627*
X2289Y1623*
Y1619*
Y1615*
X2290Y1611*
X2292Y1607*
X2294Y1604*
X2297Y1601*
X2301Y1598*
X2305Y1596*
X2309Y1595*
X2313*
Y1643D02*
G01X2321D01*
X2345Y1595D02*
G01Y1667D01*
Y1595D02*
G01X2337D01*
Y1667D02*
G01X2345D01*
X2313Y1635D02*
G01X2310D01*
X2307Y1634*
X2305Y1633*
X2302Y1631*
X2300Y1629*
X2299Y1627*
X2298Y1625*
X2297Y1622*
Y1619*
Y1616*
X2298Y1614*
X2299Y1611*
X2300Y1609*
X2302Y1607*
X2305Y1605*
X2307Y1604*
X2310Y1603*
X2313*
X2321D02*
G01X2324D01*
X2326Y1604*
X2329Y1605*
X2331Y1607*
X2333Y1609*
X2335Y1611*
X2336Y1614*
X2337Y1616*
Y1619*
Y1622*
X2336Y1625*
X2335Y1627*
X2333Y1629*
X2331Y1631*
X2329Y1633*
X2326Y1634*
X2324Y1635*
X2321*
Y1603D02*
G01X2313D01*
Y1635D02*
G01X2321D01*
X2337Y1637D02*
G01X2333Y1640D01*
X2329Y1642*
X2325Y1643*
X2321*
X2337Y1601D02*
G01Y1595D01*
Y1637D02*
G01Y1667D01*
G54D11*
X2291Y1611D02*
G01Y1627D01*
X2294Y1633*
Y1606*
X2298Y1602D02*
G01Y1611D01*
Y1627D02*
G01Y1636D01*
X2302Y1600D02*
G01Y1606D01*
Y1633D02*
G01Y1638D01*
X2305Y1598D02*
G01Y1603D01*
Y1635D02*
G01Y1640D01*
X2309Y1597D02*
G01Y1601D01*
Y1637D02*
G01Y1641D01*
X2312Y1597D02*
G01Y1601D01*
Y1637D02*
G01Y1641D01*
X2316Y1597D02*
G01Y1601D01*
Y1637D02*
G01Y1641D01*
X2320Y1597D02*
G01Y1601D01*
Y1637D02*
G01Y1641D01*
X2323Y1597D02*
G01Y1601D01*
Y1637D02*
G01Y1641D01*
X2327Y1598D02*
G01Y1602D01*
Y1636D02*
G01Y1640D01*
X2331Y1599D02*
G01Y1604D01*
Y1634D02*
G01Y1639D01*
X2334Y1601D02*
G01Y1608D01*
Y1630D02*
G01Y1637D01*
X2338Y1665D02*
G01Y1597D01*
X2342*
Y1665*
X2343*
Y1597*
G54D10*
X2115Y2321D02*
G01X2124Y2330D01*
X2149*
X2159Y2321*
Y2311*
X2115Y2255D02*
G01X2159D01*
X2115Y2268D02*
G01X2159Y2311D01*
X2115Y2268D02*
G01Y2255D01*
X2187Y2330D02*
G01X2212D01*
X2221Y2321*
Y2302*
X2212Y2293*
X2187*
X2178Y2283*
Y2264*
X2187Y2255*
X2212*
X2221Y2264*
Y2283*
X2212Y2293*
X2187D02*
G01X2178Y2302D01*
Y2321*
X2187Y2330*
X2303Y2264D02*
G01X2312Y2255D01*
X2337*
X2346Y2264*
Y2283*
X2337Y2293*
X2312*
X2303Y2302*
Y2321*
X2312Y2330*
X2337*
X2346Y2321*
X2409Y2255D02*
G01X2365D01*
Y2330*
X2409*
X2365Y2293D02*
G01X2403D01*
X2428Y2255D02*
G01Y2330D01*
X2462*
X2471Y2321*
Y2299*
X2462Y2293*
X2428*
X2512Y2255D02*
G01Y2330D01*
X2490D02*
G01X2534D01*
X2615Y2321D02*
G01X2624Y2330D01*
X2649*
X2659Y2321*
Y2311*
X2615Y2255D02*
G01X2659D01*
X2615Y2268D02*
G01X2659Y2311D01*
X2615Y2268D02*
G01Y2255D01*
X2678Y2264D02*
G01Y2321D01*
X2687Y2330*
X2712*
X2721Y2321*
Y2264*
X2712Y2255*
X2687*
X2678Y2264*
X2756Y2255D02*
G01X2768D01*
X2762D02*
G01Y2330D01*
X2756Y2324*
X2846Y2321D02*
G01X2837Y2330D01*
X2812*
X2803Y2321*
Y2264*
X2812Y2255*
X2837*
X2846Y2264*
Y2289*
X2837Y2299*
X2812*
X2803Y2289*
X2165Y-160D02*
G01Y-85D01*
X2209Y-160*
Y-85*
X2271Y-151D02*
G01X2262Y-160D01*
X2237*
X2228Y-151*
Y-94*
X2237Y-85*
X2262*
X2271Y-94*
X2306Y-160D02*
G01X2318D01*
X2312D02*
G01Y-85D01*
X2306Y-91*
X2353Y-94D02*
G01X2362Y-85D01*
X2387*
X2396Y-94*
Y-113*
X2387Y-123*
X2365*
X2387D02*
G01X2396Y-132D01*
Y-151*
X2387Y-160*
X2362*
X2353Y-151*
X2415D02*
G01X2424Y-160D01*
X2449*
X2459Y-151*
Y-126*
X2449Y-116*
X2415*
Y-85*
X2459*
X2478Y-94D02*
G01X2487Y-85D01*
X2512*
X2521Y-94*
Y-113*
X2512Y-123*
X2490*
X2512D02*
G01X2521Y-132D01*
Y-151*
X2512Y-160*
X2487*
X2478Y-151*
X2380Y-205D02*
G01X2402Y-280D01*
X2424Y-205*
X2443Y-255D02*
G01X2486D01*
Y-246*
X2477Y-236*
X2452*
X2443Y-246*
Y-271*
X2452Y-280*
X2477*
X2486Y-271*
X2505Y-280D02*
G01X2508D01*
Y-236*
X2505*
X2508Y-243D02*
G01X2514Y-236D01*
X2543*
X2549Y-243*
Y-249*
X2508Y-280D02*
G01X2511D01*
X2593Y-274D02*
G01X2599D01*
Y-280*
X2593*
Y-274*
Y-218D02*
G01X2599D01*
Y-224*
X2593*
Y-218*
X2646Y-280D02*
G01X2658D01*
X2652D02*
G01Y-205D01*
X2646Y-211*
X2711Y-280D02*
G01Y-277D01*
X2714*
Y-280*
X2711*
X2755Y-271D02*
G01Y-214D01*
X2764Y-205*
X2789*
X2799Y-214*
Y-271*
X2789Y-280*
X2764*
X2755Y-271*
X2880Y0D02*
G01Y2180D01*
X2810Y765D02*
G01X2880D01*
X2565Y-160D02*
G01Y-85D01*
X2609Y-160*
Y-85*
X2671Y-151D02*
G01X2662Y-160D01*
X2637*
X2628Y-151*
Y-94*
X2637Y-85*
X2662*
X2671Y-94*
X2706Y-160D02*
G01X2718D01*
X2712D02*
G01Y-85D01*
X2706Y-91*
X2753Y-94D02*
G01X2762Y-85D01*
X2787*
X2796Y-94*
Y-113*
X2787Y-123*
X2765*
X2787D02*
G01X2796Y-132D01*
Y-151*
X2787Y-160*
X2762*
X2753Y-151*
X2859Y-94D02*
G01X2849Y-85D01*
X2824*
X2815Y-94*
Y-151*
X2824Y-160*
X2849*
X2859Y-151*
Y-126*
X2849Y-116*
X2824*
X2815Y-126*
X2878Y-151D02*
G01X2887Y-160D01*
X2912*
X2921Y-151*
Y-94*
X2912Y-85*
X2887*
X2878Y-94*
Y-119*
X2887Y-129*
X2912*
X2921Y-119*
X1699Y1966D02*
G01X1703Y1963D01*
X1706Y1966*
X1703Y1969*
X1699Y1966*
X1703Y1944D02*
G01Y1900D01*
X1082Y1939D02*
G01Y1895D01*
X1078Y1961D02*
G01X1082Y1958D01*
X1085Y1961*
X1082Y1964*
X1078Y1961*
G01X896Y1401D02*
X899Y1398D01*
X901Y1401D01*
X899Y1403D01*
X896Y1401D01*
X899Y1383D02*
Y1348D01*
G01X745Y1401D02*
X747Y1398D01*
X750Y1401D01*
X747Y1403D01*
X745Y1401D01*
X747Y1383D02*
Y1348D01*
M02*
