G04 CAM350 V9.5.2 (Build 226) Date:  Mon Oct 03 15:16:43 2016 *
G04 Database: C:\new\NC1369\FINAL\0310.cam *
G04 Layer 2: 55.gbr *
%FSLAX23Y23*%
%MOIN*%
%SFA1.000B1.000*%

%MIA0B0*%
%IPPOS*%
%AMrect72x60_330*
4,1,4,-0.01618,0.04398,0.04618,0.00798,0.01618,-0.04398,-0.04618,-0.00798,-0.01618,0.04398,0.00000*
%
%AMrect72x60_300*
4,1,4,0.00798,0.04618,0.04398,-0.01618,-0.00798,-0.04618,-0.04398,0.01618,0.00798,0.04618,0.00000*
%
%AMrect72x60_240*
4,1,4,0.04398,0.01618,0.00798,-0.04618,-0.04398,-0.01618,-0.00798,0.04618,0.04398,0.01618,0.00000*
%
%AMrect72x60_210*
4,1,4,0.04618,-0.00798,-0.01618,-0.04398,-0.04618,0.00798,0.01618,0.04398,0.04618,-0.00798,0.00000*
%
%AMrect72x60_60*
4,1,4,-0.04398,-0.01618,-0.00798,0.04618,0.04398,0.01618,0.00798,-0.04618,-0.04398,-0.01618,0.00000*
%
%AMrect72x60_30*
4,1,4,-0.04618,0.00798,0.01618,0.04398,0.04618,-0.00798,-0.01618,-0.04398,-0.04618,0.00798,0.00000*
%
%AMrect72x60_150*
4,1,4,0.01618,-0.04398,-0.04618,-0.00798,-0.01618,0.04398,0.04618,0.00798,0.01618,-0.04398,0.00000*
%
%AMrect72x64_120*
4,1,4,-0.00971,-0.04718,-0.04571,0.01518,0.00971,0.04718,0.04571,-0.01518,-0.00971,-0.04718,0.00000*
%
%ADD10C,0.01200*%
%ADD12C,0.08800*%
%ADD14R,0.08800X0.08800*%
%ADD16R,0.06000X0.07200*%
%ADD17R,0.07800X0.07800*%
%ADD19C,0.07800*%
%ADD70C,0.07000*%
%ADD20R,0.07200X0.06000*%
%ADD21C,0.07200*%
%ADD24R,0.07200X0.07200*%
%ADD26C,0.04800*%
%ADD28R,0.05600X0.03200*%
%ADD29C,0.00160*%
%ADD72O,0.08200X0.09000*%
%ADD30R,0.08200X0.09000*%
%ADD32C,0.05000*%
%ADD34C,0.05600*%
%ADD37rect72x60_330*%
%ADD38rect72x60_300*%
%ADD39rect72x60_240*%
%ADD40rect72x60_210*%
%ADD41rect72x60_60*%
%ADD42rect72x60_30*%
%ADD43rect72x60_150*%
%ADD44rect72x64_120*%
%ADD45R,0.06800X0.03600*%
%ADD46R,0.08800X0.04800*%
%ADD47R,0.04800X0.08800*%
%ADD48O,0.09000X0.08200*%
%ADD50R,0.09000X0.08200*%
%ADD52O,0.10000X0.08200*%
%LN55.gbr*%
%LPD*%
G54D12*
X670Y140D03*
X770D03*
X870D03*
X970D03*
X1070D03*
X1170D03*
X1270D03*
X1470D03*
X1570D03*
X1670D03*
X1770D03*
X1870D03*
X1970D03*
Y2040D03*
X1870D03*
X1770D03*
X1670D03*
X1570D03*
X1470D03*
X1370D03*
X1270D03*
X1110D03*
X1010D03*
X910D03*
X810D03*
X710D03*
X610D03*
X510D03*
X410D03*
X310D03*
X210D03*
G54D14*
X570Y140D03*
G54D16*
X393Y240D03*
X318D03*
G54D17*
X375Y415D03*
G54D19*
X275D03*
X575D03*
G54D70*
X385Y140D03*
X251D03*
X100Y415D03*
Y340D03*
Y265D03*
X225Y600D03*
X325Y700D03*
X225Y800D03*
G54D20*
X455D03*
Y875D03*
G54D21*
X545Y564D03*
G54D24*
X645D03*
G54D12*
X386Y1140D03*
X130D03*
Y964D03*
X386D03*
X776Y1140D03*
X520D03*
Y964D03*
X776D03*
G54D26*
X375Y875D03*
X520Y664D03*
X270Y984D03*
Y924D03*
G54D16*
X390Y1575D03*
X315D03*
G54D20*
X415Y1475D03*
Y1400D03*
G54D16*
X565Y1575D03*
X490D03*
X150Y1555D03*
X225D03*
G54D28*
Y1400D03*
X315D03*
X225Y1438D03*
Y1475D03*
X315Y1438D03*
Y1475D03*
G54D20*
X200Y1310D03*
Y1235D03*
G54D26*
X270Y1154D03*
X200Y1090D03*
X330Y1079D03*
G54D72*
X170Y1930D03*
X270D03*
X70D03*
G54D30*
X370D03*
G54D16*
X565Y1675D03*
X490D03*
G54D32*
X200Y1630D03*
G54D34*
X1010Y395D03*
G54D26*
X895Y290D03*
X955Y310D03*
G54D20*
X921Y850D03*
Y925D03*
G54D12*
X1110Y1015D03*
Y1314D03*
G54D21*
X850Y730D03*
G54D24*
X950D03*
G54D26*
X1050Y930D03*
X856Y1033D03*
X991Y925D03*
X700Y854D03*
G54D21*
X770Y1265D03*
G54D24*
X670D03*
G54D72*
X970Y1465D03*
X1070D03*
X870D03*
X770D03*
X670D03*
G54D30*
X1170D03*
G54D26*
X940Y1084D03*
X910Y1134D03*
X1040Y1234D03*
G54D72*
X870Y1740D03*
X770D03*
X970D03*
X1070D03*
X1170D03*
G54D30*
X670D03*
G54D72*
X1270D03*
X1370D03*
X1470D03*
X1570D03*
X1670D03*
X1770D03*
X1870D03*
X1970D03*
X1770Y1840D03*
X1870D03*
X1670D03*
X1570D03*
X1470D03*
G54D30*
X1970D03*
G54D72*
X1370D03*
X1270D03*
X1170D03*
X1070D03*
X970D03*
X870D03*
X770D03*
X670D03*
X870Y1640D03*
X770D03*
X970D03*
X1070D03*
X1170D03*
G54D30*
X670D03*
G54D72*
X1270D03*
X1370D03*
X1470D03*
X1570D03*
X1670D03*
X1770D03*
X1870D03*
X1970D03*
G54D26*
X594Y1931D03*
X579Y1826D03*
G54D16*
X1164Y375D03*
X1089D03*
G54D21*
X1420Y465D03*
Y365D03*
G54D24*
Y265D03*
G54D34*
X1180Y479D03*
G54D37*
X1590Y881D03*
X1552Y816D03*
G54D38*
X1501Y971D03*
X1436Y933D03*
G54D26*
X1552Y1001D03*
X1416Y863D03*
X1310Y760D03*
X1552Y746D03*
X1360Y720D03*
X1300Y980D03*
X1416Y803D03*
X1550Y615D03*
G54D16*
X1470Y1090D03*
X1395D03*
G54D39*
X1501Y1210D03*
X1436Y1247D03*
G54D40*
X1590Y1298D03*
X1552Y1363D03*
G54D26*
X1530Y1090D03*
X1552Y1180D03*
X1456Y1487D03*
X1335Y1060D03*
X1320Y1120D03*
X1351Y1195D03*
X1553Y1558D03*
X1380Y1370D03*
X1200Y1264D03*
X1220Y1364D03*
X1240Y1520D03*
G54D21*
X1595Y465D03*
Y365D03*
G54D24*
Y265D03*
G54D21*
X1770Y465D03*
Y365D03*
G54D24*
Y265D03*
G54D21*
X1945Y465D03*
Y365D03*
G54D24*
Y265D03*
G54D41*
X1918Y971D03*
X1983Y933D03*
G54D42*
X1831Y882D03*
X1868Y817D03*
G54D20*
X1710Y850D03*
Y775D03*
G54D26*
X1870Y1006D03*
X1799Y935D03*
X1710Y910D03*
X1621Y932D03*
X1710Y715D03*
X2076Y620D03*
X1746Y1034D03*
X1675Y1030D03*
X2006Y630D03*
G54D43*
X1831Y1298D03*
X1868Y1363D03*
G54D44*
X1918Y1210D03*
X1983Y1247D03*
G54D16*
X1950Y1090D03*
X2025D03*
G54D20*
X1710Y1330D03*
Y1405D03*
G54D26*
X1890Y1090D03*
X1866Y1180D03*
X1620Y1245D03*
X1710Y1270D03*
X1801Y1246D03*
X1655Y1564D03*
X1867Y1432D03*
X2027Y1332D03*
X2025Y1495D03*
X2066Y1170D03*
X1739Y1220D03*
X1600Y1090D03*
X1880Y1547D03*
X1620Y1450D03*
X2037Y1576D03*
G54D72*
X2445Y140D03*
X2545D03*
X2345D03*
X2245D03*
X2145D03*
G54D30*
X2645D03*
G54D72*
X2445Y240D03*
X2545D03*
X2345D03*
X2245D03*
X2145D03*
G54D30*
X2645D03*
G54D72*
X2445Y340D03*
X2545D03*
X2345D03*
X2245D03*
X2145D03*
G54D30*
X2645D03*
G54D45*
X2280Y680D03*
Y723D03*
Y765D03*
Y809D03*
Y852D03*
Y895D03*
Y939D03*
Y982D03*
Y1025D03*
G54D46*
X2708Y1068D03*
Y463D03*
G54D47*
X2320Y506D03*
G54D45*
X2330Y1072D03*
G54D34*
X2724Y958D03*
Y643D03*
G54D26*
X2590Y460D03*
X2089Y459D03*
G54D48*
X2610Y1140D03*
Y1240D03*
Y1340D03*
X2710Y1440D03*
Y1340D03*
Y1240D03*
G54D50*
X2610Y1440D03*
G54D48*
X2710Y1140D03*
G54D26*
X2514Y852D03*
Y765D03*
X2510Y703D03*
X2380Y895D03*
X2285Y607D03*
X2110Y779D03*
X2177Y687D03*
G54D16*
X2440Y1117D03*
X2515D03*
G54D21*
X2195Y1615D03*
G54D24*
Y1515D03*
G54D21*
X2450Y1260D03*
X2350D03*
G54D24*
X2250D03*
G54D70*
X2415Y1465D03*
X2335D03*
G54D26*
X2120Y1270D03*
G54D34*
X2400Y1330D03*
G54D26*
X2520Y1430D03*
X2585Y1067D03*
X2370Y1117D03*
X2520Y1500D03*
G54D16*
X2335Y1890D03*
X2410D03*
G54D20*
X2510D03*
Y1965D03*
G54D52*
X2610Y1940D03*
X2710D03*
Y2040D03*
X2610D03*
Y1840D03*
X2710D03*
X2610Y1740D03*
X2710D03*
G54D21*
X2315Y2040D03*
G54D24*
X2415D03*
G54D26*
X2265Y1930D03*
X2515Y1615D03*
X2195Y1740D03*
X2610Y560D03*
X2645Y927D03*
X2610Y997D03*
Y1615D03*
G54D10*
X0Y0D02*
G01X2880D01*
X0Y2180D02*
G01Y0D01*
X10Y2265D02*
G01Y2325D01*
X38*
X45Y2318*
Y2300*
X38Y2295*
X10*
X95Y2273D02*
G01X88Y2265D01*
X68*
X60Y2273*
Y2318*
X68Y2325*
X88*
X95Y2318*
X138Y2295D02*
G01X145Y2303D01*
Y2318D02*
G01X138Y2325D01*
X115D02*
G01Y2265D01*
X110D02*
G01X138D01*
X145Y2273*
Y2288*
X138Y2295*
X115*
X110Y2325D02*
G01X138D01*
X145Y2318D02*
G01Y2303D01*
X210Y2273D02*
G01X218Y2265D01*
X238*
X245Y2273*
Y2288*
X238Y2295*
X218*
X210Y2303*
Y2318*
X218Y2325*
X238*
X245Y2318*
X270Y2265D02*
G01X285D01*
X278D02*
G01Y2325D01*
X270D02*
G01X285D01*
X310D02*
G01X345D01*
X310Y2265*
X345*
X395D02*
G01X360D01*
Y2325*
X395*
X360Y2295D02*
G01X390D01*
X430Y2270D02*
G01X435D01*
Y2265*
X430*
Y2270*
Y2315D02*
G01X435D01*
Y2310*
X430*
Y2315*
X460Y2318D02*
G01X468Y2325D01*
X488*
X495Y2318*
Y2310*
X460Y2265D02*
G01X495D01*
X460Y2275D02*
G01X495Y2310D01*
X460Y2275D02*
G01Y2265D01*
X525D02*
G01Y2268D01*
X528*
Y2265*
X525*
X568Y2325D02*
G01X588D01*
X595Y2318*
Y2303*
X588Y2295*
X568*
X560Y2288*
Y2273*
X568Y2265*
X588*
X595Y2273*
Y2288*
X588Y2295*
X568D02*
G01X560Y2303D01*
Y2318*
X568Y2325*
X618D02*
G01X638D01*
X645Y2318*
Y2303*
X638Y2295*
X618*
X610Y2288*
Y2273*
X618Y2265*
X638*
X645Y2273*
Y2288*
X638Y2295*
X618D02*
G01X610Y2303D01*
Y2318*
X618Y2325*
X660Y2273D02*
G01Y2318D01*
X668Y2325*
X688*
X695Y2318*
Y2273*
X688Y2265*
X668*
X660Y2273*
X770Y2265D02*
G01X785D01*
X778D02*
G01Y2325D01*
X770D02*
G01X785D01*
X810Y2265D02*
G01Y2325D01*
X845Y2265*
Y2325*
X895Y2273D02*
G01X888Y2265D01*
X868*
X860Y2273*
Y2318*
X868Y2325*
X888*
X895Y2318*
X910Y2265D02*
G01Y2325D01*
Y2295D02*
G01X945D01*
Y2325D02*
G01Y2265D01*
X1010D02*
G01X1045Y2325D01*
X1010D02*
G01X1045Y2265D01*
X1110Y2318D02*
G01X1118Y2325D01*
X1138*
X1145Y2318*
Y2310*
X1110Y2265D02*
G01X1145D01*
X1110Y2275D02*
G01X1145Y2310D01*
X1110Y2275D02*
G01Y2265D01*
X1175D02*
G01Y2268D01*
X1178*
Y2265*
X1175*
X1223D02*
G01X1233D01*
X1228D02*
G01Y2325D01*
X1223Y2320*
X1268Y2325D02*
G01X1288D01*
X1295Y2318*
Y2303*
X1288Y2295*
X1268*
X1260Y2288*
Y2273*
X1268Y2265*
X1288*
X1295Y2273*
Y2288*
X1288Y2295*
X1268D02*
G01X1260Y2303D01*
Y2318*
X1268Y2325*
X1310Y2273D02*
G01Y2318D01*
X1318Y2325*
X1338*
X1345Y2318*
Y2273*
X1338Y2265*
X1318*
X1310Y2273*
X1420Y2265D02*
G01X1435D01*
X1428D02*
G01Y2325D01*
X1420D02*
G01X1435D01*
X1460Y2265D02*
G01Y2325D01*
X1495Y2265*
Y2325*
X1545Y2273D02*
G01X1538Y2265D01*
X1518*
X1510Y2273*
Y2318*
X1518Y2325*
X1538*
X1545Y2318*
X1560Y2265D02*
G01Y2325D01*
Y2295D02*
G01X1595D01*
Y2325D02*
G01Y2265D01*
X2880Y2180D02*
G01X0D01*
X44Y-123D02*
G01X54Y-113D01*
Y-94D02*
G01X44Y-85D01*
X16D02*
G01Y-160D01*
X10D02*
G01X44D01*
X54Y-151*
Y-132*
X44Y-123*
X16*
X10Y-85D02*
G01X44D01*
X54Y-94D02*
G01Y-113D01*
X73Y-151D02*
G01Y-94D01*
X82Y-85*
X107*
X116Y-94*
Y-151*
X107Y-160*
X82*
X73Y-151*
X157Y-160D02*
G01Y-85D01*
X135D02*
G01X179D01*
X219Y-160D02*
G01Y-85D01*
X198D02*
G01X241D01*
X260Y-151D02*
G01Y-94D01*
X269Y-85*
X294*
X304Y-94*
Y-151*
X294Y-160*
X269*
X260Y-151*
X323Y-160D02*
G01Y-85D01*
X344Y-129*
X366Y-85*
Y-160*
X491D02*
G01X448D01*
Y-85*
X510Y-160D02*
G01X532Y-85D01*
X554Y-160*
X519Y-129D02*
G01X544D01*
X573Y-85D02*
G01X594Y-123D01*
Y-160*
Y-123D02*
G01X616Y-85D01*
X679Y-160D02*
G01X635D01*
Y-85*
X679*
X635Y-123D02*
G01X673D01*
X698Y-160D02*
G01Y-85D01*
X732*
X741Y-94*
Y-116*
X732Y-123*
X698*
X723D02*
G01X741Y-160D01*
X823Y-151D02*
G01X832Y-160D01*
X857*
X866Y-151*
Y-132*
X857Y-123*
X832*
X823Y-113*
Y-94*
X832Y-85*
X857*
X866Y-94*
X885Y-151D02*
G01Y-94D01*
X894Y-85*
X919*
X929Y-94*
Y-151*
X919Y-160*
X894*
X885Y-151*
X991Y-160D02*
G01X948D01*
Y-85*
X1016Y-160D02*
G01Y-85D01*
X1010D02*
G01X1044D01*
X1054Y-94*
Y-151*
X1044Y-160*
X1010*
X1116D02*
G01X1073D01*
Y-85*
X1116*
X1073Y-123D02*
G01X1110D01*
X1135Y-160D02*
G01Y-85D01*
X1169*
X1179Y-94*
Y-116*
X1169Y-123*
X1135*
X1160D02*
G01X1179Y-160D01*
X1198D02*
G01Y-85D01*
X1219Y-129*
X1241Y-85*
Y-160*
X1260D02*
G01X1282Y-85D01*
X1304Y-160*
X1269Y-129D02*
G01X1294D01*
X1323Y-151D02*
G01X1332Y-160D01*
X1357*
X1366Y-151*
Y-132*
X1357Y-123*
X1332*
X1323Y-113*
Y-94*
X1332Y-85*
X1357*
X1366Y-94*
X1385Y-160D02*
G01Y-85D01*
Y-129D02*
G01X1429Y-85D01*
X1398Y-116D02*
G01X1429Y-160D01*
X1275Y-94D02*
G01X1284Y-85D01*
X1309*
X1319Y-94*
Y-104*
X1275Y-160D02*
G01X1319D01*
X1275Y-148D02*
G01X1319Y-104D01*
X1275Y-148D02*
G01Y-160D01*
X1381D02*
G01X1338D01*
Y-85*
X1400Y-160D02*
G01X1422Y-85D01*
X1444Y-160*
X1409Y-129D02*
G01X1434D01*
X1463Y-85D02*
G01X1484Y-123D01*
Y-160*
Y-123D02*
G01X1506Y-85D01*
X1569Y-160D02*
G01X1525D01*
Y-85*
X1569*
X1525Y-123D02*
G01X1563D01*
X1588Y-160D02*
G01Y-85D01*
X1622*
X1631Y-94*
Y-116*
X1622Y-123*
X1588*
X1613D02*
G01X1631Y-160D01*
X1389Y-244D02*
G01X1401D01*
X1395Y-229D02*
G01X1396Y-231D01*
X1398Y-232*
X1400Y-231*
X1401Y-229*
X1400Y-226*
X1398*
X1396*
X1395Y-229*
X1389Y-244D02*
G01Y-250D01*
X1395*
Y-274*
X1389*
Y-280*
X1407*
Y-274*
X1401*
Y-244*
G54D29*
X1406Y-279D02*
G01Y-275D01*
X1405*
Y-279*
X1404*
Y-275*
X1402*
Y-279*
X1401D02*
G01Y-245D01*
Y-230D02*
G01Y-228D01*
X1399Y-279D02*
G01Y-245D01*
Y-231D02*
G01Y-227D01*
X1398Y-279D02*
G01Y-245D01*
Y-231D02*
G01Y-226D01*
X1396Y-279D02*
G01Y-245D01*
Y-230D02*
G01Y-227D01*
X1395Y-279D02*
G01Y-275D01*
Y-249D02*
G01Y-245D01*
X1393Y-279D02*
G01Y-275D01*
Y-249D02*
G01Y-245D01*
X1392Y-279D02*
G01Y-275D01*
Y-249D02*
G01Y-245D01*
X1390Y-279D02*
G01Y-275D01*
Y-249D02*
G01Y-245D01*
Y-279D02*
G01Y-275D01*
Y-249D02*
G01Y-245D01*
G54D10*
X1459Y-244D02*
G01X1455D01*
X1452Y-245*
X1450Y-246*
X1447Y-248*
X1445Y-250*
X1443Y-253*
X1442Y-256*
X1441Y-259*
Y-262*
Y-265*
X1442Y-268*
X1443Y-271*
X1445Y-274*
X1447Y-276*
X1450Y-278*
X1452Y-279*
X1455Y-280*
X1459*
Y-244D02*
G01X1465D01*
X1459Y-280D02*
G01X1466D01*
X1483D02*
G01Y-226D01*
Y-280D02*
G01X1477D01*
Y-226D02*
G01X1483D01*
X1465Y-274D02*
G01X1467D01*
X1469Y-273*
X1471Y-272*
X1472Y-271*
X1474Y-270*
X1475Y-268*
X1476Y-266*
X1477Y-264*
Y-262*
Y-260*
X1476Y-258*
X1475Y-256*
X1474Y-254*
X1472Y-253*
X1471Y-251*
X1469Y-250*
X1467*
X1465*
X1459D02*
G01X1457D01*
X1455*
X1453Y-251*
X1451Y-253*
X1449Y-254*
X1448Y-256*
X1447Y-258*
Y-260*
Y-262*
Y-264*
Y-266*
X1448Y-268*
X1449Y-270*
X1451Y-271*
X1453Y-272*
X1455Y-273*
X1457Y-274*
X1459*
X1465Y-250D02*
G01X1459D01*
Y-274D02*
G01X1465D01*
X1466Y-280D02*
G01X1469D01*
X1472Y-279*
X1474Y-277*
X1477Y-276*
Y-248D02*
G01X1474Y-246D01*
X1471Y-245*
X1468Y-244*
X1465*
X1477Y-275D02*
G01Y-280D01*
Y-248D02*
G01Y-226D01*
G54D29*
X1482Y-279D02*
G01Y-226D01*
X1481*
Y-279*
X1479*
Y-226*
X1478*
Y-279*
X1476Y-275D02*
G01Y-266D01*
Y-257D02*
G01Y-249D01*
X1475Y-276D02*
G01Y-269D01*
Y-254D02*
G01Y-248D01*
X1473Y-277D02*
G01Y-271D01*
Y-253D02*
G01Y-247D01*
X1472Y-278D02*
G01Y-272D01*
Y-251D02*
G01Y-246D01*
X1470Y-278D02*
G01Y-273D01*
Y-250D02*
G01Y-245D01*
X1469Y-279D02*
G01Y-274D01*
Y-250D02*
G01Y-245D01*
X1468Y-279D02*
G01Y-274D01*
Y-249D02*
G01Y-245D01*
X1466Y-279D02*
G01Y-275D01*
Y-249D02*
G01Y-245D01*
X1465Y-279D02*
G01Y-275D01*
Y-249D02*
G01Y-245D01*
X1463Y-279D02*
G01Y-275D01*
Y-249D02*
G01Y-245D01*
X1462Y-279D02*
G01Y-275D01*
Y-249D02*
G01Y-245D01*
X1460Y-279D02*
G01Y-275D01*
Y-249D02*
G01Y-245D01*
X1459Y-279D02*
G01Y-275D01*
Y-249D02*
G01Y-245D01*
X1457Y-279D02*
G01Y-275D01*
Y-249D02*
G01Y-245D01*
X1456Y-279D02*
G01Y-274D01*
Y-249D02*
G01Y-245D01*
X1454Y-279D02*
G01Y-274D01*
Y-250D02*
G01Y-245D01*
X1453Y-278D02*
G01Y-273D01*
Y-250D02*
G01Y-245D01*
X1452Y-278D02*
G01Y-272D01*
Y-251D02*
G01Y-246D01*
X1450Y-277D02*
G01Y-271D01*
Y-253D02*
G01Y-247D01*
X1449Y-276D02*
G01Y-269D01*
Y-254D02*
G01Y-248D01*
X1447Y-275D02*
G01Y-266D01*
Y-257D02*
G01Y-249D01*
X1446Y-250D02*
G01Y-274D01*
X1444Y-272*
Y-252*
X1443Y-254*
Y-270*
X1441Y-266*
Y-257*
Y-266*
G54D10*
X1510Y-280D02*
G01Y-274D01*
X1519*
Y-232*
X1510*
Y-226*
X1534*
Y-232*
X1525*
Y-274*
X1534*
Y-280*
X1510*
G54D29*
X1533Y-279D02*
G01Y-275D01*
Y-231D02*
G01Y-226D01*
X1532Y-279D02*
G01Y-275D01*
Y-231D02*
G01Y-226D01*
X1531Y-279D02*
G01Y-275D01*
Y-231D02*
G01Y-226D01*
X1529Y-279D02*
G01Y-275D01*
Y-231D02*
G01Y-226D01*
X1528Y-279D02*
G01Y-275D01*
Y-231D02*
G01Y-226D01*
X1526Y-279D02*
G01Y-275D01*
Y-231D02*
G01Y-226D01*
X1525Y-279D02*
G01Y-226D01*
X1523*
Y-279*
X1522*
Y-226*
X1520*
Y-279*
X1519D02*
G01Y-275D01*
Y-231D02*
G01Y-226D01*
X1517Y-279D02*
G01Y-275D01*
Y-231D02*
G01Y-226D01*
X1516Y-279D02*
G01Y-275D01*
Y-231D02*
G01Y-226D01*
X1515Y-279D02*
G01Y-275D01*
Y-231D02*
G01Y-226D01*
X1513Y-279D02*
G01Y-275D01*
Y-231D02*
G01Y-226D01*
X1512Y-279D02*
G01Y-275D01*
Y-231D02*
G01Y-226D01*
X1511Y-279D02*
G01Y-275D01*
Y-231D02*
G01Y-226D01*
G54D10*
X1580Y-244D02*
G01X1576D01*
X1573Y-245*
X1571Y-246*
X1568Y-248*
X1566Y-250*
X1564Y-253*
X1563Y-256*
X1562Y-259*
Y-262*
Y-265*
X1563Y-268*
X1564Y-271*
X1566Y-274*
X1568Y-276*
X1571Y-278*
X1573Y-279*
X1576Y-280*
X1580*
X1586D02*
G01X1589D01*
X1592Y-279*
X1595Y-278*
X1597Y-276*
X1600Y-274*
X1601Y-271*
X1603Y-268*
X1604Y-265*
Y-262*
Y-259*
X1603Y-256*
X1601Y-253*
X1600Y-250*
X1597Y-248*
X1595Y-246*
X1592Y-245*
X1589Y-244*
X1586*
X1580D02*
G01X1586D01*
X1580Y-280D02*
G01X1586D01*
X1580Y-250D02*
G01X1578D01*
X1576*
X1574Y-251*
X1572Y-253*
X1570Y-254*
X1569Y-256*
X1568Y-258*
Y-260*
Y-262*
Y-264*
Y-266*
X1569Y-268*
X1570Y-270*
X1572Y-271*
X1574Y-272*
X1576Y-273*
X1578Y-274*
X1580*
X1586D02*
G01X1588D01*
X1590Y-273*
X1592Y-272*
X1593Y-271*
X1595Y-270*
X1596Y-268*
X1597Y-266*
X1598Y-264*
Y-262*
Y-260*
X1597Y-258*
X1596Y-256*
X1595Y-254*
X1593Y-253*
X1592Y-251*
X1590Y-250*
X1588*
X1586*
Y-250D02*
G01X1580D01*
Y-274D02*
G01X1586D01*
G54D29*
X1575Y-279D02*
G01X1590D01*
X1594Y-278*
X1572*
X1569Y-276*
X1596*
X1598Y-275*
X1568*
X1566Y-273D02*
G01X1575D01*
X1590D02*
G01X1599D01*
X1565Y-272D02*
G01X1572D01*
X1593D02*
G01X1600D01*
X1564Y-270D02*
G01X1570D01*
X1595D02*
G01X1601D01*
X1564Y-269D02*
G01X1569D01*
X1596D02*
G01X1602D01*
X1563Y-268D02*
G01X1568D01*
X1597D02*
G01X1602D01*
X1563Y-266D02*
G01X1568D01*
X1598D02*
G01X1603D01*
X1563Y-265D02*
G01X1567D01*
X1598D02*
G01X1603D01*
X1562Y-263D02*
G01X1567D01*
X1599D02*
G01X1603D01*
X1562Y-262D02*
G01X1567D01*
X1599D02*
G01X1603D01*
X1562Y-260D02*
G01X1567D01*
X1598D02*
G01X1603D01*
X1563Y-259D02*
G01X1567D01*
X1598D02*
G01X1603D01*
X1563Y-257D02*
G01X1568D01*
X1598D02*
G01X1602D01*
X1563Y-256D02*
G01X1568D01*
X1597D02*
G01X1602D01*
X1564Y-254D02*
G01X1569D01*
X1596D02*
G01X1601D01*
X1565Y-253D02*
G01X1571D01*
X1595D02*
G01X1601D01*
X1565Y-252D02*
G01X1572D01*
X1593D02*
G01X1600D01*
X1567Y-250D02*
G01X1576D01*
X1589D02*
G01X1599D01*
X1597Y-249D02*
G01X1568D01*
X1570Y-247*
X1596*
X1593Y-246*
X1572*
X1575Y-245*
X1590*
G54D10*
X1622Y-232D02*
G01Y-226D01*
X1664*
Y-232*
X1646*
Y-280*
X1640*
Y-232*
X1622*
G54D29*
X1623Y-226D02*
G01Y-231D01*
X1624*
Y-226*
X1626*
Y-231*
X1627*
Y-226*
X1629*
Y-231*
X1630*
Y-226*
X1632*
Y-231*
X1633*
Y-226*
X1634*
Y-231*
X1636*
Y-226*
X1637*
Y-231*
X1639*
Y-226*
X1640*
Y-279*
X1642*
Y-226*
X1643*
Y-279*
X1645*
Y-226*
X1646*
Y-279*
X1648Y-231*
Y-226*
X1649*
Y-231*
X1650*
Y-226*
X1652*
Y-231*
X1653*
Y-226*
X1655*
Y-231*
X1656*
Y-226*
X1658*
Y-231*
X1659*
Y-226*
X1661*
Y-231*
X1662*
Y-226*
X1664*
Y-231*
Y-226*
G54D10*
X1683Y-244D02*
G01X1693Y-280D01*
X1714D02*
G01X1725Y-244D01*
X1683D02*
G01X1689D01*
X1695Y-264*
X1701Y-244*
X1707*
X1713Y-264*
X1714Y-280D02*
G01X1711D01*
X1704Y-254*
X1693Y-280D02*
G01X1696D01*
X1704Y-254*
X1725Y-244D02*
G01X1719D01*
X1713Y-264*
G54D29*
X1684Y-244D02*
G01X1694Y-279D01*
X1695*
X1685Y-244*
X1687*
X1696Y-278*
X1697Y-275*
X1688Y-244*
X1695Y-264*
X1698Y-273*
X1699Y-270*
X1696Y-261*
X1697Y-259*
X1699Y-267*
X1700Y-265*
X1698Y-256*
Y-253*
X1701Y-262*
X1702Y-260*
X1699Y-251*
X1700Y-248*
X1702Y-257*
X1703Y-254*
X1701Y-246*
X1702Y-244*
X1712Y-279*
X1713*
X1703Y-244*
X1705*
X1714Y-278*
X1715Y-275*
X1706Y-244*
X1713Y-264*
X1716Y-273*
X1717Y-270*
X1714Y-261*
X1715Y-259*
X1718Y-267*
Y-265*
X1716Y-256*
Y-253*
X1719Y-262*
X1720Y-260*
X1717Y-251*
X1718Y-248*
X1721Y-257*
Y-254*
X1719Y-246*
X1720Y-244*
X1722Y-252*
X1723Y-249*
X1721Y-244*
X1723*
X1724Y-247*
Y-244*
G54D10*
X1779Y-256D02*
G01Y-271D01*
X1767Y-244D02*
G01X1749D01*
X1755Y-280D02*
G01X1767D01*
X1768Y-256D02*
G01X1755D01*
X1749Y-244D02*
G01Y-250D01*
X1768*
X1774Y-256D02*
G01X1772Y-252D01*
X1768Y-250*
X1779Y-271D02*
G01X1781Y-275D01*
X1785Y-277*
Y-280D02*
G01Y-277D01*
X1768Y-274D02*
G01X1772Y-272D01*
X1774Y-268*
X1772Y-264*
X1768Y-262*
X1756D02*
G01X1752Y-264D01*
X1750Y-268*
X1752Y-272*
X1756Y-274*
Y-274D02*
G01X1768D01*
X1756Y-262D02*
G01X1768D01*
X1774Y-258D02*
G01X1772Y-257D01*
X1770Y-256*
X1768*
X1774Y-258D02*
G01Y-256D01*
X1767Y-280D02*
G01X1769D01*
X1772Y-279*
X1774Y-278*
X1776Y-277*
Y-277D02*
G01X1779Y-279D01*
X1782Y-280*
X1785*
X1755Y-256D02*
G01X1753D01*
X1751Y-257*
X1749*
X1747Y-259*
X1746Y-260*
X1745Y-262*
X1744Y-264*
X1743Y-266*
Y-268*
Y-270*
X1744Y-272*
X1745Y-274*
X1746Y-276*
X1747Y-277*
X1749Y-278*
X1751Y-279*
X1753Y-280*
X1755*
X1779Y-256D02*
G01Y-254D01*
Y-252*
X1778Y-250*
X1776Y-248*
X1775Y-247*
X1773Y-245*
X1771Y-244*
X1769*
X1767*
G54D29*
X1752Y-279D02*
G01X1771D01*
X1781D02*
G01X1785D01*
X1749Y-278D02*
G01X1774D01*
X1777D02*
G01X1785D01*
X1747Y-276D02*
G01X1782D01*
X1780Y-275*
X1746*
X1745Y-273D02*
G01X1753D01*
X1771D02*
G01X1779D01*
X1745Y-272D02*
G01X1751D01*
X1773D02*
G01X1779D01*
X1744Y-271D02*
G01X1750D01*
X1774D02*
G01X1779D01*
X1744Y-269D02*
G01X1749D01*
X1775D02*
G01X1779D01*
X1744Y-268D02*
G01X1749D01*
X1775D02*
G01X1779D01*
X1744Y-266D02*
G01X1749D01*
X1775D02*
G01X1779D01*
X1744Y-265D02*
G01X1750D01*
X1774D02*
G01X1779D01*
X1745Y-263D02*
G01X1751D01*
X1773D02*
G01X1779D01*
X1745Y-262D02*
G01X1779D01*
Y-260*
X1746*
X1748Y-259*
X1779*
X1750Y-257D02*
G01X1772D01*
X1774D02*
G01X1779D01*
X1754Y-256D02*
G01X1769D01*
X1774D02*
G01X1779D01*
X1778Y-255D02*
G01X1774D01*
Y-253*
X1778*
Y-252*
X1773*
X1771Y-250*
X1777*
X1776Y-249*
X1750*
Y-247*
X1775*
X1773Y-246*
X1750*
Y-245*
X1771*
G54D10*
X1804Y-280D02*
G01Y-244D01*
X1840Y-256D02*
G01Y-254D01*
X1839Y-252*
X1838Y-250*
X1837Y-248*
X1835Y-247*
X1834Y-245*
X1832Y-244*
X1830*
X1828*
X1816D02*
G01X1813D01*
X1811*
X1810Y-245*
X1816Y-244D02*
G01X1828D01*
X1840Y-256D02*
G01X1834D01*
Y-256D02*
G01X1832Y-252D01*
X1828Y-250*
Y-250D02*
G01X1816D01*
Y-250D02*
G01X1811Y-252D01*
X1810Y-256*
Y-256D02*
G01Y-280D01*
X1804Y-244D02*
G01X1810D01*
Y-245*
Y-280D02*
G01X1804D01*
G54D29*
X1839Y-255D02*
G01Y-252D01*
X1838Y-250*
Y-255*
X1836*
Y-248*
X1835Y-247*
Y-255*
X1833Y-252*
Y-246*
X1832Y-245*
Y-250*
X1830*
Y-245*
X1829*
Y-249*
X1827*
Y-245*
X1826*
Y-249*
X1824*
Y-245*
X1823*
Y-249*
X1822*
Y-245*
X1820*
Y-249*
X1819*
Y-245*
X1817*
Y-249*
X1816*
Y-245*
X1814*
Y-249*
X1813Y-250*
Y-245*
X1811*
Y-251*
X1810Y-253*
Y-246*
X1808Y-245*
Y-279*
X1807*
Y-245*
X1806*
Y-279*
X1804*
Y-245*
G54D10*
X1882Y-244D02*
G01X1879D01*
X1876Y-245*
X1873Y-246*
X1870Y-248*
X1868Y-250*
X1866Y-253*
X1865Y-256*
X1864Y-259*
Y-262*
Y-265*
X1865Y-268*
X1866Y-271*
X1868Y-274*
X1870Y-276*
X1873Y-278*
X1876Y-279*
X1879Y-280*
X1882*
X1906Y-262D02*
G01Y-259D01*
X1905Y-256*
X1904Y-253*
X1902Y-250*
X1900Y-248*
X1897Y-246*
X1894Y-245*
X1891Y-244*
X1888*
Y-244D02*
G01X1882D01*
G54D29*
X1893Y-245D02*
G01X1878D01*
X1874Y-246*
X1896*
X1898Y-247*
X1872*
X1870Y-249*
X1900*
X1901Y-250D02*
G01X1893D01*
X1877D02*
G01X1869D01*
X1902Y-252D02*
G01X1896D01*
X1874D02*
G01X1868D01*
X1903Y-253D02*
G01X1898D01*
X1873D02*
G01X1867D01*
X1904Y-255D02*
G01X1899D01*
X1871D02*
G01X1866D01*
X1905Y-256D02*
G01X1900D01*
X1871D02*
G01X1866D01*
X1905Y-258D02*
G01X1900D01*
X1870D02*
G01X1865D01*
X1905Y-259D02*
G01X1865D01*
Y-261*
X1905*
X1906Y-262*
X1865*
Y-263*
X1905*
Y-265*
X1865*
Y-266*
X1870*
X1871Y-268*
X1866*
Y-269*
X1872*
X1873Y-271*
X1867*
X1902Y-272D02*
G01X1895D01*
X1875D02*
G01X1868D01*
X1901Y-274D02*
G01X1892D01*
X1878D02*
G01X1869D01*
X1870Y-275D02*
G01X1900D01*
X1898Y-277*
X1872*
X1875Y-278*
X1896*
X1893Y-279*
X1878*
G54D10*
X1888Y-274D02*
G01X1890D01*
X1892Y-273*
X1894Y-272*
X1896Y-271*
X1888Y-280D02*
G01X1891D01*
X1894Y-279*
X1897Y-278*
X1900Y-276*
X1902Y-274*
X1904Y-271*
Y-271D02*
G01X1896D01*
X1882Y-280D02*
G01X1888D01*
X1882Y-274D02*
G01X1888D01*
X1900Y-259D02*
G01X1870D01*
X1882Y-250D02*
G01X1880D01*
X1878*
X1876Y-251*
X1875Y-252*
X1873Y-254*
X1872Y-255*
X1871Y-257*
X1870Y-259*
Y-265D02*
G01X1871Y-267D01*
X1872Y-269*
X1873Y-270*
X1875Y-271*
X1876Y-273*
X1878*
X1880Y-274*
X1882*
X1900Y-259D02*
G01X1899Y-257D01*
X1898Y-255*
X1897Y-254*
X1896Y-252*
X1894Y-251*
X1892Y-250*
X1890*
X1888*
X1906Y-265D02*
G01Y-262D01*
Y-265D02*
G01X1870D01*
X1882Y-250D02*
G01X1888D01*
X2027Y-253D02*
G01X2025Y-246D01*
X2018Y-244*
Y-244D02*
G01X1996D01*
X2017Y-280D02*
G01X1994D01*
X1985Y-271D02*
G01X1988Y-277D01*
X1994Y-280*
X2017Y-259D02*
G01X1996D01*
Y-265D02*
G01X2018D01*
Y-274D02*
G01X1994D01*
X1985Y-271D02*
G01X1991D01*
X1996Y-250D02*
G01X2018D01*
X2027Y-253D02*
G01X2021D01*
Y-253D02*
G01X2020Y-251D01*
X2018Y-250*
X1996Y-244D02*
G01X1994D01*
X1992*
X1990Y-245*
X1989Y-246*
X1987Y-247*
X1986Y-249*
Y-251*
X1985Y-252*
Y-254*
Y-256*
X1986Y-258*
Y-260*
X1987Y-261*
X1989Y-262*
X1990Y-263*
X1992Y-264*
X1994Y-265*
X1996*
Y-250D02*
G01X1992Y-251D01*
X1991Y-254*
X1992Y-257*
X1996Y-259*
X2017Y-280D02*
G01X2019D01*
X2020Y-279*
X2022*
X2024Y-278*
X2025Y-276*
X2026Y-275*
X2027Y-273*
Y-271*
Y-269*
Y-268*
Y-266*
X2026Y-264*
X2025Y-263*
X2024Y-261*
X2022Y-260*
X2020Y-259*
X2019*
X2017*
X2018Y-274D02*
G01X2021Y-273D01*
X2023Y-269*
X2021Y-266*
X2018Y-265*
X1991Y-271D02*
G01X1992Y-273D01*
X1994Y-274*
G54D29*
X2021Y-245D02*
G01X1992D01*
X1990Y-246*
X2023*
X2025Y-247*
X1988*
X1987Y-249*
X2026*
Y-250D02*
G01X2021D01*
X1993D02*
G01X1987D01*
X2026Y-252D02*
G01X2022D01*
X1991D02*
G01X1986D01*
X1990Y-253D02*
G01X1986D01*
Y-255*
X1990*
X1991Y-256*
X1986*
Y-258*
X1992*
X2018Y-259*
X1987*
X1988Y-261*
X2022*
X2023Y-262*
X1989*
X1991Y-263*
X2025*
X2026Y-265*
X1996*
X2022Y-266*
X2026*
Y-268*
X2023*
X2024Y-269*
X2027*
X2026Y-271*
X2023*
X2026Y-272D02*
G01X2023D01*
X1991D02*
G01X1986D01*
X2026Y-274D02*
G01X2021D01*
X1992D02*
G01X1986D01*
X1987Y-275D02*
G01X2025D01*
X2024Y-277*
X1988*
X1989Y-278*
X2022*
X2020Y-279*
X1991*
G54D10*
X2052Y-248D02*
G01Y-226D01*
X2064Y-244D02*
G01X2060D01*
X2057Y-245*
X2054Y-246*
X2052Y-248*
X2082Y-262D02*
G01Y-259D01*
X2081Y-256*
X2079Y-253*
X2078Y-250*
X2075Y-248*
X2073Y-246*
X2070Y-245*
X2067Y-244*
X2064*
X2082Y-262D02*
G01Y-280D01*
X2046Y-226D02*
G01X2052D01*
X2082Y-280D02*
G01X2076D01*
Y-259*
X2046Y-226D02*
G01Y-280D01*
X2052*
X2076Y-259D02*
G01X2075Y-257D01*
X2074Y-255*
X2073Y-253*
X2071Y-252*
X2069Y-251*
X2067Y-250*
X2065*
X2063*
X2060*
X2058Y-251*
X2056Y-252*
X2055Y-253*
X2053Y-255*
X2052Y-257*
Y-259*
Y-259D02*
G01Y-280D01*
G54D29*
X2046Y-226D02*
G01Y-279D01*
X2048*
Y-226*
X2049*
Y-279*
X2051*
Y-226*
X2052Y-249*
Y-257*
X2054Y-254*
Y-248*
X2055Y-247*
Y-252*
X2056Y-251*
Y-246*
X2058Y-245*
Y-250*
X2059*
Y-245*
X2061*
Y-249*
X2062*
Y-245*
X2064*
Y-249*
X2065*
Y-245*
X2067*
Y-249*
X2068Y-250*
Y-245*
X2070*
Y-250*
X2071Y-251*
Y-246*
X2072Y-247*
Y-253*
X2074Y-254*
Y-248*
X2075Y-249*
Y-257*
X2077Y-279*
Y-250*
X2078Y-252*
Y-279*
X2080*
Y-254*
X2081Y-257*
Y-279*
G54D10*
X2115Y-244D02*
G01X2127D01*
X2121Y-229D02*
G01X2122Y-231D01*
X2124Y-232*
X2126Y-231*
X2127Y-229*
X2126Y-226*
X2124*
X2122*
X2121Y-229*
X2115Y-244D02*
G01Y-250D01*
X2121*
Y-274*
X2115*
Y-280*
X2133*
Y-274*
X2127*
Y-244*
G54D29*
X2132Y-279D02*
G01Y-275D01*
X2131*
Y-279*
X2130*
Y-275*
X2128*
Y-279*
X2127D02*
G01Y-245D01*
Y-230D02*
G01Y-228D01*
X2125Y-279D02*
G01Y-245D01*
Y-231D02*
G01Y-227D01*
X2124Y-279D02*
G01Y-245D01*
Y-231D02*
G01Y-226D01*
X2122Y-279D02*
G01Y-245D01*
Y-230D02*
G01Y-227D01*
X2121Y-279D02*
G01Y-275D01*
Y-249D02*
G01Y-245D01*
X2119Y-279D02*
G01Y-275D01*
Y-249D02*
G01Y-245D01*
X2118Y-279D02*
G01Y-275D01*
Y-249D02*
G01Y-245D01*
X2116Y-279D02*
G01Y-275D01*
Y-249D02*
G01Y-245D01*
Y-279D02*
G01Y-275D01*
Y-249D02*
G01Y-245D01*
G54D10*
X2185Y-244D02*
G01X2181D01*
X2178Y-245*
X2176Y-246*
X2173Y-248*
X2171Y-250*
X2169Y-253*
X2168Y-256*
X2167Y-259*
Y-262*
Y-265*
X2168Y-268*
X2169Y-271*
X2171Y-274*
X2173Y-276*
X2176Y-278*
X2178Y-279*
X2181Y-280*
X2185*
X2209Y-262D02*
G01Y-259D01*
X2208Y-256*
X2206Y-253*
X2205Y-250*
X2202Y-248*
X2200Y-246*
X2197Y-245*
X2194Y-244*
X2191*
Y-244D02*
G01X2185D01*
G54D29*
X2195Y-245D02*
G01X2180D01*
X2177Y-246*
X2199*
X2201Y-247*
X2174*
X2173Y-249*
X2203*
X2204Y-250D02*
G01X2195D01*
X2180D02*
G01X2171D01*
X2205Y-252D02*
G01X2198D01*
X2177D02*
G01X2170D01*
X2206Y-253D02*
G01X2200D01*
X2175D02*
G01X2169D01*
X2207Y-255D02*
G01X2201D01*
X2174D02*
G01X2169D01*
X2207Y-256D02*
G01X2202D01*
X2173D02*
G01X2168D01*
X2208Y-258D02*
G01X2203D01*
X2172D02*
G01X2168D01*
X2208Y-259D02*
G01X2168D01*
X2167Y-261*
X2208*
Y-262*
X2167*
Y-263*
X2208*
Y-265*
X2168*
Y-266*
X2173*
Y-268*
X2168*
X2169Y-269*
X2174*
X2175Y-271*
X2170*
X2205Y-272D02*
G01X2198D01*
X2177D02*
G01X2170D01*
X2204Y-274D02*
G01X2194D01*
X2181D02*
G01X2172D01*
X2173Y-275D02*
G01X2202D01*
X2201Y-277*
X2175*
X2177Y-278*
X2198*
X2195Y-279*
X2180*
G54D10*
X2191Y-274D02*
G01X2193D01*
X2195Y-273*
X2197Y-272*
X2198Y-271*
X2191Y-280D02*
G01X2194D01*
X2197Y-279*
X2200Y-278*
X2202Y-276*
X2204Y-274*
X2206Y-271*
X2198*
X2185Y-280D02*
G01X2191D01*
X2185Y-274D02*
G01X2191D01*
X2202Y-259D02*
G01X2173D01*
X2185Y-250D02*
G01X2183D01*
X2181*
X2179Y-251*
X2177Y-252*
X2176Y-254*
X2174Y-255*
Y-257*
X2173Y-259*
Y-265D02*
G01X2174Y-267D01*
Y-269*
X2176Y-270*
X2177Y-271*
X2179Y-273*
X2181*
X2183Y-274*
X2185*
X2202Y-259D02*
G01Y-257D01*
X2201Y-255*
X2200Y-254*
X2198Y-252*
X2196Y-251*
X2195Y-250*
X2193*
X2191*
X2209Y-265D02*
G01Y-262D01*
Y-265D02*
G01X2173D01*
X2185Y-250D02*
G01X2191D01*
X2248Y-226D02*
G01X2242D01*
Y-274D02*
G01X2236D01*
Y-280*
X2254*
Y-274*
X2248*
Y-226*
X2236*
Y-232*
X2242*
Y-274*
G54D29*
X2253Y-279D02*
G01Y-275D01*
X2252*
Y-279*
X2251*
Y-275*
X2249*
Y-279*
X2248D02*
G01Y-226D01*
X2246Y-279D02*
G01Y-226D01*
X2245Y-279D02*
G01Y-226D01*
X2243*
Y-279*
X2242D02*
G01Y-275D01*
Y-231D02*
G01Y-226D01*
X2240Y-279D02*
G01Y-275D01*
Y-231D02*
G01Y-226D01*
X2239Y-279D02*
G01Y-275D01*
Y-231D02*
G01Y-226D01*
X2237Y-279D02*
G01Y-275D01*
Y-231D02*
G01Y-226D01*
Y-279D02*
G01Y-275D01*
Y-231D02*
G01Y-226D01*
G54D10*
X2306Y-244D02*
G01X2302D01*
X2299Y-245*
X2297Y-246*
X2294Y-248*
X2292Y-250*
X2290Y-253*
X2289Y-256*
X2288Y-259*
Y-262*
Y-265*
X2289Y-268*
X2290Y-271*
X2292Y-274*
X2294Y-276*
X2297Y-278*
X2299Y-279*
X2302Y-280*
X2306*
Y-244D02*
G01X2312D01*
X2306Y-280D02*
G01X2313D01*
X2330D02*
G01Y-226D01*
Y-280D02*
G01X2324D01*
Y-226D02*
G01X2330D01*
X2312Y-274D02*
G01X2314D01*
X2316Y-273*
X2318Y-272*
X2319Y-271*
X2321Y-270*
X2322Y-268*
X2323Y-266*
X2324Y-264*
Y-262*
Y-260*
X2323Y-258*
X2322Y-256*
X2321Y-254*
X2319Y-253*
X2318Y-251*
X2316Y-250*
X2314*
X2312*
X2306D02*
G01X2304D01*
X2302*
X2300Y-251*
X2298Y-253*
X2296Y-254*
X2295Y-256*
X2294Y-258*
Y-260*
Y-262*
Y-264*
Y-266*
X2295Y-268*
X2296Y-270*
X2298Y-271*
X2300Y-272*
X2302Y-273*
X2304Y-274*
X2306*
X2312Y-250D02*
G01X2306D01*
Y-274D02*
G01X2312D01*
X2313Y-280D02*
G01X2316D01*
X2319Y-279*
X2321Y-277*
X2324Y-276*
Y-248D02*
G01X2321Y-246D01*
X2318Y-245*
X2315Y-244*
X2312*
X2324Y-275D02*
G01Y-280D01*
Y-248D02*
G01Y-226D01*
G54D29*
X2329Y-279D02*
G01Y-226D01*
X2328*
Y-279*
X2326*
Y-226*
X2325*
Y-279*
X2323Y-275D02*
G01Y-266D01*
Y-257D02*
G01Y-249D01*
X2322Y-276D02*
G01Y-269D01*
Y-254D02*
G01Y-248D01*
X2320Y-277D02*
G01Y-271D01*
Y-253D02*
G01Y-247D01*
X2319Y-278D02*
G01Y-272D01*
Y-251D02*
G01Y-246D01*
X2317Y-278D02*
G01Y-273D01*
Y-250D02*
G01Y-245D01*
X2316Y-279D02*
G01Y-274D01*
Y-250D02*
G01Y-245D01*
X2315Y-279D02*
G01Y-274D01*
Y-249D02*
G01Y-245D01*
X2313Y-279D02*
G01Y-275D01*
Y-249D02*
G01Y-245D01*
X2312Y-279D02*
G01Y-275D01*
Y-249D02*
G01Y-245D01*
X2310Y-279D02*
G01Y-275D01*
Y-249D02*
G01Y-245D01*
X2309Y-279D02*
G01Y-275D01*
Y-249D02*
G01Y-245D01*
X2307Y-279D02*
G01Y-275D01*
Y-249D02*
G01Y-245D01*
X2306Y-279D02*
G01Y-275D01*
Y-249D02*
G01Y-245D01*
X2304Y-279D02*
G01Y-275D01*
Y-249D02*
G01Y-245D01*
X2303Y-279D02*
G01Y-274D01*
Y-249D02*
G01Y-245D01*
X2301Y-279D02*
G01Y-274D01*
Y-250D02*
G01Y-245D01*
X2300Y-278D02*
G01Y-273D01*
Y-250D02*
G01Y-245D01*
X2299Y-278D02*
G01Y-272D01*
Y-251D02*
G01Y-246D01*
X2297Y-277D02*
G01Y-271D01*
Y-253D02*
G01Y-247D01*
X2296Y-276D02*
G01Y-269D01*
Y-254D02*
G01Y-248D01*
X2294Y-275D02*
G01Y-266D01*
Y-257D02*
G01Y-249D01*
X2293Y-250D02*
G01Y-274D01*
X2291Y-272*
Y-252*
X2290Y-254*
Y-270*
X2288Y-266*
Y-257*
Y-266*
G54D10*
X1725Y-160D02*
G01Y-85D01*
X1769Y-160*
Y-85*
X1831Y-151D02*
G01X1822Y-160D01*
X1797*
X1788Y-151*
Y-94*
X1797Y-85*
X1822*
X1831Y-94*
X1866Y-160D02*
G01X1878D01*
X1872D02*
G01Y-85D01*
X1866Y-91*
X1913Y-94D02*
G01X1922Y-85D01*
X1947*
X1956Y-94*
Y-113*
X1947Y-123*
X1925*
X1947D02*
G01X1956Y-132D01*
Y-151*
X1947Y-160*
X1922*
X1913Y-151*
X1975Y-94D02*
G01X1984Y-85D01*
X2009*
X2019Y-94*
Y-113*
X2009Y-123*
X1988*
X2009D02*
G01X2019Y-132D01*
Y-151*
X2009Y-160*
X1984*
X1975Y-151*
X2038Y-94D02*
G01X2047Y-85D01*
X2072*
X2081Y-94*
Y-113*
X2072Y-123*
X2050*
X2072D02*
G01X2081Y-132D01*
Y-151*
X2072Y-160*
X2047*
X2038Y-151*
X2115Y2321D02*
G01X2124Y2330D01*
X2149*
X2159Y2321*
Y2311*
X2115Y2255D02*
G01X2159D01*
X2115Y2268D02*
G01X2159Y2311D01*
X2115Y2268D02*
G01Y2255D01*
X2187Y2330D02*
G01X2212D01*
X2221Y2321*
Y2302*
X2212Y2293*
X2187*
X2178Y2283*
Y2264*
X2187Y2255*
X2212*
X2221Y2264*
Y2283*
X2212Y2293*
X2187D02*
G01X2178Y2302D01*
Y2321*
X2187Y2330*
X2303Y2264D02*
G01X2312Y2255D01*
X2337*
X2346Y2264*
Y2283*
X2337Y2293*
X2312*
X2303Y2302*
Y2321*
X2312Y2330*
X2337*
X2346Y2321*
X2409Y2255D02*
G01X2365D01*
Y2330*
X2409*
X2365Y2293D02*
G01X2403D01*
X2428Y2255D02*
G01Y2330D01*
X2462*
X2471Y2321*
Y2299*
X2462Y2293*
X2428*
X2512Y2255D02*
G01Y2330D01*
X2490D02*
G01X2534D01*
X2615Y2321D02*
G01X2624Y2330D01*
X2649*
X2659Y2321*
Y2311*
X2615Y2255D02*
G01X2659D01*
X2615Y2268D02*
G01X2659Y2311D01*
X2615Y2268D02*
G01Y2255D01*
X2678Y2264D02*
G01Y2321D01*
X2687Y2330*
X2712*
X2721Y2321*
Y2264*
X2712Y2255*
X2687*
X2678Y2264*
X2756Y2255D02*
G01X2768D01*
X2762D02*
G01Y2330D01*
X2756Y2324*
X2846Y2321D02*
G01X2837Y2330D01*
X2812*
X2803Y2321*
Y2264*
X2812Y2255*
X2837*
X2846Y2264*
Y2289*
X2837Y2299*
X2812*
X2803Y2289*
X2165Y-160D02*
G01Y-85D01*
X2209Y-160*
Y-85*
X2271Y-151D02*
G01X2262Y-160D01*
X2237*
X2228Y-151*
Y-94*
X2237Y-85*
X2262*
X2271Y-94*
X2306Y-160D02*
G01X2318D01*
X2312D02*
G01Y-85D01*
X2306Y-91*
X2353Y-94D02*
G01X2362Y-85D01*
X2387*
X2396Y-94*
Y-113*
X2387Y-123*
X2365*
X2387D02*
G01X2396Y-132D01*
Y-151*
X2387Y-160*
X2362*
X2353Y-151*
X2415D02*
G01X2424Y-160D01*
X2449*
X2459Y-151*
Y-126*
X2449Y-116*
X2415*
Y-85*
X2459*
X2478Y-94D02*
G01X2487Y-85D01*
X2512*
X2521Y-94*
Y-113*
X2512Y-123*
X2490*
X2512D02*
G01X2521Y-132D01*
Y-151*
X2512Y-160*
X2487*
X2478Y-151*
X2397Y-280D02*
G01X2407D01*
X2424Y-224*
X2416*
X2402Y-271*
X2397Y-280D02*
G01X2380Y-224D01*
X2388*
X2402Y-271*
G54D29*
X2406Y-279D02*
G01X2423Y-225D01*
X2421*
X2404Y-279*
X2403*
X2420Y-225*
X2418*
X2401Y-279*
X2400*
X2417Y-225*
X2401Y-270*
X2398Y-279*
X2397Y-278*
X2400Y-267*
Y-265*
X2396Y-276*
Y-273*
X2399Y-262*
X2398Y-260*
X2395Y-271*
X2394Y-268*
X2397Y-257*
Y-255*
X2393Y-266*
Y-263*
X2396Y-252*
X2395Y-250*
X2392Y-261*
X2391Y-258*
X2394Y-247*
Y-245*
X2390Y-256*
Y-253*
X2393Y-242*
X2392Y-240*
X2389Y-251*
X2388Y-248*
X2391Y-237*
Y-235*
X2387Y-246*
X2386Y-243*
X2390Y-232*
X2389Y-230*
X2386Y-241*
X2385Y-238*
X2388Y-227*
Y-225*
X2384Y-236*
X2383Y-233*
X2386Y-225*
X2385*
X2383Y-231*
X2382Y-228*
X2383Y-225*
X2382*
X2381Y-226*
Y-224*
G54D10*
X2461Y-243D02*
G01X2458D01*
X2455Y-244*
X2452Y-245*
X2449Y-247*
X2447Y-249*
X2445Y-252*
X2444Y-255*
X2443Y-258*
Y-261*
Y-265*
X2444Y-268*
X2445Y-271*
X2447Y-273*
X2449Y-276*
X2452Y-277*
X2455Y-279*
X2458Y-280*
X2461*
X2486Y-261D02*
G01Y-258D01*
X2485Y-255*
X2484Y-252*
X2482Y-249*
X2480Y-247*
X2477Y-245*
X2474Y-244*
X2471Y-243*
X2468*
Y-243D02*
G01X2461D01*
G54D29*
X2472D02*
G01X2457D01*
X2453Y-245*
X2476*
X2478Y-246*
X2451*
X2449Y-248*
X2480*
X2481Y-249D02*
G01X2472D01*
X2457D02*
G01X2448D01*
X2482Y-251D02*
G01X2475D01*
X2454D02*
G01X2447D01*
X2483Y-252D02*
G01X2477D01*
X2452D02*
G01X2446D01*
X2484Y-253D02*
G01X2478D01*
X2451D02*
G01X2445D01*
X2484Y-255D02*
G01X2479D01*
X2450D02*
G01X2444D01*
X2485Y-256D02*
G01X2480D01*
X2449D02*
G01X2444D01*
X2485Y-258D02*
G01X2480D01*
X2448D02*
G01X2444D01*
X2443Y-259D02*
G01X2485D01*
Y-261*
X2443*
Y-262*
X2485*
Y-264*
X2443*
X2444Y-265*
X2448*
X2449Y-267*
X2444*
X2445Y-268*
X2450*
X2451Y-269*
X2445*
X2483Y-271D02*
G01X2476D01*
X2452D02*
G01X2446D01*
X2482Y-272D02*
G01X2474D01*
X2455D02*
G01X2447D01*
X2481Y-274D02*
G01X2468D01*
X2461D02*
G01X2448D01*
X2479Y-275D02*
G01X2450D01*
X2452Y-277*
X2477*
X2475Y-278*
X2454*
X2457Y-279*
X2472*
G54D10*
X2468Y-274D02*
G01X2470D01*
X2472Y-273*
X2474Y-272*
X2475Y-271*
X2468Y-280D02*
G01X2471D01*
X2474Y-279*
X2477Y-278*
X2479Y-276*
X2482Y-273*
X2484Y-271*
Y-271D02*
G01X2475D01*
X2461Y-280D02*
G01X2468D01*
X2461Y-274D02*
G01X2467D01*
X2480Y-258D02*
G01X2449D01*
X2461Y-249D02*
G01X2459D01*
X2457*
X2455Y-250*
X2454Y-251*
X2452Y-253*
X2451Y-254*
X2450Y-256*
X2449Y-258*
Y-264D02*
G01X2450Y-266D01*
X2451Y-268*
X2452Y-270*
X2454Y-271*
X2455Y-272*
X2457Y-273*
X2459Y-274*
X2461*
X2480Y-258D02*
G01X2479Y-256D01*
X2478Y-254*
X2477Y-253*
X2475Y-251*
X2473Y-250*
X2472Y-249*
X2470*
X2468*
X2486Y-264D02*
G01Y-261D01*
Y-264D02*
G01X2449D01*
X2461Y-249D02*
G01X2468D01*
X2467Y-274D02*
G01X2468D01*
X2505Y-280D02*
G01Y-243D01*
X2543Y-255D02*
G01X2542Y-253D01*
Y-251*
X2541Y-249*
X2540Y-247*
X2538Y-245*
X2536Y-244*
X2534Y-243*
X2532*
X2530*
X2518D02*
G01X2515D01*
X2513*
X2511Y-244*
X2518Y-243D02*
G01X2530D01*
X2543Y-255D02*
G01X2536D01*
Y-255D02*
G01X2534Y-251D01*
X2530Y-249*
Y-249D02*
G01X2518D01*
Y-249D02*
G01X2513Y-251D01*
X2511Y-255*
Y-280*
X2505Y-243D02*
G01X2511D01*
Y-244*
Y-280D02*
G01X2505D01*
G54D29*
X2542Y-254D02*
G01Y-251D01*
X2540Y-249*
Y-254*
X2539*
Y-247*
X2537Y-246*
Y-254*
X2536Y-252*
Y-245*
X2534Y-244*
Y-250*
X2533Y-249*
Y-244*
X2532Y-243*
Y-248*
X2530*
Y-243*
X2529*
Y-248*
X2527*
Y-243*
X2526*
Y-248*
X2524*
Y-243*
X2523*
Y-248*
X2521*
Y-243*
X2520*
Y-248*
X2518*
Y-243*
X2517*
Y-248*
X2516*
Y-243*
X2514Y-244*
Y-249*
X2513Y-250*
Y-244*
X2511Y-243*
Y-279*
X2510*
Y-243*
X2508*
Y-279*
X2507*
Y-243*
X2506*
Y-279*
G54D10*
X2589Y-274D02*
G01X2587Y-275D01*
X2586Y-277*
X2587Y-279*
X2589Y-280*
X2592Y-279*
X2593Y-277*
X2592Y-275*
X2589Y-274*
Y-255D02*
G01X2587Y-256D01*
X2586Y-258*
X2587Y-260*
X2589Y-261*
X2592Y-260*
X2593Y-258*
X2592Y-256*
X2589Y-255*
G54D29*
X2588Y-279D02*
G01X2591D01*
X2592Y-278*
X2587*
Y-276*
X2592*
X2591Y-275*
X2588*
X2591Y-260D02*
G01X2588D01*
X2587Y-259*
X2592*
Y-257*
X2587*
X2588Y-256*
X2591*
X2588*
G54D10*
X2649Y-232D02*
G01Y-274D01*
X2639*
Y-280*
X2661*
Y-274*
X2655*
Y-224*
X2649*
X2639Y-236*
X2646*
X2649Y-232*
G54D29*
X2660Y-279D02*
G01Y-275D01*
X2659*
Y-279*
X2658*
Y-275*
X2656*
Y-279*
X2655*
Y-225*
X2653*
Y-279*
X2652*
Y-225*
X2650*
Y-279*
X2649*
Y-225*
X2647Y-279D02*
G01Y-275D01*
Y-233D02*
G01Y-226D01*
X2646Y-279D02*
G01Y-275D01*
Y-235D02*
G01Y-228D01*
X2644Y-279D02*
G01Y-275D01*
Y-235D02*
G01Y-230D01*
X2643Y-279D02*
G01Y-275D01*
Y-235D02*
G01Y-232D01*
X2642Y-279D02*
G01Y-275D01*
Y-235D02*
G01Y-234D01*
X2640Y-279D02*
G01Y-275D01*
G54D10*
X2705Y-274D02*
G01X2703Y-275D01*
X2702Y-277*
X2703Y-279*
X2705Y-280*
X2707Y-279*
X2708Y-277*
X2707Y-275*
X2705Y-274*
G54D29*
X2704Y-279D02*
G01X2706D01*
X2707Y-278*
X2703*
Y-276*
X2707*
Y-275*
X2703*
X2704*
X2706*
G54D10*
X2799Y-246D02*
G01X2798Y-242D01*
X2797Y-238*
X2796Y-235*
X2794Y-232*
X2791Y-229*
X2788Y-227*
X2784Y-225*
X2781Y-224*
X2777*
X2773*
X2769Y-225*
X2766Y-227*
X2763Y-229*
X2760Y-232*
X2758Y-235*
X2756Y-238*
X2755Y-242*
Y-246*
Y-246D02*
G01Y-258D01*
Y-258D02*
G01Y-262D01*
X2756Y-266*
X2758Y-269*
X2760Y-272*
X2763Y-275*
X2766Y-277*
X2769Y-279*
X2773Y-280*
X2777*
X2781*
X2784Y-279*
X2788Y-277*
X2791Y-275*
X2794Y-272*
X2796Y-269*
X2797Y-266*
X2798Y-262*
X2799Y-258*
Y-258D02*
G01Y-246D01*
X2761D02*
G01Y-258D01*
X2793Y-246D02*
G01Y-258D01*
X2761D02*
G01Y-261D01*
X2762Y-263*
X2763Y-266*
X2765Y-268*
X2767Y-270*
X2769Y-272*
X2772Y-273*
X2774Y-274*
X2777*
X2780*
X2782Y-273*
X2785Y-272*
X2787Y-270*
X2789Y-268*
X2790Y-266*
X2792Y-263*
Y-261*
X2793Y-258*
Y-246D02*
G01X2792Y-243D01*
Y-240*
X2790Y-238*
X2789Y-236*
X2787Y-234*
X2785Y-232*
X2782Y-231*
X2780Y-230*
X2777*
X2774*
X2772Y-231*
X2769Y-232*
X2767Y-234*
X2765Y-236*
X2763Y-238*
X2762Y-240*
X2761Y-243*
Y-246*
G54D29*
X2756Y-241D02*
G01Y-263D01*
X2757Y-267*
Y-237*
X2759Y-234*
Y-270*
X2760Y-271*
Y-232*
X2762Y-231D02*
G01Y-241D01*
Y-262D02*
G01Y-273D01*
X2763Y-229D02*
G01Y-238D01*
Y-266D02*
G01Y-274D01*
X2765Y-228D02*
G01Y-235D01*
Y-268D02*
G01Y-275D01*
X2766Y-227D02*
G01Y-234D01*
Y-270D02*
G01Y-276D01*
X2767Y-227D02*
G01Y-232D01*
Y-271D02*
G01Y-277D01*
X2769Y-226D02*
G01Y-231D01*
Y-272D02*
G01Y-278D01*
X2770Y-226D02*
G01Y-231D01*
Y-273D02*
G01Y-278D01*
X2772Y-225D02*
G01Y-230D01*
Y-274D02*
G01Y-279D01*
X2773Y-225D02*
G01Y-230D01*
Y-274D02*
G01Y-279D01*
X2775Y-225D02*
G01Y-229D01*
Y-274D02*
G01Y-279D01*
X2776Y-225D02*
G01Y-229D01*
Y-275D02*
G01Y-279D01*
X2778Y-225D02*
G01Y-229D01*
Y-275D02*
G01Y-279D01*
X2779Y-225D02*
G01Y-229D01*
Y-274D02*
G01Y-279D01*
X2781Y-225D02*
G01Y-230D01*
Y-274D02*
G01Y-279D01*
X2782Y-225D02*
G01Y-230D01*
Y-274D02*
G01Y-279D01*
X2783Y-226D02*
G01Y-231D01*
Y-273D02*
G01Y-278D01*
X2785Y-226D02*
G01Y-231D01*
Y-272D02*
G01Y-278D01*
X2786Y-227D02*
G01Y-232D01*
Y-271D02*
G01Y-277D01*
X2788Y-227D02*
G01Y-234D01*
Y-270D02*
G01Y-276D01*
X2789Y-228D02*
G01Y-235D01*
Y-268D02*
G01Y-275D01*
X2791Y-229D02*
G01Y-238D01*
Y-266D02*
G01Y-274D01*
X2792Y-231D02*
G01Y-242D01*
Y-262D02*
G01Y-273D01*
X2794Y-232D02*
G01Y-271D01*
X2795Y-269*
Y-234*
X2797Y-237*
Y-267*
X2798Y-263*
Y-241*
G54D10*
X2880Y0D02*
G01Y2180D01*
X2565Y-160D02*
G01Y-85D01*
X2609Y-160*
Y-85*
X2671Y-151D02*
G01X2662Y-160D01*
X2637*
X2628Y-151*
Y-94*
X2637Y-85*
X2662*
X2671Y-94*
X2706Y-160D02*
G01X2718D01*
X2712D02*
G01Y-85D01*
X2706Y-91*
X2753Y-94D02*
G01X2762Y-85D01*
X2787*
X2796Y-94*
Y-113*
X2787Y-123*
X2765*
X2787D02*
G01X2796Y-132D01*
Y-151*
X2787Y-160*
X2762*
X2753Y-151*
X2859Y-94D02*
G01X2849Y-85D01*
X2824*
X2815Y-94*
Y-151*
X2824Y-160*
X2849*
X2859Y-151*
Y-126*
X2849Y-116*
X2824*
X2815Y-126*
X2878Y-151D02*
G01X2887Y-160D01*
X2912*
X2921Y-151*
Y-94*
X2912Y-85*
X2887*
X2878Y-94*
Y-119*
X2887Y-129*
X2912*
X2921Y-119*
M02*
