G04 CAM350 V9.5.2 (Build 226) Date:  Wed Sep 28 16:03:56 2016 *
G04 Database: C:\new\NC1369\274X\NC1369TOP.cam *
G04 Layer 1: 1.gbr *
%FSLAX23Y23*%
%MOIN*%
%SFA1.000B1.000*%

%MIA0B0*%
%IPPOS*%
%AMrect64x52_330*
4,1,4,-0.01471,0.03852,0.04071,0.00652,0.01471,-0.03852,-0.04071,-0.00652,-0.01471,0.03852,0.00000*
%
%AMrect64x52_300*
4,1,4,0.00652,0.04071,0.03852,-0.01471,-0.00652,-0.04071,-0.03852,0.01471,0.00652,0.04071,0.00000*
%
%AMrect64x52_240*
4,1,4,0.03852,0.01471,0.00652,-0.04071,-0.03852,-0.01471,-0.00652,0.04071,0.03852,0.01471,0.00000*
%
%AMrect64x52_210*
4,1,4,0.04071,-0.00652,-0.01471,-0.03852,-0.04071,0.00652,0.01471,0.03852,0.04071,-0.00652,0.00000*
%
%AMrect64x52_60*
4,1,4,-0.03852,-0.01471,-0.00652,0.04071,0.03852,0.01471,0.00652,-0.04071,-0.03852,-0.01471,0.00000*
%
%AMrect64x52_30*
4,1,4,-0.04071,0.00652,0.01471,0.03852,0.04071,-0.00652,-0.01471,-0.03852,-0.04071,0.00652,0.00000*
%
%AMrect64x52_150*
4,1,4,0.01471,-0.03852,-0.04071,-0.00652,-0.01471,0.03852,0.04071,0.00652,0.01471,-0.03852,0.00000*
%
%AMrect64x52_120*
4,1,4,-0.00652,-0.04071,-0.03852,0.01471,0.00652,0.04071,0.03852,-0.01471,-0.00652,-0.04071,0.00000*
%
%ADD10C,0.01200*%
%ADD11C,0.00400*%
%ADD12C,0.08000*%
%ADD13R,0.08000X0.08000*%
%ADD14R,0.07000X0.07000*%
%ADD15C,0.07000*%
%ADD16C,0.06200*%
%ADD17C,0.03600*%
%ADD18C,0.05000*%
%ADD19C,0.02000*%
%ADD70C,0.06400*%
%ADD71R,0.06400X0.06400*%
%ADD20C,0.04000*%
%ADD21C,0.04000*%
%ADD22C,0.01000*%
%ADD23C,0.06000*%
%ADD24O,0.06200X0.07000*%
%ADD25R,0.06200X0.07000*%
%ADD26C,0.03000*%
%ADD27R,0.06400X0.05200*%
%ADD28R,0.04000X0.04000*%
%ADD29C,0.05000*%
%ADD72R,0.05200X0.06400*%
%ADD73R,0.04800X0.08800*%
%ADD30R,0.14400X0.08800*%
%ADD31rect64x52_330*%
%ADD32rect64x52_300*%
%ADD33rect64x52_240*%
%ADD34rect64x52_210*%
%ADD35rect64x52_60*%
%ADD36rect64x52_30*%
%ADD37rect64x52_150*%
%ADD38rect64x52_120*%
%ADD39O,0.07000X0.06200*%
%ADD40R,0.07000X0.06200*%
%ADD41O,0.08000X0.06200*%
%LN1.gbr*%
%LPD*%
G54D12*
X670Y140D03*
X770D03*
X870D03*
X970D03*
X1070D03*
X1170D03*
X1270D03*
X1470D03*
X1570D03*
X1670D03*
X1770D03*
X1870D03*
X1970D03*
Y2040D03*
X1870D03*
X1770D03*
X1670D03*
X1570D03*
X1470D03*
X1370D03*
X1270D03*
X1110D03*
X1010D03*
X910D03*
X810D03*
X710D03*
X610D03*
X510D03*
X410D03*
X310D03*
X210D03*
G54D13*
X570Y140D03*
G54D14*
X375Y415D03*
G54D15*
X275D03*
X575D03*
G54D16*
X385Y140D03*
X251D03*
X100Y415D03*
Y340D03*
Y265D03*
X225Y600D03*
X325Y700D03*
X225Y800D03*
G54D70*
X545Y564D03*
G54D71*
X645D03*
G54D12*
X386Y1140D03*
X130D03*
Y964D03*
X386D03*
X776Y1140D03*
X520D03*
Y964D03*
X776D03*
G54D20*
X375Y875D03*
X520Y664D03*
X270Y984D03*
Y924D03*
Y1154D03*
X200Y1090D03*
X330Y1079D03*
G54D24*
X170Y1930D03*
X270D03*
X70D03*
G54D25*
X370D03*
G54D20*
X200Y1630D03*
G54D27*
X925Y375D03*
Y450D03*
X825Y300D03*
Y375D03*
G54D28*
X750Y350D03*
Y430D03*
X670Y390D03*
G54D29*
X1010Y395D03*
G54D20*
X895Y290D03*
X955Y310D03*
G54D12*
X1110Y1015D03*
Y1314D03*
G54D70*
X850Y730D03*
G54D71*
X950D03*
G54D20*
X1050Y930D03*
X856Y1033D03*
X991Y925D03*
X700Y854D03*
G54D70*
X770Y1265D03*
G54D71*
X670D03*
G54D24*
X970Y1465D03*
X1070D03*
X870D03*
X770D03*
X670D03*
G54D25*
X1170D03*
G54D20*
X940Y1084D03*
X910Y1134D03*
X1040Y1234D03*
G54D24*
X870Y1740D03*
X770D03*
X970D03*
X1070D03*
X1170D03*
G54D25*
X670D03*
G54D24*
X1270D03*
X1370D03*
X1470D03*
X1570D03*
X1670D03*
X1770D03*
X1870D03*
X1970D03*
X1770Y1840D03*
X1870D03*
X1670D03*
X1570D03*
X1470D03*
G54D25*
X1970D03*
G54D24*
X1370D03*
X1270D03*
X1170D03*
X1070D03*
X970D03*
X870D03*
X770D03*
X670D03*
X870Y1640D03*
X770D03*
X970D03*
X1070D03*
X1170D03*
G54D25*
X670D03*
G54D24*
X1270D03*
X1370D03*
X1470D03*
X1570D03*
X1670D03*
X1770D03*
X1870D03*
X1970D03*
G54D20*
X594Y1931D03*
X579Y1826D03*
G54D72*
X1245Y240D03*
X1170D03*
G54D70*
X1420Y465D03*
Y365D03*
G54D71*
Y265D03*
G54D73*
X1089Y365D03*
X1180D03*
X1270D03*
G54D30*
X1180Y609D03*
G54D29*
Y479D03*
G54D31*
X1591Y883D03*
X1553Y818D03*
G54D32*
X1502Y971D03*
X1437Y933D03*
G54D20*
X1552Y1001D03*
X1416Y863D03*
X1310Y760D03*
X1552Y746D03*
X1360Y720D03*
X1300Y980D03*
X1416Y803D03*
X1550Y615D03*
G54D72*
X1471Y1090D03*
X1396D03*
G54D33*
X1502Y1210D03*
X1437Y1247D03*
G54D34*
X1591Y1297D03*
X1553Y1362D03*
G54D20*
X1530Y1090D03*
X1552Y1180D03*
X1456Y1487D03*
X1335Y1060D03*
X1320Y1120D03*
X1351Y1195D03*
X1553Y1558D03*
X1380Y1370D03*
X1200Y1264D03*
X1220Y1364D03*
X1240Y1520D03*
G54D70*
X1595Y465D03*
Y365D03*
G54D71*
Y265D03*
G54D70*
X1770Y465D03*
Y365D03*
G54D71*
Y265D03*
G54D70*
X1945Y465D03*
Y365D03*
G54D71*
Y265D03*
G54D35*
X1917Y971D03*
X1982Y933D03*
G54D27*
X1710Y851D03*
Y776D03*
G54D28*
X1621Y1025D03*
X1798D03*
Y1155D03*
X1621D03*
G54D36*
X1829Y884D03*
X1866Y819D03*
G54D20*
X1870Y1006D03*
X1799Y935D03*
X1710Y910D03*
X1621Y932D03*
X1710Y715D03*
X2076Y620D03*
X1746Y1034D03*
X1675Y1030D03*
X2006Y630D03*
G54D37*
X1830Y1297D03*
X1867Y1362D03*
G54D38*
X1917Y1210D03*
X1982Y1247D03*
G54D72*
X1949Y1090D03*
X2024D03*
G54D27*
X1710Y1329D03*
Y1404D03*
G54D20*
X1890Y1090D03*
X1866Y1180D03*
X1620Y1245D03*
X1710Y1270D03*
X1801Y1246D03*
X1655Y1564D03*
X1867Y1432D03*
X2027Y1332D03*
X2025Y1495D03*
X2066Y1170D03*
X1739Y1220D03*
X1600Y1090D03*
X1880Y1547D03*
X1620Y1450D03*
X2037Y1576D03*
G54D24*
X2445Y140D03*
X2545D03*
X2345D03*
X2245D03*
X2145D03*
G54D25*
X2645D03*
G54D24*
X2445Y240D03*
X2545D03*
X2345D03*
X2245D03*
X2145D03*
G54D25*
X2645D03*
G54D24*
X2445Y340D03*
X2545D03*
X2345D03*
X2245D03*
X2145D03*
G54D25*
X2645D03*
G54D20*
X2590Y460D03*
X2089Y459D03*
G54D72*
X2375Y1035D03*
X2450D03*
X2270D03*
X2195D03*
G54D27*
X2285Y665D03*
Y740D03*
X2450Y837D03*
Y762D03*
G54D72*
X2570Y755D03*
X2645D03*
X2570Y852D03*
X2645D03*
X2375Y665D03*
X2450D03*
G54D27*
X2540Y635D03*
Y560D03*
G54D72*
X2285Y830D03*
X2360D03*
G54D39*
X2610Y1140D03*
Y1240D03*
Y1340D03*
X2710Y1440D03*
Y1340D03*
Y1240D03*
G54D40*
X2610Y1440D03*
G54D39*
X2710Y1140D03*
G54D20*
X2514Y852D03*
Y765D03*
X2510Y703D03*
X2380Y895D03*
X2285Y607D03*
X2110Y779D03*
X2177Y687D03*
G54D70*
X2195Y1615D03*
G54D71*
Y1515D03*
G54D70*
X2450Y1260D03*
X2350D03*
G54D71*
X2250D03*
G54D16*
X2415Y1465D03*
X2335D03*
G54D20*
X2120Y1270D03*
G54D29*
X2400Y1330D03*
G54D20*
X2520Y1430D03*
X2585Y1067D03*
X2370Y1117D03*
X2520Y1500D03*
G54D27*
X2090Y1965D03*
Y2040D03*
X2335Y1715D03*
Y1790D03*
G54D72*
X2340Y1940D03*
X2415D03*
G54D27*
X2435Y1715D03*
Y1790D03*
G54D41*
X2610Y1940D03*
X2710D03*
Y2040D03*
X2610D03*
Y1840D03*
X2710D03*
X2610Y1740D03*
X2710D03*
G54D72*
X2360Y1615D03*
X2435D03*
G54D70*
X2315Y2040D03*
G54D71*
X2415D03*
G54D20*
X2265Y1930D03*
X2515Y1615D03*
X2195Y1740D03*
X2610Y560D03*
X2645Y927D03*
X2610Y997D03*
Y1615D03*
G54D11*
X1057Y37D02*
G01X37D01*
Y39*
X1057*
Y41*
X37*
Y43*
X1057*
Y45*
X37*
Y47*
X1057*
Y49*
X37*
Y51*
X1057*
Y53*
X37*
Y55*
X1057*
Y57*
X37*
Y59*
X1057*
Y61*
X37*
Y63*
X1057*
Y65*
X37*
Y67*
X1057*
Y69*
X37*
Y71*
X499*
X643D02*
G01X653D01*
X689D02*
G01X753D01*
X789D02*
G01X853D01*
X889D02*
G01X953D01*
X989D02*
G01X1057D01*
Y73*
X993*
X945D02*
G01X893D01*
X845D02*
G01X793D01*
X745D02*
G01X693D01*
X645D02*
G01X643D01*
X499D02*
G01X37D01*
Y75*
X499*
X699D02*
G01X741D01*
X799D02*
G01X841D01*
X899D02*
G01X941D01*
X999D02*
G01X1057D01*
Y77*
X1003*
X937D02*
G01X903D01*
X837D02*
G01X803D01*
X737D02*
G01X703D01*
X499D02*
G01X37D01*
Y79*
X235*
X269D02*
G01X369D01*
X403D02*
G01X499D01*
X707D02*
G01X733D01*
X807D02*
G01X833D01*
X907D02*
G01X933D01*
X1007D02*
G01X1057D01*
Y81*
X1009*
X931D02*
G01X909D01*
X831D02*
G01X809D01*
X731D02*
G01X709D01*
X499D02*
G01X407D01*
X363D02*
G01X273D01*
X229D02*
G01X37D01*
Y83*
X225*
X277D02*
G01X359D01*
X411D02*
G01X499D01*
X713D02*
G01X727D01*
X813D02*
G01X827D01*
X913D02*
G01X927D01*
X1013D02*
G01X1057D01*
Y85*
X1015*
X499D02*
G01X415D01*
X355D02*
G01X281D01*
X187D02*
G01X37D01*
Y87*
X179*
X285D02*
G01X351D01*
X419D02*
G01X499D01*
X1017D02*
G01X1057D01*
Y89*
X1019*
X499D02*
G01X421D01*
X349D02*
G01X287D01*
X175D02*
G01X37D01*
Y91*
X171*
X291D02*
G01X345D01*
X425D02*
G01X499D01*
X1021D02*
G01X1057D01*
Y93*
X1023*
X499D02*
G01X427D01*
X343D02*
G01X293D01*
X169D02*
G01X37D01*
Y95*
X167*
X295D02*
G01X341D01*
X429D02*
G01X499D01*
X1025D02*
G01X1057D01*
Y97*
X1027*
X499D02*
G01X431D01*
X339D02*
G01X297D01*
X163D02*
G01X37D01*
Y99*
X161*
X299D02*
G01X337D01*
X433D02*
G01X499D01*
X1029D02*
G01X1057D01*
Y101*
X1029*
X499D02*
G01X435D01*
X335D02*
G01X301D01*
X159D02*
G01X37D01*
Y103*
X157*
X301D02*
G01X335D01*
X435D02*
G01X499D01*
X1031D02*
G01X1057D01*
Y105*
X1033*
X499D02*
G01X437D01*
X333D02*
G01X303D01*
X155D02*
G01X37D01*
Y107*
X153*
X305D02*
G01X331D01*
X439D02*
G01X499D01*
X1033D02*
G01X1057D01*
Y109*
X1035*
X499D02*
G01X439D01*
X331D02*
G01X305D01*
X151D02*
G01X37D01*
Y111*
X149*
X307D02*
G01X329D01*
X441D02*
G01X499D01*
X1035D02*
G01X1057D01*
Y113*
X1037*
X499D02*
G01X441D01*
X329D02*
G01X307D01*
X147D02*
G01X37D01*
Y115*
X145*
X309D02*
G01X327D01*
X443D02*
G01X499D01*
X1037D02*
G01X1057D01*
Y117*
X1037*
X499D02*
G01X443D01*
X327D02*
G01X309D01*
X143D02*
G01X37D01*
Y119*
X141*
X311D02*
G01X325D01*
X445D02*
G01X499D01*
X1039D02*
G01X1057D01*
Y121*
X1039*
X499D02*
G01X445D01*
X325D02*
G01X311D01*
X139D02*
G01X37D01*
Y123*
X137*
X311D02*
G01X325D01*
X445D02*
G01X499D01*
X1039D02*
G01X1057D01*
Y125*
X1041*
X499D02*
G01X447D01*
X323D02*
G01X313D01*
X135D02*
G01X37D01*
Y127*
X133*
X313D02*
G01X323D01*
X447D02*
G01X499D01*
X1041D02*
G01X1057D01*
Y129*
X1041*
X499D02*
G01X447D01*
X323D02*
G01X313D01*
X131D02*
G01X37D01*
Y131*
X129*
X313D02*
G01X323D01*
X447D02*
G01X499D01*
X1041D02*
G01X1057D01*
Y133*
X1041*
X499D02*
G01X447D01*
X323D02*
G01X313D01*
X127D02*
G01X37D01*
Y135*
X127*
X313D02*
G01X323D01*
X447D02*
G01X499D01*
X1041D02*
G01X1057D01*
Y137*
X1041*
X499D02*
G01X447D01*
X323D02*
G01X313D01*
X125D02*
G01X37D01*
Y139*
X123*
X313D02*
G01X323D01*
X447D02*
G01X499D01*
X1041D02*
G01X1057D01*
Y141*
X1043*
X499D02*
G01X447D01*
X323D02*
G01X313D01*
X121D02*
G01X37D01*
Y143*
X121*
X313D02*
G01X323D01*
X447D02*
G01X499D01*
X1041D02*
G01X1057D01*
Y145*
X1041*
X499D02*
G01X447D01*
X323D02*
G01X313D01*
X119D02*
G01X37D01*
Y147*
X119*
X313D02*
G01X323D01*
X447D02*
G01X499D01*
X1041D02*
G01X1057D01*
Y149*
X1041*
X499D02*
G01X447D01*
X323D02*
G01X313D01*
X119D02*
G01X37D01*
Y151*
X117*
X313D02*
G01X323D01*
X447D02*
G01X499D01*
X1041D02*
G01X1057D01*
Y153*
X1041*
X499D02*
G01X447D01*
X323D02*
G01X313D01*
X117D02*
G01X37D01*
Y155*
X117*
X313D02*
G01X323D01*
X447D02*
G01X499D01*
X1041D02*
G01X1057D01*
Y157*
X1041*
X499D02*
G01X447D01*
X325D02*
G01X313D01*
X115D02*
G01X37D01*
Y159*
X115*
X311D02*
G01X325D01*
X445D02*
G01X499D01*
X1039D02*
G01X1057D01*
Y161*
X1039*
X499D02*
G01X445D01*
X325D02*
G01X311D01*
X115D02*
G01X37D01*
Y163*
X115*
X309D02*
G01X325D01*
X443D02*
G01X499D01*
X1039D02*
G01X1057D01*
Y165*
X1039*
X499D02*
G01X443D01*
X327D02*
G01X309D01*
X115D02*
G01X37D01*
Y167*
X115*
X307D02*
G01X327D01*
X441D02*
G01X499D01*
X1037D02*
G01X1057D01*
Y169*
X1037*
X499D02*
G01X441D01*
X329D02*
G01X307D01*
X115D02*
G01X37D01*
Y171*
X115*
X305D02*
G01X329D01*
X439D02*
G01X499D01*
X1035D02*
G01X1057D01*
Y173*
X1035*
X499D02*
G01X439D01*
X331D02*
G01X305D01*
X115D02*
G01X37D01*
Y175*
X115*
X303D02*
G01X331D01*
X437D02*
G01X499D01*
X1033D02*
G01X1057D01*
Y177*
X1033*
X499D02*
G01X437D01*
X335D02*
G01X303D01*
X115D02*
G01X37D01*
Y179*
X115*
X301D02*
G01X335D01*
X435D02*
G01X499D01*
X1031D02*
G01X1057D01*
Y181*
X1031*
X499D02*
G01X435D01*
X337D02*
G01X301D01*
X115D02*
G01X37D01*
Y183*
X115*
X297D02*
G01X337D01*
X431D02*
G01X499D01*
X1029D02*
G01X1057D01*
Y185*
X1029*
X499D02*
G01X431D01*
X341D02*
G01X297D01*
X115D02*
G01X37D01*
Y187*
X115*
X293D02*
G01X341D01*
X427D02*
G01X499D01*
X1025D02*
G01X1057D01*
Y189*
X1025*
X499D02*
G01X427D01*
X345D02*
G01X293D01*
X115D02*
G01X37D01*
Y191*
X115*
X287D02*
G01X345D01*
X421D02*
G01X499D01*
X1021D02*
G01X1057D01*
Y193*
X1021*
X499D02*
G01X421D01*
X351D02*
G01X287D01*
X115D02*
G01X37D01*
Y195*
X115*
X281D02*
G01X351D01*
X415D02*
G01X499D01*
X1017D02*
G01X1057D01*
Y197*
X1017*
X499D02*
G01X415D01*
X359D02*
G01X281D01*
X115D02*
G01X37D01*
Y199*
X115*
X273D02*
G01X359D01*
X407D02*
G01X499D01*
X1013D02*
G01X1057D01*
Y201*
X1013*
X499D02*
G01X407D01*
X369D02*
G01X273D01*
X235D02*
G01X229D01*
X115D02*
G01X37D01*
Y203*
X115*
X229D02*
G01X499D01*
X1007D02*
G01X1057D01*
Y205*
X1007*
X499D02*
G01X229D01*
X115D02*
G01X37D01*
Y207*
X115*
X229D02*
G01X499D01*
X999D02*
G01X1057D01*
Y209*
X999*
X647D02*
G01X643D01*
X499D02*
G01X229D01*
X115D02*
G01X37D01*
Y211*
X115*
X229D02*
G01X499D01*
X643D02*
G01X647D01*
X687D02*
G01X699D01*
X987D02*
G01X1057D01*
Y213*
X983*
X699D02*
G01X229D01*
X115D02*
G01X37D01*
Y215*
X115*
X229D02*
G01X699D01*
X985D02*
G01X1057D01*
Y217*
X987*
X699D02*
G01X229D01*
X115D02*
G01X37D01*
Y219*
X115*
X229D02*
G01X699D01*
X987D02*
G01X1057D01*
Y221*
X989*
X699D02*
G01X229D01*
X115D02*
G01X37D01*
Y223*
X115*
X229D02*
G01X699D01*
X991D02*
G01X1057D01*
Y225*
X991*
X699D02*
G01X229D01*
X115D02*
G01X37D01*
Y227*
X115*
X229D02*
G01X699D01*
X993D02*
G01X1057D01*
Y229*
X993*
X699D02*
G01X229D01*
X115D02*
G01X37D01*
Y231*
X115*
X229D02*
G01X699D01*
X995D02*
G01X1057D01*
Y233*
X995*
X699D02*
G01X229D01*
X115D02*
G01X37D01*
Y235*
X115*
X229D02*
G01X699D01*
X995D02*
G01X1057D01*
Y237*
X997*
X699D02*
G01X229D01*
X115D02*
G01X37D01*
Y239*
X115*
X229D02*
G01X699D01*
X997D02*
G01X1057D01*
Y241*
X997*
X697D02*
G01X229D01*
X115D02*
G01X37D01*
Y243*
X115*
X229D02*
G01X695D01*
X997D02*
G01X1057D01*
Y245*
X997*
X693D02*
G01X229D01*
X115D02*
G01X37D01*
Y247*
X115*
X229D02*
G01X691D01*
X997D02*
G01X1057D01*
Y249*
X997*
X689D02*
G01X229D01*
X115D02*
G01X37D01*
Y251*
X115*
X229D02*
G01X687D01*
X997D02*
G01X1057D01*
Y253*
X997*
X685D02*
G01X229D01*
X115D02*
G01X37D01*
Y255*
X115*
X229D02*
G01X683D01*
X997D02*
G01X1057D01*
Y257*
X997*
X681D02*
G01X229D01*
X115D02*
G01X37D01*
Y259*
X115*
X229D02*
G01X679D01*
X997D02*
G01X1057D01*
Y261*
X997*
X677D02*
G01X229D01*
X115D02*
G01X37D01*
Y263*
X115*
X229D02*
G01X675D01*
X997D02*
G01X1057D01*
Y265*
X997*
X673D02*
G01X229D01*
X115D02*
G01X37D01*
Y267*
X115*
X229D02*
G01X671D01*
X997D02*
G01X1057D01*
Y269*
X997*
X669D02*
G01X229D01*
X115D02*
G01X37D01*
Y271*
X115*
X229D02*
G01X667D01*
X997D02*
G01X1057D01*
Y273*
X997*
X665D02*
G01X229D01*
X115D02*
G01X37D01*
Y275*
X115*
X229D02*
G01X663D01*
X997D02*
G01X1057D01*
Y277*
X997*
X661D02*
G01X229D01*
X115D02*
G01X37D01*
Y279*
X85*
X229D02*
G01X557D01*
X997D02*
G01X1057D01*
Y281*
X997*
X553D02*
G01X229D01*
X77D02*
G01X37D01*
Y283*
X73*
X229D02*
G01X549D01*
X999D02*
G01X1057D01*
Y285*
X1001*
X547D02*
G01X229D01*
X69D02*
G01X37D01*
Y287*
X65*
X229D02*
G01X545D01*
X1001D02*
G01X1057D01*
Y289*
X1003*
X543D02*
G01X229D01*
X63D02*
G01X37D01*
Y291*
X61*
X229D02*
G01X541D01*
X1003D02*
G01X1057D01*
Y293*
X1003*
X539D02*
G01X229D01*
X59D02*
G01X37D01*
Y295*
X55*
X229D02*
G01X537D01*
X1005D02*
G01X1057D01*
Y297*
X1005*
X535D02*
G01X229D01*
X53D02*
G01X37D01*
Y299*
X53*
X229D02*
G01X533D01*
X1005D02*
G01X1057D01*
Y301*
X1007*
X531D02*
G01X229D01*
X51D02*
G01X37D01*
Y303*
X49*
X229D02*
G01X529D01*
X1007D02*
G01X1057D01*
Y305*
X1007*
X527D02*
G01X229D01*
X47D02*
G01X37D01*
Y307*
X47*
X229D02*
G01X525D01*
X1007D02*
G01X1057D01*
Y309*
X1007*
X523D02*
G01X229D01*
X45D02*
G01X37D01*
Y311*
X45*
X229D02*
G01X521D01*
X1007D02*
G01X1057D01*
Y313*
X1007*
X519D02*
G01X229D01*
X43D02*
G01X37D01*
Y315*
X43*
X229D02*
G01X517D01*
X1007D02*
G01X1057D01*
Y317*
X1007*
X515D02*
G01X229D01*
X41D02*
G01X37D01*
Y319*
X41*
X229D02*
G01X513D01*
X1007D02*
G01X1057D01*
Y321*
X1007*
X511D02*
G01X229D01*
X39D02*
G01X37D01*
Y323*
X39*
X229D02*
G01X509D01*
X1007D02*
G01X1057D01*
Y325*
X1005*
X507D02*
G01X229D01*
X39D02*
G01X37D01*
Y327*
X39*
X229D02*
G01X505D01*
X1005D02*
G01X1057D01*
Y329*
X1003*
X503D02*
G01X229D01*
X37D02*
G01Y331D01*
X229D02*
G01X501D01*
X1003D02*
G01X1057D01*
Y333*
X1003*
X499D02*
G01X229D01*
X37D02*
G01Y335D01*
X229D02*
G01X497D01*
X1003D02*
G01X1057D01*
Y337*
X1001*
X495D02*
G01X229D01*
X37D02*
G01Y339D01*
X229D02*
G01X493D01*
X1001D02*
G01X1057D01*
Y341*
X997*
X491D02*
G01X229D01*
X37D02*
G01Y343D01*
X229D02*
G01X489D01*
X997D02*
G01X1057D01*
Y345*
X995*
X487D02*
G01X229D01*
X37D02*
G01Y347D01*
X229D02*
G01X485D01*
X995D02*
G01X1057D01*
Y349*
X991*
X483D02*
G01X229D01*
X37D02*
G01Y351D01*
X229D02*
G01X309D01*
X443D02*
G01X481D01*
X991D02*
G01X1057D01*
Y353*
X989*
X479D02*
G01X443D01*
X309D02*
G01X229D01*
X39D02*
G01X37D01*
Y355*
X39*
X229D02*
G01X309D01*
X443D02*
G01X477D01*
X989D02*
G01X1057D01*
Y357*
X989*
X475D02*
G01X443D01*
X309D02*
G01X229D01*
X39D02*
G01X37D01*
Y359*
X39*
X229D02*
G01X309D01*
X443D02*
G01X473D01*
X989D02*
G01X1057D01*
Y361*
X989*
X473D02*
G01X443D01*
X309D02*
G01X229D01*
X41D02*
G01X37D01*
Y363*
X41*
X229D02*
G01X309D01*
X443D02*
G01X471D01*
X989D02*
G01X1057D01*
Y365*
X989*
X471D02*
G01X443D01*
X309D02*
G01X229D01*
X43D02*
G01X37D01*
Y367*
X43*
X229D02*
G01X309D01*
X443D02*
G01X469D01*
X989D02*
G01X1057D01*
Y369*
X989*
X469D02*
G01X443D01*
X309D02*
G01X229D01*
X45D02*
G01X37D01*
Y371*
X45*
X229D02*
G01X309D01*
X443D02*
G01X469D01*
X989D02*
G01X1057D01*
Y373*
X989*
X467D02*
G01X443D01*
X309D02*
G01X229D01*
X47D02*
G01X37D01*
Y375*
X47*
X229D02*
G01X309D01*
X443D02*
G01X467D01*
X989D02*
G01X1057D01*
Y377*
X989*
X467D02*
G01X443D01*
X309D02*
G01X229D01*
X49D02*
G01X37D01*
Y379*
X49*
X229D02*
G01X309D01*
X443D02*
G01X467D01*
X989D02*
G01X1057D01*
Y381*
X989*
X467D02*
G01X443D01*
X309D02*
G01X229D01*
X47D02*
G01X37D01*
Y383*
X47*
X229D02*
G01X309D01*
X443D02*
G01X467D01*
X989D02*
G01X1057D01*
Y385*
X989*
X467D02*
G01X443D01*
X309D02*
G01X229D01*
X45D02*
G01X37D01*
Y387*
X45*
X229D02*
G01X309D01*
X443D02*
G01X467D01*
X989D02*
G01X1057D01*
Y389*
X989*
X467D02*
G01X443D01*
X309D02*
G01X229D01*
X43D02*
G01X37D01*
Y391*
X43*
X229D02*
G01X309D01*
X443D02*
G01X467D01*
X989D02*
G01X1057D01*
Y393*
X989*
X467D02*
G01X443D01*
X309D02*
G01X229D01*
X41D02*
G01X37D01*
Y395*
X41*
X229D02*
G01X309D01*
X443D02*
G01X467D01*
X989D02*
G01X1057D01*
Y397*
X989*
X467D02*
G01X443D01*
X309D02*
G01X229D01*
X39D02*
G01X37D01*
Y399*
X39*
X229D02*
G01X309D01*
X443D02*
G01X467D01*
X989D02*
G01X1057D01*
Y401*
X989*
X467D02*
G01X443D01*
X309D02*
G01X229D01*
X39D02*
G01X37D01*
Y403*
X39*
X229D02*
G01X309D01*
X443D02*
G01X467D01*
X723D02*
G01X761D01*
X989D02*
G01X1057D01*
Y405*
X989*
X761D02*
G01X723D01*
X467D02*
G01X443D01*
X309D02*
G01X229D01*
X37D02*
G01Y407D01*
X229D02*
G01X309D01*
X443D02*
G01X467D01*
X723D02*
G01X761D01*
X989D02*
G01X1057D01*
Y409*
X989*
X761D02*
G01X723D01*
X467D02*
G01X443D01*
X309D02*
G01X229D01*
X37D02*
G01Y411D01*
X229D02*
G01X309D01*
X443D02*
G01X467D01*
X723D02*
G01X761D01*
X989D02*
G01X1057D01*
Y413*
X989*
X761D02*
G01X723D01*
X467D02*
G01X443D01*
X309D02*
G01X229D01*
X37D02*
G01Y415D01*
X229D02*
G01X309D01*
X443D02*
G01X467D01*
X723D02*
G01X761D01*
X989D02*
G01X1057D01*
Y417*
X989*
X761D02*
G01X723D01*
X467D02*
G01X443D01*
X309D02*
G01X229D01*
X37D02*
G01Y419D01*
X229D02*
G01X309D01*
X443D02*
G01X467D01*
X723D02*
G01X761D01*
X989D02*
G01X1057D01*
Y421*
X989*
X761D02*
G01X723D01*
X467D02*
G01X443D01*
X309D02*
G01X229D01*
X37D02*
G01Y423D01*
X229D02*
G01X309D01*
X443D02*
G01X467D01*
X723D02*
G01X761D01*
X989D02*
G01X1053D01*
X1049Y425D02*
G01X989D01*
X761D02*
G01X723D01*
X467D02*
G01X443D01*
X309D02*
G01X229D01*
X37D02*
G01Y427D01*
X229D02*
G01X309D01*
X443D02*
G01X467D01*
X723D02*
G01X761D01*
X989D02*
G01X1047D01*
X1043Y429D02*
G01X989D01*
X761D02*
G01X723D01*
X467D02*
G01X443D01*
X309D02*
G01X229D01*
X39D02*
G01X37D01*
Y431*
X39*
X229D02*
G01X309D01*
X443D02*
G01X467D01*
X723D02*
G01X761D01*
X989D02*
G01X1041D01*
X1039Y433*
X723*
X467D02*
G01X443D01*
X309D02*
G01X229D01*
X39D02*
G01X37D01*
Y435*
X39*
X229D02*
G01X309D01*
X443D02*
G01X467D01*
X723D02*
G01X1037D01*
X1035Y437*
X723*
X467D02*
G01X443D01*
X309D02*
G01X229D01*
X41D02*
G01X37D01*
Y439*
X41*
X229D02*
G01X309D01*
X443D02*
G01X467D01*
X723D02*
G01X1033D01*
X1031Y441*
X723*
X467D02*
G01X443D01*
X309D02*
G01X229D01*
X43D02*
G01X37D01*
Y443*
X43*
X229D02*
G01X309D01*
X443D02*
G01X467D01*
X713D02*
G01X1029D01*
Y445*
X713*
X467D02*
G01X443D01*
X45D02*
G01X37D01*
Y447*
X45*
X443D02*
G01X467D01*
X713D02*
G01X1027D01*
X1025Y449*
X713*
X467D02*
G01X443D01*
X47D02*
G01X37D01*
Y451*
X47*
X443D02*
G01X467D01*
X713D02*
G01X1025D01*
X1023Y453*
X713*
X467D02*
G01X443D01*
X49D02*
G01X37D01*
Y455*
X49*
X443D02*
G01X467D01*
X713D02*
G01X1023D01*
Y457*
X713*
X467D02*
G01X443D01*
X53D02*
G01X37D01*
Y459*
X53*
X443D02*
G01X467D01*
X713D02*
G01X1021D01*
Y461*
X713*
X467D02*
G01X443D01*
X55D02*
G01X37D01*
Y463*
X55*
X443D02*
G01X467D01*
X713D02*
G01X1021D01*
X1019Y465*
X713*
X467D02*
G01X443D01*
X61D02*
G01X37D01*
Y467*
X61*
X443D02*
G01X467D01*
X713D02*
G01X1019D01*
Y469*
X713*
X467D02*
G01X443D01*
X65D02*
G01X37D01*
Y471*
X65*
X443D02*
G01X467D01*
X713D02*
G01X1019D01*
Y473*
X713*
X467D02*
G01X443D01*
X73D02*
G01X37D01*
Y475*
X73*
X443D02*
G01X467D01*
X713D02*
G01X1019D01*
Y477*
X713*
X467D02*
G01X443D01*
X85D02*
G01X37D01*
Y479*
X115*
X443D02*
G01X467D01*
X713D02*
G01X1019D01*
Y481*
X713*
X467D02*
G01X443D01*
X115D02*
G01X37D01*
Y483*
X115*
X433D02*
G01X467D01*
X713D02*
G01X1019D01*
Y485*
X713*
X467D02*
G01X431D01*
X115D02*
G01X37D01*
Y487*
X115*
X431D02*
G01X467D01*
X713D02*
G01X1019D01*
Y489*
X713*
X467D02*
G01X431D01*
X115D02*
G01X37D01*
Y491*
X117*
X431D02*
G01X467D01*
X713D02*
G01X1019D01*
Y493*
X713*
X467D02*
G01X431D01*
X117D02*
G01X37D01*
Y495*
X117*
X431D02*
G01X467D01*
X713D02*
G01X1019D01*
Y497*
X713*
X467D02*
G01X431D01*
X117D02*
G01X37D01*
Y499*
X119*
X429D02*
G01X467D01*
X713D02*
G01X1019D01*
Y501*
X713*
X467D02*
G01X429D01*
X119D02*
G01X37D01*
Y503*
X121*
X429D02*
G01X467D01*
X713D02*
G01X1019D01*
Y505*
X713*
X467D02*
G01X427D01*
X121D02*
G01X37D01*
Y507*
X123*
X427D02*
G01X467D01*
X713D02*
G01X1019D01*
Y509*
X713*
X467D02*
G01X427D01*
X123D02*
G01X37D01*
Y511*
X127*
X425D02*
G01X465D01*
X713D02*
G01X1019D01*
Y513*
X713*
X463D02*
G01X425D01*
X127D02*
G01X37D01*
Y515*
X129*
X423D02*
G01X461D01*
X713D02*
G01X1019D01*
Y517*
X713*
X459D02*
G01X421D01*
X129D02*
G01X37D01*
Y519*
X133*
X419D02*
G01X457D01*
X713D02*
G01X1019D01*
Y521*
X713*
X455D02*
G01X419D01*
X133D02*
G01X37D01*
Y523*
X137*
X417D02*
G01X453D01*
X713D02*
G01X1019D01*
Y525*
X713*
X451D02*
G01X415D01*
X137D02*
G01X37D01*
Y527*
X141*
X413D02*
G01X449D01*
X713D02*
G01X1019D01*
Y529*
X713*
X447D02*
G01X411D01*
X141D02*
G01X37D01*
Y531*
X145*
X407D02*
G01X445D01*
X713D02*
G01X1019D01*
Y533*
X713*
X443D02*
G01X407D01*
X145D02*
G01X37D01*
Y535*
X149*
X403D02*
G01X441D01*
X713D02*
G01X1019D01*
Y537*
X713*
X439D02*
G01X403D01*
X149D02*
G01X37D01*
Y539*
X153*
X399D02*
G01X437D01*
X711D02*
G01X1019D01*
Y541*
X711*
X435D02*
G01X399D01*
X153D02*
G01X37D01*
Y543*
X157*
X395D02*
G01X433D01*
X711D02*
G01X1019D01*
Y545*
X711*
X431D02*
G01X395D01*
X157D02*
G01X37D01*
Y547*
X163*
X391D02*
G01X429D01*
X711D02*
G01X1019D01*
Y549*
X711*
X427D02*
G01X389D01*
X163D02*
G01X37D01*
Y551*
X169*
X385D02*
G01X425D01*
X709D02*
G01X1019D01*
Y553*
X709*
X423D02*
G01X383D01*
X169D02*
G01X37D01*
Y555*
X177*
X377D02*
G01X421D01*
X709D02*
G01X1019D01*
Y557*
X709*
X419D02*
G01X37D01*
Y559*
X417*
X709D02*
G01X1019D01*
Y561*
X709*
X415D02*
G01X37D01*
Y563*
X413*
X709D02*
G01X1019D01*
Y565*
X709*
X411D02*
G01X37D01*
Y567*
X409*
X709D02*
G01X1019D01*
Y569*
X709*
X407D02*
G01X37D01*
Y571*
X405*
X709D02*
G01X1019D01*
Y573*
X709*
X403D02*
G01X37D01*
Y575*
X401*
X709D02*
G01X1019D01*
Y577*
X709*
X399D02*
G01X37D01*
Y579*
X397*
X709D02*
G01X1019D01*
Y581*
X709*
X395D02*
G01X37D01*
Y583*
X393*
X709D02*
G01X1019D01*
Y585*
X709*
X391D02*
G01X37D01*
Y587*
X389*
X709D02*
G01X1019D01*
Y589*
X709*
X387D02*
G01X37D01*
Y591*
X385*
X709D02*
G01X1019D01*
Y593*
X709*
X383D02*
G01X37D01*
Y595*
X381*
X709D02*
G01X1019D01*
Y597*
X709*
X489D02*
G01X487D01*
X379D02*
G01X37D01*
Y599*
X377*
X483D02*
G01X489D01*
X709D02*
G01X1019D01*
Y601*
X709*
X489D02*
G01X483D01*
X375D02*
G01X37D01*
Y603*
X373*
X479D02*
G01X489D01*
X709D02*
G01X1019D01*
Y605*
X709*
X489D02*
G01X479D01*
X371D02*
G01X37D01*
Y607*
X369*
X475D02*
G01X489D01*
X709D02*
G01X1019D01*
Y609*
X709*
X489D02*
G01X475D01*
X367D02*
G01X37D01*
Y611*
X365*
X471D02*
G01X489D01*
X709D02*
G01X1019D01*
Y613*
X709*
X489D02*
G01X471D01*
X363D02*
G01X37D01*
Y615*
X363*
X467D02*
G01X503D01*
X709D02*
G01X1019D01*
Y617*
X709*
X507D02*
G01X467D01*
X361D02*
G01X37D01*
Y619*
X361*
X463D02*
G01X507D01*
X579D02*
G01X581D01*
X709D02*
G01X1019D01*
Y621*
X709*
X581D02*
G01X579D01*
X515D02*
G01X463D01*
X359D02*
G01X37D01*
Y623*
X359*
X459D02*
G01X515D01*
X573D02*
G01X581D01*
X709D02*
G01X1019D01*
Y625*
X709*
X581D02*
G01X573D01*
X523D02*
G01X459D01*
X359D02*
G01X37D01*
Y627*
X357*
X455D02*
G01X523D01*
X561D02*
G01X581D01*
X709D02*
G01X1019D01*
Y629*
X455*
X357D02*
G01X37D01*
Y631*
X357*
X451D02*
G01X1019D01*
Y633*
X451*
X357D02*
G01X37D01*
Y635*
X357*
X447D02*
G01X1019D01*
Y637*
X447*
X357D02*
G01X37D01*
Y639*
X309*
X343D02*
G01X357D01*
X443D02*
G01X1019D01*
Y641*
X443*
X357D02*
G01X347D01*
X303D02*
G01X37D01*
Y643*
X299*
X351D02*
G01X357D01*
X439D02*
G01X1019D01*
Y645*
X439*
X357D02*
G01X355D01*
X295D02*
G01X37D01*
Y647*
X291*
X435D02*
G01X1019D01*
Y649*
X435*
X289D02*
G01X37D01*
Y651*
X285*
X433D02*
G01X1019D01*
Y653*
X433*
X283D02*
G01X37D01*
Y655*
X281*
X433D02*
G01X1019D01*
Y657*
X433*
X279D02*
G01X37D01*
Y659*
X277*
X433D02*
G01X1019D01*
Y661*
X433*
X275D02*
G01X37D01*
Y663*
X275*
X433D02*
G01X1019D01*
Y665*
X433*
X273D02*
G01X37D01*
Y667*
X271*
X433D02*
G01X1019D01*
Y669*
X1015*
X887D02*
G01X867D01*
X835D02*
G01X433D01*
X271D02*
G01X37D01*
Y671*
X269*
X433D02*
G01X827D01*
X873D02*
G01X887D01*
X1015D02*
G01X1019D01*
Y673*
X1015*
X887D02*
G01X877D01*
X823D02*
G01X433D01*
X269D02*
G01X37D01*
Y675*
X267*
X433D02*
G01X819D01*
X881D02*
G01X887D01*
X1015D02*
G01X1019D01*
Y677*
X1015*
X887D02*
G01X885D01*
X815D02*
G01X433D01*
X267D02*
G01X37D01*
Y679*
X265*
X433D02*
G01X813D01*
X1015D02*
G01X1019D01*
Y681*
X1015*
X811D02*
G01X433D01*
X265D02*
G01X37D01*
Y683*
X265*
X433D02*
G01X807D01*
X1015D02*
G01X1019D01*
Y685*
X1015*
X805D02*
G01X433D01*
X263D02*
G01X37D01*
Y687*
X263*
X433D02*
G01X803D01*
X1015D02*
G01X1019D01*
Y689*
X1015*
X801D02*
G01X433D01*
X263D02*
G01X37D01*
Y691*
X263*
X433D02*
G01X801D01*
X1015D02*
G01X1019D01*
Y693*
X1015*
X799D02*
G01X433D01*
X263D02*
G01X37D01*
Y695*
X263*
X433D02*
G01X797D01*
X1015D02*
G01X1019D01*
X1021Y697*
X1015*
X795D02*
G01X433D01*
X263D02*
G01X37D01*
Y699*
X263*
X433D02*
G01X795D01*
X1015D02*
G01X1021D01*
X1023Y701*
X1015*
X793D02*
G01X433D01*
X263D02*
G01X37D01*
Y703*
X263*
X433D02*
G01X793D01*
X1015D02*
G01X1023D01*
Y705*
X1015*
X791D02*
G01X433D01*
X263D02*
G01X37D01*
Y707*
X263*
X433D02*
G01X791D01*
X1015D02*
G01X1023D01*
X1025Y709*
X1015*
X789D02*
G01X433D01*
X263D02*
G01X37D01*
Y711*
X263*
X433D02*
G01X789D01*
X1015D02*
G01X1025D01*
X1029Y713D02*
G01X1015D01*
X789D02*
G01X433D01*
X263D02*
G01X37D01*
Y715*
X263*
X433D02*
G01X789D01*
X1015D02*
G01X1029D01*
X1031Y717*
X1015*
X787D02*
G01X433D01*
X265D02*
G01X37D01*
Y719*
X265*
X433D02*
G01X787D01*
X1015D02*
G01X1031D01*
X1035Y721D02*
G01X1015D01*
X787D02*
G01X433D01*
X265D02*
G01X37D01*
Y723*
X265*
X433D02*
G01X787D01*
X1015D02*
G01X1035D01*
X1039Y725D02*
G01X1015D01*
X787D02*
G01X433D01*
X267D02*
G01X37D01*
Y727*
X267*
X433D02*
G01X787D01*
X1015D02*
G01X1039D01*
X1043Y729D02*
G01X1015D01*
X787D02*
G01X433D01*
X269D02*
G01X37D01*
Y731*
X269*
X433D02*
G01X787D01*
X1015D02*
G01X1043D01*
X1049Y733D02*
G01X1015D01*
X787D02*
G01X433D01*
X271D02*
G01X37D01*
Y735*
X271*
X433D02*
G01X787D01*
X1015D02*
G01X1049D01*
X1057Y737D02*
G01X1015D01*
X787D02*
G01X433D01*
X275D02*
G01X37D01*
Y739*
X209*
X243D02*
G01X275D01*
X433D02*
G01X787D01*
X1015D02*
G01X1057D01*
Y741*
X1015*
X787D02*
G01X433D01*
X277D02*
G01X247D01*
X203D02*
G01X37D01*
Y743*
X199*
X251D02*
G01X277D01*
X433D02*
G01X787D01*
X1015D02*
G01X1057D01*
Y745*
X1015*
X787D02*
G01X433D01*
X281D02*
G01X255D01*
X195D02*
G01X37D01*
Y747*
X191*
X259D02*
G01X281D01*
X433D02*
G01X789D01*
X1015D02*
G01X1057D01*
Y749*
X1015*
X789D02*
G01X433D01*
X285D02*
G01X261D01*
X189D02*
G01X37D01*
Y751*
X185*
X265D02*
G01X285D01*
X433D02*
G01X789D01*
X1015D02*
G01X1057D01*
Y753*
X1015*
X789D02*
G01X433D01*
X291D02*
G01X267D01*
X183D02*
G01X37D01*
Y755*
X181*
X269D02*
G01X291D01*
X355D02*
G01X357D01*
X433D02*
G01X791D01*
X1015D02*
G01X1057D01*
Y757*
X1015*
X791D02*
G01X433D01*
X357D02*
G01X355D01*
X299D02*
G01X271D01*
X179D02*
G01X37D01*
Y759*
X177*
X273D02*
G01X299D01*
X347D02*
G01X357D01*
X433D02*
G01X793D01*
X1015D02*
G01X1057D01*
Y761*
X1015*
X793D02*
G01X433D01*
X357D02*
G01X347D01*
X309D02*
G01X275D01*
X175D02*
G01X37D01*
Y763*
X175*
X275D02*
G01X357D01*
X433D02*
G01X795D01*
X1015D02*
G01X1057D01*
Y765*
X1015*
X795D02*
G01X433D01*
X357D02*
G01X277D01*
X173D02*
G01X37D01*
Y767*
X171*
X279D02*
G01X357D01*
X433D02*
G01X797D01*
X1015D02*
G01X1057D01*
Y769*
X1015*
X797D02*
G01X433D01*
X357D02*
G01X279D01*
X171D02*
G01X37D01*
Y771*
X169*
X281D02*
G01X357D01*
X433D02*
G01X801D01*
X1015D02*
G01X1057D01*
Y773*
X1015*
X801D02*
G01X433D01*
X357D02*
G01X281D01*
X169D02*
G01X37D01*
Y775*
X167*
X283D02*
G01X357D01*
X433D02*
G01X803D01*
X1015D02*
G01X1057D01*
Y777*
X1015*
X803D02*
G01X433D01*
X357D02*
G01X283D01*
X167D02*
G01X37D01*
Y779*
X165*
X285D02*
G01X357D01*
X433D02*
G01X807D01*
X1015D02*
G01X1057D01*
Y781*
X1015*
X807D02*
G01X433D01*
X357D02*
G01X285D01*
X165D02*
G01X37D01*
Y783*
X165*
X285D02*
G01X357D01*
X433D02*
G01X813D01*
X1015D02*
G01X1057D01*
Y785*
X1015*
X887D02*
G01X885D01*
X813D02*
G01X433D01*
X357D02*
G01X287D01*
X163D02*
G01X37D01*
Y787*
X163*
X287D02*
G01X357D01*
X433D02*
G01X819D01*
X885D02*
G01X887D01*
X1015D02*
G01X1057D01*
Y789*
X1015*
X887D02*
G01X877D01*
X819D02*
G01X433D01*
X357D02*
G01X287D01*
X163D02*
G01X37D01*
Y791*
X163*
X287D02*
G01X357D01*
X433D02*
G01X827D01*
X877D02*
G01X887D01*
X1015D02*
G01X1057D01*
Y793*
X1015*
X887D02*
G01X865D01*
X827D02*
G01X433D01*
X357D02*
G01X287D01*
X163D02*
G01X37D01*
Y795*
X163*
X287D02*
G01X357D01*
X433D02*
G01X1057D01*
Y797*
X433*
X357D02*
G01X287D01*
X163D02*
G01X37D01*
Y799*
X163*
X287D02*
G01X357D01*
X433D02*
G01X1057D01*
Y801*
X433*
X357D02*
G01X287D01*
X163D02*
G01X37D01*
Y803*
X163*
X287D02*
G01X357D01*
X433D02*
G01X1057D01*
Y805*
X433*
X357D02*
G01X287D01*
X163D02*
G01X37D01*
Y807*
X163*
X287D02*
G01X357D01*
X433D02*
G01X1057D01*
Y809*
X433*
X357D02*
G01X287D01*
X163D02*
G01X37D01*
Y811*
X163*
X287D02*
G01X357D01*
X433D02*
G01X1057D01*
Y813*
X433*
X357D02*
G01X287D01*
X163D02*
G01X37D01*
Y815*
X163*
X287D02*
G01X357D01*
X433D02*
G01X1057D01*
Y817*
X433*
X357D02*
G01X287D01*
X165D02*
G01X37D01*
Y819*
X165*
X285D02*
G01X357D01*
X433D02*
G01X1057D01*
Y821*
X433*
X357D02*
G01X285D01*
X165D02*
G01X37D01*
Y823*
X165*
X283D02*
G01X357D01*
X433D02*
G01X1057D01*
Y825*
X433*
X357D02*
G01X283D01*
X167D02*
G01X37D01*
Y827*
X167*
X281D02*
G01X355D01*
X433D02*
G01X1057D01*
Y829*
X433*
X351D02*
G01X281D01*
X169D02*
G01X37D01*
Y831*
X169*
X279D02*
G01X347D01*
X433D02*
G01X1057D01*
Y833*
X433*
X345D02*
G01X279D01*
X171D02*
G01X37D01*
Y835*
X171*
X277D02*
G01X341D01*
X433D02*
G01X1057D01*
Y837*
X433*
X339D02*
G01X277D01*
X175D02*
G01X37D01*
Y839*
X175*
X275D02*
G01X337D01*
X433D02*
G01X1057D01*
Y841*
X433*
X335D02*
G01X275D01*
X177D02*
G01X37D01*
Y843*
X177*
X271D02*
G01X335D01*
X433D02*
G01X1057D01*
Y845*
X433*
X333D02*
G01X271D01*
X181D02*
G01X37D01*
Y847*
X181*
X267D02*
G01X331D01*
X433D02*
G01X1057D01*
Y849*
X433*
X329D02*
G01X267D01*
X185D02*
G01X37D01*
Y851*
X185*
X261D02*
G01X329D01*
X433D02*
G01X1057D01*
Y853*
X433*
X327D02*
G01X261D01*
X191D02*
G01X37D01*
Y855*
X191*
X255D02*
G01X327D01*
X433D02*
G01X1057D01*
Y857*
X433*
X327D02*
G01X255D01*
X199D02*
G01X37D01*
Y859*
X199*
X247D02*
G01X325D01*
X433D02*
G01X1057D01*
Y861*
X433*
X325D02*
G01X247D01*
X209D02*
G01X37D01*
Y863*
X325*
X433D02*
G01X1057D01*
Y865*
X433*
X323D02*
G01X37D01*
Y867*
X323*
X431D02*
G01X1057D01*
Y869*
X431*
X323D02*
G01X37D01*
Y871*
X323*
X429D02*
G01X1057D01*
Y873*
X429*
X323D02*
G01X37D01*
Y875*
X323*
X427D02*
G01X1057D01*
Y877*
X427*
X323D02*
G01X37D01*
Y879*
X323*
X427D02*
G01X1057D01*
X1035Y881D02*
G01X427D01*
X323D02*
G01X37D01*
Y883*
X323*
X427D02*
G01X1029D01*
X1025Y885D02*
G01X427D01*
X323D02*
G01X37D01*
Y887*
X325*
X427D02*
G01X1023D01*
X1019Y889D02*
G01X425D01*
X325D02*
G01X37D01*
Y891*
X325*
X425D02*
G01X1017D01*
X1015Y893*
X423*
X325D02*
G01X37D01*
Y895*
X113*
X149D02*
G01X327D01*
X423D02*
G01X759D01*
X795D02*
G01X1013D01*
X1011Y897*
X799*
X751D02*
G01X423D01*
X327D02*
G01X153D01*
X105D02*
G01X37D01*
Y899*
X101*
X159D02*
G01X329D01*
X423D02*
G01X747D01*
X805D02*
G01X1009D01*
X1007Y901*
X809*
X743D02*
G01X421D01*
X329D02*
G01X163D01*
X97D02*
G01X37D01*
Y903*
X93*
X167D02*
G01X331D01*
X423D02*
G01X739D01*
X813D02*
G01X1007D01*
X1005Y905*
X815*
X737D02*
G01X425D01*
X331D02*
G01X169D01*
X91D02*
G01X37D01*
Y907*
X87*
X173D02*
G01X335D01*
X429D02*
G01X733D01*
X819D02*
G01X1003D01*
Y909*
X821*
X731D02*
G01X431D01*
X335D02*
G01X175D01*
X85D02*
G01X37D01*
Y911*
X83*
X177D02*
G01X337D01*
X433D02*
G01X729D01*
X823D02*
G01X1003D01*
X1001Y913*
X825*
X727D02*
G01X435D01*
X337D02*
G01X179D01*
X81D02*
G01X37D01*
Y915*
X79*
X181D02*
G01X335D01*
X437D02*
G01X725D01*
X827D02*
G01X1001D01*
X999Y917*
X829*
X723D02*
G01X439D01*
X333D02*
G01X183D01*
X77D02*
G01X37D01*
Y919*
X75*
X185D02*
G01X331D01*
X441D02*
G01X721D01*
X831D02*
G01X999D01*
Y921*
X833*
X719D02*
G01X443D01*
X329D02*
G01X187D01*
X73D02*
G01X37D01*
Y923*
X71*
X189D02*
G01X327D01*
X445D02*
G01X717D01*
X835D02*
G01X999D01*
Y925*
X835*
X717D02*
G01X445D01*
X327D02*
G01X189D01*
X71D02*
G01X37D01*
Y927*
X69*
X191D02*
G01X325D01*
X447D02*
G01X715D01*
X837D02*
G01X999D01*
Y929*
X839*
X713D02*
G01X449D01*
X323D02*
G01X193D01*
X67D02*
G01X37D01*
Y931*
X67*
X193D02*
G01X323D01*
X449D02*
G01X713D01*
X839D02*
G01X999D01*
Y933*
X841*
X711D02*
G01X451D01*
X321D02*
G01X195D01*
X65D02*
G01X37D01*
Y935*
X65*
X195D02*
G01X321D01*
X451D02*
G01X711D01*
X841D02*
G01X999D01*
Y937*
X843*
X709D02*
G01X453D01*
X319D02*
G01X197D01*
X63D02*
G01X37D01*
Y939*
X63*
X197D02*
G01X319D01*
X453D02*
G01X709D01*
X843D02*
G01X999D01*
Y941*
X843*
X709D02*
G01X453D01*
X319D02*
G01X197D01*
X63D02*
G01X37D01*
Y943*
X61*
X199D02*
G01X317D01*
X455D02*
G01X707D01*
X845D02*
G01X999D01*
Y945*
X845*
X707D02*
G01X455D01*
X317D02*
G01X199D01*
X61D02*
G01X37D01*
Y947*
X61*
X199D02*
G01X317D01*
X455D02*
G01X707D01*
X845D02*
G01X1001D01*
Y949*
X847*
X705D02*
G01X457D01*
X315D02*
G01X201D01*
X59D02*
G01X37D01*
Y951*
X59*
X201D02*
G01X315D01*
X457D02*
G01X705D01*
X847D02*
G01X1003D01*
Y953*
X847*
X705D02*
G01X457D01*
X315D02*
G01X201D01*
X59D02*
G01X37D01*
Y955*
X59*
X201D02*
G01X315D01*
X457D02*
G01X705D01*
X847D02*
G01X1003D01*
Y957*
X847*
X705D02*
G01X457D01*
X315D02*
G01X201D01*
X59D02*
G01X37D01*
Y959*
X59*
X201D02*
G01X315D01*
X457D02*
G01X705D01*
X847D02*
G01X1007D01*
Y961*
X847*
X705D02*
G01X457D01*
X315D02*
G01X201D01*
X59D02*
G01X37D01*
Y963*
X59*
X201D02*
G01X315D01*
X457D02*
G01X705D01*
X847D02*
G01X1009D01*
Y965*
X849*
X705D02*
G01X459D01*
X315D02*
G01X203D01*
X59D02*
G01X37D01*
Y967*
X59*
X201D02*
G01X315D01*
X457D02*
G01X705D01*
X847D02*
G01X1013D01*
Y969*
X847*
X705D02*
G01X457D01*
X315D02*
G01X201D01*
X59D02*
G01X37D01*
Y971*
X59*
X201D02*
G01X315D01*
X457D02*
G01X705D01*
X847D02*
G01X1013D01*
Y973*
X847*
X705D02*
G01X457D01*
X315D02*
G01X201D01*
X59D02*
G01X37D01*
Y975*
X59*
X201D02*
G01X315D01*
X457D02*
G01X705D01*
X847D02*
G01X1013D01*
Y977*
X847*
X705D02*
G01X457D01*
X315D02*
G01X201D01*
X59D02*
G01X37D01*
Y979*
X59*
X201D02*
G01X315D01*
X457D02*
G01X705D01*
X847D02*
G01X1013D01*
Y981*
X847*
X705D02*
G01X457D01*
X315D02*
G01X201D01*
X59D02*
G01X37D01*
Y983*
X59*
X199D02*
G01X315D01*
X455D02*
G01X705D01*
X873D02*
G01X1013D01*
Y985*
X877*
X61D02*
G01X37D01*
Y987*
X61*
X881D02*
G01X1013D01*
Y989*
X883*
X63D02*
G01X37D01*
Y991*
X63*
X887D02*
G01X1013D01*
Y993*
X889*
X63D02*
G01X37D01*
Y995*
X63*
X891D02*
G01X1013D01*
Y997*
X893*
X65D02*
G01X37D01*
Y999*
X65*
X895D02*
G01X917D01*
X911Y1001D02*
G01X897D01*
X67D02*
G01X37D01*
Y1003*
X67*
X899D02*
G01X907D01*
X905Y1005*
X899*
X71D02*
G01X37D01*
Y1007*
X71*
X901D02*
G01X903D01*
X73Y1009D02*
G01X37D01*
Y1011*
X73*
X77Y1013D02*
G01X37D01*
Y1015*
X77*
X81Y1017D02*
G01X37D01*
Y1019*
X81*
X85Y1021D02*
G01X37D01*
Y1023*
X85*
X91Y1025D02*
G01X37D01*
Y1027*
X91*
X97Y1029D02*
G01X37D01*
Y1031*
X97*
X107Y1033D02*
G01X37D01*
Y1035*
X107*
X113Y1037D02*
G01X37D01*
Y1039*
X117*
Y1041*
X37*
Y1043*
X121*
Y1045*
X37*
Y1047*
X125*
Y1049*
X37*
Y1051*
X129*
Y1053*
X37*
Y1055*
X2081Y37D02*
G01X1059D01*
Y39*
X2081*
Y41*
X1059*
Y43*
X2081*
Y45*
X1059*
Y47*
X2081*
Y49*
X1059*
Y51*
X2081*
Y53*
X1059*
Y55*
X2081*
Y57*
X1059*
Y59*
X2081*
Y61*
X1059*
Y63*
X2081*
Y65*
X1059*
Y67*
X2081*
Y69*
X1059*
Y71*
X1253*
X1289D02*
G01X1453D01*
X1489D02*
G01X1553D01*
X1589D02*
G01X1653D01*
X1689D02*
G01X1753D01*
X1789D02*
G01X1853D01*
X1889D02*
G01X1953D01*
X1989D02*
G01X2081D01*
Y73*
X1993*
X1945D02*
G01X1893D01*
X1845D02*
G01X1793D01*
X1745D02*
G01X1693D01*
X1645D02*
G01X1593D01*
X1545D02*
G01X1493D01*
X1445D02*
G01X1293D01*
X1245D02*
G01X1059D01*
Y75*
X1241*
X1299D02*
G01X1441D01*
X1499D02*
G01X1541D01*
X1599D02*
G01X1641D01*
X1699D02*
G01X1741D01*
X1799D02*
G01X1841D01*
X1899D02*
G01X1941D01*
X1999D02*
G01X2081D01*
Y77*
X2003*
X1937D02*
G01X1903D01*
X1837D02*
G01X1803D01*
X1737D02*
G01X1703D01*
X1637D02*
G01X1603D01*
X1537D02*
G01X1503D01*
X1437D02*
G01X1303D01*
X1237D02*
G01X1059D01*
Y79*
X1233*
X1307D02*
G01X1433D01*
X1507D02*
G01X1533D01*
X1607D02*
G01X1633D01*
X1707D02*
G01X1733D01*
X1807D02*
G01X1833D01*
X1907D02*
G01X1933D01*
X2007D02*
G01X2081D01*
Y81*
X2009*
X1931D02*
G01X1909D01*
X1831D02*
G01X1809D01*
X1731D02*
G01X1709D01*
X1631D02*
G01X1609D01*
X1531D02*
G01X1509D01*
X1431D02*
G01X1309D01*
X1231D02*
G01X1059D01*
Y83*
X1227*
X1313D02*
G01X1427D01*
X1513D02*
G01X1527D01*
X1613D02*
G01X1627D01*
X1713D02*
G01X1727D01*
X1813D02*
G01X1827D01*
X1913D02*
G01X1927D01*
X2013D02*
G01X2081D01*
Y85*
X2015*
X1925D02*
G01X1915D01*
X1825D02*
G01X1815D01*
X1725D02*
G01X1715D01*
X1625D02*
G01X1615D01*
X1525D02*
G01X1515D01*
X1425D02*
G01X1315D01*
X1225D02*
G01X1059D01*
Y87*
X1223*
X1317D02*
G01X1423D01*
X1517D02*
G01X1523D01*
X1617D02*
G01X1623D01*
X1717D02*
G01X1723D01*
X1817D02*
G01X1823D01*
X1917D02*
G01X1923D01*
X2017D02*
G01X2081D01*
Y89*
X2019*
X1921D02*
G01X1919D01*
X1821D02*
G01X1819D01*
X1721D02*
G01X1719D01*
X1621D02*
G01X1619D01*
X1521D02*
G01X1519D01*
X1421D02*
G01X1319D01*
X1221D02*
G01X1059D01*
Y91*
X1219*
X1321D02*
G01X1419D01*
X2021D02*
G01X2081D01*
Y93*
X2023*
X1417D02*
G01X1323D01*
X1217D02*
G01X1059D01*
Y95*
X1215*
X1325D02*
G01X1415D01*
X2025D02*
G01X2081D01*
Y97*
X2027*
X1413D02*
G01X1327D01*
X1213D02*
G01X1059D01*
Y99*
X1211*
X1329D02*
G01X1411D01*
X2029D02*
G01X2081D01*
Y101*
X2029*
X1411D02*
G01X1329D01*
X1211D02*
G01X1059D01*
Y103*
X1209*
X1331D02*
G01X1409D01*
X2031D02*
G01X2081D01*
Y105*
X2033*
X1407D02*
G01X1333D01*
X1207D02*
G01X1059D01*
Y107*
X1207*
X1333D02*
G01X1407D01*
X2033D02*
G01X2081D01*
Y109*
X2035*
X1405D02*
G01X1335D01*
X1205D02*
G01X1059D01*
Y111*
X1205*
X1335D02*
G01X1405D01*
X2035D02*
G01X2081D01*
Y113*
X2037*
X1403D02*
G01X1337D01*
X1203D02*
G01X1059D01*
Y115*
X1203*
X1337D02*
G01X1403D01*
X2037D02*
G01X2081D01*
Y117*
X2037*
X1403D02*
G01X1337D01*
X1203D02*
G01X1059D01*
Y119*
X1201*
X1339D02*
G01X1401D01*
X2039D02*
G01X2081D01*
Y121*
X2039*
X1201D02*
G01X1059D01*
Y123*
X1201*
X2039D02*
G01X2081D01*
Y125*
X2041*
X1199D02*
G01X1059D01*
Y127*
X1199*
X2041D02*
G01X2081D01*
Y129*
X2041*
X1199D02*
G01X1059D01*
Y131*
X1199*
X2041D02*
G01X2081D01*
Y133*
X2041*
X1199D02*
G01X1059D01*
Y135*
X1199*
X2041D02*
G01X2081D01*
Y137*
X2041*
X1199D02*
G01X1059D01*
Y139*
X1199*
X2041D02*
G01X2081D01*
Y141*
X2043*
X1199D02*
G01X1059D01*
Y143*
X1199*
X2041D02*
G01X2081D01*
Y145*
X2041*
X1199D02*
G01X1059D01*
Y147*
X1199*
X2041D02*
G01X2081D01*
Y149*
X2041*
X1199D02*
G01X1059D01*
Y151*
X1199*
X2041D02*
G01X2081D01*
Y153*
X2041*
X1199D02*
G01X1059D01*
Y155*
X1199*
X2041D02*
G01X2081D01*
Y157*
X2041*
X1199D02*
G01X1059D01*
Y159*
X1199*
X2039D02*
G01X2081D01*
Y161*
X2039*
X1201D02*
G01X1059D01*
Y163*
X1201*
X2039D02*
G01X2081D01*
Y165*
X2039*
X1203D02*
G01X1059D01*
Y167*
X1203*
X2037D02*
G01X2081D01*
Y169*
X2037*
X1203D02*
G01X1059D01*
Y171*
X1203*
X2035D02*
G01X2081D01*
Y173*
X2035*
X1205D02*
G01X1059D01*
Y175*
X1205*
X2033D02*
G01X2081D01*
Y177*
X2033*
X1207D02*
G01X1059D01*
Y179*
X1187*
X2031D02*
G01X2081D01*
Y181*
X2031*
X1187D02*
G01X1059D01*
Y183*
X1187*
X2029D02*
G01X2081D01*
Y185*
X2029*
X1187D02*
G01X1059D01*
Y187*
X1187*
X2025D02*
G01X2081D01*
Y189*
X2025*
X1187D02*
G01X1059D01*
Y191*
X1187*
X2025D02*
G01X2081D01*
Y193*
X2027*
X1187D02*
G01X1059D01*
Y195*
X1187*
X2029D02*
G01X2081D01*
Y197*
X2031*
X1187D02*
G01X1059D01*
Y199*
X1187*
X2031D02*
G01X2081D01*
Y201*
X2033*
X1187D02*
G01X1059D01*
Y203*
X1187*
X2033D02*
G01X2081D01*
Y205*
X2035*
X1187D02*
G01X1059D01*
Y207*
X1187*
X2035D02*
G01X2081D01*
Y209*
X2037*
X1187D02*
G01X1059D01*
Y211*
X1187*
X2037D02*
G01X2081D01*
Y213*
X2037*
X1187D02*
G01X1059D01*
Y215*
X1187*
X2037D02*
G01X2081D01*
Y217*
X2037*
X1187D02*
G01X1059D01*
Y219*
X1187*
X2037D02*
G01X2081D01*
Y221*
X2039*
X1187D02*
G01X1059D01*
Y223*
X1187*
X2039D02*
G01X2081D01*
Y225*
X2039*
X1187D02*
G01X1059D01*
Y227*
X1187*
X2039D02*
G01X2081D01*
Y229*
X2039*
X1187D02*
G01X1059D01*
Y231*
X1187*
X2039D02*
G01X2081D01*
Y233*
X2039*
X1187D02*
G01X1059D01*
Y235*
X1187*
X2039D02*
G01X2081D01*
Y237*
X2039*
X1187D02*
G01X1059D01*
Y239*
X1187*
X2039D02*
G01X2081D01*
Y241*
X2039*
X1187D02*
G01X1059D01*
Y243*
X1187*
X1835D02*
G01X1881D01*
X2039D02*
G01X2081D01*
Y245*
X2039*
X1881D02*
G01X1835D01*
X1187D02*
G01X1059D01*
Y247*
X1187*
X1835D02*
G01X1881D01*
X2039D02*
G01X2081D01*
Y249*
X2039*
X1881D02*
G01X1835D01*
X1187D02*
G01X1059D01*
Y251*
X1187*
X1835D02*
G01X1881D01*
X2039D02*
G01X2081D01*
Y253*
X2039*
X1881D02*
G01X1835D01*
X1187D02*
G01X1059D01*
Y255*
X1187*
X1835D02*
G01X1881D01*
X2039D02*
G01X2081D01*
Y257*
X2039*
X1881D02*
G01X1835D01*
X1187D02*
G01X1059D01*
Y259*
X1187*
X1835D02*
G01X1881D01*
X2039D02*
G01X2081D01*
Y261*
X2039*
X1881D02*
G01X1835D01*
X1187D02*
G01X1059D01*
Y263*
X1187*
X1835D02*
G01X1881D01*
X2039D02*
G01X2081D01*
Y265*
X2039*
X1881D02*
G01X1835D01*
X1187D02*
G01X1059D01*
Y267*
X1187*
X1835D02*
G01X1881D01*
X2039D02*
G01X2081D01*
Y269*
X2039*
X1881D02*
G01X1835D01*
X1187D02*
G01X1059D01*
Y271*
X1187*
X1835D02*
G01X1881D01*
X2039D02*
G01X2081D01*
Y273*
X2039*
X1881D02*
G01X1835D01*
X1187D02*
G01X1059D01*
Y275*
X1187*
X1835D02*
G01X1881D01*
X2039D02*
G01X2081D01*
Y277*
X2039*
X1881D02*
G01X1835D01*
X1187D02*
G01X1059D01*
Y279*
X1187*
X1835D02*
G01X1881D01*
X2039D02*
G01X2081D01*
Y281*
X2039*
X1881D02*
G01X1835D01*
X1187D02*
G01X1059D01*
Y283*
X1187*
X1835D02*
G01X1881D01*
X2039D02*
G01X2081D01*
Y285*
X2039*
X1881D02*
G01X1835D01*
X1187D02*
G01X1059D01*
Y287*
X1187*
X1835D02*
G01X1881D01*
X2039D02*
G01X2081D01*
Y289*
X2039*
X1881D02*
G01X1835D01*
X1187D02*
G01X1059D01*
Y291*
X1125*
X1835D02*
G01X1881D01*
X2039D02*
G01X2081D01*
Y293*
X2039*
X1881D02*
G01X1835D01*
X1125D02*
G01X1059D01*
Y295*
X1125*
X1835D02*
G01X1881D01*
X2039D02*
G01X2081D01*
Y297*
X2039*
X1881D02*
G01X1835D01*
X1125D02*
G01X1059D01*
Y299*
X1125*
X1835D02*
G01X1881D01*
X2039D02*
G01X2081D01*
Y301*
X2039*
X1881D02*
G01X1835D01*
X1125D02*
G01X1059D01*
Y303*
X1125*
X1835D02*
G01X1881D01*
X2039D02*
G01X2081D01*
Y305*
X2039*
X1881D02*
G01X1835D01*
X1125D02*
G01X1059D01*
Y307*
X1125*
X1835D02*
G01X1881D01*
X2039D02*
G01X2081D01*
Y309*
X2039*
X1881D02*
G01X1835D01*
X1125D02*
G01X1059D01*
Y311*
X1125*
X1835D02*
G01X1881D01*
X2039D02*
G01X2081D01*
Y313*
X2039*
X1881D02*
G01X1835D01*
X1125D02*
G01X1059D01*
Y315*
X1125*
X1835D02*
G01X1881D01*
X2039D02*
G01X2081D01*
Y317*
X2039*
X1881D02*
G01X1835D01*
X1125D02*
G01X1059D01*
Y319*
X1125*
X1835D02*
G01X1881D01*
X2039D02*
G01X2081D01*
Y321*
X2039*
X1881D02*
G01X1835D01*
X1125D02*
G01X1059D01*
Y323*
X1125*
X1835D02*
G01X1881D01*
X2039D02*
G01X2081D01*
Y325*
X2039*
X1881D02*
G01X1835D01*
X1125D02*
G01X1059D01*
Y327*
X1125*
X1835D02*
G01X1881D01*
X2039D02*
G01X2081D01*
Y329*
X2039*
X1893D02*
G01X1823D01*
X1125D02*
G01X1059D01*
Y331*
X1125*
X1825D02*
G01X1891D01*
X2039D02*
G01X2081D01*
Y333*
X2039*
X1889D02*
G01X1825D01*
X1125D02*
G01X1059D01*
Y335*
X1125*
X1827D02*
G01X1889D01*
X2039D02*
G01X2081D01*
Y337*
X2039*
X1887D02*
G01X1827D01*
X1125D02*
G01X1059D01*
Y339*
X1125*
X1829D02*
G01X1887D01*
X2039D02*
G01X2081D01*
Y341*
X2039*
X1885D02*
G01X1829D01*
X1125D02*
G01X1059D01*
Y343*
X1125*
X1831D02*
G01X1885D01*
X2039D02*
G01X2081D01*
Y345*
X2039*
X1885D02*
G01X1831D01*
X1125D02*
G01X1059D01*
Y347*
X1125*
X1831D02*
G01X1883D01*
X2039D02*
G01X2081D01*
Y349*
X2039*
X1883D02*
G01X1831D01*
X1125D02*
G01X1059D01*
Y351*
X1125*
X1833D02*
G01X1883D01*
X2039D02*
G01X2081D01*
Y353*
X2039*
X1883D02*
G01X1833D01*
X1125D02*
G01X1059D01*
Y355*
X1125*
X1833D02*
G01X1881D01*
X2037D02*
G01X2081D01*
Y357*
X2037*
X1881D02*
G01X1833D01*
X1123D02*
G01X1059D01*
Y359*
X1123*
X1833D02*
G01X1881D01*
X2037D02*
G01X2081D01*
Y361*
X2037*
X1881D02*
G01X1833D01*
X1123D02*
G01X1059D01*
Y363*
X1123*
X1833D02*
G01X1881D01*
X2037D02*
G01X2081D01*
Y365*
X2037*
X1881D02*
G01X1835D01*
X1123D02*
G01X1059D01*
Y367*
X1123*
X1833D02*
G01X1881D01*
X2035D02*
G01X2081D01*
Y369*
X2035*
X1881D02*
G01X1833D01*
X1123D02*
G01X1059D01*
Y371*
X1123*
X1833D02*
G01X1881D01*
X2033D02*
G01X2081D01*
Y373*
X2033*
X1881D02*
G01X1833D01*
X1123D02*
G01X1059D01*
Y375*
X1123*
X1833D02*
G01X1881D01*
X2031D02*
G01X2081D01*
Y377*
X2029*
X1883D02*
G01X1833D01*
X1123D02*
G01X1059D01*
Y379*
X1123*
X1833D02*
G01X1883D01*
X2027D02*
G01X2081D01*
Y381*
X2025*
X1883D02*
G01X1833D01*
X1123D02*
G01X1059D01*
Y383*
X1123*
X1831D02*
G01X1883D01*
X2023D02*
G01X2081D01*
Y385*
X2021*
X1885D02*
G01X1831D01*
X1123D02*
G01X1059D01*
Y387*
X1123*
X1831D02*
G01X1885D01*
X2017D02*
G01X2081D01*
Y389*
X2017*
X1885D02*
G01X1831D01*
X1123D02*
G01X1059D01*
Y391*
X1123*
X1829D02*
G01X1885D01*
X2015D02*
G01X2081D01*
Y393*
X2013*
X1887D02*
G01X1829D01*
X1123D02*
G01X1059D01*
Y395*
X1123*
X1827D02*
G01X1887D01*
X2011D02*
G01X2081D01*
Y397*
X2009*
X1889D02*
G01X1827D01*
X1123D02*
G01X1059D01*
Y399*
X1123*
X1825D02*
G01X1889D01*
X2005D02*
G01X2081D01*
Y401*
X2003*
X1893D02*
G01X1825D01*
X1705D02*
G01X1653D01*
X1123D02*
G01X1059D01*
Y403*
X1123*
X1653D02*
G01X1717D01*
X1821D02*
G01X1893D01*
X1997D02*
G01X2081D01*
Y405*
X1997*
X1895D02*
G01X1821D01*
X1721D02*
G01X1653D01*
X1123D02*
G01X1059D01*
Y407*
X1123*
X1653D02*
G01X1721D01*
X1819D02*
G01X1895D01*
X1993D02*
G01X2081D01*
Y409*
X1993*
X1899D02*
G01X1819D01*
X1723D02*
G01X1653D01*
X1123D02*
G01X1059D01*
Y411*
X1123*
X1653D02*
G01X1723D01*
X1815D02*
G01X1899D01*
X1989D02*
G01X2081D01*
Y413*
X1989*
X1903D02*
G01X1815D01*
X1727D02*
G01X1653D01*
X1123D02*
G01X1059D01*
Y415*
X1123*
X1653D02*
G01X1727D01*
X1809D02*
G01X1903D01*
X1985D02*
G01X2081D01*
Y417*
X1987*
X1903D02*
G01X1813D01*
X1727D02*
G01X1653D01*
X1123D02*
G01X1059D01*
Y419*
X1065*
X1653D02*
G01X1725D01*
X1815D02*
G01X1901D01*
X1989D02*
G01X2081D01*
Y421*
X1991*
X1899D02*
G01X1817D01*
X1723D02*
G01X1653D01*
Y423*
X1721*
X1819D02*
G01X1897D01*
X1993D02*
G01X2081D01*
Y425*
X1995*
X1895D02*
G01X1819D01*
X1721D02*
G01X1653D01*
Y427*
X1719*
X1821D02*
G01X1893D01*
X1997D02*
G01X2081D01*
Y429*
X1997*
X1893D02*
G01X1823D01*
X1717D02*
G01X1653D01*
Y431*
X1715*
X1825D02*
G01X1891D01*
X1999D02*
G01X2081D01*
Y433*
X2001*
X1889D02*
G01X1825D01*
X1715D02*
G01X1653D01*
Y435*
X1713*
X1827D02*
G01X1889D01*
X2001D02*
G01X2081D01*
Y437*
X2003*
X1887D02*
G01X1827D01*
X1713D02*
G01X1653D01*
Y439*
X1711*
X1829D02*
G01X1887D01*
X2003D02*
G01X2081D01*
Y441*
X2005*
X1885D02*
G01X1829D01*
X1711D02*
G01X1655D01*
Y443*
X1709*
X1831D02*
G01X1885D01*
X2005D02*
G01X2081D01*
Y445*
X2005*
X1885D02*
G01X1831D01*
X1709D02*
G01X1655D01*
X1657Y447*
X1709*
X1831D02*
G01X1883D01*
X2007D02*
G01X2081D01*
Y449*
X2007*
X1883D02*
G01X1831D01*
X1709D02*
G01X1657D01*
Y451*
X1707*
X1833D02*
G01X1883D01*
X2007D02*
G01X2081D01*
Y453*
X2007*
X1883D02*
G01X1833D01*
X1707D02*
G01X1657D01*
X1659Y455*
X1707*
X1833D02*
G01X1881D01*
X2009D02*
G01X2081D01*
Y457*
X2009*
X1881D02*
G01X1833D01*
X1707D02*
G01X1659D01*
Y459*
X1707*
X1833D02*
G01X1881D01*
X2009D02*
G01X2081D01*
Y461*
X2009*
X1881D02*
G01X1833D01*
X1707D02*
G01X1659D01*
Y463*
X1707*
X1833D02*
G01X1881D01*
X2009D02*
G01X2081D01*
Y465*
X2009*
X1881D02*
G01X1835D01*
X1707D02*
G01X1659D01*
Y467*
X1707*
X1833D02*
G01X1881D01*
X2009D02*
G01X2081D01*
Y469*
X2009*
X1881D02*
G01X1833D01*
X1707D02*
G01X1659D01*
Y471*
X1707*
X1833D02*
G01X1881D01*
X2009D02*
G01X2081D01*
Y473*
X2009*
X1881D02*
G01X1833D01*
X1707D02*
G01X1659D01*
Y475*
X1707*
X1833D02*
G01X1881D01*
X2009D02*
G01X2081D01*
Y477*
X2009*
X1883D02*
G01X1833D01*
X1707D02*
G01X1659D01*
X1657Y479*
X1707*
X1833D02*
G01X1883D01*
X2007D02*
G01X2081D01*
Y481*
X2007*
X1883D02*
G01X1833D01*
X1709D02*
G01X1657D01*
Y483*
X1709*
X1831D02*
G01X1883D01*
X2007D02*
G01X2081D01*
Y485*
X2007*
X1885D02*
G01X1831D01*
X1709D02*
G01X1657D01*
X1655Y487*
X1709*
X1831D02*
G01X1885D01*
X2005D02*
G01X2081D01*
Y489*
X2005*
X1885D02*
G01X1831D01*
X1711D02*
G01X1655D01*
X1653Y491*
X1711*
X1829D02*
G01X1885D01*
X2003D02*
G01X2081D01*
Y493*
X2003*
X1887D02*
G01X1829D01*
X1713D02*
G01X1653D01*
Y495*
X1713*
X1827D02*
G01X1887D01*
X2001D02*
G01X2081D01*
Y497*
X2001*
X1889D02*
G01X1827D01*
X1715D02*
G01X1653D01*
Y499*
X1715*
X1825D02*
G01X1889D01*
X1999D02*
G01X2081D01*
Y501*
X1999*
X1893D02*
G01X1825D01*
X1717D02*
G01X1653D01*
Y503*
X1717*
X1821D02*
G01X1893D01*
X1997D02*
G01X2081D01*
Y505*
X1997*
X1895D02*
G01X1821D01*
X1721D02*
G01X1653D01*
Y507*
X1721*
X1819D02*
G01X1895D01*
X1993D02*
G01X2081D01*
Y509*
X1993*
X1899D02*
G01X1819D01*
X1723D02*
G01X1653D01*
Y511*
X1723*
X1815D02*
G01X1899D01*
X1989D02*
G01X2081D01*
Y513*
X1989*
X1903D02*
G01X1815D01*
X1727D02*
G01X1653D01*
Y515*
X1727*
X1809D02*
G01X1903D01*
X1985D02*
G01X2081D01*
Y517*
X1985*
X1907D02*
G01X1809D01*
X1733D02*
G01X1653D01*
Y519*
X1733*
X1805D02*
G01X1907D01*
X1979D02*
G01X2081D01*
Y521*
X1979*
X1915D02*
G01X1805D01*
X1739D02*
G01X1653D01*
Y523*
X1739*
X1797D02*
G01X1915D01*
X1973D02*
G01X2081D01*
Y525*
X1973*
X1923D02*
G01X1797D01*
X1747D02*
G01X1653D01*
Y527*
X1747*
X1785D02*
G01X1923D01*
X1961D02*
G01X2081D01*
Y529*
X1653*
Y531*
X2081*
Y533*
X1653*
Y535*
X2081*
Y537*
X1653*
Y539*
X2081*
Y541*
X1653*
Y543*
X2081*
Y545*
X1653*
Y547*
X2081*
Y549*
X1653*
Y551*
X2081*
Y553*
X1653*
Y555*
X2081*
Y557*
X1653*
Y559*
X2081*
Y561*
X1653*
Y563*
X2081*
Y565*
X1653*
Y567*
X2081*
Y569*
X1653*
Y571*
X2061*
X2055Y573D02*
G01X1653D01*
Y575*
X2051*
X2049Y577*
X1653*
Y579*
X2045*
X2043Y581*
X1653*
Y583*
X2041*
X2039Y585*
X1653*
Y587*
X2037*
X2035Y589*
X1653*
Y591*
X2033*
Y593*
X1653*
Y595*
X2031*
X2029Y597*
X1653*
Y599*
X2029*
Y601*
X1653*
Y603*
X2027*
Y605*
X1653*
Y607*
X2025*
Y609*
X1653*
Y611*
X2025*
Y613*
X1653*
Y615*
X2025*
Y617*
X1653*
Y619*
X2025*
Y621*
X1843*
X1847Y623D02*
G01X2025D01*
Y625*
X1851*
X1853Y627*
X2025*
Y629*
X1857*
X1859Y631*
X2025*
Y633*
X1861*
X1863Y635*
X2025*
X2027Y637*
X1865*
X1867Y639*
X2027*
X2029Y641*
X1869*
X1871Y643*
X2029*
Y645*
X1873*
X1875Y647*
X2029*
Y649*
X1877*
X1879Y651*
X2029*
Y653*
X1881*
X1883Y655*
X2029*
Y657*
X1885*
X1887Y659*
X2029*
Y661*
X1889*
X1891Y663*
X2029*
Y665*
X1893*
X1895Y667*
X2029*
Y669*
X1897*
X1899Y671*
X2029*
Y673*
X1901*
X1903Y675*
X2029*
Y677*
X1905*
X1907Y679*
X2029*
Y681*
X1909*
X1911Y683*
X2029*
Y685*
X1913*
X1915Y687*
X2029*
Y689*
X1917*
X1919Y691*
X2029*
Y693*
X1921*
X1923Y695*
X2029*
Y697*
X1925*
X1927Y699*
X2029*
Y701*
X1929*
X1931Y703*
X2029*
Y705*
X1933*
X1935Y707*
X2029*
Y709*
X1937*
X1939Y711*
X2029*
Y713*
X1941*
X1943Y715*
X2029*
Y717*
X1945*
X1947Y719*
X2029*
Y721*
X1949*
X1951Y723*
X2029*
Y725*
X1953*
X1955Y727*
X2029*
Y729*
X1957*
X1959Y731*
X2029*
Y733*
X1961*
X1963Y735*
X2029*
Y737*
X1965*
X1059D02*
G01Y739D01*
X1967D02*
G01X2029D01*
Y741*
X1969*
X1263D02*
G01X1059D01*
Y743*
X1261*
X1971D02*
G01X2029D01*
Y745*
X1973*
X1261D02*
G01X1059D01*
Y747*
X1259*
X1975D02*
G01X2029D01*
Y749*
X1977*
X1259D02*
G01X1059D01*
Y751*
X1259*
X1979D02*
G01X2029D01*
Y753*
X1981*
X1259D02*
G01X1059D01*
Y755*
X1259*
X1983D02*
G01X2029D01*
Y757*
X1985*
X1259D02*
G01X1059D01*
Y759*
X1259*
X1987D02*
G01X2029D01*
Y761*
X1989*
X1259D02*
G01X1059D01*
Y763*
X1257*
X1991D02*
G01X2029D01*
Y765*
X1993*
X1257D02*
G01X1059D01*
Y767*
X1255*
X1995D02*
G01X2029D01*
Y769*
X1997*
X1255D02*
G01X1059D01*
Y771*
X1255*
X1999D02*
G01X2029D01*
Y773*
X2001*
X1253D02*
G01X1059D01*
Y775*
X1253*
X2003D02*
G01X2029D01*
Y777*
X2005*
X1253D02*
G01X1059D01*
Y779*
X1253*
X2007D02*
G01X2029D01*
Y781*
X2009*
X1253D02*
G01X1059D01*
Y783*
X1253*
X2011D02*
G01X2029D01*
Y785*
X2013*
X1253D02*
G01X1059D01*
Y787*
X1253*
X2015D02*
G01X2029D01*
Y789*
X2017*
X1253D02*
G01X1059D01*
Y791*
X1253*
X2019D02*
G01X2029D01*
Y793*
X2021*
X1253D02*
G01X1059D01*
Y795*
X1253*
X2023D02*
G01X2029D01*
Y797*
X2025*
X1253D02*
G01X1059D01*
Y799*
X1253*
X2027D02*
G01X2029D01*
Y801*
X1253D02*
G01X1059D01*
Y803*
X1253*
Y805*
X1059*
Y807*
X1253*
Y809*
X1059*
Y811*
X1253*
Y813*
X1059*
Y815*
X1253*
Y817*
X1059*
Y819*
X1253*
Y821*
X1059*
Y823*
X1253*
Y825*
X1059*
Y827*
X1253*
Y829*
X1059*
Y831*
X1253*
Y833*
X1059*
Y835*
X1253*
Y837*
X1059*
Y839*
X1253*
Y841*
X1059*
Y843*
X1253*
Y845*
X1059*
Y847*
X1253*
Y849*
X1059*
Y851*
X1253*
Y853*
X1059*
Y855*
X1253*
Y857*
X1059*
Y859*
X1253*
Y861*
X1059*
Y863*
X1253*
Y865*
X1059*
Y867*
X1253*
Y869*
X1059*
Y871*
X1253*
Y873*
X1059*
Y875*
X1253*
Y877*
X1059*
Y879*
X1253*
Y881*
X1067*
X1071Y883D02*
G01X1253D01*
Y885*
X1075*
X1077Y887*
X1253*
Y889*
X1081*
X1083Y891*
X1253*
Y893*
X1085*
X1087Y895*
X1253*
X1251Y897*
X1089*
X1091Y899*
X1249*
X1247Y901*
X1093*
Y903*
X1245*
X1243Y905*
X1095*
X1097Y907*
X1241*
X1239Y909*
X1097*
X1099Y911*
X1237*
X1235Y913*
X1099*
Y915*
X1233*
X1231Y917*
X1101*
Y919*
X1229*
X1227Y921*
X1101*
Y923*
X1225*
X1223Y925*
X1101*
Y927*
X1221*
X1219Y929*
X1101*
X1103Y931*
X1217*
X1215Y933*
X1101*
Y935*
X1213*
X1211Y937*
X1101*
Y939*
X1209*
Y941*
X1101*
Y943*
X1207*
Y945*
X1129*
X1133Y947D02*
G01X1205D01*
Y949*
X1139*
X1143Y951D02*
G01X1205D01*
X1203Y953*
X1147*
X1149Y955*
X1203*
Y957*
X1153*
X1155Y959*
X1203*
Y961*
X1157*
X1159Y963*
X1203*
Y965*
X1161*
X1163Y967*
X1203*
Y969*
X1165*
X1167Y971*
X1203*
Y973*
X1169*
Y975*
X1203*
Y977*
X1171*
X1173Y979*
X1203*
Y981*
X1173*
X1175Y983*
X1203*
Y985*
X1175*
X1177Y987*
X1203*
Y989*
X1177*
Y991*
X1203*
Y993*
X1179*
Y995*
X1203*
Y997*
X1179*
X1181Y999*
X1203*
Y1001*
X1181*
Y1003*
X1203*
Y1005*
X1181*
Y1007*
X1203*
Y1009*
X1181*
Y1011*
X1203*
Y1013*
X1181*
X1183Y1015*
X1203*
Y1017*
X1181*
Y1019*
X1203*
Y1021*
X1181*
Y1023*
X1203*
Y1025*
X1181*
Y1027*
X1203*
Y1029*
X1181*
Y1031*
X1203*
Y1033*
X1179*
Y1035*
X1203*
Y1037*
X1179*
Y1039*
X1203*
Y1041*
X1177*
Y1043*
X1203*
Y1045*
X1175*
Y1047*
X1203*
Y1049*
X1173*
Y1051*
X1203*
Y1053*
X1171*
Y1055*
X1203*
Y1057*
X1169*
X2849Y37D02*
G01X2083D01*
Y39*
X2849*
Y41*
X2083*
Y43*
X2849*
Y45*
X2083*
Y47*
X2849*
Y49*
X2083*
Y51*
X2849*
Y53*
X2083*
Y55*
X2849*
Y57*
X2083*
Y59*
X2849*
Y61*
X2083*
Y63*
X2849*
Y65*
X2083*
Y67*
X2849*
Y69*
X2083*
Y71*
X2849*
Y73*
X2083*
Y75*
X2849*
Y77*
X2083*
Y79*
X2849*
Y81*
X2083*
Y83*
X2849*
Y85*
X2083*
Y87*
X2849*
Y89*
X2083*
Y91*
X2849*
Y93*
X2083*
Y95*
X2849*
Y97*
X2083*
Y99*
X2849*
Y101*
X2083*
Y103*
X2849*
Y105*
X2083*
Y107*
X2849*
Y109*
X2083*
Y111*
X2849*
Y113*
X2083*
Y115*
X2849*
Y117*
X2083*
Y119*
X2849*
Y121*
X2083*
Y123*
X2849*
Y125*
X2083*
Y127*
X2849*
Y129*
X2083*
Y131*
X2849*
Y133*
X2083*
Y135*
X2849*
Y137*
X2083*
Y139*
X2849*
Y141*
X2083*
Y143*
X2849*
Y145*
X2083*
Y147*
X2849*
Y149*
X2083*
Y151*
X2849*
Y153*
X2083*
Y155*
X2849*
Y157*
X2083*
Y159*
X2849*
Y161*
X2083*
Y163*
X2849*
Y165*
X2083*
Y167*
X2849*
Y169*
X2083*
Y171*
X2849*
Y173*
X2083*
Y175*
X2709D02*
G01X2849D01*
Y177*
X2709*
X2083D02*
G01Y179D01*
X2709D02*
G01X2849D01*
Y181*
X2709*
X2083D02*
G01Y183D01*
X2709D02*
G01X2849D01*
Y185*
X2709*
X2083D02*
G01Y187D01*
X2709D02*
G01X2849D01*
Y189*
X2709*
X2083D02*
G01Y191D01*
X2709D02*
G01X2849D01*
Y193*
X2709*
X2083D02*
G01Y195D01*
X2709D02*
G01X2849D01*
Y197*
X2709*
X2083D02*
G01Y199D01*
X2709D02*
G01X2849D01*
Y201*
X2709*
X2083D02*
G01Y203D01*
X2709D02*
G01X2849D01*
Y205*
X2709*
X2083D02*
G01Y207D01*
X2709D02*
G01X2849D01*
Y209*
X2709*
X2083D02*
G01Y211D01*
X2709D02*
G01X2849D01*
Y213*
X2709*
X2083D02*
G01Y215D01*
X2709D02*
G01X2849D01*
Y217*
X2709*
X2083D02*
G01Y219D01*
X2709D02*
G01X2849D01*
Y221*
X2709*
X2083D02*
G01Y223D01*
X2709D02*
G01X2849D01*
Y225*
X2709*
X2083D02*
G01Y227D01*
X2709D02*
G01X2849D01*
Y229*
X2709*
X2083D02*
G01Y231D01*
X2709D02*
G01X2849D01*
Y233*
X2709*
X2083D02*
G01Y235D01*
X2709D02*
G01X2849D01*
Y237*
X2709*
X2083D02*
G01Y239D01*
X2709D02*
G01X2849D01*
Y241*
X2709*
X2083D02*
G01Y243D01*
X2709D02*
G01X2849D01*
Y245*
X2709*
X2083D02*
G01Y247D01*
X2709D02*
G01X2849D01*
Y249*
X2709*
X2083D02*
G01Y251D01*
X2709D02*
G01X2849D01*
Y253*
X2709*
X2083D02*
G01Y255D01*
X2709D02*
G01X2849D01*
Y257*
X2709*
X2083D02*
G01Y259D01*
X2709D02*
G01X2849D01*
Y261*
X2709*
X2083D02*
G01Y263D01*
X2709D02*
G01X2849D01*
Y265*
X2709*
X2083D02*
G01Y267D01*
X2709D02*
G01X2849D01*
Y269*
X2709*
X2083D02*
G01Y271D01*
X2709D02*
G01X2849D01*
Y273*
X2709*
X2083D02*
G01Y275D01*
X2709D02*
G01X2849D01*
Y277*
X2709*
X2083D02*
G01Y279D01*
X2709D02*
G01X2849D01*
Y281*
X2709*
X2083D02*
G01Y283D01*
X2709D02*
G01X2849D01*
Y285*
X2709*
X2083D02*
G01Y287D01*
X2709D02*
G01X2849D01*
Y289*
X2709*
X2083D02*
G01Y291D01*
X2709D02*
G01X2849D01*
Y293*
X2709*
X2083D02*
G01Y295D01*
X2709D02*
G01X2849D01*
Y297*
X2709*
X2083D02*
G01Y299D01*
X2709D02*
G01X2849D01*
Y301*
X2709*
X2083D02*
G01Y303D01*
X2709D02*
G01X2849D01*
Y305*
X2709*
X2083D02*
G01Y307D01*
X2709D02*
G01X2849D01*
Y309*
X2709*
X2083D02*
G01Y311D01*
X2709D02*
G01X2849D01*
Y313*
X2709*
X2083D02*
G01Y315D01*
X2709D02*
G01X2849D01*
Y317*
X2709*
X2083D02*
G01Y319D01*
X2709D02*
G01X2849D01*
Y321*
X2709*
X2083D02*
G01Y323D01*
X2709D02*
G01X2849D01*
Y325*
X2709*
X2083D02*
G01Y327D01*
X2709D02*
G01X2849D01*
Y329*
X2709*
X2083D02*
G01Y331D01*
X2709D02*
G01X2849D01*
Y333*
X2709*
X2083D02*
G01Y335D01*
X2709D02*
G01X2849D01*
Y337*
X2709*
X2083D02*
G01Y339D01*
X2709D02*
G01X2849D01*
Y341*
X2709*
X2083D02*
G01Y343D01*
X2709D02*
G01X2849D01*
Y345*
X2709*
X2083D02*
G01Y347D01*
X2709D02*
G01X2849D01*
Y349*
X2709*
X2083D02*
G01Y351D01*
X2709D02*
G01X2849D01*
Y353*
X2709*
X2083D02*
G01Y355D01*
X2709D02*
G01X2849D01*
Y357*
X2709*
X2083D02*
G01Y359D01*
X2709D02*
G01X2849D01*
Y361*
X2709*
X2083D02*
G01Y363D01*
X2709D02*
G01X2849D01*
Y365*
X2709*
X2083D02*
G01Y367D01*
X2709D02*
G01X2849D01*
Y369*
X2709*
X2083D02*
G01Y371D01*
X2709D02*
G01X2849D01*
Y373*
X2709*
X2083D02*
G01Y375D01*
X2709D02*
G01X2849D01*
Y377*
X2709*
X2083D02*
G01Y379D01*
X2709D02*
G01X2849D01*
Y381*
X2709*
X2083D02*
G01Y383D01*
X2709D02*
G01X2849D01*
Y385*
X2709*
X2083D02*
G01Y387D01*
X2709D02*
G01X2849D01*
Y389*
X2709*
X2083D02*
G01Y391D01*
X2709D02*
G01X2849D01*
Y393*
X2709*
X2083D02*
G01Y395D01*
X2709D02*
G01X2849D01*
Y397*
X2709*
X2083D02*
G01Y399D01*
X2709D02*
G01X2849D01*
Y401*
X2709*
X2083D02*
G01Y403D01*
X2709D02*
G01X2849D01*
Y405*
X2709*
X2083D02*
G01Y407D01*
X2849*
Y409*
X2083*
Y411*
X2575*
X2607D02*
G01X2849D01*
Y413*
X2611*
X2569D02*
G01X2083D01*
Y415*
X2565*
X2615D02*
G01X2849D01*
Y417*
X2617*
X2563D02*
G01X2083D01*
Y419*
X2559*
X2621D02*
G01X2849D01*
Y421*
X2623*
X2557D02*
G01X2083D01*
Y423*
X2555*
X2625D02*
G01X2849D01*
Y425*
X2767*
X2553D02*
G01X2083D01*
Y427*
X2551*
X2771D02*
G01X2849D01*
Y429*
X2775*
X2549D02*
G01X2083D01*
Y431*
X2547*
X2777D02*
G01X2849D01*
Y433*
X2781*
X2547D02*
G01X2083D01*
Y435*
X2545*
X2783D02*
G01X2849D01*
Y437*
X2785*
X2543D02*
G01X2083D01*
Y439*
X2543*
X2787D02*
G01X2849D01*
Y441*
X2789*
X2543D02*
G01X2083D01*
Y443*
X2541*
X2791D02*
G01X2849D01*
Y445*
X2793*
X2541D02*
G01X2083D01*
Y447*
X2539*
X2795D02*
G01X2849D01*
Y449*
X2797*
X2539D02*
G01X2083D01*
Y451*
X2539*
X2799D02*
G01X2849D01*
Y453*
X2801*
X2539D02*
G01X2083D01*
Y455*
X2539*
X2803D02*
G01X2849D01*
Y457*
X2805*
X2539D02*
G01X2083D01*
Y459*
X2539*
X2807D02*
G01X2849D01*
Y461*
X2809*
X2539D02*
G01X2083D01*
Y463*
X2539*
X2811D02*
G01X2849D01*
Y465*
X2813*
X2539D02*
G01X2083D01*
Y467*
X2539*
X2813D02*
G01X2849D01*
Y469*
X2815*
X2539D02*
G01X2083D01*
Y471*
X2539*
X2817D02*
G01X2849D01*
Y473*
X2817*
X2539D02*
G01X2083D01*
Y475*
X2539*
X2819D02*
G01X2849D01*
Y477*
X2819*
X2541D02*
G01X2083D01*
Y479*
X2541*
X2821D02*
G01X2849D01*
Y481*
X2821*
X2543D02*
G01X2083D01*
Y483*
X2543*
X2821D02*
G01X2849D01*
Y485*
X2821*
X2543D02*
G01X2083D01*
Y487*
X2543*
X2821D02*
G01X2849D01*
Y489*
X2821*
X2547D02*
G01X2083D01*
Y491*
X2547*
X2823D02*
G01X2849D01*
Y493*
X2823*
X2549D02*
G01X2083D01*
Y495*
X2549*
X2823D02*
G01X2849D01*
Y497*
X2823*
X2737D02*
G01X2629D01*
X2553D02*
G01X2083D01*
Y499*
X2553*
X2625D02*
G01X2741D01*
X2823D02*
G01X2849D01*
Y501*
X2823*
X2741D02*
G01X2625D01*
X2557D02*
G01X2083D01*
Y503*
X2557*
X2621D02*
G01X2745D01*
X2823D02*
G01X2849D01*
Y505*
X2823*
X2745D02*
G01X2621D01*
X2563D02*
G01X2083D01*
Y507*
X2563*
X2615D02*
G01X2749D01*
X2823D02*
G01X2849D01*
Y509*
X2823*
X2749D02*
G01X2615D01*
X2571D02*
G01X2083D01*
Y511*
X2571*
X2605D02*
G01X2749D01*
X2823D02*
G01X2849D01*
Y513*
X2823*
X2749D02*
G01X2083D01*
Y515*
X2749*
X2823D02*
G01X2849D01*
Y517*
X2823*
X2749D02*
G01X2083D01*
Y519*
X2749*
X2823D02*
G01X2849D01*
Y521*
X2823*
X2749D02*
G01X2083D01*
Y523*
X2749*
X2823D02*
G01X2849D01*
Y525*
X2823*
X2749D02*
G01X2083D01*
Y527*
X2749*
X2823D02*
G01X2849D01*
Y529*
X2823*
X2749D02*
G01X2083D01*
Y531*
X2243*
X2323D02*
G01X2749D01*
X2823D02*
G01X2849D01*
Y533*
X2823*
X2749D02*
G01X2327D01*
X2239D02*
G01X2083D01*
Y535*
X2235*
X2331D02*
G01X2749D01*
X2823D02*
G01X2849D01*
Y537*
X2823*
X2749D02*
G01X2333D01*
X2233D02*
G01X2083D01*
Y539*
X2229*
X2335D02*
G01X2749D01*
X2823D02*
G01X2849D01*
Y541*
X2823*
X2749D02*
G01X2337D01*
X2227D02*
G01X2083D01*
Y543*
X2227*
X2339D02*
G01X2749D01*
X2823D02*
G01X2849D01*
Y545*
X2823*
X2749D02*
G01X2341D01*
X2225D02*
G01X2083D01*
Y547*
X2223*
X2343D02*
G01X2749D01*
X2823D02*
G01X2849D01*
Y549*
X2823*
X2749D02*
G01X2345D01*
X2221D02*
G01X2083D01*
Y551*
X2219*
X2347D02*
G01X2749D01*
X2823D02*
G01X2849D01*
Y553*
X2823*
X2749D02*
G01X2349D01*
X2217D02*
G01X2083D01*
Y555*
X2217*
X2351D02*
G01X2749D01*
X2823D02*
G01X2849D01*
Y557*
X2823*
X2749D02*
G01X2353D01*
X2215D02*
G01X2083D01*
Y559*
X2213*
X2355D02*
G01X2749D01*
X2823D02*
G01X2849D01*
Y561*
X2823*
X2749D02*
G01X2357D01*
X2211D02*
G01X2083D01*
Y563*
X2209*
X2359D02*
G01X2749D01*
X2823D02*
G01X2849D01*
Y565*
X2823*
X2749D02*
G01X2361D01*
X2207D02*
G01X2083D01*
Y567*
X2207*
X2363D02*
G01X2749D01*
X2823D02*
G01X2849D01*
Y569*
X2823*
X2749D02*
G01X2365D01*
X2205D02*
G01X2083D01*
X2093Y571D02*
G01X2203D01*
X2367D02*
G01X2749D01*
X2823D02*
G01X2849D01*
Y573*
X2823*
X2749D02*
G01X2369D01*
X2201D02*
G01X2097D01*
X2101Y575D02*
G01X2199D01*
X2371D02*
G01X2749D01*
X2823D02*
G01X2849D01*
Y577*
X2823*
X2749D02*
G01X2373D01*
X2199D02*
G01X2103D01*
X2107Y579D02*
G01X2197D01*
X2375D02*
G01X2477D01*
X2605D02*
G01X2749D01*
X2823D02*
G01X2849D01*
Y581*
X2823*
X2749D02*
G01X2605D01*
X2477D02*
G01X2377D01*
X2197D02*
G01X2109D01*
X2111Y583*
X2195*
X2379D02*
G01X2477D01*
X2605D02*
G01X2749D01*
X2823D02*
G01X2849D01*
Y585*
X2823*
X2749D02*
G01X2605D01*
X2477D02*
G01X2381D01*
X2195D02*
G01X2113D01*
X2115Y587*
X2195*
X2383D02*
G01X2477D01*
X2605D02*
G01X2749D01*
X2823D02*
G01X2849D01*
Y589*
X2823*
X2749D02*
G01X2605D01*
X2477D02*
G01X2385D01*
X2193D02*
G01X2117D01*
X2119Y591*
X2193*
X2387D02*
G01X2477D01*
X2605D02*
G01X2675D01*
X2823D02*
G01X2849D01*
Y593*
X2823*
X2675D02*
G01X2605D01*
X2477D02*
G01X2389D01*
X2193D02*
G01X2119D01*
X2121Y595*
X2193*
X2391D02*
G01X2477D01*
X2605D02*
G01X2675D01*
X2823D02*
G01X2849D01*
Y597*
X2823*
X2675D02*
G01X2605D01*
X2477D02*
G01X2393D01*
X2193D02*
G01X2123D01*
Y599*
X2193*
X2395D02*
G01X2477D01*
X2605D02*
G01X2675D01*
X2823D02*
G01X2849D01*
Y601*
X2823*
X2675D02*
G01X2605D01*
X2477D02*
G01X2397D01*
X2193D02*
G01X2125D01*
Y603*
X2193*
X2605D02*
G01X2675D01*
X2823D02*
G01X2849D01*
Y605*
X2823*
X2675D02*
G01X2605D01*
X2193D02*
G01X2125D01*
X2127Y607*
X2193*
X2605D02*
G01X2675D01*
X2823D02*
G01X2849D01*
Y609*
X2823*
X2675D02*
G01X2605D01*
X2193D02*
G01X2127D01*
Y611*
X2193*
X2605D02*
G01X2675D01*
X2823D02*
G01X2849D01*
Y613*
X2823*
X2675D02*
G01X2605D01*
X2193D02*
G01X2127D01*
Y615*
X2193*
X2605D02*
G01X2675D01*
X2823D02*
G01X2849D01*
Y617*
X2823*
X2675D02*
G01X2605D01*
X2193D02*
G01X2127D01*
Y619*
X2193*
X2605D02*
G01X2675D01*
X2823D02*
G01X2849D01*
Y621*
X2823*
X2675D02*
G01X2605D01*
X2193D02*
G01X2129D01*
X2127Y623*
X2193*
X2605D02*
G01X2675D01*
X2823D02*
G01X2849D01*
Y625*
X2823*
X2675D02*
G01X2605D01*
X2193D02*
G01X2127D01*
Y627*
X2193*
X2605D02*
G01X2675D01*
X2823D02*
G01X2849D01*
Y629*
X2823*
X2675D02*
G01X2605D01*
X2193D02*
G01X2127D01*
Y631*
X2193*
X2605D02*
G01X2675D01*
X2823D02*
G01X2849D01*
Y633*
X2823*
X2675D02*
G01X2605D01*
X2193D02*
G01X2127D01*
Y635*
X2193*
X2605D02*
G01X2675D01*
X2823D02*
G01X2849D01*
Y637*
X2823*
X2675D02*
G01X2605D01*
X2193D02*
G01X2127D01*
X2125Y639*
X2193*
X2605D02*
G01X2675D01*
X2823D02*
G01X2849D01*
Y641*
X2823*
X2675D02*
G01X2605D01*
X2193D02*
G01X2125D01*
X2123Y643*
X2193*
X2605D02*
G01X2675D01*
X2823D02*
G01X2849D01*
Y645*
X2823*
X2675D02*
G01X2605D01*
X2193D02*
G01X2123D01*
X2121Y647*
X2193*
X2605D02*
G01X2675D01*
X2823D02*
G01X2849D01*
Y649*
X2823*
X2675D02*
G01X2605D01*
X2193D02*
G01X2121D01*
X2119Y651*
X2193*
X2605D02*
G01X2675D01*
X2823D02*
G01X2849D01*
Y653*
X2823*
X2675D02*
G01X2605D01*
X2193D02*
G01X2119D01*
X2115Y655D02*
G01X2193D01*
X2605D02*
G01X2675D01*
X2823D02*
G01X2849D01*
Y657*
X2823*
X2675D02*
G01X2605D01*
X2193D02*
G01X2115D01*
X2111Y659D02*
G01X2193D01*
X2605D02*
G01X2675D01*
X2823D02*
G01X2849D01*
Y661*
X2823*
X2675D02*
G01X2605D01*
X2193D02*
G01X2111D01*
X2107Y663D02*
G01X2193D01*
X2605D02*
G01X2675D01*
X2823D02*
G01X2849D01*
Y665*
X2823*
X2675D02*
G01X2605D01*
X2193D02*
G01X2107D01*
X2103Y667D02*
G01X2193D01*
X2605D02*
G01X2675D01*
X2823D02*
G01X2849D01*
Y669*
X2823*
X2675D02*
G01X2605D01*
X2193D02*
G01X2103D01*
Y671*
X2193*
X2605D02*
G01X2675D01*
X2823D02*
G01X2849D01*
Y673*
X2823*
X2675D02*
G01X2605D01*
X2193D02*
G01X2103D01*
Y675*
X2193*
X2605D02*
G01X2675D01*
X2823D02*
G01X2849D01*
Y677*
X2823*
X2675D02*
G01X2605D01*
X2193D02*
G01X2103D01*
Y679*
X2193*
X2605D02*
G01X2675D01*
X2823D02*
G01X2849D01*
Y681*
X2823*
X2675D02*
G01X2605D01*
X2193D02*
G01X2103D01*
Y683*
X2193*
X2605D02*
G01X2675D01*
X2823D02*
G01X2849D01*
Y685*
X2823*
X2675D02*
G01X2605D01*
X2193D02*
G01X2103D01*
Y687*
X2193*
X2605D02*
G01X2675D01*
X2823D02*
G01X2849D01*
Y689*
X2823*
X2675D02*
G01X2605D01*
X2193D02*
G01X2103D01*
Y691*
X2193*
X2605D02*
G01X2749D01*
X2823D02*
G01X2849D01*
Y693*
X2823*
X2749D02*
G01X2629D01*
X2193D02*
G01X2103D01*
Y695*
X2193*
X2629D02*
G01X2749D01*
X2823D02*
G01X2849D01*
Y697*
X2823*
X2749D02*
G01X2629D01*
X2193D02*
G01X2103D01*
Y699*
X2193*
X2629D02*
G01X2749D01*
X2823D02*
G01X2849D01*
Y701*
X2823*
X2749D02*
G01X2629D01*
X2193D02*
G01X2103D01*
Y703*
X2193*
X2629D02*
G01X2749D01*
X2823D02*
G01X2849D01*
Y705*
X2823*
X2749D02*
G01X2629D01*
X2193D02*
G01X2103D01*
Y707*
X2193*
X2629D02*
G01X2749D01*
X2823D02*
G01X2849D01*
Y709*
X2823*
X2749D02*
G01X2629D01*
X2193D02*
G01X2103D01*
Y711*
X2193*
X2629D02*
G01X2749D01*
X2823D02*
G01X2849D01*
Y713*
X2823*
X2749D02*
G01X2629D01*
X2193D02*
G01X2103D01*
Y715*
X2193*
X2629D02*
G01X2749D01*
X2823D02*
G01X2849D01*
Y717*
X2823*
X2749D02*
G01X2629D01*
X2193D02*
G01X2103D01*
Y719*
X2193*
X2629D02*
G01X2749D01*
X2823D02*
G01X2849D01*
Y721*
X2823*
X2749D02*
G01X2629D01*
X2193D02*
G01X2103D01*
Y723*
X2193*
X2629D02*
G01X2749D01*
X2823D02*
G01X2849D01*
Y725*
X2823*
X2749D02*
G01X2629D01*
X2193D02*
G01X2103D01*
Y727*
X2193*
X2629D02*
G01X2749D01*
X2823D02*
G01X2849D01*
Y729*
X2823*
X2749D02*
G01X2629D01*
X2387D02*
G01X2349D01*
X2193D02*
G01X2127D01*
X2131Y731D02*
G01X2193D01*
X2349D02*
G01X2387D01*
X2629D02*
G01X2749D01*
X2823D02*
G01X2849D01*
Y733*
X2823*
X2749D02*
G01X2629D01*
X2387D02*
G01X2349D01*
X2193D02*
G01X2135D01*
X2137Y735*
X2193*
X2349D02*
G01X2387D01*
X2629D02*
G01X2749D01*
X2823D02*
G01X2849D01*
Y737*
X2823*
X2749D02*
G01X2629D01*
X2387D02*
G01X2349D01*
X2193D02*
G01X2141D01*
X2143Y739*
X2193*
X2349D02*
G01X2387D01*
X2629D02*
G01X2749D01*
X2823D02*
G01X2849D01*
Y741*
X2823*
X2749D02*
G01X2629D01*
X2387D02*
G01X2349D01*
X2193D02*
G01X2145D01*
X2147Y743*
X2193*
X2349D02*
G01X2387D01*
X2629D02*
G01X2749D01*
X2823D02*
G01X2849D01*
Y745*
X2823*
X2749D02*
G01X2629D01*
X2387D02*
G01X2349D01*
X2193D02*
G01X2149D01*
X2151Y747*
X2193*
X2349D02*
G01X2387D01*
X2629D02*
G01X2749D01*
X2823D02*
G01X2849D01*
Y749*
X2823*
X2749D02*
G01X2629D01*
X2387D02*
G01X2349D01*
X2193D02*
G01X2153D01*
Y751*
X2193*
X2349D02*
G01X2387D01*
X2629D02*
G01X2749D01*
X2823D02*
G01X2849D01*
Y753*
X2823*
X2749D02*
G01X2629D01*
X2387D02*
G01X2349D01*
X2193D02*
G01X2155D01*
X2157Y755*
X2193*
X2349D02*
G01X2387D01*
X2629D02*
G01X2749D01*
X2823D02*
G01X2849D01*
Y757*
X2823*
X2749D02*
G01X2629D01*
X2387D02*
G01X2349D01*
X2193D02*
G01X2157D01*
X2159Y759*
X2193*
X2349D02*
G01X2387D01*
X2629D02*
G01X2749D01*
X2823D02*
G01X2849D01*
Y761*
X2823*
X2749D02*
G01X2629D01*
X2387D02*
G01X2349D01*
X2193D02*
G01X2159D01*
Y763*
X2193*
X2349D02*
G01X2387D01*
X2629D02*
G01X2749D01*
X2823D02*
G01X2849D01*
Y765*
X2823*
X2749D02*
G01X2629D01*
X2387D02*
G01X2349D01*
X2193D02*
G01X2161D01*
Y767*
X2193*
X2349D02*
G01X2387D01*
X2629D02*
G01X2749D01*
X2823D02*
G01X2849D01*
Y769*
X2823*
X2749D02*
G01X2629D01*
X2387D02*
G01X2349D01*
X2193D02*
G01X2161D01*
Y771*
X2193*
X2349D02*
G01X2387D01*
X2629D02*
G01X2749D01*
X2823D02*
G01X2849D01*
Y773*
X2823*
X2749D02*
G01X2629D01*
X2387D02*
G01X2349D01*
X2193D02*
G01X2161D01*
Y775*
X2193*
X2349D02*
G01X2387D01*
X2629D02*
G01X2749D01*
X2823D02*
G01X2849D01*
Y777*
X2823*
X2749D02*
G01X2629D01*
X2387D02*
G01X2349D01*
X2193D02*
G01X2161D01*
X2163Y779*
X2193*
X2349D02*
G01X2387D01*
X2629D02*
G01X2749D01*
X2823D02*
G01X2849D01*
Y781*
X2823*
X2749D02*
G01X2629D01*
X2387D02*
G01X2349D01*
X2193D02*
G01X2161D01*
Y783*
X2193*
X2349D02*
G01X2387D01*
X2629D02*
G01X2749D01*
X2823D02*
G01X2849D01*
Y785*
X2823*
X2749D02*
G01X2629D01*
X2387D02*
G01X2349D01*
X2193D02*
G01X2161D01*
Y787*
X2193*
X2349D02*
G01X2387D01*
X2629D02*
G01X2749D01*
X2823D02*
G01X2849D01*
Y789*
X2823*
X2749D02*
G01X2629D01*
X2387D02*
G01X2349D01*
X2193D02*
G01X2161D01*
Y791*
X2193*
X2349D02*
G01X2387D01*
X2629D02*
G01X2749D01*
X2823D02*
G01X2849D01*
Y793*
X2823*
X2749D02*
G01X2629D01*
X2387D02*
G01X2349D01*
X2193D02*
G01X2161D01*
Y795*
X2193*
X2349D02*
G01X2387D01*
X2629D02*
G01X2749D01*
X2823D02*
G01X2849D01*
Y797*
X2823*
X2749D02*
G01X2629D01*
X2387D02*
G01X2349D01*
X2193D02*
G01X2159D01*
Y799*
X2193*
X2343D02*
G01X2387D01*
X2629D02*
G01X2749D01*
X2823D02*
G01X2849D01*
Y801*
X2823*
X2749D02*
G01X2629D01*
X2387D02*
G01X2343D01*
X2193D02*
G01X2157D01*
Y803*
X2193*
X2343D02*
G01X2387D01*
X2629D02*
G01X2749D01*
X2823D02*
G01X2849D01*
Y805*
X2823*
X2749D02*
G01X2629D01*
X2387D02*
G01X2343D01*
X2193D02*
G01X2155D01*
Y807*
X2193*
X2343D02*
G01X2387D01*
X2629D02*
G01X2749D01*
X2823D02*
G01X2849D01*
Y809*
X2823*
X2749D02*
G01X2629D01*
X2387D02*
G01X2343D01*
X2193D02*
G01X2153D01*
Y811*
X2193*
X2343D02*
G01X2387D01*
X2629D02*
G01X2749D01*
X2823D02*
G01X2849D01*
Y813*
X2823*
X2749D02*
G01X2629D01*
X2387D02*
G01X2343D01*
X2193D02*
G01X2149D01*
Y815*
X2193*
X2343D02*
G01X2387D01*
X2629D02*
G01X2749D01*
X2823D02*
G01X2849D01*
Y817*
X2823*
X2749D02*
G01X2629D01*
X2387D02*
G01X2343D01*
X2193D02*
G01X2145D01*
Y819*
X2193*
X2343D02*
G01X2387D01*
X2629D02*
G01X2749D01*
X2823D02*
G01X2849D01*
Y821*
X2823*
X2749D02*
G01X2629D01*
X2387D02*
G01X2343D01*
X2193D02*
G01X2141D01*
Y823*
X2193*
X2343D02*
G01X2387D01*
X2629D02*
G01X2749D01*
X2823D02*
G01X2849D01*
Y825*
X2823*
X2749D02*
G01X2629D01*
X2387D02*
G01X2343D01*
X2193D02*
G01X2135D01*
Y827*
X2193*
X2343D02*
G01X2387D01*
X2629D02*
G01X2749D01*
X2823D02*
G01X2849D01*
Y829*
X2823*
X2749D02*
G01X2629D01*
X2387D02*
G01X2343D01*
X2193D02*
G01X2125D01*
X2123Y831*
X2193*
X2343D02*
G01X2387D01*
X2629D02*
G01X2749D01*
X2823D02*
G01X2849D01*
Y833*
X2823*
X2749D02*
G01X2629D01*
X2387D02*
G01X2343D01*
X2193D02*
G01X2123D01*
Y835*
X2193*
X2343D02*
G01X2387D01*
X2629D02*
G01X2749D01*
X2823D02*
G01X2849D01*
Y837*
X2823*
X2749D02*
G01X2629D01*
X2387D02*
G01X2343D01*
X2193D02*
G01X2123D01*
Y839*
X2193*
X2343D02*
G01X2387D01*
X2629D02*
G01X2749D01*
X2823D02*
G01X2849D01*
Y841*
X2823*
X2749D02*
G01X2629D01*
X2387D02*
G01X2343D01*
X2193D02*
G01X2123D01*
Y843*
X2193*
X2343D02*
G01X2387D01*
X2629D02*
G01X2749D01*
X2823D02*
G01X2849D01*
Y845*
X2823*
X2749D02*
G01X2629D01*
X2387D02*
G01X2343D01*
X2193D02*
G01X2123D01*
Y847*
X2193*
X2343D02*
G01X2387D01*
X2629D02*
G01X2749D01*
X2823D02*
G01X2849D01*
Y849*
X2823*
X2749D02*
G01X2629D01*
X2387D02*
G01X2343D01*
X2193D02*
G01X2123D01*
Y851*
X2193*
X2343D02*
G01X2387D01*
X2629D02*
G01X2749D01*
X2823D02*
G01X2849D01*
Y853*
X2823*
X2749D02*
G01X2629D01*
X2387D02*
G01X2343D01*
X2193D02*
G01X2123D01*
Y855*
X2193*
X2343D02*
G01X2387D01*
X2629D02*
G01X2749D01*
X2823D02*
G01X2849D01*
Y857*
X2823*
X2749D02*
G01X2629D01*
X2387D02*
G01X2343D01*
X2193D02*
G01X2123D01*
Y859*
X2193*
X2343D02*
G01X2387D01*
X2629D02*
G01X2749D01*
X2823D02*
G01X2849D01*
Y861*
X2823*
X2749D02*
G01X2629D01*
X2387D02*
G01X2343D01*
X2193D02*
G01X2123D01*
Y863*
X2193*
X2343D02*
G01X2387D01*
X2629D02*
G01X2749D01*
X2823D02*
G01X2849D01*
Y865*
X2823*
X2749D02*
G01X2629D01*
X2387D02*
G01X2343D01*
X2193D02*
G01X2123D01*
Y867*
X2193*
X2343D02*
G01X2387D01*
X2629D02*
G01X2749D01*
X2823D02*
G01X2849D01*
Y869*
X2823*
X2749D02*
G01X2629D01*
X2387D02*
G01X2343D01*
X2193D02*
G01X2123D01*
Y871*
X2193*
X2343D02*
G01X2387D01*
X2629D02*
G01X2749D01*
X2823D02*
G01X2849D01*
Y873*
X2823*
X2749D02*
G01X2629D01*
X2387D02*
G01X2343D01*
X2193D02*
G01X2123D01*
Y875*
X2193*
X2343D02*
G01X2387D01*
X2629D02*
G01X2749D01*
X2823D02*
G01X2849D01*
Y877*
X2823*
X2749D02*
G01X2629D01*
X2387D02*
G01X2343D01*
X2193D02*
G01X2123D01*
Y879*
X2193*
X2343D02*
G01X2387D01*
X2629D02*
G01X2749D01*
X2823D02*
G01X2849D01*
Y881*
X2823*
X2749D02*
G01X2629D01*
X2387D02*
G01X2343D01*
X2193D02*
G01X2123D01*
Y883*
X2193*
X2343D02*
G01X2387D01*
X2629D02*
G01X2749D01*
X2823D02*
G01X2849D01*
Y885*
X2823*
X2749D02*
G01X2629D01*
X2387D02*
G01X2343D01*
X2193D02*
G01X2123D01*
Y887*
X2193*
X2343D02*
G01X2387D01*
X2629D02*
G01X2749D01*
X2823D02*
G01X2849D01*
Y889*
X2823*
X2749D02*
G01X2629D01*
X2387D02*
G01X2343D01*
X2193D02*
G01X2123D01*
Y891*
X2193*
X2343D02*
G01X2387D01*
X2629D02*
G01X2749D01*
X2823D02*
G01X2849D01*
Y893*
X2823*
X2749D02*
G01X2629D01*
X2387D02*
G01X2343D01*
X2193D02*
G01X2123D01*
Y895*
X2193*
X2337D02*
G01X2431D01*
X2629D02*
G01X2749D01*
X2823D02*
G01X2849D01*
Y897*
X2823*
X2749D02*
G01X2629D01*
X2433D02*
G01X2339D01*
X2195D02*
G01X2123D01*
Y899*
X2195*
X2341D02*
G01X2437D01*
X2629D02*
G01X2749D01*
X2823D02*
G01X2849D01*
Y901*
X2823*
X2675D02*
G01X2629D01*
X2437D02*
G01X2343D01*
X2195D02*
G01X2123D01*
Y903*
X2197*
X2345D02*
G01X2441D01*
X2629D02*
G01X2675D01*
X2823D02*
G01X2849D01*
Y905*
X2823*
X2675D02*
G01X2629D01*
X2197D02*
G01X2123D01*
Y907*
X2199*
X2629D02*
G01X2675D01*
X2823D02*
G01X2849D01*
Y909*
X2823*
X2675D02*
G01X2629D01*
X2199D02*
G01X2123D01*
Y911*
X2201*
X2629D02*
G01X2675D01*
X2823D02*
G01X2849D01*
Y913*
X2823*
X2675D02*
G01X2629D01*
X2203D02*
G01X2123D01*
Y915*
X2205*
X2629D02*
G01X2675D01*
X2823D02*
G01X2849D01*
Y917*
X2823*
X2675D02*
G01X2607D01*
X2207D02*
G01X2123D01*
Y919*
X2209*
X2607D02*
G01X2675D01*
X2823D02*
G01X2849D01*
Y921*
X2823*
X2675D02*
G01X2607D01*
X2213D02*
G01X2123D01*
Y923*
X2213*
X2607D02*
G01X2675D01*
X2823D02*
G01X2849D01*
Y925*
X2823*
X2675D02*
G01X2607D01*
X2217D02*
G01X2123D01*
Y927*
X2217*
X2607D02*
G01X2675D01*
X2823D02*
G01X2849D01*
Y929*
X2823*
X2675D02*
G01X2607D01*
X2221D02*
G01X2123D01*
Y931*
X2221*
X2607D02*
G01X2675D01*
X2823D02*
G01X2849D01*
Y933*
X2823*
X2675D02*
G01X2607D01*
X2225D02*
G01X2123D01*
Y935*
X2225*
X2607D02*
G01X2675D01*
X2823D02*
G01X2849D01*
Y937*
X2823*
X2675D02*
G01X2607D01*
X2229D02*
G01X2123D01*
Y939*
X2229*
X2607D02*
G01X2675D01*
X2823D02*
G01X2849D01*
Y941*
X2823*
X2675D02*
G01X2607D01*
X2233D02*
G01X2123D01*
Y943*
X2233*
X2607D02*
G01X2675D01*
X2823D02*
G01X2849D01*
Y945*
X2823*
X2675D02*
G01X2607D01*
X2237D02*
G01X2123D01*
Y947*
X2237*
X2627D02*
G01X2675D01*
X2823D02*
G01X2849D01*
Y949*
X2823*
X2675D02*
G01X2631D01*
X2241D02*
G01X2123D01*
Y951*
X2241*
X2635D02*
G01X2675D01*
X2823D02*
G01X2849D01*
Y953*
X2823*
X2675D02*
G01X2637D01*
X2245D02*
G01X2123D01*
Y955*
X2245*
X2641D02*
G01X2675D01*
X2823D02*
G01X2849D01*
Y957*
X2823*
X2675D02*
G01X2643D01*
X2249D02*
G01X2123D01*
Y959*
X2249*
X2645D02*
G01X2675D01*
X2823D02*
G01X2849D01*
Y961*
X2823*
X2675D02*
G01X2647D01*
X2253D02*
G01X2123D01*
Y963*
X2253*
X2649D02*
G01X2675D01*
X2823D02*
G01X2849D01*
Y965*
X2823*
X2675D02*
G01X2651D01*
X2257D02*
G01X2123D01*
Y967*
X2257*
X2653D02*
G01X2675D01*
X2823D02*
G01X2849D01*
Y969*
X2823*
X2675D02*
G01X2653D01*
X2261D02*
G01X2123D01*
Y971*
X2261*
X2655D02*
G01X2675D01*
X2823D02*
G01X2849D01*
Y973*
X2823*
X2675D02*
G01X2657D01*
X2213D02*
G01X2123D01*
Y975*
X2213*
X2657D02*
G01X2675D01*
X2823D02*
G01X2849D01*
Y977*
X2823*
X2675D02*
G01X2659D01*
X2213D02*
G01X2123D01*
Y979*
X2213*
X2659D02*
G01X2675D01*
X2823D02*
G01X2849D01*
Y981*
X2823*
X2675D02*
G01X2659D01*
X2213D02*
G01X2123D01*
Y983*
X2213*
X2661D02*
G01X2675D01*
X2823D02*
G01X2849D01*
Y985*
X2823*
X2675D02*
G01X2661D01*
X2213D02*
G01X2123D01*
Y987*
X2213*
X2661D02*
G01X2675D01*
X2823D02*
G01X2849D01*
Y989*
X2823*
X2675D02*
G01X2661D01*
X2213D02*
G01X2123D01*
Y991*
X2213*
X2661D02*
G01X2675D01*
X2823D02*
G01X2849D01*
Y993*
X2823*
X2675D02*
G01X2661D01*
X2213D02*
G01X2123D01*
Y995*
X2213*
X2661D02*
G01X2675D01*
X2823D02*
G01X2849D01*
Y997*
X2823*
X2675D02*
G01X2663D01*
X2213D02*
G01X2123D01*
Y999*
X2213*
X2661D02*
G01X2675D01*
X2823D02*
G01X2849D01*
Y1001*
X2823*
X2675D02*
G01X2661D01*
X2213D02*
G01X2123D01*
Y1003*
X2213*
X2661D02*
G01X2675D01*
X2823D02*
G01X2849D01*
Y1005*
X2823*
X2675D02*
G01X2661D01*
X2213D02*
G01X2123D01*
Y1007*
X2213*
X2661D02*
G01X2675D01*
X2823D02*
G01X2849D01*
Y1009*
X2823*
X2675D02*
G01X2661D01*
X2213D02*
G01X2123D01*
Y1011*
X2213*
X2661D02*
G01X2675D01*
X2823D02*
G01X2849D01*
Y1013*
X2823*
X2675D02*
G01X2661D01*
X2213D02*
G01X2123D01*
Y1015*
X2213*
X2659D02*
G01X2675D01*
X2823D02*
G01X2849D01*
Y1017*
X2823*
X2675D02*
G01X2659D01*
X2213D02*
G01X2123D01*
Y1019*
X2213*
X2659D02*
G01X2675D01*
X2823D02*
G01X2849D01*
Y1021*
X2823*
X2749D02*
G01X2661D01*
X2213D02*
G01X2123D01*
Y1023*
X2213*
X2663D02*
G01X2749D01*
X2823D02*
G01X2849D01*
Y1025*
X2823*
X2749D02*
G01X2665D01*
X2213D02*
G01X2123D01*
Y1027*
X2213*
X2667D02*
G01X2749D01*
X2823D02*
G01X2849D01*
Y1029*
X2823*
X2749D02*
G01X2669D01*
X2213D02*
G01X2123D01*
Y1031*
X2213*
X2671D02*
G01X2749D01*
X2823D02*
G01X2849D01*
Y1033*
X2823*
X2749D02*
G01X2673D01*
X2213D02*
G01X2123D01*
Y1035*
X2213*
X2675D02*
G01X2749D01*
X2823D02*
G01X2849D01*
Y1037*
X2823*
X2749D02*
G01X2677D01*
X2213D02*
G01X2123D01*
Y1039*
X2213*
X2679D02*
G01X2749D01*
X2823D02*
G01X2849D01*
Y1041*
X2823*
X2749D02*
G01X2681D01*
X2213D02*
G01X2123D01*
Y1043*
X2213*
X2683D02*
G01X2749D01*
X2823D02*
G01X2849D01*
Y1045*
X2823*
X2749D02*
G01X2685D01*
X2213D02*
G01X2123D01*
Y1047*
X2213*
X2687D02*
G01X2749D01*
X2823D02*
G01X2849D01*
Y1049*
X2823*
X2749D02*
G01X2689D01*
X2213D02*
G01X2123D01*
Y1051*
X2213*
X2691D02*
G01X2749D01*
X2823D02*
G01X2849D01*
Y1053*
X2823*
X2749D02*
G01X2691D01*
X2213D02*
G01X2123D01*
Y1055*
X2213*
X2693D02*
G01X2749D01*
X2823D02*
G01X2849D01*
Y1057*
X2823*
X2749D02*
G01X2693D01*
X2213D02*
G01X2123D01*
X549Y1691D02*
G01Y1693D01*
X547*
X545Y1695*
X549*
Y1697*
X541*
Y1699*
X549*
Y1701*
X537*
Y1703*
X549*
Y1705*
X533*
Y1707*
X549*
Y1709*
X529*
Y1711*
X549*
Y1713*
X525*
Y1715*
X549*
Y1717*
X521*
Y1719*
X549*
Y1721*
X517*
Y1723*
X549*
Y1725*
X513*
Y1727*
X549*
Y1729*
X511*
X509Y1731*
X549*
Y1733*
X507*
X505Y1735*
X549*
Y1737*
X503*
X501Y1739*
X549*
Y1741*
X499*
X497Y1743*
X549*
Y1745*
X495*
X491Y1747D02*
G01X549D01*
Y1749*
X491*
X487Y1751D02*
G01X549D01*
Y1753*
X487*
X483Y1755D02*
G01X549D01*
Y1757*
X483*
X479Y1759D02*
G01X549D01*
Y1761*
X479*
X475Y1763D02*
G01X549D01*
Y1765*
X475*
X471Y1767D02*
G01X549D01*
Y1769*
X471*
X467Y1771D02*
G01X549D01*
Y1773*
X467*
X463Y1775D02*
G01X549D01*
Y1777*
X463*
X461Y1779*
X549*
Y1781*
X459*
X457Y1783*
X549*
Y1785*
X455*
X453Y1787*
X545*
X543Y1789*
X451*
X449Y1791*
X541*
X539Y1793*
X447*
X445Y1795*
X539*
X537Y1797*
X441*
Y1799*
X535*
X533Y1801*
X437*
Y1803*
X533*
X531Y1805*
X433*
Y1807*
X531*
Y1809*
X429*
Y1811*
X529*
Y1813*
X425*
Y1815*
X529*
X527Y1817*
X421*
Y1819*
X527*
Y1821*
X413*
Y1823*
X527*
Y1825*
X405*
X37Y1827D02*
G01X527D01*
Y1829*
X37*
Y1831*
X527*
Y1833*
X37*
Y1835*
X527*
Y1837*
X37*
Y1839*
X529*
Y1841*
X37*
Y1843*
X529*
Y1845*
X37*
Y1847*
X531*
Y1849*
X37*
Y1851*
X533*
Y1853*
X37*
Y1855*
X535*
Y1857*
X37*
Y1859*
X539*
Y1861*
X37*
Y1863*
X541*
Y1865*
X433*
X307D02*
G01X233D01*
Y1867*
X307*
X433D02*
G01X545D01*
Y1869*
X433*
X307D02*
G01X233D01*
Y1871*
X307*
X433D02*
G01X549D01*
Y1873*
X433*
X307D02*
G01X233D01*
Y1875*
X307*
X433D02*
G01X549D01*
Y1877*
X433*
X307D02*
G01X233D01*
Y1879*
X307*
X433D02*
G01X549D01*
Y1881*
X433*
X307D02*
G01X233D01*
Y1883*
X307*
X433D02*
G01X549D01*
Y1885*
X433*
X307D02*
G01X233D01*
Y1887*
X307*
X433D02*
G01X549D01*
Y1889*
X433*
X307D02*
G01X233D01*
Y1891*
X307*
X433D02*
G01X549D01*
Y1893*
X433*
X307D02*
G01X233D01*
Y1895*
X307*
X433D02*
G01X549D01*
Y1897*
X433*
X307D02*
G01X233D01*
Y1899*
X307*
X433D02*
G01X549D01*
Y1901*
X433*
X307D02*
G01X233D01*
Y1903*
X307*
X433D02*
G01X549D01*
Y1905*
X433*
X307D02*
G01X233D01*
Y1907*
X307*
X433D02*
G01X547D01*
Y1909*
X433*
X307D02*
G01X233D01*
Y1911*
X307*
X433D02*
G01X547D01*
X545Y1913*
X433*
X307D02*
G01X233D01*
Y1915*
X307*
X433D02*
G01X545D01*
X543Y1917*
X433*
X307D02*
G01X233D01*
Y1919*
X307*
X433D02*
G01X543D01*
Y1921*
X433*
X307D02*
G01X233D01*
Y1923*
X307*
X433D02*
G01X543D01*
Y1925*
X433*
X307D02*
G01X233D01*
Y1927*
X307*
X433D02*
G01X543D01*
Y1929*
X433*
X307D02*
G01X233D01*
Y1931*
X307*
X433D02*
G01X543D01*
Y1933*
X433*
X307D02*
G01X233D01*
Y1935*
X307*
X433D02*
G01X543D01*
Y1937*
X433*
X307D02*
G01X233D01*
Y1939*
X307*
X433D02*
G01X543D01*
Y1941*
X433*
X307D02*
G01X233D01*
Y1943*
X307*
X433D02*
G01X543D01*
Y1945*
X433*
X307D02*
G01X233D01*
Y1947*
X307*
X433D02*
G01X545D01*
Y1949*
X433*
X307D02*
G01X233D01*
Y1951*
X307*
X433D02*
G01X547D01*
Y1953*
X433*
X307D02*
G01X233D01*
Y1955*
X307*
X433D02*
G01X547D01*
Y1957*
X433*
X307D02*
G01X233D01*
Y1959*
X307*
X433D02*
G01X549D01*
Y1961*
X433*
X307D02*
G01X233D01*
Y1963*
X307*
X433D02*
G01X549D01*
Y1965*
X433*
X307D02*
G01X233D01*
Y1967*
X307*
X433D02*
G01X549D01*
Y1969*
X433*
X307D02*
G01X233D01*
Y1971*
X293*
X433D02*
G01X549D01*
Y1973*
X433*
X285D02*
G01X233D01*
X239Y1975D02*
G01X281D01*
X439D02*
G01X549D01*
Y1977*
X443*
X277D02*
G01X243D01*
X247Y1979D02*
G01X273D01*
X447D02*
G01X549D01*
Y1981*
X449*
X271D02*
G01X249D01*
X253Y1983D02*
G01X267D01*
X453D02*
G01X549D01*
Y1985*
X455*
X265D02*
G01X255D01*
X257Y1987*
X263*
X457D02*
G01X549D01*
Y1989*
X459*
X261D02*
G01X259D01*
X461Y1991D02*
G01X549D01*
Y1993*
X463*
X465Y1995*
X549*
Y1997*
X467*
X129D02*
G01X37D01*
Y1999*
X129*
X469D02*
G01X549D01*
Y2001*
X469*
X129D02*
G01X37D01*
Y2003*
X129*
X471D02*
G01X549D01*
X547Y2005*
X473*
X129D02*
G01X37D01*
Y2007*
X129*
X473D02*
G01X547D01*
X545Y2009*
X475*
X129D02*
G01X37D01*
Y2011*
X129*
X475D02*
G01X545D01*
X543Y2013*
X477*
X129D02*
G01X37D01*
Y2015*
X129*
X477D02*
G01X543D01*
Y2017*
X477*
X131D02*
G01X37D01*
Y2019*
X131*
X479D02*
G01X541D01*
Y2021*
X479*
X133D02*
G01X37D01*
Y2023*
X133*
X479D02*
G01X541D01*
X539Y2025*
X481*
X135D02*
G01X37D01*
Y2027*
X135*
X481D02*
G01X539D01*
Y2029*
X481*
X137D02*
G01X37D01*
Y2031*
X139*
X481D02*
G01X539D01*
Y2033*
X481*
X139D02*
G01X37D01*
Y2035*
X139*
X481D02*
G01X539D01*
Y2037*
X481*
X139D02*
G01X37D01*
Y2039*
X139*
X481D02*
G01X539D01*
Y2041*
X483*
X139D02*
G01X37D01*
Y2043*
X139*
X481D02*
G01X539D01*
Y2045*
X481*
X139D02*
G01X37D01*
Y2047*
X139*
X481D02*
G01X539D01*
Y2049*
X481*
X139D02*
G01X37D01*
Y2051*
X139*
X481D02*
G01X539D01*
Y2053*
X481*
X139D02*
G01X37D01*
Y2055*
X139*
X481D02*
G01X539D01*
Y2057*
X481*
X139D02*
G01X37D01*
Y2059*
X139*
X479D02*
G01X539D01*
X541Y2061*
X479*
X141D02*
G01X37D01*
Y2063*
X141*
X479D02*
G01X541D01*
X543Y2065*
X479*
X143D02*
G01X37D01*
Y2067*
X143*
X477D02*
G01X543D01*
Y2069*
X477*
X143D02*
G01X37D01*
Y2071*
X143*
X475D02*
G01X543D01*
X545Y2073*
X475*
X145D02*
G01X37D01*
Y2075*
X145*
X473D02*
G01X545D01*
X547Y2077*
X473*
X147D02*
G01X37D01*
Y2079*
X147*
X471D02*
G01X547D01*
X549Y2081*
X471*
X151D02*
G01X37D01*
X1169Y1059D02*
G01X1203D01*
Y1061*
X1165*
Y1063*
X1203*
Y1065*
X1161*
Y1067*
X1203*
Y1069*
X1157*
Y1071*
X1203*
Y1073*
X1153*
Y1075*
X1203*
Y1077*
X1147*
Y1079*
X1203*
Y1081*
X1139*
Y1083D02*
G01X1203D01*
Y1085*
X1127*
X1087D02*
G01Y1087D01*
X1203*
Y1089*
X1087*
Y1091*
X1203*
Y1093*
X1087*
Y1095*
X1203*
Y1097*
X1087*
Y1099*
X1203*
Y1101*
X1087*
Y1103*
X1203*
Y1105*
X1087*
Y1107*
X1203*
Y1109*
X1087*
Y1111*
X1203*
Y1113*
X1087*
Y1115*
X1203*
Y1117*
X1087*
Y1119*
X1203*
Y1121*
X1087*
Y1123*
X1203*
Y1125*
X1087*
Y1127*
X1203*
Y1129*
X1087*
Y1131*
X1203*
Y1133*
X1087*
Y1135*
X1203*
Y1137*
X1087*
Y1139*
X1203*
Y1141*
X1087*
Y1143*
X1203*
Y1145*
X1087*
Y1147*
X1203*
Y1149*
X1087*
Y1151*
X1203*
Y1153*
X1087*
Y1155*
X1203*
Y1157*
X1089*
X1091Y1159*
X1203*
Y1161*
X1093*
X1095Y1163*
X1203*
Y1165*
X1097*
X1099Y1167*
X1203*
Y1169*
X1101*
X1103Y1171*
X1203*
Y1173*
X1105*
X1107Y1175*
X1203*
Y1177*
X1109*
X1111Y1179*
X1203*
Y1181*
X1113*
X1115Y1183*
X1203*
Y1185*
X1117*
X1119Y1187*
X1203*
Y1189*
X1121*
X1123Y1191*
X1203*
Y1193*
X1125*
X1127Y1195*
X1203*
Y1197*
X1129*
X1131Y1199*
X1203*
Y1201*
X1133*
X1135Y1203*
X1203*
Y1205*
X1137*
X1139Y1207*
X1203*
Y1209*
X1141*
X1143Y1211*
X1203*
Y1213*
X1145*
X1147Y1215*
X1203*
Y1217*
X1149*
X1151Y1219*
X1203*
Y1221*
X1153*
X1155Y1223*
X1203*
Y1225*
X1157*
X1159Y1227*
X1203*
Y1229*
X1161*
X1163Y1231*
X1203*
Y1233*
X1165*
X1167Y1235*
X1203*
Y1237*
X1169*
X1171Y1239*
X1203*
Y1241*
X1173*
X1175Y1243*
X1203*
Y1245*
X1177*
X1179Y1247*
X1203*
Y1249*
X1181*
X1183Y1251*
X1203*
Y1253*
X1185*
X1187Y1255*
X1203*
Y1257*
X1189*
X1191Y1259*
X1203*
Y1261*
X1193*
X1195Y1263*
X1203*
Y1265*
X1197*
X1199Y1267*
X1203*
Y1269*
X1201*
Y1271*
X1203*
Y1273*
Y1275*
X2123Y1059D02*
G01X2213D01*
X2695D02*
G01X2749D01*
X2823D02*
G01X2849D01*
Y1061*
X2823*
X2749D02*
G01X2695D01*
X2213D02*
G01X2123D01*
Y1063*
X2213*
X2695D02*
G01X2749D01*
X2823D02*
G01X2849D01*
Y1065*
X2823*
X2749D02*
G01X2697D01*
X2213D02*
G01X2123D01*
X2125Y1067*
X2213*
X2697D02*
G01X2749D01*
X2823D02*
G01X2849D01*
Y1069*
X2823*
X2749D02*
G01X2697D01*
X2213D02*
G01X2127D01*
X2129Y1071*
X2213*
X2697D02*
G01X2749D01*
X2823D02*
G01X2849D01*
Y1073*
X2823*
X2749D02*
G01X2697D01*
X2213D02*
G01X2131D01*
X2133Y1075*
X2213*
X2697D02*
G01X2749D01*
X2823D02*
G01X2849D01*
Y1077*
X2823*
X2749D02*
G01X2697D01*
X2213D02*
G01X2135D01*
X2137Y1079*
X2213*
X2823D02*
G01X2849D01*
Y1081*
X2823*
X2213D02*
G01X2139D01*
X2141Y1083*
X2213*
X2823D02*
G01X2849D01*
Y1085*
X2823*
X2213D02*
G01X2143D01*
X2145Y1087*
X2213*
X2823D02*
G01X2849D01*
Y1089*
X2823*
X2213D02*
G01X2147D01*
X2149Y1091*
X2213*
X2823D02*
G01X2849D01*
Y1093*
X2823*
X2213D02*
G01X2151D01*
X2153Y1095*
X2213*
X2823D02*
G01X2849D01*
Y1097*
X2823*
X2213D02*
G01X2155D01*
X2157Y1099*
X2321*
X2823D02*
G01X2849D01*
Y1101*
X2823*
X2321D02*
G01X2157D01*
X2159Y1103*
X2319*
X2823D02*
G01X2849D01*
Y1105*
X2823*
X2319D02*
G01X2159D01*
X2161Y1107*
X2319*
X2823D02*
G01X2849D01*
Y1109*
X2823*
X2319D02*
G01X2161D01*
Y1111*
X2319*
X2823D02*
G01X2849D01*
Y1113*
X2823*
X2319D02*
G01X2163D01*
Y1115*
X2319*
X2823D02*
G01X2849D01*
Y1117*
X2823*
X2319D02*
G01X2163D01*
Y1119*
X2319*
X2823D02*
G01X2849D01*
Y1121*
X2823*
X2319D02*
G01X2163D01*
Y1123*
X2319*
X2823D02*
G01X2849D01*
Y1125*
X2823*
X2319D02*
G01X2163D01*
Y1127*
X2319*
X2823D02*
G01X2849D01*
Y1129*
X2823*
X2319D02*
G01X2163D01*
Y1131*
X2319*
X2471D02*
G01X2473D01*
X2823D02*
G01X2849D01*
Y1133*
X2823*
X2473D02*
G01X2469D01*
X2321D02*
G01X2163D01*
Y1135*
X2321*
X2465D02*
G01X2473D01*
X2823D02*
G01X2849D01*
Y1137*
X2823*
X2473D02*
G01X2465D01*
X2323D02*
G01X2163D01*
Y1139*
X2323*
X2461D02*
G01X2473D01*
X2823D02*
G01X2849D01*
Y1141*
X2823*
X2473D02*
G01X2461D01*
X2323D02*
G01X2163D01*
Y1143*
X2323*
X2457D02*
G01X2473D01*
X2823D02*
G01X2849D01*
Y1145*
X2823*
X2473D02*
G01X2457D01*
X2327D02*
G01X2163D01*
Y1147*
X2327*
X2453D02*
G01X2473D01*
X2823D02*
G01X2849D01*
Y1149*
X2823*
X2473D02*
G01X2453D01*
X2329D02*
G01X2163D01*
Y1151*
X2329*
X2447D02*
G01X2473D01*
X2823D02*
G01X2849D01*
Y1153*
X2823*
X2473D02*
G01X2447D01*
X2333D02*
G01X2163D01*
Y1155*
X2333*
X2405D02*
G01X2473D01*
X2823D02*
G01X2849D01*
Y1157*
X2823*
X2473D02*
G01X2405D01*
X2337D02*
G01X2163D01*
Y1159*
X2337*
X2401D02*
G01X2473D01*
X2823D02*
G01X2849D01*
Y1161*
X2823*
X2473D02*
G01X2401D01*
X2343D02*
G01X2163D01*
Y1163*
X2343*
X2395D02*
G01X2473D01*
X2823D02*
G01X2849D01*
Y1165*
X2823*
X2473D02*
G01X2395D01*
X2351D02*
G01X2163D01*
Y1167*
X2351*
X2385D02*
G01X2473D01*
X2823D02*
G01X2849D01*
Y1169*
X2823*
X2473D02*
G01X2163D01*
Y1171*
X2473*
X2823D02*
G01X2849D01*
Y1173*
X2823*
X2473D02*
G01X2163D01*
Y1175*
X2473*
X2823D02*
G01X2849D01*
Y1177*
X2823*
X2473D02*
G01X2163D01*
Y1179*
X2473*
X2823D02*
G01X2849D01*
Y1181*
X2823*
X2473D02*
G01X2163D01*
Y1183*
X2473*
X2823D02*
G01X2849D01*
Y1185*
X2823*
X2473D02*
G01X2163D01*
Y1187*
X2473*
X2823D02*
G01X2849D01*
Y1189*
X2823*
X2473D02*
G01X2163D01*
Y1191*
X2473*
X2823D02*
G01X2849D01*
Y1193*
X2823*
X2473D02*
G01X2163D01*
Y1195*
X2473*
X2823D02*
G01X2849D01*
Y1197*
X2823*
X2473D02*
G01X2163D01*
Y1199*
X2187*
X2315D02*
G01X2335D01*
X2367D02*
G01X2435D01*
X2467D02*
G01X2473D01*
X2823D02*
G01X2849D01*
Y1201*
X2823*
X2427D02*
G01X2373D01*
X2327D02*
G01X2315D01*
X2187D02*
G01X2163D01*
Y1203*
X2187*
X2315D02*
G01X2323D01*
X2377D02*
G01X2423D01*
X2823D02*
G01X2849D01*
Y1205*
X2823*
X2419D02*
G01X2381D01*
X2319D02*
G01X2315D01*
X2187D02*
G01X2161D01*
Y1207*
X2187*
X2385D02*
G01X2415D01*
X2823D02*
G01X2849D01*
Y1209*
X2823*
X2413D02*
G01X2387D01*
X2187D02*
G01X2161D01*
X2159Y1211*
X2187*
X2389D02*
G01X2411D01*
X2823D02*
G01X2849D01*
Y1213*
X2823*
X2407D02*
G01X2393D01*
X2187D02*
G01X2159D01*
X2157Y1215*
X2187*
X2395D02*
G01X2405D01*
X2823D02*
G01X2849D01*
Y1217*
X2823*
X2403D02*
G01X2397D01*
X2187D02*
G01X2157D01*
X2155Y1219*
X2187*
X2399D02*
G01X2401D01*
X2823D02*
G01X2849D01*
Y1221*
X2823*
X2401D02*
G01X2399D01*
X2187D02*
G01X2153D01*
X2151Y1223*
X2187*
X2823D02*
G01X2849D01*
Y1225*
X2823*
X2187D02*
G01X2149D01*
X2147Y1227*
X2187*
X2823D02*
G01X2849D01*
Y1229*
X2823*
X2187D02*
G01X2151D01*
X2153Y1231*
X2187*
X2823D02*
G01X2849D01*
Y1233*
X2823*
X2187D02*
G01X2155D01*
X2157Y1235*
X2187*
X2823D02*
G01X2849D01*
Y1237*
X2823*
X2187D02*
G01X2159D01*
X2161Y1239*
X2187*
X2823D02*
G01X2849D01*
Y1241*
X2823*
X2187D02*
G01X2163D01*
Y1243*
X2187*
X2823D02*
G01X2849D01*
Y1245*
X2823*
X2187D02*
G01X2165D01*
X2167Y1247*
X2187*
X2823D02*
G01X2849D01*
Y1249*
X2823*
X2187D02*
G01X2167D01*
X2169Y1251*
X2187*
X2823D02*
G01X2849D01*
Y1253*
X2823*
X2187D02*
G01X2169D01*
Y1255*
X2187*
X2823D02*
G01X2849D01*
Y1257*
X2823*
X2187D02*
G01X2171D01*
Y1259*
X2187*
X2823D02*
G01X2849D01*
Y1261*
X2823*
X2187D02*
G01X2171D01*
Y1263*
X2187*
X2823D02*
G01X2849D01*
Y1265*
X2823*
X2187D02*
G01X2171D01*
Y1267*
X2187*
X2823D02*
G01X2849D01*
Y1269*
X2823*
X2187D02*
G01X2171D01*
X2173Y1271*
X2187*
X2823D02*
G01X2849D01*
Y1273*
X2823*
X2187D02*
G01X2171D01*
Y1275*
X2187*
X2823D02*
G01X2849D01*
Y1277*
X2823*
X2187D02*
G01X2171D01*
Y1279*
X2187*
X2823D02*
G01X2849D01*
Y1281*
X2823*
X2187D02*
G01X2171D01*
Y1283*
X2187*
X2823D02*
G01X2849D01*
Y1285*
X2823*
X2187D02*
G01X2171D01*
Y1287*
X2187*
X2823D02*
G01X2849D01*
Y1289*
X2823*
X2187D02*
G01X2169D01*
Y1291*
X2187*
X2823D02*
G01X2849D01*
Y1293*
X2823*
X2187D02*
G01X2167D01*
Y1295*
X2187*
X2823D02*
G01X2849D01*
Y1297*
X2823*
X2187D02*
G01X2165D01*
Y1299*
X2187*
X2823D02*
G01X2849D01*
Y1301*
X2823*
X2187D02*
G01X2163D01*
Y1303*
X2187*
X2823D02*
G01X2849D01*
Y1305*
X2823*
X2187D02*
G01X2159D01*
Y1307*
X2187*
X2823D02*
G01X2849D01*
Y1309*
X2823*
X2187D02*
G01X2157D01*
Y1311*
X2187*
X2823D02*
G01X2849D01*
Y1313*
X2823*
X2187D02*
G01X2157D01*
Y1315*
X2187*
X2823D02*
G01X2849D01*
Y1317*
X2823*
X2319D02*
G01X2315D01*
X2187D02*
G01X2157D01*
Y1319*
X2187*
X2315D02*
G01X2319D01*
X2823D02*
G01X2849D01*
Y1321*
X2823*
X2327D02*
G01X2315D01*
X2187D02*
G01X2157D01*
Y1323*
X2187*
X2315D02*
G01X2327D01*
X2823D02*
G01X2849D01*
Y1325*
X2823*
X2343D02*
G01X2157D01*
Y1327*
X2343*
X2823D02*
G01X2849D01*
Y1329*
X2823*
X2343D02*
G01X2157D01*
Y1331*
X2343*
X2823D02*
G01X2849D01*
Y1333*
X2823*
X2343D02*
G01X2157D01*
Y1335*
X2343*
X2823D02*
G01X2849D01*
Y1337*
X2823*
X2343D02*
G01X2157D01*
Y1339*
X2343*
X2823D02*
G01X2849D01*
Y1341*
X2823*
X2345D02*
G01X2157D01*
Y1343*
X2345*
X2823D02*
G01X2849D01*
Y1345*
X2823*
X2345D02*
G01X2157D01*
Y1347*
X2345*
X2823D02*
G01X2849D01*
Y1349*
X2823*
X2347D02*
G01X2157D01*
Y1351*
X2347*
X2823D02*
G01X2849D01*
Y1353*
X2823*
X2347D02*
G01X2157D01*
Y1355*
X2347*
X2823D02*
G01X2849D01*
Y1357*
X2823*
X2349D02*
G01X2157D01*
Y1359*
X2349*
X2823D02*
G01X2849D01*
Y1361*
X2823*
X2353D02*
G01X2157D01*
Y1363*
X2353*
X2823D02*
G01X2849D01*
Y1365*
X2823*
X2355D02*
G01X2157D01*
Y1367*
X2355*
X2823D02*
G01X2849D01*
Y1369*
X2823*
X2359D02*
G01X2157D01*
Y1371*
X2359*
X2823D02*
G01X2849D01*
Y1373*
X2823*
X2363D02*
G01X2157D01*
Y1375*
X2363*
X2823D02*
G01X2849D01*
Y1377*
X2823*
X2363D02*
G01X2157D01*
Y1379*
X2363*
X2823D02*
G01X2849D01*
Y1381*
X2823*
X2363D02*
G01X2157D01*
Y1383*
X2363*
X2823D02*
G01X2849D01*
Y1385*
X2823*
X2363D02*
G01X2157D01*
Y1387*
X2363*
X2823D02*
G01X2849D01*
Y1389*
X2823*
X2363D02*
G01X2157D01*
Y1391*
X2363*
X2823D02*
G01X2849D01*
Y1393*
X2823*
X2363D02*
G01X2157D01*
Y1395*
X2363*
X2823D02*
G01X2849D01*
Y1397*
X2823*
X2363D02*
G01X2157D01*
Y1399*
X2363*
X2823D02*
G01X2849D01*
Y1401*
X2823*
X2363D02*
G01X2157D01*
Y1403*
X2363*
X2823D02*
G01X2849D01*
Y1405*
X2823*
X2363D02*
G01X2157D01*
Y1407*
X2363*
X2823D02*
G01X2849D01*
Y1409*
X2823*
X2363D02*
G01X2157D01*
Y1411*
X2363*
X2823D02*
G01X2849D01*
Y1413*
X2823*
X2363D02*
G01X2157D01*
X2253Y1415D02*
G01X2363D01*
X2823D02*
G01X2849D01*
Y1417*
X2823*
X2363D02*
G01X2257D01*
X2261Y1419D02*
G01X2363D01*
X2823D02*
G01X2849D01*
Y1421*
X2823*
X2363D02*
G01X2263D01*
X2265Y1423*
X2363*
X2823D02*
G01X2849D01*
Y1425*
X2823*
X2363D02*
G01X2267D01*
X2269Y1427*
X2363*
X2593D02*
G01X2643D01*
X2823D02*
G01X2849D01*
Y1429*
X2823*
X2643D02*
G01X2593D01*
X2363D02*
G01X2271D01*
X2273Y1431*
X2363*
X2593D02*
G01X2643D01*
X2823D02*
G01X2849D01*
Y1433*
X2823*
X2643D02*
G01X2593D01*
X2361D02*
G01X2275D01*
X2277Y1435*
X2361*
X2593D02*
G01X2643D01*
X2823D02*
G01X2849D01*
Y1437*
X2823*
X2643D02*
G01X2593D01*
X2359D02*
G01X2279D01*
X2281Y1439*
X2359*
X2593D02*
G01X2643D01*
X2823D02*
G01X2849D01*
Y1441*
X2823*
X2643D02*
G01X2593D01*
X2357D02*
G01X2283D01*
X2285Y1443*
X2357*
X2593D02*
G01X2643D01*
X2823D02*
G01X2849D01*
Y1445*
X2823*
X2643D02*
G01X2593D01*
X2355D02*
G01X2287D01*
X2289Y1447*
X2355*
X2593D02*
G01X2643D01*
X2823D02*
G01X2849D01*
Y1449*
X2823*
X2643D02*
G01X2593D01*
X2355D02*
G01X2291D01*
X2293Y1451*
X2353*
X2593D02*
G01X2643D01*
X2823D02*
G01X2849D01*
Y1453*
X2823*
X2643D02*
G01X2593D01*
X2353D02*
G01X2295D01*
X2297Y1455*
X2353*
X2593D02*
G01X2643D01*
X2823D02*
G01X2849D01*
Y1457*
X2823*
X2643D02*
G01X2593D01*
X2353D02*
G01X2299D01*
X2301Y1459*
X2353*
X2593D02*
G01X2643D01*
X2823D02*
G01X2849D01*
Y1461*
X2823*
X2643D02*
G01X2593D01*
X2353D02*
G01X2303D01*
X2305Y1463*
X2353*
X2593D02*
G01X2643D01*
X2823D02*
G01X2849D01*
Y1465*
X2823*
X2643D02*
G01X2593D01*
X2353D02*
G01X2307D01*
X2309Y1467*
X2353*
X2593D02*
G01X2643D01*
X2823D02*
G01X2849D01*
Y1469*
X2823*
X2643D02*
G01X2593D01*
X2353D02*
G01X2311D01*
Y1471*
X2353*
X2593D02*
G01X2643D01*
X2823D02*
G01X2849D01*
Y1473*
X2823*
X2643D02*
G01X2593D01*
X2353D02*
G01X2313D01*
X2111D02*
G01X2109D01*
Y1475*
X2111*
X2313D02*
G01X2353D01*
X2593D02*
G01X2643D01*
X2823D02*
G01X2849D01*
Y1477*
X2823*
X2643D02*
G01X2593D01*
X2353D02*
G01X2315D01*
X2115D02*
G01X2109D01*
Y1479*
X2115*
X2315D02*
G01X2353D01*
X2593D02*
G01X2643D01*
X2823D02*
G01X2849D01*
Y1481*
X2823*
X2643D02*
G01X2593D01*
X2353D02*
G01X2315D01*
X2119D02*
G01X2109D01*
Y1483*
X2119*
X2317D02*
G01X2355D01*
X2593D02*
G01X2643D01*
X2823D02*
G01X2849D01*
Y1485*
X2823*
X2643D02*
G01X2593D01*
X2355D02*
G01X2317D01*
X2129D02*
G01X2109D01*
Y1487*
X2131*
X2317D02*
G01X2355D01*
X2591D02*
G01X2643D01*
X2823D02*
G01X2849D01*
Y1489*
X2823*
X2643D02*
G01X2591D01*
X2355D02*
G01X2317D01*
X2131D02*
G01X2109D01*
Y1491*
X2131*
X2317D02*
G01X2357D01*
X2591D02*
G01X2643D01*
X2823D02*
G01X2849D01*
Y1493*
X2823*
X2643D02*
G01X2591D01*
X2357D02*
G01X2317D01*
X2131D02*
G01X2109D01*
Y1495*
X2131*
X2317D02*
G01X2359D01*
X2591D02*
G01X2643D01*
X2823D02*
G01X2849D01*
Y1497*
X2823*
X2643D02*
G01X2591D01*
X2359D02*
G01X2317D01*
X2131D02*
G01X2109D01*
Y1499*
X2131*
X2317D02*
G01X2361D01*
X2589D02*
G01X2643D01*
X2823D02*
G01X2849D01*
Y1501*
X2823*
X2643D02*
G01X2589D01*
X2361D02*
G01X2317D01*
X2131D02*
G01X2109D01*
Y1503*
X2131*
X2317D02*
G01X2363D01*
X2587D02*
G01X2653D01*
X2823D02*
G01X2849D01*
Y1505*
X2823*
X2653D02*
G01X2587D01*
X2363D02*
G01X2317D01*
X2131D02*
G01X2109D01*
Y1507*
X2131*
X2317D02*
G01X2363D01*
X2585D02*
G01X2653D01*
X2823D02*
G01X2849D01*
Y1509*
X2823*
X2653D02*
G01X2585D01*
X2365D02*
G01X2317D01*
X2131D02*
G01X2109D01*
Y1511*
X2131*
X2317D02*
G01X2365D01*
X2583D02*
G01X2653D01*
X2823D02*
G01X2849D01*
Y1513*
X2823*
X2653D02*
G01X2583D01*
X2365D02*
G01X2317D01*
X2131D02*
G01X2109D01*
Y1515*
X2131*
X2317D02*
G01X2367D01*
X2579D02*
G01X2653D01*
X2823D02*
G01X2849D01*
Y1517*
X2823*
X2653D02*
G01X2579D01*
X2367D02*
G01X2317D01*
X2131D02*
G01X2109D01*
Y1519*
X2131*
X2317D02*
G01X2367D01*
X2575D02*
G01X2653D01*
X2823D02*
G01X2849D01*
Y1521*
X2823*
X2653D02*
G01X2575D01*
X2369D02*
G01X2317D01*
X2131D02*
G01X2109D01*
Y1523*
X2131*
X2317D02*
G01X2369D01*
X2571D02*
G01X2653D01*
X2823D02*
G01X2849D01*
Y1525*
X2823*
X2653D02*
G01X2571D01*
X2371D02*
G01X2317D01*
X2131D02*
G01X2109D01*
Y1527*
X2131*
X2317D02*
G01X2373D01*
X2567D02*
G01X2653D01*
X2823D02*
G01X2849D01*
Y1529*
X2823*
X2653D02*
G01X2567D01*
X2375D02*
G01X2317D01*
X2131D02*
G01X2109D01*
Y1531*
X2131*
X2317D02*
G01X2375D01*
X2563D02*
G01X2653D01*
X2823D02*
G01X2849D01*
Y1533*
X2823*
X2653D02*
G01X2563D01*
X2377D02*
G01X2317D01*
X2131D02*
G01X2109D01*
Y1535*
X2131*
X2317D02*
G01X2379D01*
X2559D02*
G01X2653D01*
X2823D02*
G01X2849D01*
Y1537*
X2823*
X2653D02*
G01X2559D01*
X2381D02*
G01X2317D01*
X2131D02*
G01X2109D01*
Y1539*
X2131*
X2317D02*
G01X2383D01*
X2555D02*
G01X2653D01*
X2823D02*
G01X2849D01*
Y1541*
X2823*
X2653D02*
G01X2555D01*
X2383D02*
G01X2317D01*
X2131D02*
G01X2109D01*
Y1543*
X2131*
X2317D02*
G01X2383D01*
X2551D02*
G01X2653D01*
X2823D02*
G01X2849D01*
Y1545*
X2823*
X2653D02*
G01X2551D01*
X2383D02*
G01X2317D01*
X2131D02*
G01X2109D01*
Y1547*
X2131*
X2317D02*
G01X2383D01*
X2545D02*
G01X2653D01*
X2823D02*
G01X2849D01*
Y1549*
X2823*
X2653D02*
G01X2545D01*
X2383D02*
G01X2317D01*
X2131D02*
G01X2109D01*
Y1551*
X2131*
X2317D02*
G01X2383D01*
X2535D02*
G01X2653D01*
X2823D02*
G01X2849D01*
Y1553*
X2823*
X2653D02*
G01X2523D01*
X2131D02*
G01X2107D01*
Y1555*
X2131*
X2523D02*
G01X2653D01*
X2823D02*
G01X2849D01*
Y1557*
X2823*
X2653D02*
G01X2523D01*
X2131D02*
G01X2107D01*
X2105Y1559*
X2131*
X2523D02*
G01X2653D01*
X2823D02*
G01X2849D01*
Y1561*
X2823*
X2653D02*
G01X2523D01*
X2131D02*
G01X2105D01*
X2103Y1563*
X2131*
X2523D02*
G01X2653D01*
X2823D02*
G01X2849D01*
Y1565*
X2823*
X2653D02*
G01X2531D01*
X2131D02*
G01X2103D01*
X2101Y1567*
X2131*
X2535D02*
G01X2653D01*
X2823D02*
G01X2849D01*
Y1569*
X2823*
X2653D02*
G01X2539D01*
X2131D02*
G01X2099D01*
X2097Y1571*
X2131*
X2543D02*
G01X2653D01*
X2823D02*
G01X2849D01*
Y1573*
X2823*
X2653D02*
G01X2545D01*
X2131D02*
G01X2095D01*
X2093Y1575*
X2131*
X2549D02*
G01X2653D01*
X2823D02*
G01X2849D01*
Y1577*
X2823*
X2653D02*
G01X2551D01*
X2131D02*
G01X2091D01*
X2089Y1579*
X2143*
X2553D02*
G01X2653D01*
X2823D02*
G01X2849D01*
Y1581*
X2823*
X2653D02*
G01X2555D01*
X2141D02*
G01X2089D01*
Y1583*
X2139*
X2555D02*
G01X2653D01*
X2823D02*
G01X2849D01*
Y1585*
X2823*
X2653D02*
G01X2557D01*
X2139D02*
G01X2089D01*
Y1587*
X2137*
X2559D02*
G01X2653D01*
X2823D02*
G01X2849D01*
Y1589*
X2823*
X2653D02*
G01X2561D01*
X2137D02*
G01X2089D01*
X2087Y1591*
X2135*
X2561D02*
G01X2653D01*
X2823D02*
G01X2849D01*
Y1593*
X2823*
X2653D02*
G01X2563D01*
X2135D02*
G01X2087D01*
X2085Y1595*
X2135*
X2563D02*
G01X2653D01*
X2823D02*
G01X2849D01*
Y1597*
X2823*
X2653D02*
G01X2563D01*
X2133D02*
G01X2085D01*
Y1599*
X2133*
X2565D02*
G01X2651D01*
X2823D02*
G01X2849D01*
Y1601*
X2823*
X2649D02*
G01X2565D01*
X2133D02*
G01X2085D01*
X2083Y1603*
X2133*
X2565D02*
G01X2647D01*
X2823D02*
G01X2849D01*
Y1605*
X2823*
X2645D02*
G01X2567D01*
X2131D02*
G01X2083D01*
Y1607*
X2131*
X2567D02*
G01X2643D01*
X2823D02*
G01X2849D01*
Y1609*
X2823*
X2641D02*
G01X2567D01*
X2131D02*
G01X2083D01*
Y1611*
X2131*
X2567D02*
G01X2639D01*
X2823D02*
G01X2849D01*
Y1613*
X2823*
X2637D02*
G01X2567D01*
X2131D02*
G01X2083D01*
Y1615*
X2131*
X2567D02*
G01X2635D01*
X2823D02*
G01X2849D01*
Y1617*
X2823*
X2633D02*
G01X2567D01*
X2131D02*
G01X2083D01*
Y1619*
X2131*
X2567D02*
G01X2631D01*
X2823D02*
G01X2849D01*
Y1621*
X2823*
X2629D02*
G01X2567D01*
X2131D02*
G01X2083D01*
Y1623*
X2131*
X2567D02*
G01X2627D01*
X2823D02*
G01X2849D01*
Y1625*
X2823*
X2625D02*
G01X2567D01*
X2131D02*
G01X2083D01*
Y1627*
X2133*
X2567D02*
G01X2623D01*
X2823D02*
G01X2849D01*
Y1629*
X2823*
X2621D02*
G01X2565D01*
X2133D02*
G01X2083D01*
Y1631*
X2133*
X2565D02*
G01X2619D01*
X2823D02*
G01X2849D01*
Y1633*
X2823*
X2617D02*
G01X2563D01*
X2133D02*
G01X2083D01*
Y1635*
X2133*
X2563D02*
G01X2615D01*
X2823D02*
G01X2849D01*
Y1637*
X2823*
X2613D02*
G01X2563D01*
X2133D02*
G01X2083D01*
Y1639*
X2133*
X2563D02*
G01X2611D01*
X2823D02*
G01X2849D01*
Y1641*
X2823*
X2609D02*
G01X2561D01*
X2133D02*
G01X2083D01*
Y1643*
X2133*
X2561D02*
G01X2607D01*
X2823D02*
G01X2849D01*
Y1645*
X2823*
X2605D02*
G01X2557D01*
X2133D02*
G01X2083D01*
Y1647*
X2133*
X2557D02*
G01X2603D01*
X2823D02*
G01X2849D01*
Y1649*
X2823*
X2601D02*
G01X2555D01*
X2133D02*
G01X2083D01*
Y1651*
X2133*
X2555D02*
G01X2599D01*
X2823D02*
G01X2849D01*
Y1653*
X2823*
X2597D02*
G01X2551D01*
X2133D02*
G01X2083D01*
Y1655*
X2133*
X2551D02*
G01X2595D01*
X2823D02*
G01X2849D01*
Y1657*
X2823*
X2593D02*
G01X2545D01*
X2133D02*
G01X2083D01*
Y1659*
X2133*
X2545D02*
G01X2591D01*
X2823D02*
G01X2849D01*
Y1661*
X2823*
X2589D02*
G01X2539D01*
X2133D02*
G01X2083D01*
Y1663*
X2133*
X2539D02*
G01X2587D01*
X2823D02*
G01X2849D01*
Y1665*
X2823*
X2133D02*
G01X2083D01*
Y1667*
X2133*
X2823D02*
G01X2849D01*
Y1669*
X2823*
X2133D02*
G01X2083D01*
Y1671*
X2133*
X2823D02*
G01X2849D01*
Y1673*
X2823*
X2133D02*
G01X2083D01*
Y1675*
X2133*
X2823D02*
G01X2849D01*
Y1677*
X2823*
X2133D02*
G01X2083D01*
Y1679*
X2133*
X2823D02*
G01X2849D01*
Y1681*
X2823*
X2133D02*
G01X2083D01*
Y1683*
X2133*
X2823D02*
G01X2849D01*
Y1685*
X2823*
X2133D02*
G01X2083D01*
Y1687*
X2133*
X2823D02*
G01X2849D01*
Y1689*
X2823*
X2133D02*
G01X2083D01*
Y1691*
X2133*
X2823D02*
G01X2849D01*
Y1693*
X2823*
X2133D02*
G01X2083D01*
Y1695*
X2133*
X2823D02*
G01X2849D01*
Y1697*
X2823*
X2133D02*
G01X2083D01*
Y1699*
X2133*
X2823D02*
G01X2849D01*
Y1701*
X2823*
X2133D02*
G01X2083D01*
Y1703*
X2133*
X2823D02*
G01X2849D01*
Y1705*
X2823*
X2133D02*
G01X2083D01*
Y1707*
X2133*
X2823D02*
G01X2849D01*
Y1709*
X2823*
X2133D02*
G01X2083D01*
Y1711*
X2133*
X2823D02*
G01X2849D01*
Y1713*
X2823*
X2133D02*
G01X2083D01*
Y1715*
X2133*
X2823D02*
G01X2849D01*
Y1717*
X2823*
X2133D02*
G01X2083D01*
Y1719*
X2133*
X2823D02*
G01X2849D01*
Y1721*
X2823*
X2133D02*
G01X2083D01*
Y1723*
X2133*
X2823D02*
G01X2849D01*
Y1725*
X2823*
X2133D02*
G01X2083D01*
Y1727*
X2133*
X2823D02*
G01X2849D01*
Y1729*
X2823*
X2133D02*
G01X2083D01*
Y1731*
X2133*
X2823D02*
G01X2849D01*
Y1733*
X2823*
X2133D02*
G01X2083D01*
Y1735*
X2133*
X2823D02*
G01X2849D01*
Y1737*
X2823*
X2133D02*
G01X2083D01*
Y1739*
X2133*
X2823D02*
G01X2849D01*
Y1741*
X2823*
X2133D02*
G01X2083D01*
Y1743*
X2133*
X2823D02*
G01X2849D01*
Y1745*
X2823*
X2133D02*
G01X2083D01*
Y1747*
X2133*
X2823D02*
G01X2849D01*
Y1749*
X2823*
X2133D02*
G01X2083D01*
Y1751*
X2133*
X2823D02*
G01X2849D01*
Y1753*
X2823*
X2135D02*
G01X2083D01*
Y1755*
X2135*
X2823D02*
G01X2849D01*
Y1757*
X2823*
X2135D02*
G01X2083D01*
Y1759*
X2135*
X2823D02*
G01X2849D01*
Y1761*
X2823*
X2137D02*
G01X2083D01*
Y1763*
X2137*
X2823D02*
G01X2849D01*
Y1765*
X2823*
X2139D02*
G01X2083D01*
Y1767*
X2139*
X2823D02*
G01X2849D01*
Y1769*
X2823*
X2141D02*
G01X2083D01*
Y1771*
X2141*
X2823D02*
G01X2849D01*
Y1773*
X2823*
X2143D02*
G01X2083D01*
Y1775*
X2143*
X2823D02*
G01X2849D01*
Y1777*
X2823*
X2145D02*
G01X2083D01*
Y1779*
X2145*
X2823D02*
G01X2849D01*
Y1781*
X2823*
X2149D02*
G01X2083D01*
Y1783*
X2149*
X2823D02*
G01X2849D01*
Y1785*
X2823*
X2153D02*
G01X2083D01*
Y1787*
X2153*
X2823D02*
G01X2849D01*
Y1789*
X2823*
X2157D02*
G01X2083D01*
Y1791*
X2157*
X2823D02*
G01X2849D01*
Y1793*
X2823*
X2163D02*
G01X2083D01*
Y1795*
X2163*
X2823D02*
G01X2849D01*
Y1797*
X2823*
X2171D02*
G01X2083D01*
Y1799*
X2171*
X2215D02*
G01X2217D01*
X2823D02*
G01X2849D01*
Y1801*
X2823*
X2217D02*
G01X2215D01*
X2179D02*
G01X2083D01*
Y1803*
X2217*
X2823D02*
G01X2849D01*
Y1805*
X2823*
X2217D02*
G01X2083D01*
Y1807*
X2217*
X2823D02*
G01X2849D01*
Y1809*
X2823*
X2217D02*
G01X2083D01*
Y1811*
X2217*
X2823D02*
G01X2849D01*
Y1813*
X2823*
X2217D02*
G01X2083D01*
Y1815*
X2217*
X2823D02*
G01X2849D01*
Y1817*
X2823*
X2217D02*
G01X2083D01*
Y1819*
X2217*
X2821D02*
G01X2849D01*
Y1821*
X2821*
X2217D02*
G01X2083D01*
Y1823*
X2217*
X2821D02*
G01X2849D01*
Y1825*
X2821*
X2217D02*
G01X2083D01*
Y1827*
X2217*
X2821D02*
G01X2849D01*
Y1829*
X2821*
X2217D02*
G01X2083D01*
Y1831*
X2217*
X2819D02*
G01X2849D01*
Y1833*
X2819*
X2217D02*
G01X2083D01*
Y1835*
X2217*
X2817D02*
G01X2849D01*
Y1837*
X2817*
X2217D02*
G01X2083D01*
Y1839*
X2217*
X2815D02*
G01X2849D01*
Y1841*
X2813*
X2217D02*
G01X2083D01*
Y1843*
X2217*
X2813D02*
G01X2849D01*
Y1845*
X2809*
X2217D02*
G01X2083D01*
Y1847*
X2217*
X2809D02*
G01X2849D01*
Y1849*
X2805*
X2217D02*
G01X2083D01*
Y1851*
X2217*
X2805D02*
G01X2849D01*
Y1853*
X2801*
X2217D02*
G01X2083D01*
Y1855*
X2217*
X2801D02*
G01X2849D01*
Y1857*
X2797*
X2217D02*
G01X2083D01*
Y1859*
X2217*
X2797D02*
G01X2849D01*
Y1861*
X2793*
X2217D02*
G01X2083D01*
Y1863*
X2217*
X2793D02*
G01X2849D01*
Y1865*
X2789*
X2217D02*
G01X2083D01*
Y1867*
X2217*
X2789D02*
G01X2849D01*
Y1869*
X2785*
X2217D02*
G01X2083D01*
Y1871*
X2217*
X2785D02*
G01X2849D01*
Y1873*
X2783*
X2217D02*
G01X2083D01*
Y1875*
X2217*
X2783D02*
G01X2849D01*
Y1877*
X2783*
X2217D02*
G01X2083D01*
Y1879*
X2217*
X2473D02*
G01X2495D01*
X2783D02*
G01X2849D01*
Y1881*
X2783*
X2495D02*
G01X2473D01*
X2217D02*
G01X2083D01*
Y1883*
X2217*
X2473D02*
G01X2499D01*
X2783D02*
G01X2849D01*
Y1885*
X2783*
X2499D02*
G01X2473D01*
X2217D02*
G01X2083D01*
Y1887*
X2217*
X2473D02*
G01X2503D01*
X2783D02*
G01X2849D01*
Y1889*
X2783*
X2503D02*
G01X2473D01*
X2217D02*
G01X2083D01*
Y1891*
X2217*
X2473D02*
G01X2507D01*
X2783D02*
G01X2849D01*
Y1893*
X2783*
X2507D02*
G01X2473D01*
X2217D02*
G01X2083D01*
Y1895*
X2217*
X2473D02*
G01X2511D01*
X2783D02*
G01X2849D01*
Y1897*
X2783*
X2511D02*
G01X2473D01*
X2217D02*
G01X2083D01*
Y1899*
X2217*
X2473D02*
G01X2515D01*
X2783D02*
G01X2849D01*
Y1901*
X2783*
X2515D02*
G01X2473D01*
X2217D02*
G01X2083D01*
Y1903*
X2217*
X2473D02*
G01X2519D01*
X2783D02*
G01X2849D01*
Y1905*
X2783*
X2519D02*
G01X2473D01*
X2217D02*
G01X2083D01*
Y1907*
X2217*
X2473D02*
G01X2523D01*
X2783D02*
G01X2849D01*
Y1909*
X2783*
X2523D02*
G01X2473D01*
X2217D02*
G01X2155D01*
Y1911*
X2217*
X2473D02*
G01X2527D01*
X2783D02*
G01X2849D01*
Y1913*
X2783*
X2527D02*
G01X2473D01*
X2217D02*
G01X2155D01*
Y1915*
X2215*
X2473D02*
G01X2529D01*
X2783D02*
G01X2849D01*
Y1917*
X2783*
X2531D02*
G01X2473D01*
X2215D02*
G01X2155D01*
Y1919*
X2215*
X2473D02*
G01X2533D01*
X2783D02*
G01X2849D01*
Y1921*
X2783*
X2535D02*
G01X2473D01*
X2213D02*
G01X2155D01*
Y1923*
X2213*
X2473D02*
G01X2537D01*
X2783D02*
G01X2849D01*
Y1925*
X2783*
X2539D02*
G01X2473D01*
X2213D02*
G01X2155D01*
Y1927*
X2213*
X2473D02*
G01X2539D01*
X2783D02*
G01X2849D01*
Y1929*
X2783*
X2539D02*
G01X2473D01*
X2213D02*
G01X2155D01*
Y1931*
X2213*
X2473D02*
G01X2539D01*
X2783D02*
G01X2849D01*
Y1933*
X2783*
X2539D02*
G01X2473D01*
X2213D02*
G01X2155D01*
Y1935*
X2213*
X2473D02*
G01X2539D01*
X2783D02*
G01X2849D01*
Y1937*
X2783*
X2539D02*
G01X2473D01*
X2213D02*
G01X2155D01*
Y1939*
X2213*
X2473D02*
G01X2539D01*
X2783D02*
G01X2849D01*
Y1941*
X2783*
X2539D02*
G01X2473D01*
X2213D02*
G01X2155D01*
Y1943*
X2215*
X2473D02*
G01X2539D01*
X2783D02*
G01X2849D01*
Y1945*
X2783*
X2539D02*
G01X2473D01*
X2215D02*
G01X2155D01*
Y1947*
X2215*
X2473D02*
G01X2539D01*
X2783D02*
G01X2849D01*
Y1949*
X2783*
X2539D02*
G01X2473D01*
X2215D02*
G01X2155D01*
Y1951*
X2217*
X2473D02*
G01X2539D01*
X2783D02*
G01X2849D01*
Y1953*
X2783*
X2539D02*
G01X2473D01*
X2217D02*
G01X2155D01*
X2473Y1955D02*
G01X2539D01*
X2783D02*
G01X2849D01*
Y1957*
X2783*
X2539D02*
G01X2473D01*
Y1959*
X2539*
X2783D02*
G01X2849D01*
Y1961*
X2783*
X2539D02*
G01X2473D01*
Y1963*
X2539*
X2783D02*
G01X2849D01*
Y1965*
X2783*
X2539D02*
G01X2473D01*
Y1967*
X2539*
X2783D02*
G01X2849D01*
Y1969*
X2783*
X2539D02*
G01X2473D01*
Y1971*
X2539*
X2783D02*
G01X2849D01*
Y1973*
X2783*
X2539D02*
G01X2473D01*
Y1975*
X2539*
X2783D02*
G01X2849D01*
Y1977*
X2783*
X2539D02*
G01X2473D01*
X2479Y1979D02*
G01X2539D01*
X2783D02*
G01X2849D01*
Y1981*
X2783*
X2539D02*
G01X2479D01*
Y1983*
X2539*
X2783D02*
G01X2849D01*
Y1985*
X2783*
X2539D02*
G01X2479D01*
Y1987*
X2539*
X2783D02*
G01X2849D01*
Y1989*
X2783*
X2539D02*
G01X2479D01*
Y1991*
X2539*
X2783D02*
G01X2849D01*
Y1993*
X2783*
X2539D02*
G01X2479D01*
Y1995*
X2539*
X2783D02*
G01X2849D01*
Y1997*
X2783*
X2539D02*
G01X2479D01*
Y1999*
X2539*
X2783D02*
G01X2849D01*
Y2001*
X2783*
X2539D02*
G01X2479D01*
Y2003*
X2539*
X2683D02*
G01X2849D01*
Y2005*
X2683*
X2539D02*
G01X2479D01*
X2351D02*
G01X2313D01*
Y2007*
X2351*
X2479D02*
G01X2539D01*
X2683D02*
G01X2849D01*
Y2009*
X2683*
X2539D02*
G01X2479D01*
X2351D02*
G01X2309D01*
Y2011*
X2351*
X2479D02*
G01X2539D01*
X2683D02*
G01X2849D01*
Y2013*
X2683*
X2539D02*
G01X2479D01*
X2351D02*
G01X2305D01*
Y2015*
X2351*
X2479D02*
G01X2539D01*
X2683D02*
G01X2849D01*
Y2017*
X2683*
X2539D02*
G01X2479D01*
X2351D02*
G01X2303D01*
X2301Y2019*
X2351*
X2479D02*
G01X2539D01*
X2683D02*
G01X2849D01*
Y2021*
X2683*
X2539D02*
G01X2479D01*
X2351D02*
G01X2297D01*
X2295Y2023*
X2351*
X2479D02*
G01X2539D01*
X2683D02*
G01X2849D01*
Y2025*
X2683*
X2539D02*
G01X2479D01*
X2351D02*
G01X2291D01*
X2155Y2027D02*
G01X2351D01*
X2479D02*
G01X2539D01*
X2683D02*
G01X2849D01*
Y2029*
X2683*
X2539D02*
G01X2479D01*
X2351D02*
G01X2155D01*
Y2031*
X2351*
X2479D02*
G01X2539D01*
X2683D02*
G01X2849D01*
Y2033*
X2683*
X2539D02*
G01X2479D01*
X2351D02*
G01X2155D01*
Y2035*
X2351*
X2479D02*
G01X2539D01*
X2683D02*
G01X2849D01*
Y2037*
X2683*
X2539D02*
G01X2479D01*
X2351D02*
G01X2155D01*
Y2039*
X2351*
X2479D02*
G01X2539D01*
X2683D02*
G01X2849D01*
Y2041*
X2683*
X2539D02*
G01X2479D01*
X2351D02*
G01X2155D01*
Y2043*
X2351*
X2479D02*
G01X2539D01*
X2683D02*
G01X2849D01*
Y2045*
X2683*
X2539D02*
G01X2479D01*
X2351D02*
G01X2155D01*
Y2047*
X2351*
X2479D02*
G01X2539D01*
X2683D02*
G01X2849D01*
Y2049*
X2683*
X2539D02*
G01X2479D01*
X2351D02*
G01X2155D01*
Y2051*
X2351*
X2479D02*
G01X2539D01*
X2683D02*
G01X2849D01*
Y2053*
X2683*
X2539D02*
G01X2479D01*
X2351D02*
G01X2155D01*
Y2055*
X2351*
X2479D02*
G01X2539D01*
X2683D02*
G01X2849D01*
Y2057*
X2683*
X2539D02*
G01X2479D01*
X2351D02*
G01X2155D01*
Y2059*
X2351*
X2479D02*
G01X2539D01*
X2683D02*
G01X2849D01*
Y2061*
X2683*
X2539D02*
G01X2479D01*
X2351D02*
G01X2155D01*
Y2063*
X2351*
X2479D02*
G01X2539D01*
X2683D02*
G01X2849D01*
Y2065*
X2683*
X2539D02*
G01X2479D01*
X2351D02*
G01X2155D01*
Y2067*
X2351*
X2479D02*
G01X2539D01*
X2683D02*
G01X2849D01*
Y2069*
X2683*
X2539D02*
G01X2479D01*
X2351D02*
G01X2155D01*
Y2071*
X2351*
X2479D02*
G01X2539D01*
X2683D02*
G01X2849D01*
Y2073*
X2683*
X2539D02*
G01X2479D01*
X2351D02*
G01X2155D01*
Y2075*
X2351*
X2479D02*
G01X2539D01*
X2683D02*
G01X2849D01*
Y2077*
X2683*
X2539D02*
G01X2479D01*
X2351D02*
G01X2155D01*
Y2079*
X2351*
X2479D02*
G01X2539D01*
X2683D02*
G01X2849D01*
Y2081*
X2683*
X2539D02*
G01X2479D01*
X2351D02*
G01X2155D01*
X37Y2083D02*
G01X151D01*
X469D02*
G01X549D01*
Y2085*
X469*
X153D02*
G01X37D01*
Y2087*
X153*
X465D02*
G01X549D01*
Y2089*
X465*
X157D02*
G01X37D01*
Y2091*
X157*
X461D02*
G01X549D01*
Y2093*
X461*
X161D02*
G01X37D01*
Y2095*
X161*
X257D02*
G01X261D01*
X357D02*
G01X361D01*
X457D02*
G01X549D01*
Y2097*
X457*
X365D02*
G01X357D01*
X265D02*
G01X257D01*
X165D02*
G01X37D01*
Y2099*
X165*
X253D02*
G01X265D01*
X353D02*
G01X365D01*
X453D02*
G01X549D01*
X1057Y2101D02*
G01X1053D01*
X971D02*
G01X953D01*
X871D02*
G01X853D01*
X771D02*
G01X753D01*
X671D02*
G01X653D01*
X571D02*
G01X453D01*
X371D02*
G01X353D01*
X271D02*
G01X253D01*
X171D02*
G01X37D01*
Y2103*
X171*
X247D02*
G01X271D01*
X347D02*
G01X371D01*
X447D02*
G01X571D01*
X647D02*
G01X671D01*
X747D02*
G01X771D01*
X847D02*
G01X871D01*
X947D02*
G01X971D01*
X1047D02*
G01X1057D01*
Y2105*
X1047*
X977D02*
G01X947D01*
X877D02*
G01X847D01*
X777D02*
G01X747D01*
X677D02*
G01X647D01*
X577D02*
G01X447D01*
X377D02*
G01X347D01*
X277D02*
G01X247D01*
X177D02*
G01X37D01*
Y2107*
X177*
X239D02*
G01X277D01*
X339D02*
G01X377D01*
X439D02*
G01X577D01*
X639D02*
G01X677D01*
X739D02*
G01X777D01*
X839D02*
G01X877D01*
X939D02*
G01X977D01*
X1039D02*
G01X1057D01*
Y2109*
X1039*
X987D02*
G01X939D01*
X887D02*
G01X839D01*
X787D02*
G01X739D01*
X687D02*
G01X639D01*
X587D02*
G01X439D01*
X387D02*
G01X339D01*
X287D02*
G01X239D01*
X187D02*
G01X37D01*
Y2111*
X187*
X227D02*
G01X287D01*
X327D02*
G01X387D01*
X427D02*
G01X587D01*
X627D02*
G01X687D01*
X727D02*
G01X787D01*
X827D02*
G01X887D01*
X927D02*
G01X987D01*
X1027D02*
G01X1057D01*
Y2113*
X37*
Y2115*
X1057*
Y2117*
X37*
Y2119*
X1057*
Y2121*
X37*
Y2123*
X1057*
Y2125*
X37*
Y2127*
X1057*
Y2129*
X37*
Y2131*
X1057*
Y2133*
X37*
Y2135*
X1057*
Y2137*
X37*
Y2139*
X1057*
Y2141*
X37*
Y2143*
X1057*
X2081Y2101D02*
G01X2013D01*
X1931D02*
G01X1913D01*
X1831D02*
G01X1813D01*
X1731D02*
G01X1713D01*
X1631D02*
G01X1613D01*
X1531D02*
G01X1513D01*
X1431D02*
G01X1413D01*
X1331D02*
G01X1313D01*
X1231D02*
G01X1153D01*
X1071D02*
G01X1059D01*
Y2103*
X1071*
X1147D02*
G01X1231D01*
X1307D02*
G01X1331D01*
X1407D02*
G01X1431D01*
X1507D02*
G01X1531D01*
X1607D02*
G01X1631D01*
X1707D02*
G01X1731D01*
X1807D02*
G01X1831D01*
X1907D02*
G01X1931D01*
X2007D02*
G01X2081D01*
Y2105*
X2007*
X1937D02*
G01X1907D01*
X1837D02*
G01X1807D01*
X1737D02*
G01X1707D01*
X1637D02*
G01X1607D01*
X1537D02*
G01X1507D01*
X1437D02*
G01X1407D01*
X1337D02*
G01X1307D01*
X1237D02*
G01X1147D01*
X1077D02*
G01X1059D01*
Y2107*
X1077*
X1139D02*
G01X1237D01*
X1299D02*
G01X1337D01*
X1399D02*
G01X1437D01*
X1499D02*
G01X1537D01*
X1599D02*
G01X1637D01*
X1699D02*
G01X1737D01*
X1799D02*
G01X1837D01*
X1899D02*
G01X1937D01*
X1999D02*
G01X2081D01*
Y2109*
X1999*
X1947D02*
G01X1899D01*
X1847D02*
G01X1799D01*
X1747D02*
G01X1699D01*
X1647D02*
G01X1599D01*
X1547D02*
G01X1499D01*
X1447D02*
G01X1399D01*
X1347D02*
G01X1299D01*
X1247D02*
G01X1139D01*
X1087D02*
G01X1059D01*
Y2111*
X1087*
X1127D02*
G01X1247D01*
X1287D02*
G01X1347D01*
X1387D02*
G01X1447D01*
X1487D02*
G01X1547D01*
X1587D02*
G01X1647D01*
X1687D02*
G01X1747D01*
X1787D02*
G01X1847D01*
X1887D02*
G01X1947D01*
X1987D02*
G01X2081D01*
Y2113*
X1059*
Y2115*
X2081*
Y2117*
X1059*
Y2119*
X2081*
Y2121*
X1059*
Y2123*
X2081*
Y2125*
X1059*
Y2127*
X2081*
Y2129*
X1059*
Y2131*
X2081*
Y2133*
X1059*
Y2135*
X2081*
Y2137*
X1059*
Y2139*
X2081*
Y2141*
X1059*
Y2143*
X2081*
X2155Y2083D02*
G01X2351D01*
X2479D02*
G01X2539D01*
X2683D02*
G01X2849D01*
Y2085*
X2683*
X2539D02*
G01X2479D01*
X2351D02*
G01X2155D01*
Y2087*
X2351*
X2479D02*
G01X2539D01*
X2683D02*
G01X2849D01*
Y2089*
X2683*
X2539D02*
G01X2479D01*
X2351D02*
G01X2155D01*
Y2091*
X2351*
X2479D02*
G01X2539D01*
X2683D02*
G01X2849D01*
Y2093*
X2683*
X2539D02*
G01X2479D01*
X2351D02*
G01X2155D01*
Y2095*
X2351*
X2479D02*
G01X2539D01*
X2683D02*
G01X2849D01*
Y2097*
X2683*
X2539D02*
G01X2479D01*
X2351D02*
G01X2155D01*
X2083Y2099D02*
G01X2351D01*
X2479D02*
G01X2539D01*
X2683D02*
G01X2849D01*
Y2101*
X2683*
X2539D02*
G01X2479D01*
X2351D02*
G01X2083D01*
Y2103*
X2351*
X2479D02*
G01X2849D01*
Y2105*
X2083*
Y2107*
X2849*
Y2109*
X2083*
Y2111*
X2849*
Y2113*
X2083*
Y2115*
X2849*
Y2117*
X2083*
Y2119*
X2849*
Y2121*
X2083*
Y2123*
X2849*
Y2125*
X2083*
Y2127*
X2849*
Y2129*
X2083*
Y2131*
X2849*
Y2133*
X2083*
Y2135*
X2849*
Y2137*
X2083*
Y2139*
X2849*
Y2141*
X2083*
Y2143*
X2849*
G54D10*
X0Y0D02*
G01X2880D01*
X0Y2180D02*
G01Y0D01*
X505Y380D02*
G01X570Y315D01*
G54D17*
X110Y70D02*
G01X1060D01*
X110D02*
G01X100Y80D01*
Y265*
G54D18*
X171Y395D02*
G01X151Y415D01*
X100D02*
G01X151D01*
X171Y435*
Y475*
Y395D02*
G01Y435D01*
Y475D02*
G01X196Y500D01*
X356*
X375Y481D02*
G01X356Y500D01*
X375Y415D02*
G01Y481D01*
X201Y140D02*
G01X251D01*
X201D02*
G01X171Y170D01*
Y395*
G54D10*
X505Y380D02*
G01Y524D01*
G54D19*
X45Y280D02*
G01Y590D01*
X60Y265D02*
G01X45Y280D01*
X60Y265D02*
G01X100D01*
G54D21*
X55Y600D02*
G01X225D01*
X520Y664D02*
G01X725D01*
G54D22*
X130Y964D02*
G01Y999D01*
G54D10*
X520Y539D02*
G01X505Y524D01*
X490Y539*
X520*
G54D18*
Y884D02*
G01Y964D01*
X550Y854D02*
G01X520Y884D01*
G54D10*
X395Y855D02*
G01X375Y875D01*
X490Y539D02*
G01X395Y634D01*
Y855*
G54D21*
X270Y924D02*
G01Y984D01*
X210Y924D02*
G01X270D01*
X55Y769D02*
G01X210Y924D01*
X55Y600D02*
G01Y769D01*
X210Y924D02*
G01X270Y984D01*
G54D22*
X150Y1019D02*
G01X558D01*
X130Y999D02*
G01X150Y1019D01*
G54D19*
X45Y590D02*
G01X55Y600D01*
G54D23*
X110Y1240D02*
G01X160D01*
X110D02*
G01Y1765D01*
X60Y1240D02*
G01Y1765D01*
Y1240D02*
G01X110D01*
X160D02*
G01X210D01*
Y1765*
X260Y1240D02*
G01Y1765D01*
X210Y1240D02*
G01X260D01*
X310*
Y1765*
X360Y1240D02*
G01Y1765D01*
X310Y1240D02*
G01X360D01*
X410*
Y1740*
X460Y1240D02*
G01Y1690D01*
X410Y1240D02*
G01X460D01*
X510*
Y1640*
Y1240D02*
G01X560D01*
X160D02*
G01Y1630D01*
G54D22*
X200Y1050D02*
G01Y1090D01*
X211Y1039D02*
G01X200Y1050D01*
X211Y1039D02*
G01X568D01*
G54D10*
X330Y1079D02*
G01X550D01*
G54D21*
X510Y2040D02*
G01Y2095D01*
G54D18*
X620Y1640D02*
G01X510Y1750D01*
Y2040*
G54D23*
X110Y1765D02*
G01X160D01*
X60D02*
G01X110D01*
X160D02*
G01X210D01*
X260*
X310*
X360*
X410Y1740D02*
G01X385Y1765D01*
X360D02*
G01X385D01*
X460Y1690D02*
G01X410Y1740D01*
X510Y1640D02*
G01X460Y1690D01*
X560Y1590D02*
G01X510Y1640D01*
X160Y1630D02*
G01X200D01*
X160D02*
G01Y1765D01*
G54D18*
X510Y1750D02*
G01Y1800D01*
X455Y1855*
X480*
X510Y1885*
Y2040*
X295Y1855D02*
G01X270Y1880D01*
Y1930*
G54D19*
X170Y2000D02*
G01X210Y2040D01*
X170Y1930D02*
G01Y2000D01*
G54D18*
X510Y1750D02*
G01X405Y1855D01*
X295D02*
G01X405D01*
X455*
G54D10*
X10Y2265D02*
G01Y2325D01*
X38*
X45Y2318*
Y2300*
X38Y2295*
X10*
X95Y2273D02*
G01X88Y2265D01*
X68*
X60Y2273*
Y2318*
X68Y2325*
X88*
X95Y2318*
X138Y2295D02*
G01X145Y2303D01*
Y2318D02*
G01X138Y2325D01*
X115D02*
G01Y2265D01*
X110D02*
G01X138D01*
X145Y2273*
Y2288*
X138Y2295*
X115*
X110Y2325D02*
G01X138D01*
X145Y2318D02*
G01Y2303D01*
X210Y2273D02*
G01X218Y2265D01*
X238*
X245Y2273*
Y2288*
X238Y2295*
X218*
X210Y2303*
Y2318*
X218Y2325*
X238*
X245Y2318*
X270Y2265D02*
G01X285D01*
X278D02*
G01Y2325D01*
X270D02*
G01X285D01*
X310D02*
G01X345D01*
X310Y2265*
X345*
X395D02*
G01X360D01*
Y2325*
X395*
X360Y2295D02*
G01X390D01*
X430Y2270D02*
G01X435D01*
Y2265*
X430*
Y2270*
Y2315D02*
G01X435D01*
Y2310*
X430*
Y2315*
X460Y2318D02*
G01X468Y2325D01*
X488*
X495Y2318*
Y2310*
X460Y2265D02*
G01X495D01*
X460Y2275D02*
G01X495Y2310D01*
X460Y2275D02*
G01Y2265D01*
X525D02*
G01Y2268D01*
X528*
Y2265*
X525*
X568Y2325D02*
G01X588D01*
X595Y2318*
Y2303*
X588Y2295*
X568*
X560Y2288*
Y2273*
X568Y2265*
X588*
X595Y2273*
Y2288*
X588Y2295*
X568D02*
G01X560Y2303D01*
Y2318*
X568Y2325*
X618D02*
G01X638D01*
X645Y2318*
Y2303*
X638Y2295*
X618*
X610Y2288*
Y2273*
X618Y2265*
X638*
X645Y2273*
Y2288*
X638Y2295*
X618D02*
G01X610Y2303D01*
Y2318*
X618Y2325*
X660Y2273D02*
G01Y2318D01*
X668Y2325*
X688*
X695Y2318*
Y2273*
X688Y2265*
X668*
X660Y2273*
X770Y2265D02*
G01X785D01*
X778D02*
G01Y2325D01*
X770D02*
G01X785D01*
X810Y2265D02*
G01Y2325D01*
X845Y2265*
Y2325*
X895Y2273D02*
G01X888Y2265D01*
X868*
X860Y2273*
Y2318*
X868Y2325*
X888*
X895Y2318*
X910Y2265D02*
G01Y2325D01*
Y2295D02*
G01X945D01*
Y2325D02*
G01Y2265D01*
X1010D02*
G01X1045Y2325D01*
X1010D02*
G01X1045Y2265D01*
X1110Y2318D02*
G01X1118Y2325D01*
X1138*
X1145Y2318*
Y2310*
X1110Y2265D02*
G01X1145D01*
X1110Y2275D02*
G01X1145Y2310D01*
X1110Y2275D02*
G01Y2265D01*
X1175D02*
G01Y2268D01*
X1178*
Y2265*
X1175*
X1223D02*
G01X1233D01*
X1228D02*
G01Y2325D01*
X1223Y2320*
X1268Y2325D02*
G01X1288D01*
X1295Y2318*
Y2303*
X1288Y2295*
X1268*
X1260Y2288*
Y2273*
X1268Y2265*
X1288*
X1295Y2273*
Y2288*
X1288Y2295*
X1268D02*
G01X1260Y2303D01*
Y2318*
X1268Y2325*
X1310Y2273D02*
G01Y2318D01*
X1318Y2325*
X1338*
X1345Y2318*
Y2273*
X1338Y2265*
X1318*
X1310Y2273*
X1420Y2265D02*
G01X1435D01*
X1428D02*
G01Y2325D01*
X1420D02*
G01X1435D01*
X1460Y2265D02*
G01Y2325D01*
X1495Y2265*
Y2325*
X1545Y2273D02*
G01X1538Y2265D01*
X1518*
X1510Y2273*
Y2318*
X1518Y2325*
X1538*
X1545Y2318*
X1560Y2265D02*
G01Y2325D01*
Y2295D02*
G01X1595D01*
Y2325D02*
G01Y2265D01*
X2880Y2180D02*
G01X0D01*
G54D26*
X525Y2110D02*
G01X2295D01*
G54D21*
X510Y2095D02*
G01X525Y2110D01*
G54D10*
X32Y-160D02*
G01Y-85D01*
X10D02*
G01X54D01*
X73Y-151D02*
G01Y-94D01*
X82Y-85*
X107*
X116Y-94*
Y-151*
X107Y-160*
X82*
X73Y-151*
X135Y-160D02*
G01Y-85D01*
X169*
X179Y-94*
Y-116*
X169Y-123*
X135*
X304Y-160D02*
G01X260D01*
Y-85*
X323Y-160D02*
G01X344Y-85D01*
X366Y-160*
X332Y-129D02*
G01X357D01*
X385Y-85D02*
G01X407Y-123D01*
Y-160*
Y-123D02*
G01X429Y-85D01*
X491Y-160D02*
G01X448D01*
Y-85*
X491*
X448Y-123D02*
G01X485D01*
X510Y-160D02*
G01Y-85D01*
X544*
X554Y-94*
Y-116*
X544Y-123*
X510*
X535D02*
G01X554Y-160D01*
G54D18*
X1040Y365D02*
G01X1010Y395D01*
X925Y450D02*
G01X1000D01*
Y395D02*
G01Y450D01*
Y395D02*
G01X1010D01*
X1040Y365D02*
G01X1089D01*
G54D19*
X825Y375D02*
G01X925D01*
G54D10*
X570Y315D02*
G01X675D01*
X770Y220D02*
G01X675Y315D01*
X770Y140D02*
G01Y220D01*
G54D22*
X835Y290D02*
G01X825Y300D01*
X835Y290D02*
G01X895D01*
G54D19*
X870Y140D02*
G01Y160D01*
X955Y245*
Y310*
X670Y390D02*
G01Y534D01*
G54D10*
X750Y350D02*
G01Y360D01*
X810D02*
G01X825Y375D01*
X750Y360D02*
G01X810D01*
G54D21*
X750Y430D02*
G01Y639D01*
G54D18*
X700Y854D02*
G01X840D01*
G54D19*
X1010Y880D02*
G01X1180D01*
X1010D02*
G01X991Y899D01*
Y925*
X670Y534D02*
G01X645Y564D01*
G54D22*
X695Y1019D02*
G01X729Y1053D01*
X558Y1019D02*
G01X695D01*
G54D10*
X520Y539D02*
G01X545Y564D01*
G54D18*
X550Y854D02*
G01X700D01*
X840D02*
G01X911Y925D01*
X991*
G54D21*
X750Y639D02*
G01X725Y664D01*
G54D10*
X1070Y1465D02*
G01X1020Y1515D01*
Y1790*
X920Y1515D02*
G01Y1790D01*
X970Y1465D02*
G01X920Y1515D01*
G54D18*
X870Y1465D02*
G01Y1640D01*
G54D22*
X820Y1415D02*
G01Y1790D01*
X910Y1325D02*
G01X820Y1415D01*
X910Y1134D02*
G01Y1325D01*
G54D10*
X950Y1295D02*
G01X1070Y1415D01*
X950Y1094D02*
G01Y1295D01*
X940Y1084D02*
G01X950Y1094D01*
G54D23*
X560Y1240D02*
G01Y1590D01*
G54D22*
X709Y1073D02*
G01X889D01*
X928Y1034D02*
G01X889Y1073D01*
X928Y1034D02*
G01X1010D01*
X1030Y1054*
X856Y1033D02*
G01X836Y1053D01*
X729D02*
G01X836D01*
G54D10*
X670Y1199D02*
G01Y1265D01*
G54D22*
X568Y1039D02*
G01X675D01*
X709Y1073*
G54D10*
X550Y1079D02*
G01X670Y1199D01*
G54D18*
X700Y1560D02*
G01X670Y1590D01*
X700Y1560D02*
G01X770D01*
Y1590*
X660Y1560D02*
G01X700D01*
X660D02*
G01X640Y1580D01*
G54D10*
X770Y1840D02*
G01Y1915D01*
X710Y1975*
Y2040*
X870Y1840D02*
G01Y1915D01*
X810Y1975*
Y2040*
X970Y1840D02*
G01Y1915D01*
X910Y1975*
Y2040*
X1070Y1915D02*
G01X1010Y1975D01*
Y2040*
X1020Y1790D02*
G01X1070Y1840D01*
X920Y1790D02*
G01X970Y1840D01*
G54D22*
X820Y1790D02*
G01X870Y1840D01*
G54D18*
X670Y1640D02*
G01X770D01*
X620D02*
G01X670D01*
G54D10*
X594Y1931D02*
G01X624D01*
X670Y1885D02*
G01X624Y1931D01*
X670Y1840D02*
G01Y1885D01*
X594Y2024D02*
G01X610Y2040D01*
X594Y1931D02*
G01Y2024D01*
G54D18*
X770Y1590D02*
G01Y1640D01*
X670Y1590D02*
G01X620Y1640D01*
X670Y1590D02*
G01X770D01*
X640Y1620D02*
G01X620Y1640D01*
X640Y1580D02*
G01Y1620D01*
X1270Y140D02*
G01Y240D01*
X1245D02*
G01X1270D01*
Y365*
X1180Y479D02*
G01Y609D01*
X1089Y265D02*
G01Y365D01*
X1114Y240D02*
G01X1089Y265D01*
X1114Y240D02*
G01X1170D01*
Y140D02*
G01Y240D01*
X1089Y215D02*
G01X1114Y240D01*
X1089Y165D02*
G01Y215D01*
Y265*
X1114Y140D02*
G01X1089Y165D01*
X1114Y140D02*
G01X1170D01*
X1070D02*
G01X1114D01*
G54D17*
X1070Y70D02*
G01Y140D01*
X1405Y70D02*
G01X2625D01*
G54D18*
X1180Y365D02*
G01Y479D01*
G54D17*
X1070Y70D02*
G01X1335D01*
G54D23*
X1080Y479D02*
G01X1180D01*
X1080D02*
G01Y679D01*
X1290Y479D02*
G01Y679D01*
X1180Y479D02*
G01X1290D01*
X1270Y529D02*
G01Y579D01*
X1110Y529D02*
G01X1270D01*
X1110D02*
G01Y579D01*
G54D17*
X1070Y80D02*
G01Y140D01*
X1060Y70D02*
G01X1070Y80D01*
X1370Y70D02*
G01Y140D01*
G54D10*
X1420Y365D02*
G01X1470D01*
X1495Y340D02*
G01X1470Y365D01*
X1495Y165D02*
G01Y340D01*
X1470Y140D02*
G01X1495Y165D01*
G54D22*
X1550Y265D02*
G01X1530Y285D01*
Y570*
G54D17*
X1335Y70D02*
G01X1370D01*
X1405*
X1370Y105*
Y140*
X1335Y70D02*
G01X1370Y105D01*
G54D26*
X1345Y515D02*
G01Y615D01*
X1370Y140D02*
G01X1345Y165D01*
Y515*
Y165D02*
G01Y640D01*
X1370Y540D02*
G01X1345Y515D01*
Y615D02*
G01Y640D01*
G54D19*
X1502Y971D02*
G01X1552Y1001D01*
G54D22*
X1416Y863D02*
G01X1437Y933D01*
X1260Y970D02*
G01Y1440D01*
X1310Y760D02*
G01X1290Y780D01*
X1406Y803D02*
G01X1416D01*
X1050Y930D02*
G01Y1170D01*
X1310Y820D02*
G01Y920D01*
X1260Y970*
X1290Y780D02*
G01Y910D01*
X1240Y960*
X1356Y984D02*
G01X1280Y1060D01*
X1356Y853D02*
G01Y984D01*
X1554Y675D02*
G01X1426Y803D01*
X1336Y944D02*
G01X1300Y980D01*
X1336Y823D02*
G01Y944D01*
X1406Y803D02*
G01X1356Y853D01*
X1416Y803D02*
G01X1426D01*
X1360Y770D02*
G01X1310Y820D01*
X1360Y720D02*
G01Y770D01*
G54D23*
X1080Y679D02*
G01X1290D01*
Y629D02*
G01Y679D01*
X1110Y629D02*
G01X1290D01*
X1110Y579D02*
G01Y629D01*
Y579D02*
G01X1270D01*
G54D19*
X1180Y880D02*
G01X1200Y900D01*
Y1050*
G54D22*
X1511Y648D02*
G01X1336Y823D01*
X1511Y589D02*
G01Y648D01*
X1240Y960D02*
G01Y1354D01*
X1530Y570D02*
G01X1511Y589D01*
G54D26*
X1345Y540D02*
G01X1370D01*
X1345Y640D02*
G01X1445D01*
X1470Y615D02*
G01X1445Y640D01*
X1345Y615D02*
G01X1470D01*
Y590D02*
G01Y615D01*
X1345Y590D02*
G01X1470D01*
X1345D02*
G01Y615D01*
X1470Y565D02*
G01Y590D01*
X1345Y565D02*
G01X1470D01*
X1345D02*
G01Y590D01*
X1470Y540D02*
G01Y565D01*
X1370Y540D02*
G01X1470D01*
X1345D02*
G01Y565D01*
G54D19*
X1471Y1090D02*
G01X1530D01*
X1502Y1210D02*
G01X1552Y1180D01*
G54D10*
X1110Y1314D02*
G01X1120Y1324D01*
Y1540*
G54D18*
Y1540D02*
G01X1070Y1590D01*
G54D22*
X1437Y1466D02*
G01X1456Y1487D01*
X1437Y1247D02*
G01Y1466D01*
X1365Y1060D02*
G01X1396Y1090D01*
X1260Y1440D02*
G01X1420Y1600D01*
X1280Y1430D02*
G01X1430Y1580D01*
X1280Y1060D02*
G01Y1430D01*
X1170Y1290D02*
G01Y1375D01*
X1050Y1170D02*
G01X1170Y1290D01*
G54D10*
X1351Y1195D02*
G01X1371D01*
G54D22*
X1300Y1140D02*
G01Y1420D01*
G54D10*
X1521Y1135D02*
G01X1601D01*
X1521D02*
G01X1511Y1145D01*
X1421D02*
G01X1511D01*
G54D22*
X1335Y1060D02*
G01X1365D01*
G54D10*
X1421Y1145D02*
G01X1371Y1195D01*
G54D19*
X1200Y1050D02*
G01Y1264D01*
G54D10*
X1070Y1415D02*
G01Y1465D01*
G54D22*
X1170Y1375D02*
G01X1220Y1425D01*
X1300Y1420D02*
G01X1438Y1558D01*
X1320Y1120D02*
G01X1300Y1140D01*
X1030Y1224D02*
G01X1040Y1234D01*
X1030Y1054D02*
G01Y1224D01*
X1240Y1450D02*
G01X1320Y1530D01*
Y1790*
X1240Y1520D02*
G01X1220Y1540D01*
Y1790*
Y1500D02*
G01X1240Y1520D01*
X1220Y1425D02*
G01Y1500D01*
Y1540*
Y1364D02*
G01X1230D01*
X1240Y1374*
Y1450*
Y1354D02*
G01X1230Y1364D01*
X1240Y1354D02*
G01Y1374D01*
G54D10*
X1070Y1840D02*
G01Y1915D01*
X1170Y1840D02*
G01Y1915D01*
X1110Y1975*
Y2040*
X1270Y1840D02*
G01Y2040D01*
X1370Y1840D02*
G01Y2040D01*
X1470Y1840D02*
G01Y2040D01*
G54D18*
X1070Y1590D02*
G01Y1640D01*
G54D22*
X1220Y1790D02*
G01X1170Y1840D01*
X1320Y1790D02*
G01X1270Y1840D01*
X1420Y1790D02*
G01X1370Y1840D01*
X1420Y1600D02*
G01Y1790D01*
X1520D02*
G01X1470Y1840D01*
X1520Y1590D02*
G01Y1790D01*
X1510Y1580D02*
G01X1520Y1590D01*
X1430Y1580D02*
G01X1510D01*
X1438Y1558D02*
G01X1553D01*
G54D10*
X1275Y-94D02*
G01X1284Y-85D01*
X1309*
X1319Y-94*
Y-104*
X1275Y-160D02*
G01X1319D01*
X1275Y-148D02*
G01X1319Y-104D01*
X1275Y-148D02*
G01Y-160D01*
X1381D02*
G01X1338D01*
Y-85*
X1400Y-160D02*
G01X1422Y-85D01*
X1444Y-160*
X1409Y-129D02*
G01X1434D01*
X1463Y-85D02*
G01X1484Y-123D01*
Y-160*
Y-123D02*
G01X1506Y-85D01*
X1569Y-160D02*
G01X1525D01*
Y-85*
X1569*
X1525Y-123D02*
G01X1563D01*
X1588Y-160D02*
G01Y-85D01*
X1622*
X1631Y-94*
Y-116*
X1622Y-123*
X1588*
X1613D02*
G01X1631Y-160D01*
X1389Y-244D02*
G01X1401D01*
X1395Y-229D02*
G01X1396Y-231D01*
X1398Y-232*
X1400Y-231*
X1401Y-229*
X1400Y-226*
X1398*
X1396*
X1395Y-229*
X1389Y-244D02*
G01Y-250D01*
X1395*
Y-274*
X1389*
Y-280*
X1407*
Y-274*
X1401*
Y-244*
G54D11*
X1405Y-278D02*
G01Y-276D01*
X1402*
Y-278*
X1398D02*
G01Y-246D01*
Y-230D02*
G01Y-228D01*
X1394Y-278D02*
G01Y-276D01*
Y-248D02*
G01Y-246D01*
X1391Y-278D02*
G01Y-276D01*
Y-248D02*
G01Y-246D01*
G54D10*
X1459Y-244D02*
G01X1455D01*
X1452Y-245*
X1450Y-246*
X1447Y-248*
X1445Y-250*
X1443Y-253*
X1442Y-256*
X1441Y-259*
Y-262*
Y-265*
X1442Y-268*
X1443Y-271*
X1445Y-274*
X1447Y-276*
X1450Y-278*
X1452Y-279*
X1455Y-280*
X1459*
Y-244D02*
G01X1465D01*
X1459Y-280D02*
G01X1466D01*
X1483D02*
G01Y-226D01*
Y-280D02*
G01X1477D01*
Y-226D02*
G01X1483D01*
X1465Y-274D02*
G01X1467D01*
X1469Y-273*
X1471Y-272*
X1472Y-271*
X1474Y-270*
X1475Y-268*
X1476Y-266*
X1477Y-264*
Y-262*
Y-260*
X1476Y-258*
X1475Y-256*
X1474Y-254*
X1472Y-253*
X1471Y-251*
X1469Y-250*
X1467*
X1465*
X1459D02*
G01X1457D01*
X1455*
X1453Y-251*
X1451Y-253*
X1449Y-254*
X1448Y-256*
X1447Y-258*
Y-260*
Y-262*
Y-264*
Y-266*
X1448Y-268*
X1449Y-270*
X1451Y-271*
X1453Y-272*
X1455Y-273*
X1457Y-274*
X1459*
X1465Y-250D02*
G01X1459D01*
Y-274D02*
G01X1465D01*
X1466Y-280D02*
G01X1469D01*
X1472Y-279*
X1474Y-277*
X1477Y-276*
Y-248D02*
G01X1474Y-246D01*
X1471Y-245*
X1468Y-244*
X1465*
X1477Y-275D02*
G01Y-280D01*
Y-248D02*
G01Y-226D01*
G54D11*
X1481Y-278D02*
G01Y-228D01*
X1477*
Y-278*
X1474Y-276D02*
G01Y-272D01*
Y-252D02*
G01Y-248D01*
X1470Y-277D02*
G01Y-275D01*
Y-249D02*
G01Y-246D01*
X1466Y-278D02*
G01Y-276D01*
Y-248D02*
G01Y-246D01*
X1463Y-278D02*
G01Y-276D01*
Y-248D02*
G01Y-246D01*
X1459Y-278D02*
G01Y-276D01*
Y-248D02*
G01Y-246D01*
X1455Y-278D02*
G01Y-276D01*
Y-248D02*
G01Y-246D01*
X1452Y-277D02*
G01Y-274D01*
Y-250D02*
G01Y-247D01*
X1448Y-275D02*
G01Y-270D01*
Y-254D02*
G01Y-249D01*
X1444Y-271D02*
G01Y-253D01*
X1443Y-256*
Y-268*
G54D10*
X1510Y-280D02*
G01Y-274D01*
X1519*
Y-232*
X1510*
Y-226*
X1534*
Y-232*
X1525*
Y-274*
X1534*
Y-280*
X1510*
G54D11*
X1532Y-278D02*
G01Y-276D01*
Y-230D02*
G01Y-228D01*
X1529Y-278D02*
G01Y-276D01*
Y-230D02*
G01Y-228D01*
X1525Y-278D02*
G01Y-228D01*
X1521*
Y-278*
X1518D02*
G01Y-276D01*
Y-230D02*
G01Y-228D01*
X1514Y-278D02*
G01Y-276D01*
Y-230D02*
G01Y-228D01*
X1512Y-278D02*
G01Y-276D01*
Y-230D02*
G01Y-228D01*
G54D10*
X1580Y-244D02*
G01X1576D01*
X1573Y-245*
X1571Y-246*
X1568Y-248*
X1566Y-250*
X1564Y-253*
X1563Y-256*
X1562Y-259*
Y-262*
Y-265*
X1563Y-268*
X1564Y-271*
X1566Y-274*
X1568Y-276*
X1571Y-278*
X1573Y-279*
X1576Y-280*
X1580*
X1586D02*
G01X1589D01*
X1592Y-279*
X1595Y-278*
X1597Y-276*
X1600Y-274*
X1601Y-271*
X1603Y-268*
X1604Y-265*
Y-262*
Y-259*
X1603Y-256*
X1601Y-253*
X1600Y-250*
X1597Y-248*
X1595Y-246*
X1592Y-245*
X1589Y-244*
X1586*
X1580D02*
G01X1586D01*
X1580Y-280D02*
G01X1586D01*
X1580Y-250D02*
G01X1578D01*
X1576*
X1574Y-251*
X1572Y-253*
X1570Y-254*
X1569Y-256*
X1568Y-258*
Y-260*
Y-262*
Y-264*
Y-266*
X1569Y-268*
X1570Y-270*
X1572Y-271*
X1574Y-272*
X1576Y-273*
X1578Y-274*
X1580*
X1586D02*
G01X1588D01*
X1590Y-273*
X1592Y-272*
X1593Y-271*
X1595Y-270*
X1596Y-268*
X1597Y-266*
X1598Y-264*
Y-262*
Y-260*
X1597Y-258*
X1596Y-256*
X1595Y-254*
X1593Y-253*
X1592Y-251*
X1590Y-250*
X1588*
X1586*
Y-250D02*
G01X1580D01*
Y-274D02*
G01X1586D01*
G54D11*
X1573Y-278D02*
G01X1592D01*
X1597Y-274*
X1569*
X1566Y-271D02*
G01X1569D01*
X1596D02*
G01X1600D01*
X1564Y-267D02*
G01X1567D01*
X1599D02*
G01X1601D01*
X1564Y-263D02*
G01X1566D01*
X1600D02*
G01X1602D01*
X1564Y-260D02*
G01X1566D01*
X1600D02*
G01X1602D01*
X1564Y-256D02*
G01X1567D01*
X1598D02*
G01X1601D01*
X1566Y-253D02*
G01X1570D01*
X1595D02*
G01X1599D01*
X1569Y-249D02*
G01X1596D01*
X1592Y-246*
X1573*
G54D10*
X1622Y-232D02*
G01Y-226D01*
X1664*
Y-232*
X1646*
Y-280*
X1640*
Y-232*
X1622*
G54D11*
X1624Y-228D02*
G01Y-230D01*
X1628*
Y-228*
X1631*
Y-230*
X1635*
Y-228*
X1639*
Y-230*
X1642Y-278*
Y-228*
X1646*
Y-278*
X1649Y-230*
Y-228*
X1653*
Y-230*
X1657*
Y-228*
X1660*
Y-230*
X1662*
Y-228*
G54D10*
X1683Y-244D02*
G01X1693Y-280D01*
X1714D02*
G01X1725Y-244D01*
X1683D02*
G01X1689D01*
X1695Y-264*
X1701Y-244*
X1707*
X1713Y-264*
X1714Y-280D02*
G01X1711D01*
X1704Y-254*
X1693Y-280D02*
G01X1696D01*
X1704Y-254*
X1725Y-244D02*
G01X1719D01*
X1713Y-264*
G54D11*
X1685Y-246D02*
G01X1695Y-278D01*
X1697Y-273*
X1689Y-246*
X1697Y-260*
X1699Y-267*
X1701Y-260*
X1699Y-254*
X1701Y-247*
X1703Y-254*
X1714Y-278*
X1704Y-246*
X1714Y-265*
X1716Y-272*
X1717Y-265*
X1716Y-259*
X1717Y-252*
X1719Y-259*
X1721Y-252*
X1719Y-246*
X1723*
G54D10*
X1779Y-256D02*
G01Y-271D01*
X1767Y-244D02*
G01X1749D01*
X1755Y-280D02*
G01X1767D01*
X1768Y-256D02*
G01X1755D01*
X1749Y-244D02*
G01Y-250D01*
X1768*
X1774Y-256D02*
G01X1772Y-252D01*
X1768Y-250*
X1779Y-271D02*
G01X1781Y-275D01*
X1785Y-277*
Y-280D02*
G01Y-277D01*
X1768Y-274D02*
G01X1772Y-272D01*
X1774Y-268*
X1772Y-264*
X1768Y-262*
X1756D02*
G01X1752Y-264D01*
X1750Y-268*
X1752Y-272*
X1756Y-274*
Y-274D02*
G01X1768D01*
X1756Y-262D02*
G01X1768D01*
X1774Y-258D02*
G01X1772Y-257D01*
X1770Y-256*
X1768*
X1774Y-258D02*
G01Y-256D01*
X1767Y-280D02*
G01X1769D01*
X1772Y-279*
X1774Y-278*
X1776Y-277*
Y-277D02*
G01X1779Y-279D01*
X1782Y-280*
X1785*
X1755Y-256D02*
G01X1753D01*
X1751Y-257*
X1749*
X1747Y-259*
X1746Y-260*
X1745Y-262*
X1744Y-264*
X1743Y-266*
Y-268*
Y-270*
X1744Y-272*
X1745Y-274*
X1746Y-276*
X1747Y-277*
X1749Y-278*
X1751Y-279*
X1753Y-280*
X1755*
X1779Y-256D02*
G01Y-254D01*
Y-252*
X1778Y-250*
X1776Y-248*
X1775Y-247*
X1773Y-245*
X1771Y-244*
X1769*
X1767*
G54D11*
X1751Y-278D02*
G01X1772D01*
X1779D02*
G01X1783D01*
X1778Y-274D02*
G01X1747D01*
X1745Y-271D02*
G01X1749D01*
X1775D02*
G01X1777D01*
X1745Y-267D02*
G01X1748D01*
X1776D02*
G01X1777D01*
X1746Y-264D02*
G01X1750D01*
X1774D02*
G01X1777D01*
Y-260D02*
G01X1748D01*
X1754Y-256D02*
G01X1768D01*
X1776D02*
G01X1777D01*
Y-253D02*
G01X1775D01*
X1751Y-249*
X1775*
X1772Y-246*
X1751*
G54D10*
X1804Y-280D02*
G01Y-244D01*
X1840Y-256D02*
G01Y-254D01*
X1839Y-252*
X1838Y-250*
X1837Y-248*
X1835Y-247*
X1834Y-245*
X1832Y-244*
X1830*
X1828*
X1816D02*
G01X1813D01*
X1811*
X1810Y-245*
X1816Y-244D02*
G01X1828D01*
X1840Y-256D02*
G01X1834D01*
Y-256D02*
G01X1832Y-252D01*
X1828Y-250*
Y-250D02*
G01X1816D01*
Y-250D02*
G01X1811Y-252D01*
X1810Y-256*
Y-256D02*
G01Y-280D01*
X1804Y-244D02*
G01X1810D01*
Y-245*
Y-280D02*
G01X1804D01*
G54D11*
X1838Y-254D02*
G01Y-251D01*
X1834Y-248*
Y-254*
X1831Y-248*
Y-246*
X1827*
Y-248*
X1823*
Y-246*
X1820*
Y-248*
X1816*
Y-246*
X1812*
Y-249*
X1809Y-278*
Y-246*
X1806*
Y-278*
G54D10*
X1882Y-244D02*
G01X1879D01*
X1876Y-245*
X1873Y-246*
X1870Y-248*
X1868Y-250*
X1866Y-253*
X1865Y-256*
X1864Y-259*
Y-262*
Y-265*
X1865Y-268*
X1866Y-271*
X1868Y-274*
X1870Y-276*
X1873Y-278*
X1876Y-279*
X1879Y-280*
X1882*
X1906Y-262D02*
G01Y-259D01*
X1905Y-256*
X1904Y-253*
X1902Y-250*
X1900Y-248*
X1897Y-246*
X1894Y-245*
X1891Y-244*
X1888*
Y-244D02*
G01X1882D01*
G54D11*
X1894Y-246D02*
G01X1876D01*
X1871Y-249*
X1899*
X1902Y-253D02*
G01X1899D01*
X1872D02*
G01X1868D01*
X1904Y-257D02*
G01X1901D01*
X1869D02*
G01X1867D01*
X1904Y-260D02*
G01X1866D01*
Y-264*
X1904*
X1869Y-268*
X1867*
X1902Y-271D02*
G01X1898D01*
X1872D02*
G01X1869D01*
X1899Y-275D02*
G01X1871D01*
X1876Y-278*
X1894*
G54D10*
X1888Y-274D02*
G01X1890D01*
X1892Y-273*
X1894Y-272*
X1896Y-271*
X1888Y-280D02*
G01X1891D01*
X1894Y-279*
X1897Y-278*
X1900Y-276*
X1902Y-274*
X1904Y-271*
Y-271D02*
G01X1896D01*
X1882Y-280D02*
G01X1888D01*
X1882Y-274D02*
G01X1888D01*
X1900Y-259D02*
G01X1870D01*
X1882Y-250D02*
G01X1880D01*
X1878*
X1876Y-251*
X1875Y-252*
X1873Y-254*
X1872Y-255*
X1871Y-257*
X1870Y-259*
Y-265D02*
G01X1871Y-267D01*
X1872Y-269*
X1873Y-270*
X1875Y-271*
X1876Y-273*
X1878*
X1880Y-274*
X1882*
X1900Y-259D02*
G01X1899Y-257D01*
X1898Y-255*
X1897Y-254*
X1896Y-252*
X1894Y-251*
X1892Y-250*
X1890*
X1888*
X1906Y-265D02*
G01Y-262D01*
Y-265D02*
G01X1870D01*
X1882Y-250D02*
G01X1888D01*
X2027Y-253D02*
G01X2025Y-246D01*
X2018Y-244*
Y-244D02*
G01X1996D01*
X2017Y-280D02*
G01X1994D01*
X1985Y-271D02*
G01X1988Y-277D01*
X1994Y-280*
X2017Y-259D02*
G01X1996D01*
Y-265D02*
G01X2018D01*
Y-274D02*
G01X1994D01*
X1985Y-271D02*
G01X1991D01*
X1996Y-250D02*
G01X2018D01*
X2027Y-253D02*
G01X2021D01*
Y-253D02*
G01X2020Y-251D01*
X2018Y-250*
X1996Y-244D02*
G01X1994D01*
X1992*
X1990Y-245*
X1989Y-246*
X1987Y-247*
X1986Y-249*
Y-251*
X1985Y-252*
Y-254*
Y-256*
X1986Y-258*
Y-260*
X1987Y-261*
X1989Y-262*
X1990Y-263*
X1992Y-264*
X1994Y-265*
X1996*
Y-250D02*
G01X1992Y-251D01*
X1991Y-254*
X1992Y-257*
X1996Y-259*
X2017Y-280D02*
G01X2019D01*
X2020Y-279*
X2022*
X2024Y-278*
X2025Y-276*
X2026Y-275*
X2027Y-273*
Y-271*
Y-269*
Y-268*
Y-266*
X2026Y-264*
X2025Y-263*
X2024Y-261*
X2022Y-260*
X2020Y-259*
X2019*
X2017*
X2018Y-274D02*
G01X2021Y-273D01*
X2023Y-269*
X2021Y-266*
X2018Y-265*
X1991Y-271D02*
G01X1992Y-273D01*
X1994Y-274*
G54D11*
X2022Y-246D02*
G01X1991D01*
X1988Y-249*
X2025*
X1989Y-253*
X1987*
Y-257*
X1990*
X2020Y-260*
X1989*
X1993Y-264*
X2024*
X2025Y-268*
X2024*
X2025Y-271D02*
G01X2024D01*
X1989D02*
G01X1987D01*
X2024Y-275D02*
G01X1988D01*
X1990Y-278*
X2021*
G54D10*
X2052Y-248D02*
G01Y-226D01*
X2064Y-244D02*
G01X2060D01*
X2057Y-245*
X2054Y-246*
X2052Y-248*
X2082Y-262D02*
G01Y-259D01*
X2081Y-256*
X2079Y-253*
X2078Y-250*
X2075Y-248*
X2073Y-246*
X2070Y-245*
X2067Y-244*
X2064*
X2082Y-262D02*
G01Y-280D01*
X2046Y-226D02*
G01X2052D01*
X2082Y-280D02*
G01X2076D01*
Y-259*
X2046Y-226D02*
G01Y-280D01*
X2052*
X2076Y-259D02*
G01X2075Y-257D01*
X2074Y-255*
X2073Y-253*
X2071Y-252*
X2069Y-251*
X2067Y-250*
X2065*
X2063*
X2060*
X2058Y-251*
X2056Y-252*
X2055Y-253*
X2053Y-255*
X2052Y-257*
Y-259*
Y-259D02*
G01Y-280D01*
G54D11*
X2048Y-228D02*
G01Y-278D01*
X2051*
Y-228*
X2055Y-248*
Y-251*
X2058Y-249*
Y-246*
X2062*
Y-248*
X2066*
Y-246*
X2069Y-247*
Y-249*
X2073Y-252*
Y-248*
X2077Y-251*
Y-278*
X2080*
Y-256*
G54D10*
X2115Y-244D02*
G01X2127D01*
X2121Y-229D02*
G01X2122Y-231D01*
X2124Y-232*
X2126Y-231*
X2127Y-229*
X2126Y-226*
X2124*
X2122*
X2121Y-229*
X2115Y-244D02*
G01Y-250D01*
X2121*
Y-274*
X2115*
Y-280*
X2133*
Y-274*
X2127*
Y-244*
G54D11*
X2131Y-278D02*
G01Y-276D01*
X2128*
Y-278*
X2124D02*
G01Y-246D01*
Y-230D02*
G01Y-228D01*
X2120Y-278D02*
G01Y-276D01*
Y-248D02*
G01Y-246D01*
X2117Y-278D02*
G01Y-276D01*
Y-248D02*
G01Y-246D01*
G54D10*
X2185Y-244D02*
G01X2181D01*
X2178Y-245*
X2176Y-246*
X2173Y-248*
X2171Y-250*
X2169Y-253*
X2168Y-256*
X2167Y-259*
Y-262*
Y-265*
X2168Y-268*
X2169Y-271*
X2171Y-274*
X2173Y-276*
X2176Y-278*
X2178Y-279*
X2181Y-280*
X2185*
X2209Y-262D02*
G01Y-259D01*
X2208Y-256*
X2206Y-253*
X2205Y-250*
X2202Y-248*
X2200Y-246*
X2197Y-245*
X2194Y-244*
X2191*
Y-244D02*
G01X2185D01*
G54D11*
X2197Y-246D02*
G01X2178D01*
X2174Y-249*
X2202*
X2205Y-253D02*
G01X2201D01*
X2174D02*
G01X2171D01*
X2206Y-257D02*
G01X2204D01*
X2172D02*
G01X2169D01*
X2207Y-260D02*
G01X2169D01*
Y-264*
X2207*
X2172Y-268*
X2169*
X2204Y-271D02*
G01X2200D01*
X2175D02*
G01X2171D01*
X2201Y-275D02*
G01X2174D01*
X2178Y-278*
X2197*
G54D10*
X2191Y-274D02*
G01X2193D01*
X2195Y-273*
X2197Y-272*
X2198Y-271*
X2191Y-280D02*
G01X2194D01*
X2197Y-279*
X2200Y-278*
X2202Y-276*
X2204Y-274*
X2206Y-271*
X2198*
X2185Y-280D02*
G01X2191D01*
X2185Y-274D02*
G01X2191D01*
X2202Y-259D02*
G01X2173D01*
X2185Y-250D02*
G01X2183D01*
X2181*
X2179Y-251*
X2177Y-252*
X2176Y-254*
X2174Y-255*
Y-257*
X2173Y-259*
Y-265D02*
G01X2174Y-267D01*
Y-269*
X2176Y-270*
X2177Y-271*
X2179Y-273*
X2181*
X2183Y-274*
X2185*
X2202Y-259D02*
G01Y-257D01*
X2201Y-255*
X2200Y-254*
X2198Y-252*
X2196Y-251*
X2195Y-250*
X2193*
X2191*
X2209Y-265D02*
G01Y-262D01*
Y-265D02*
G01X2173D01*
X2185Y-250D02*
G01X2191D01*
X2248Y-226D02*
G01X2242D01*
Y-274D02*
G01X2236D01*
Y-280*
X2254*
Y-274*
X2248*
Y-226*
X2236*
Y-232*
X2242*
Y-274*
G54D11*
X2252Y-278D02*
G01Y-276D01*
X2249*
Y-278*
X2245*
Y-228*
X2241Y-278D02*
G01Y-276D01*
Y-230D02*
G01Y-228D01*
X2238Y-278D02*
G01Y-276D01*
Y-230D02*
G01Y-228D01*
G54D10*
X2306Y-244D02*
G01X2302D01*
X2299Y-245*
X2297Y-246*
X2294Y-248*
X2292Y-250*
X2290Y-253*
X2289Y-256*
X2288Y-259*
Y-262*
Y-265*
X2289Y-268*
X2290Y-271*
X2292Y-274*
X2294Y-276*
X2297Y-278*
X2299Y-279*
X2302Y-280*
X2306*
Y-244D02*
G01X2312D01*
X2306Y-280D02*
G01X2313D01*
X2330D02*
G01Y-226D01*
Y-280D02*
G01X2324D01*
Y-226D02*
G01X2330D01*
X2312Y-274D02*
G01X2314D01*
X2316Y-273*
X2318Y-272*
X2319Y-271*
X2321Y-270*
X2322Y-268*
X2323Y-266*
X2324Y-264*
Y-262*
Y-260*
X2323Y-258*
X2322Y-256*
X2321Y-254*
X2319Y-253*
X2318Y-251*
X2316Y-250*
X2314*
X2312*
X2306D02*
G01X2304D01*
X2302*
X2300Y-251*
X2298Y-253*
X2296Y-254*
X2295Y-256*
X2294Y-258*
Y-260*
Y-262*
Y-264*
Y-266*
X2295Y-268*
X2296Y-270*
X2298Y-271*
X2300Y-272*
X2302Y-273*
X2304Y-274*
X2306*
X2312Y-250D02*
G01X2306D01*
Y-274D02*
G01X2312D01*
X2313Y-280D02*
G01X2316D01*
X2319Y-279*
X2321Y-277*
X2324Y-276*
Y-248D02*
G01X2321Y-246D01*
X2318Y-245*
X2315Y-244*
X2312*
X2324Y-275D02*
G01Y-280D01*
Y-248D02*
G01Y-226D01*
G54D11*
X2328Y-278D02*
G01Y-228D01*
X2324*
Y-278*
X2321Y-276D02*
G01Y-272D01*
Y-252D02*
G01Y-248D01*
X2317Y-277D02*
G01Y-275D01*
Y-249D02*
G01Y-246D01*
X2313Y-278D02*
G01Y-276D01*
Y-248D02*
G01Y-246D01*
X2310Y-278D02*
G01Y-276D01*
Y-248D02*
G01Y-246D01*
X2306Y-278D02*
G01Y-276D01*
Y-248D02*
G01Y-246D01*
X2302Y-278D02*
G01Y-276D01*
Y-248D02*
G01Y-246D01*
X2299Y-277D02*
G01Y-274D01*
Y-250D02*
G01Y-247D01*
X2295Y-275D02*
G01Y-270D01*
Y-254D02*
G01Y-249D01*
X2291Y-271D02*
G01Y-253D01*
X2290Y-256*
Y-268*
G54D10*
X1945Y365D02*
G01X1985D01*
X2000Y220D02*
G01Y350D01*
X1985Y365*
Y205D02*
G01X2000Y220D01*
X1810Y205D02*
G01X1985D01*
X1770Y165D02*
G01X1810Y205D01*
X1770Y140D02*
G01Y165D01*
X1885Y425D02*
G01Y535D01*
Y415D02*
G01Y425D01*
Y415D02*
G01Y425D01*
X1705Y515D02*
G01X1725Y535D01*
X1705Y465D02*
G01Y515D01*
Y445D02*
G01Y465D01*
Y445D02*
G01Y465D01*
G54D22*
X1720Y365D02*
G01X1770D01*
X1695Y340D02*
G01X1720Y365D01*
X1695Y165D02*
G01Y340D01*
X1670Y140D02*
G01X1695Y165D01*
G54D10*
X1595Y365D02*
G01X1635D01*
X1655Y345D02*
G01X1635Y365D01*
X1655Y215D02*
G01Y345D01*
X1645Y205D02*
G01X1655Y215D01*
X1595Y205D02*
G01X1645D01*
X1570Y180D02*
G01X1595Y205D01*
X1570Y140D02*
G01Y180D01*
G54D22*
X1550Y265D02*
G01X1595D01*
G54D19*
X1870Y1006D02*
G01X1917Y971D01*
X1710Y851D02*
G01Y910D01*
X1591Y883D02*
G01X1621Y932D01*
X1829Y884D02*
G01X1799Y935D01*
G54D22*
X1552Y746D02*
G01X1553Y767D01*
Y818*
X1710Y715D02*
G01Y776D01*
X1554Y675D02*
G01X1820D01*
X1866Y721*
Y819*
X2046Y870D02*
G01Y1018D01*
X2024Y1040*
X1831Y655D02*
G01X2046Y870D01*
X1560Y655D02*
G01X1831D01*
G54D10*
X1885Y535D02*
G01X1979D01*
X1725D02*
G01X1885D01*
X1979Y603D02*
G01X2006Y630D01*
X1979Y535D02*
G01Y603D01*
G54D19*
X1675Y1030D02*
G01X1680Y1035D01*
G54D21*
X1755Y1025D02*
G01X1746Y1034D01*
X1755Y1025D02*
G01X1798D01*
G54D22*
X1820Y980D02*
G01X1926Y884D01*
X1710Y1010D02*
G01Y1195D01*
X1740Y980D02*
G01X1710Y1010D01*
X1740Y980D02*
G01X1820D01*
X1982Y906D02*
G01Y933D01*
X1960Y884D02*
G01X1982Y906D01*
X1926Y884D02*
G01X1960D01*
X1550Y645D02*
G01X1560Y655D01*
X1550Y615D02*
G01Y645D01*
G54D10*
X2006Y550D02*
G01Y630D01*
X2019Y537D02*
G01X2006Y550D01*
X2019Y537D02*
G01X2177D01*
G54D19*
X1736Y1034D02*
G01Y1217D01*
G54D22*
X1814Y1400D02*
G01Y1490D01*
X2046Y1150D02*
G01X2066Y1170D01*
G54D19*
X1620Y1245D02*
G01X1591Y1297D01*
X1710Y1270D02*
G01Y1329D01*
X1801Y1246D02*
G01X1830Y1297D01*
X1866Y1180D02*
G01X1917Y1210D01*
X1890Y1090D02*
G01X1949D01*
G54D22*
X1992Y1267D02*
G01Y1418D01*
X1823Y1130D02*
G01X1798Y1155D01*
X1823Y1130D02*
G01X1906D01*
X1926Y1150*
X2046*
X1867Y1362D02*
G01Y1432D01*
X1920Y1525D02*
G01Y1790D01*
Y1525D02*
G01X2027Y1423D01*
Y1332D02*
G01Y1423D01*
X1780Y1090D02*
G01X1762Y1108D01*
X1780Y1090D02*
G01X1840D01*
X1890Y1040D02*
G01X1840Y1090D01*
X1890Y1040D02*
G01X2024D01*
Y1074*
Y1090*
X1620Y1450D02*
G01Y1790D01*
X1982Y1247D02*
G01X1992Y1267D01*
G54D18*
X2025Y1495D02*
G01X1970Y1550D01*
Y1640*
G54D22*
X2047Y1312D02*
G01X2027Y1332D01*
X2047Y1242D02*
G01Y1312D01*
X2106Y1183D02*
G01X2047Y1242D01*
X1762Y1108D02*
G01Y1184D01*
X1778Y1200*
X1820*
X1940Y1320*
G54D10*
X1739Y1081D02*
G01Y1220D01*
X1759Y1240*
X1601Y1135D02*
G01X1621Y1155D01*
G54D19*
X1600Y1090D02*
G01X1680D01*
Y1160*
Y1180*
Y1160D02*
G01Y1180D01*
Y1035D02*
G01Y1090D01*
G54D10*
X1746Y1034D02*
G01X1739Y1041D01*
Y1081*
G54D22*
X1992Y1418D02*
G01X1880Y1530D01*
Y1547*
G54D10*
X1553Y1362D02*
G01Y1558D01*
G54D22*
X1620Y1380D02*
G01Y1450D01*
X1660Y1340D02*
G01X1620Y1380D01*
X1660Y1245D02*
G01Y1340D01*
X1710Y1195D02*
G01X1660Y1245D01*
X2072Y1541D02*
G01X2037Y1576D01*
G54D19*
X1670Y1180D02*
G01X1680D01*
X1670Y1035D02*
G01Y1180D01*
Y1035D02*
G01X1680D01*
X1600Y1090D02*
G01Y1100D01*
X1650*
X1665Y1115*
Y1180*
X1680*
X1660Y1090D02*
G01X1650Y1100D01*
X1660Y1065D02*
G01Y1090D01*
X1670Y1055D02*
G01X1660Y1065D01*
X1670Y1035D02*
G01Y1055D01*
G54D10*
X1736Y1034D02*
G01X1746D01*
X1736Y1217D02*
G01X1739Y1220D01*
G54D22*
X1655Y1514D02*
G01Y1564D01*
X1710Y1459D02*
G01X1655Y1514D01*
X1710Y1404D02*
G01Y1459D01*
G54D21*
X1759Y1480D02*
G01X1706Y1533D01*
G54D10*
X1759Y1240D02*
G01Y1480D01*
G54D22*
X1940Y1435D02*
G01X1800Y1575D01*
X1940Y1320D02*
G01Y1435D01*
X1706Y1533D02*
G01X1696Y1543D01*
G54D21*
X1779Y1460D02*
G01X1759Y1480D01*
X1779Y1390D02*
G01Y1460D01*
X1706Y1533D02*
G01X1756D01*
X1799Y1490D02*
G01X1756Y1533D01*
X1799Y1420D02*
G01Y1490D01*
X1779Y1400D02*
G01X1799Y1420D01*
X1779Y1390D02*
G01Y1400D01*
G54D22*
Y1390D02*
G01X1794Y1380D01*
X1759Y1345D02*
G01X1794Y1380D01*
X1759Y1240D02*
G01Y1345D01*
X1794Y1380D02*
G01X1814Y1400D01*
X1799Y1490D02*
G01X1814D01*
X1759Y1345D02*
G01Y1355D01*
X1779Y1375*
Y1390*
X1759Y1355D02*
G01Y1365D01*
X1779Y1385*
Y1390*
G54D18*
X1970Y1550D02*
G01Y1605D01*
Y1640D02*
G01X2005D01*
G54D10*
X1970Y1840D02*
G01Y2040D01*
X1870Y1840D02*
G01Y2040D01*
X1770Y1840D02*
G01Y2040D01*
X1670Y1840D02*
G01Y2040D01*
G54D22*
X1920Y1790D02*
G01X1870Y1840D01*
X1720Y1790D02*
G01X1670Y1840D01*
X1720Y1600D02*
G01Y1790D01*
X1620D02*
G01X1570Y1840D01*
X1970Y2040D02*
G01X2090D01*
X1820Y1790D02*
G01X1770Y1840D01*
X1870Y1547D02*
G01X1880D01*
X1870D02*
G01X1820Y1597D01*
Y1790*
G54D10*
X1570Y1840D02*
G01Y2040D01*
G54D22*
X1745Y1575D02*
G01X1720Y1600D01*
X1745Y1575D02*
G01X1800D01*
X1696Y1543D02*
G01Y1614D01*
X1670Y1640*
G54D18*
X2005D02*
G01X2090D01*
X2050Y1880D02*
G01X2090D01*
X2050Y1690D02*
G01Y1880D01*
X2000Y1640D02*
G01X2050Y1690D01*
X1970Y1640D02*
G01X2000D01*
X1970Y1605D02*
G01X2005Y1640D01*
G54D10*
X1725Y-160D02*
G01Y-85D01*
X1769Y-160*
Y-85*
X1831Y-151D02*
G01X1822Y-160D01*
X1797*
X1788Y-151*
Y-94*
X1797Y-85*
X1822*
X1831Y-94*
X1866Y-160D02*
G01X1878D01*
X1872D02*
G01Y-85D01*
X1866Y-91*
X1913Y-94D02*
G01X1922Y-85D01*
X1947*
X1956Y-94*
Y-113*
X1947Y-123*
X1925*
X1947D02*
G01X1956Y-132D01*
Y-151*
X1947Y-160*
X1922*
X1913Y-151*
X1975Y-94D02*
G01X1984Y-85D01*
X2009*
X2019Y-94*
Y-113*
X2009Y-123*
X1988*
X2009D02*
G01X2019Y-132D01*
Y-151*
X2009Y-160*
X1984*
X1975Y-151*
X2038Y-94D02*
G01X2047Y-85D01*
X2072*
X2081Y-94*
Y-113*
X2072Y-123*
X2050*
X2072D02*
G01X2081Y-132D01*
Y-151*
X2072Y-160*
X2047*
X2038Y-151*
G54D23*
X2545Y140D02*
G01X2645D01*
X2445D02*
G01X2545D01*
X2345D02*
G01X2445D01*
X2245D02*
G01X2345D01*
X2145D02*
G01X2245D01*
X2545Y240D02*
G01X2645D01*
X2445D02*
G01X2545D01*
X2345D02*
G01X2445D01*
X2245D02*
G01X2345D01*
X2145D02*
G01X2245D01*
G54D18*
X2095Y140D02*
G01X2145D01*
X2095D02*
G01X2075Y160D01*
Y445*
X2089Y459*
X2177Y537*
Y687*
G54D22*
X2076Y620D02*
G01X2066Y630D01*
X2514Y852D02*
G01X2570D01*
X2514Y765D02*
G01X2560D01*
X2285Y740D02*
G01Y830D01*
X2375Y630D02*
G01Y665D01*
G54D18*
X2540Y560D02*
G01X2610D01*
G54D22*
X2066Y630D02*
G01Y1100D01*
X2570Y755D02*
G01X2560Y765D01*
X2310Y565D02*
G01X2375Y630D01*
X2255Y565D02*
G01X2310D01*
X2530Y975D02*
G01Y1270D01*
X2255Y565D02*
G01X2230Y595D01*
Y885*
X2510Y985D02*
G01Y1235D01*
X2285Y607D02*
G01Y665D01*
X2450Y762D02*
G01X2453Y765D01*
X2514*
X2550Y960D02*
G01Y1275D01*
G54D21*
X2360Y875D02*
G01X2380Y895D01*
X2360Y830D02*
G01Y875D01*
G54D22*
X2510Y673D02*
G01Y703D01*
X2502Y665D02*
G01X2510Y673D01*
X2450Y665D02*
G01X2502D01*
X2540Y635D02*
G01X2510Y665D01*
X2502D02*
G01X2510D01*
X2540Y635D02*
G01X2510Y665D01*
Y673*
X2495Y940D02*
G01X2530Y975D01*
X2330Y940D02*
G01X2495D01*
X2285Y895D02*
G01X2330Y940D01*
X2285Y830D02*
G01Y895D01*
X2485Y960D02*
G01X2510Y985D01*
X2305Y960D02*
G01X2485D01*
X2230Y885D02*
G01X2305Y960D01*
X2450Y860D02*
G01X2550Y960D01*
X2450Y837D02*
G01Y860D01*
X2110Y779D02*
G01X2086Y803D01*
Y1080*
G54D18*
X2177Y687D02*
G01Y922D01*
X2195Y940*
Y1035*
G54D21*
X2180Y1050D02*
G01X2195Y1035D01*
Y940D02*
G01X2180Y955D01*
Y1050*
X2121Y1018D02*
G01X2153Y1050D01*
X2121Y1018D02*
G01X2141D01*
X2177Y982*
Y922D02*
G01Y982D01*
X2415Y1345D02*
G01Y1465D01*
G54D22*
X2280Y1490D02*
G01Y1845D01*
X2270Y1035D02*
G01X2375D01*
X2240Y1450D02*
G01X2280Y1490D01*
X2140Y1450D02*
G01X2240D01*
X2120Y1430D02*
G01X2140Y1450D01*
X2120Y1270D02*
G01Y1430D01*
G54D21*
X2200Y1385D02*
G01X2280D01*
G54D22*
X2106Y1140D02*
G01Y1183D01*
X2066Y1100D02*
G01X2106Y1140D01*
X2126Y1193D02*
G01X2072Y1247D01*
X2126Y1120D02*
G01Y1193D01*
X2086Y1080D02*
G01X2126Y1120D01*
G54D21*
X2400Y1330D02*
G01X2415Y1345D01*
G54D22*
X2530Y1270D02*
G01X2485Y1315D01*
Y1585*
G54D21*
X2415Y1465D02*
G01Y1495D01*
X2435Y1515*
Y1615*
G54D22*
X2072Y1247D02*
G01Y1541D01*
X2510Y1235D02*
G01X2485Y1260D01*
X2450D02*
G01X2485D01*
X2450Y1035D02*
G01Y1097D01*
X2430Y1117*
X2370D02*
G01X2430D01*
X2550Y1275D02*
G01X2565Y1290D01*
X2660*
X2565D02*
G01X2550Y1305D01*
Y1275D02*
G01Y1305D01*
X2520Y1335*
Y1430*
Y1500D02*
G01X2540D01*
X2555Y1485D02*
G01X2540Y1500D01*
X2555Y1405D02*
G01Y1485D01*
X2570Y1390D02*
G01X2555Y1405D01*
G54D21*
X2180Y1365D02*
G01X2200Y1385D01*
X2180Y1050D02*
G01Y1365D01*
X2153Y1050D02*
G01X2180D01*
X2280Y1385D02*
G01X2335Y1440D01*
Y1465*
G54D10*
X2195Y1515D02*
G01X2235D01*
X2255Y1535*
Y1920*
G54D22*
X2395Y1880D02*
G01X2415Y1900D01*
Y1940D02*
G01Y2040D01*
Y1900D02*
G01Y1940D01*
X2360Y1615D02*
G01X2335Y1640D01*
Y1715*
X2090Y1965D02*
G01X2115Y1990D01*
X2275*
X2325Y1940D02*
G01X2275Y1990D01*
X2325Y1940D02*
G01X2340D01*
X2280Y1845D02*
G01X2315Y1880D01*
X2395*
X2485Y1585D02*
G01X2515Y1615D01*
G54D23*
X2195D02*
G01Y1740D01*
G54D21*
X2315Y2040D02*
G01Y2090D01*
X2435Y1615D02*
G01Y1715D01*
X2585*
G54D10*
X2435Y1790D02*
G01X2515D01*
X2565Y1840*
X2610*
X2335Y1790D02*
G01Y1815D01*
X2360Y1840*
X2510*
X2560Y1890*
X2660*
G54D21*
X2510Y1740D02*
G01X2610D01*
X2485Y1715D02*
G01X2510Y1740D01*
X2435Y1715D02*
G01X2485D01*
G54D18*
X2090Y1640D02*
G01Y1880D01*
G54D10*
X2255Y1920D02*
G01X2265Y1930D01*
G54D18*
X2090Y1880D02*
G01X2110D01*
Y1640D02*
G01Y1880D01*
X2090Y1640D02*
G01X2110D01*
X2090Y1880D02*
G01X2200D01*
Y1840D02*
G01Y1880D01*
X2150Y1840D02*
G01X2200D01*
X2110Y1800D02*
G01X2150Y1840D01*
X2110Y1640D02*
G01Y1800D01*
G54D10*
X2115Y2321D02*
G01X2124Y2330D01*
X2149*
X2159Y2321*
Y2311*
X2115Y2255D02*
G01X2159D01*
X2115Y2268D02*
G01X2159Y2311D01*
X2115Y2268D02*
G01Y2255D01*
X2187Y2330D02*
G01X2212D01*
X2221Y2321*
Y2302*
X2212Y2293*
X2187*
X2178Y2283*
Y2264*
X2187Y2255*
X2212*
X2221Y2264*
Y2283*
X2212Y2293*
X2187D02*
G01X2178Y2302D01*
Y2321*
X2187Y2330*
X2303Y2264D02*
G01X2312Y2255D01*
X2337*
X2346Y2264*
Y2283*
X2337Y2293*
X2312*
X2303Y2302*
Y2321*
X2312Y2330*
X2337*
X2346Y2321*
X2409Y2255D02*
G01X2365D01*
Y2330*
X2409*
X2365Y2293D02*
G01X2403D01*
X2428Y2255D02*
G01Y2330D01*
X2462*
X2471Y2321*
Y2299*
X2462Y2293*
X2428*
X2512Y2255D02*
G01Y2330D01*
X2490D02*
G01X2534D01*
X2615Y2321D02*
G01X2624Y2330D01*
X2649*
X2659Y2321*
Y2311*
X2615Y2255D02*
G01X2659D01*
X2615Y2268D02*
G01X2659Y2311D01*
X2615Y2268D02*
G01Y2255D01*
X2678Y2264D02*
G01Y2321D01*
X2687Y2330*
X2712*
X2721Y2321*
Y2264*
X2712Y2255*
X2687*
X2678Y2264*
X2756Y2255D02*
G01X2768D01*
X2762D02*
G01Y2330D01*
X2756Y2324*
X2846Y2321D02*
G01X2837Y2330D01*
X2812*
X2803Y2321*
Y2264*
X2812Y2255*
X2837*
X2846Y2264*
Y2289*
X2837Y2299*
X2812*
X2803Y2289*
G54D21*
X2315Y2090D02*
G01X2295Y2110D01*
X2315Y2090D02*
G01X2335Y2110D01*
X2295D02*
G01X2335D01*
X2680*
G54D10*
X2165Y-160D02*
G01Y-85D01*
X2209Y-160*
Y-85*
X2271Y-151D02*
G01X2262Y-160D01*
X2237*
X2228Y-151*
Y-94*
X2237Y-85*
X2262*
X2271Y-94*
X2306Y-160D02*
G01X2318D01*
X2312D02*
G01Y-85D01*
X2306Y-91*
X2353Y-94D02*
G01X2362Y-85D01*
X2387*
X2396Y-94*
Y-113*
X2387Y-123*
X2365*
X2387D02*
G01X2396Y-132D01*
Y-151*
X2387Y-160*
X2362*
X2353Y-151*
X2415D02*
G01X2424Y-160D01*
X2449*
X2459Y-151*
Y-126*
X2449Y-116*
X2415*
Y-85*
X2459*
X2478Y-94D02*
G01X2487Y-85D01*
X2512*
X2521Y-94*
Y-113*
X2512Y-123*
X2490*
X2512D02*
G01X2521Y-132D01*
Y-151*
X2512Y-160*
X2487*
X2478Y-151*
X2397Y-280D02*
G01X2407D01*
X2424Y-224*
X2416*
X2402Y-271*
X2397Y-280D02*
G01X2380Y-224D01*
X2388*
X2402Y-271*
G54D11*
X2405Y-278D02*
G01X2421Y-226D01*
X2417*
X2401Y-278*
X2398*
X2400Y-269*
X2398Y-263*
X2396Y-271*
X2394Y-265*
X2396Y-256*
X2395Y-250*
X2392Y-259*
X2390Y-253*
X2393Y-244*
X2391Y-238*
X2388Y-246*
X2386Y-240*
X2389Y-231*
X2387Y-226*
X2384Y-234*
X2382Y-228*
X2383Y-226*
X2382Y-225*
G54D10*
X2461Y-243D02*
G01X2458D01*
X2455Y-244*
X2452Y-245*
X2449Y-247*
X2447Y-249*
X2445Y-252*
X2444Y-255*
X2443Y-258*
Y-261*
Y-265*
X2444Y-268*
X2445Y-271*
X2447Y-273*
X2449Y-276*
X2452Y-277*
X2455Y-279*
X2458Y-280*
X2461*
X2486Y-261D02*
G01Y-258D01*
X2485Y-255*
X2484Y-252*
X2482Y-249*
X2480Y-247*
X2477Y-245*
X2474Y-244*
X2471Y-243*
X2468*
Y-243D02*
G01X2461D01*
G54D11*
X2474Y-245D02*
G01X2455D01*
X2450Y-248*
X2479*
X2482Y-252D02*
G01X2478D01*
X2451D02*
G01X2447D01*
X2483Y-255D02*
G01X2481D01*
X2448D02*
G01X2445D01*
X2484Y-259D02*
G01X2445D01*
Y-263*
X2484*
X2448Y-266*
X2445*
X2447Y-270*
X2450*
X2480Y-274D02*
G01X2471D01*
X2457D02*
G01X2449D01*
X2453Y-277D02*
G01X2475D01*
X2474Y-278*
X2455*
G54D10*
X2468Y-274D02*
G01X2470D01*
X2472Y-273*
X2474Y-272*
X2475Y-271*
X2468Y-280D02*
G01X2471D01*
X2474Y-279*
X2477Y-278*
X2479Y-276*
X2482Y-273*
X2484Y-271*
Y-271D02*
G01X2475D01*
X2461Y-280D02*
G01X2468D01*
X2461Y-274D02*
G01X2467D01*
X2480Y-258D02*
G01X2449D01*
X2461Y-249D02*
G01X2459D01*
X2457*
X2455Y-250*
X2454Y-251*
X2452Y-253*
X2451Y-254*
X2450Y-256*
X2449Y-258*
Y-264D02*
G01X2450Y-266D01*
X2451Y-268*
X2452Y-270*
X2454Y-271*
X2455Y-272*
X2457Y-273*
X2459Y-274*
X2461*
X2480Y-258D02*
G01X2479Y-256D01*
X2478Y-254*
X2477Y-253*
X2475Y-251*
X2473Y-250*
X2472Y-249*
X2470*
X2468*
X2486Y-264D02*
G01Y-261D01*
Y-264D02*
G01X2449D01*
X2461Y-249D02*
G01X2468D01*
X2467Y-274D02*
G01X2468D01*
X2505Y-280D02*
G01Y-243D01*
X2543Y-255D02*
G01X2542Y-253D01*
Y-251*
X2541Y-249*
X2540Y-247*
X2538Y-245*
X2536Y-244*
X2534Y-243*
X2532*
X2530*
X2518D02*
G01X2515D01*
X2513*
X2511Y-244*
X2518Y-243D02*
G01X2530D01*
X2543Y-255D02*
G01X2536D01*
Y-255D02*
G01X2534Y-251D01*
X2530Y-249*
Y-249D02*
G01X2518D01*
Y-249D02*
G01X2513Y-251D01*
X2511Y-255*
Y-280*
X2505Y-243D02*
G01X2511D01*
Y-244*
Y-280D02*
G01X2505D01*
G54D11*
X2541Y-253D02*
G01Y-250D01*
X2537Y-247*
Y-253*
X2533Y-248*
Y-245*
X2530*
Y-247*
X2526*
Y-245*
X2522*
Y-247*
X2519*
Y-245*
X2515*
Y-247*
X2511Y-252*
Y-246*
X2508Y-245*
Y-278*
X2507*
Y-245*
G54D10*
X2589Y-274D02*
G01X2587Y-275D01*
X2586Y-277*
X2587Y-279*
X2589Y-280*
X2592Y-279*
X2593Y-277*
X2592Y-275*
X2589Y-274*
Y-255D02*
G01X2587Y-256D01*
X2586Y-258*
X2587Y-260*
X2589Y-261*
X2592Y-260*
X2593Y-258*
X2592Y-256*
X2589Y-255*
G54D11*
X2588Y-278D02*
G01X2590D01*
Y-274*
Y-260D02*
G01X2589D01*
X2588Y-257*
X2590*
G54D10*
X2649Y-232D02*
G01Y-274D01*
X2639*
Y-280*
X2661*
Y-274*
X2655*
Y-224*
X2649*
X2639Y-236*
X2646*
X2649Y-232*
G54D11*
X2659Y-278D02*
G01Y-276D01*
X2656*
Y-278*
X2652*
Y-226*
X2648Y-278D02*
G01Y-276D01*
Y-230D02*
G01Y-226D01*
X2645Y-278D02*
G01Y-276D01*
Y-234D02*
G01Y-231D01*
X2641Y-278D02*
G01Y-276D01*
G54D10*
X2705Y-274D02*
G01X2703Y-275D01*
X2702Y-277*
X2703Y-279*
X2705Y-280*
X2707Y-279*
X2708Y-277*
X2707Y-275*
X2705Y-274*
G54D11*
X2704Y-278D02*
G01X2706D01*
Y-276*
X2704*
G54D10*
X2799Y-246D02*
G01X2798Y-242D01*
X2797Y-238*
X2796Y-235*
X2794Y-232*
X2791Y-229*
X2788Y-227*
X2784Y-225*
X2781Y-224*
X2777*
X2773*
X2769Y-225*
X2766Y-227*
X2763Y-229*
X2760Y-232*
X2758Y-235*
X2756Y-238*
X2755Y-242*
Y-246*
Y-246D02*
G01Y-258D01*
Y-258D02*
G01Y-262D01*
X2756Y-266*
X2758Y-269*
X2760Y-272*
X2763Y-275*
X2766Y-277*
X2769Y-279*
X2773Y-280*
X2777*
X2781*
X2784Y-279*
X2788Y-277*
X2791Y-275*
X2794Y-272*
X2796Y-269*
X2797Y-266*
X2798Y-262*
X2799Y-258*
Y-258D02*
G01Y-246D01*
X2761D02*
G01Y-258D01*
X2793Y-246D02*
G01Y-258D01*
X2761D02*
G01Y-261D01*
X2762Y-263*
X2763Y-266*
X2765Y-268*
X2767Y-270*
X2769Y-272*
X2772Y-273*
X2774Y-274*
X2777*
X2780*
X2782Y-273*
X2785Y-272*
X2787Y-270*
X2789Y-268*
X2790Y-266*
X2792Y-263*
Y-261*
X2793Y-258*
Y-246D02*
G01X2792Y-243D01*
Y-240*
X2790Y-238*
X2789Y-236*
X2787Y-234*
X2785Y-232*
X2782Y-231*
X2780Y-230*
X2777*
X2774*
X2772Y-231*
X2769Y-232*
X2767Y-234*
X2765Y-236*
X2763Y-238*
X2762Y-240*
X2761Y-243*
Y-246*
G54D11*
X2757Y-238D02*
G01Y-265D01*
X2761Y-271*
Y-233*
X2764Y-230D02*
G01Y-234D01*
Y-269D02*
G01Y-274D01*
X2768Y-228D02*
G01Y-231D01*
Y-273D02*
G01Y-276D01*
X2772Y-226D02*
G01Y-229D01*
Y-275D02*
G01Y-277D01*
X2775Y-226D02*
G01Y-228D01*
Y-276D02*
G01Y-278D01*
X2779Y-226D02*
G01Y-228D01*
Y-276D02*
G01Y-278D01*
X2782Y-226D02*
G01Y-229D01*
Y-275D02*
G01Y-277D01*
X2786Y-228D02*
G01Y-231D01*
Y-273D02*
G01Y-276D01*
X2790Y-230D02*
G01Y-235D01*
Y-269D02*
G01Y-274D01*
X2793Y-233D02*
G01Y-271D01*
X2797Y-265*
Y-238*
G54D10*
X2880Y0D02*
G01Y2180D01*
G54D22*
X2785Y490D02*
G01Y1815D01*
X2590Y460D02*
G01X2755D01*
X2785Y490*
G54D17*
X2625Y70D02*
G01X2645Y90D01*
Y140*
G54D18*
Y755D02*
G01Y852D01*
Y927*
G54D22*
X2570Y852D02*
G01Y1052D01*
G54D18*
X2610Y560D02*
G01X2645Y595D01*
Y755*
G54D22*
X2610Y997D02*
G01Y1022D01*
X2660Y1072*
X2570Y1052D02*
G01X2585Y1067D01*
G54D18*
X2610Y1440D02*
G01Y1615D01*
X2710Y1440D02*
G01Y1620D01*
G54D22*
Y1240D02*
G01X2660Y1290D01*
X2570Y1390D02*
G01X2750D01*
X2660Y1190D02*
G01X2610Y1240D01*
X2760Y1380D02*
G01X2750Y1390D01*
X2760Y1160D02*
G01Y1380D01*
X2740Y1140D02*
G01X2760Y1160D01*
X2710Y1140D02*
G01X2740D01*
G54D18*
X2730Y1440D02*
G01Y1600D01*
X2710Y1440D02*
G01X2730D01*
G54D22*
X2660Y1072D02*
G01Y1190D01*
G54D21*
X2710Y2040D02*
G01Y2080D01*
X2585Y1715D02*
G01X2610Y1740D01*
G54D10*
X2660Y1890D02*
G01X2710Y1940D01*
G54D22*
Y1840D02*
G01X2760D01*
X2785Y1815D02*
G01X2760Y1840D01*
G54D18*
X2610Y1720D02*
G01Y1740D01*
X2710Y1620D02*
G01X2610Y1720D01*
X2730Y1600D02*
G01X2710Y1620D01*
X2730Y1600D02*
G01Y1650D01*
X2700D02*
G01X2730D01*
X2710Y1620D02*
G01X2700Y1650D01*
G54D21*
X2710Y2080D02*
G01X2680Y2110D01*
G54D10*
X2565Y-160D02*
G01Y-85D01*
X2609Y-160*
Y-85*
X2671Y-151D02*
G01X2662Y-160D01*
X2637*
X2628Y-151*
Y-94*
X2637Y-85*
X2662*
X2671Y-94*
X2706Y-160D02*
G01X2718D01*
X2712D02*
G01Y-85D01*
X2706Y-91*
X2753Y-94D02*
G01X2762Y-85D01*
X2787*
X2796Y-94*
Y-113*
X2787Y-123*
X2765*
X2787D02*
G01X2796Y-132D01*
Y-151*
X2787Y-160*
X2762*
X2753Y-151*
X2859Y-94D02*
G01X2849Y-85D01*
X2824*
X2815Y-94*
Y-151*
X2824Y-160*
X2849*
X2859Y-151*
Y-126*
X2849Y-116*
X2824*
X2815Y-126*
X2878Y-151D02*
G01X2887Y-160D01*
X2912*
X2921Y-151*
Y-94*
X2912Y-85*
X2887*
X2878Y-94*
Y-119*
X2887Y-129*
X2912*
X2921Y-119*
M02*
